<svg 
 xmlns="http://www.w3.org/2000/svg"
 xmlns:xlink="http://www.w3.org/1999/xlink"
 width="22.5px" height="25px">
<path fill-rule="evenodd"  stroke="rgb(255, 255, 255)" stroke-width="1px" stroke-linecap="butt" stroke-linejoin="miter" fill="none"
 d="M17.000,24.000 L15.500,24.000 C15.776,24.000 16.000,23.776 16.000,23.500 L16.000,22.250 C16.000,22.112 15.888,22.000 15.750,22.000 L15.250,22.000 C15.112,22.000 15.000,22.112 15.000,22.250 L15.000,23.500 C15.000,23.776 15.224,24.000 15.500,24.000 L11.000,24.000 C11.552,24.000 12.000,23.552 12.000,23.000 L12.000,22.500 C12.000,22.224 11.776,22.000 11.500,22.000 L10.500,22.000 C10.224,22.000 10.000,22.224 10.000,22.500 L10.000,23.000 C10.000,23.552 10.448,24.000 11.000,24.000 L6.500,24.000 C6.776,24.000 7.000,23.776 7.000,23.500 L7.000,22.250 C7.000,22.112 6.888,22.000 6.750,22.000 L6.250,22.000 C6.112,22.000 6.000,22.112 6.000,22.250 L6.000,23.500 C6.000,23.776 6.224,24.000 6.500,24.000 L5.000,24.000 C2.791,24.000 1.000,22.209 1.000,20.000 L1.000,16.000 C1.000,14.895 1.895,14.000 3.000,14.000 L19.000,14.000 C20.104,14.000 21.000,14.895 21.000,16.000 L21.000,20.000 C21.000,22.209 19.209,24.000 17.000,24.000 Z"/>
<path fill-rule="evenodd"  fill="rgb(255, 255, 255)"
 d="M5.000,11.000 L6.000,11.000 L6.000,14.000 L5.000,14.000 L5.000,11.000 Z"/>
<path fill-rule="evenodd"  fill="rgb(255, 255, 255)"
 d="M16.000,11.000 L17.000,11.000 L17.000,14.000 L16.000,14.000 L16.000,11.000 Z"/>
<path fill-rule="evenodd"  fill="rgb(255, 255, 255)"
 d="M18.000,7.000 L19.000,7.000 L19.000,10.000 L18.000,10.000 L18.000,7.000 Z"/>
<path fill-rule="evenodd"  fill="rgb(255, 255, 255)"
 d="M3.000,7.000 L4.000,7.000 L4.000,10.000 L3.000,10.000 L3.000,7.000 Z"/>
<path fill-rule="evenodd"  fill="rgb(255, 255, 255)"
 d="M-0.000,-0.000 L1.000,-0.000 L1.000,6.000 L-0.000,6.000 L-0.000,-0.000 Z"/>
<path fill-rule="evenodd"  fill="rgb(255, 255, 255)"
 d="M21.000,-0.000 L22.000,-0.000 L22.000,6.000 L21.000,6.000 L21.000,-0.000 Z"/>
<path fill-rule="evenodd"  fill="rgb(255, 255, 255)"
 d="M1.000,-0.000 L21.000,-0.000 L21.000,1.000 L1.000,1.000 L1.000,-0.000 Z"/>
<path fill-rule="evenodd"  fill="rgb(255, 255, 255)"
 d="M-0.000,6.000 L22.000,6.000 L22.000,7.000 L-0.000,7.000 L-0.000,6.000 Z"/>
<path fill-rule="evenodd"  fill="rgb(255, 255, 255)"
 d="M3.000,10.000 L19.000,10.000 L19.000,11.000 L3.000,11.000 L3.000,10.000 Z"/>
<path fill-rule="evenodd"  stroke="rgb(255, 255, 255)" stroke-width="1px" stroke-linecap="butt" stroke-linejoin="miter" fill="none"
 d="M2.000,17.000 L20.000,17.000 L20.000,18.000 L2.000,18.000 L2.000,17.000 Z"/>
</svg>
