<svg width="16" height="16" viewBox="0 0 16 16" fill="none" xmlns="http://www.w3.org/2000/svg">
<rect width="16" height="16" rx="2" fill="#64C250"/>
<mask id="path-2-inside-1_3_2" fill="white">
<path fill-rule="evenodd" clip-rule="evenodd" d="M2 9L2 12C2 13.1046 2.89543 14 4 14H12C13.1046 14 14 13.1046 14 12V9H13V12C13 12.5523 12.5523 13 12 13H4C3.44772 13 3 12.5523 3 12V9H2Z"/>
</mask>
<path fill-rule="evenodd" clip-rule="evenodd" d="M2 9L2 12C2 13.1046 2.89543 14 4 14H12C13.1046 14 14 13.1046 14 12V9H13V12C13 12.5523 12.5523 13 12 13H4C3.44772 13 3 12.5523 3 12V9H2Z" fill="white"/>
<path d="M2 9V8H1V9H2ZM14 9H15V8H14V9ZM13 9V8H12V9H13ZM3 9H4V8H3L3 9ZM1 9L1 12H3V9H1ZM1 12C1 13.6569 2.34315 15 4 15V13C3.44772 13 3 12.5523 3 12H1ZM4 15H12V13H4V15ZM12 15C13.6569 15 15 13.6569 15 12H13C13 12.5523 12.5523 13 12 13V15ZM15 12V9H13V12H15ZM14 8H13V10H14V8ZM14 12V9H12V12H14ZM12 14C13.1046 14 14 13.1046 14 12H12V14ZM4 14H12V12H4V14ZM2 12C2 13.1046 2.89543 14 4 14V12H2ZM2 9L2 12H4V9H2ZM3 8H2V10H3L3 8Z" fill="white" mask="url(#path-2-inside-1_3_2)"/>
<path d="M5 7L8 10L11 7" stroke="white" stroke-linecap="round"/>
<rect x="7.75" y="9.75" width="7.5" height="0.5" transform="rotate(-90 7.75 9.75)" fill="white" stroke="white" stroke-width="0.5"/>
</svg>
