<svg 
 xmlns="http://www.w3.org/2000/svg"
 xmlns:xlink="http://www.w3.org/1999/xlink"
 width="17.5px" height="16.5px">
<path fill-rule="evenodd"  fill="rgb(255, 255, 255)"
 d="M0.500,9.500 L6.500,9.500 L6.500,10.500 L0.500,10.500 L0.500,9.500 Z"/>
<path fill-rule="evenodd"  fill="rgb(255, 255, 255)"
 d="M10.500,9.500 L16.500,9.500 L16.500,10.500 L10.500,10.500 L10.500,9.500 Z"/>
<path fill-rule="evenodd"  stroke="rgb(255, 255, 255)" stroke-width="1px" stroke-linecap="butt" stroke-linejoin="miter" fill="none"
 d="M2.500,4.500 L14.500,4.500 C15.604,4.500 16.500,5.395 16.500,6.500 L16.500,13.500 C16.500,14.605 15.604,15.500 14.500,15.500 L2.500,15.500 C1.395,15.500 0.500,14.605 0.500,13.500 L0.500,6.500 C0.500,5.395 1.395,4.500 2.500,4.500 Z"/>
<path fill-rule="evenodd"  stroke="rgb(255, 255, 255)" stroke-width="1px" stroke-linecap="butt" stroke-linejoin="miter" fill="none"
 d="M3.500,4.500 L3.500,2.500 C3.500,1.395 4.395,0.500 5.500,0.500 L11.500,0.500 C12.604,0.500 13.500,1.395 13.500,2.500 L13.500,4.500 "/>
<path fill-rule="evenodd"  stroke="rgb(255, 255, 255)" stroke-width="1px" stroke-linecap="butt" stroke-linejoin="miter" fill="none"
 d="M7.500,7.500 L9.500,7.500 C10.052,7.500 10.500,7.948 10.500,8.500 L10.500,11.500 C10.500,12.052 10.052,12.500 9.500,12.500 L7.500,12.500 C6.948,12.500 6.500,12.052 6.500,11.500 L6.500,8.500 C6.500,7.948 6.948,7.500 7.500,7.500 Z"/>
</svg>
