<svg 
 xmlns="http://www.w3.org/2000/svg"
 xmlns:xlink="http://www.w3.org/1999/xlink"
 width="26px" height="24.5px">
<path fill-rule="evenodd"  fill="rgb(255, 255, 255)"
 d="M12.000,1.000 L13.000,1.000 L13.000,5.000 L12.000,5.000 L12.000,1.000 Z"/>
<path fill-rule="evenodd"  fill="rgb(255, 255, 255)"
 d="M12.000,12.000 L13.000,12.000 L13.000,16.000 L12.000,16.000 L12.000,12.000 Z"/>
<path fill-rule="evenodd"  fill="rgb(255, 255, 255)"
 d="M12.000,15.000 L16.000,15.000 L16.000,16.000 L12.000,16.000 L12.000,15.000 Z"/>
<path fill-rule="evenodd"  fill="rgb(255, 255, 255)"
 d="M1.000,15.000 L6.000,15.000 L6.000,16.000 L1.000,16.000 L1.000,15.000 Z"/>
<path fill-rule="evenodd"  fill="rgb(255, 255, 255)"
 d="M17.000,16.000 L17.000,24.000 L16.000,24.000 L1.000,24.000 L-0.000,24.000 L-0.000,-0.000 L1.000,-0.000 L23.000,-0.000 L24.000,-0.000 L24.000,4.000 L23.000,4.000 L23.000,1.000 L1.000,1.000 L1.000,23.000 L16.000,23.000 L16.000,16.000 L16.000,15.000 L23.000,15.000 L23.000,11.000 L24.000,11.000 L24.000,15.000 L24.000,16.000 L17.000,16.000 Z"/>
<path fill-rule="evenodd"  stroke="rgb(255, 255, 255)" stroke-width="1px" stroke-linecap="round" stroke-linejoin="miter" fill="none"
 d="M23.711,7.502 C23.711,7.502 10.378,4.137 10.378,14.232 C10.378,14.232 9.404,19.942 4.224,21.000 "/>
</svg>
