<svg 
 xmlns="http://www.w3.org/2000/svg"
 xmlns:xlink="http://www.w3.org/1999/xlink"
 width="18.5px" height="17.5px">
<path fill-rule="evenodd"  stroke="rgb(255, 255, 255)" stroke-width="1px" stroke-linecap="butt" stroke-linejoin="miter" fill="none"
 d="M6.500,11.500 L2.500,11.500 C2.500,11.500 1.500,12.000 2.500,12.500 L15.500,12.500 C15.500,12.500 20.000,14.500 15.500,16.500 L4.500,16.500 "/>
<path fill-rule="evenodd"  stroke="rgb(255, 255, 255)" stroke-width="1px" stroke-linecap="butt" stroke-linejoin="miter" fill="none"
 d="M13.500,4.501 C13.500,4.504 13.498,4.734 13.440,5.099 C13.420,5.227 13.397,5.353 13.366,5.477 C13.238,6.034 12.991,6.764 12.500,7.500 C11.505,8.993 9.500,11.500 9.500,11.500 C9.500,11.500 7.506,9.009 6.500,7.500 C6.028,6.792 5.783,6.084 5.651,5.531 C5.611,5.382 5.580,5.230 5.558,5.074 C5.502,4.721 5.500,4.500 5.500,4.500 C5.500,4.500 5.500,4.500 5.500,4.500 C5.500,4.500 5.500,4.500 5.500,4.500 C5.500,4.500 5.500,4.500 5.500,4.500 L5.500,4.500 C5.500,2.291 7.291,0.500 9.500,0.500 C11.709,0.500 13.500,2.291 13.500,4.500 C13.500,4.500 13.500,4.501 13.500,4.501 Z"/>
<path fill-rule="evenodd"  stroke="rgb(255, 255, 255)" stroke-width="1px" stroke-linecap="butt" stroke-linejoin="miter" fill="none"
 d="M9.500,2.500 C10.605,2.500 11.500,3.395 11.500,4.500 C11.500,5.605 10.605,6.500 9.500,6.500 C8.395,6.500 7.500,5.605 7.500,4.500 C7.500,3.395 8.395,2.500 9.500,2.500 Z"/>
</svg>
