<?xml version="1.0" standalone="no"?><!DOCTYPE svg PUBLIC "-//W3C//DTD SVG 1.1//EN" "http://www.w3.org/Graphics/SVG/1.1/DTD/svg11.dtd"><svg t="1734589031200" class="icon" viewBox="0 0 1024 1024" version="1.1" xmlns="http://www.w3.org/2000/svg" p-id="14461" xmlns:xlink="http://www.w3.org/1999/xlink" width="16" height="16"><path d="M179.329293 545.745455c-24.436364-28.961616-26.375758-34.133333 0-65.29293L546.779798 68.39596 518.076768 41.373737c-17.971717-17.971717-47.191919-17.971717-65.29293 0L69.171717 480.452525c-17.971717 17.971717-17.971717 47.191919 0 65.29293l383.741414 438.949494c17.971717 17.971717 47.191919 17.971717 65.29293 0l25.212121-20.298989L179.329293 545.745455z m0 0" p-id="14462" fill="#ffffff"></path><path d="M601.470707 545.745455c-24.307071-28.961616-26.375758-34.133333 0-65.29293L968.921212 68.39596 940.218182 41.373737c-17.971717-17.971717-47.191919-17.971717-65.292929 0L491.442424 480.452525c-17.971717 17.971717-17.971717 47.191919 0 65.29293l383.741414 438.949494c17.971717 17.971717 47.191919 17.971717 65.29293 0l25.212121-20.298989-364.218182-418.650505z m0 0" p-id="14463" fill="#ffffff"></path></svg>