<svg 
 xmlns="http://www.w3.org/2000/svg"
 xmlns:xlink="http://www.w3.org/1999/xlink"
 width="24px" height="24px">
<path fill-rule="evenodd"  fill="rgb(255, 255, 255)"
 d="M8.000,-0.000 L9.000,-0.000 L9.000,24.000 L8.000,24.000 L8.000,-0.000 Z"/>
<path fill-rule="evenodd"  fill="rgb(255, 255, 255)"
 d="M9.000,20.000 L4.000,24.000 L9.000,24.000 L9.000,20.000 Z"/>
<path fill-rule="evenodd"  fill="rgb(255, 255, 255)"
 d="M3.000,-0.000 L4.000,-0.000 L4.000,16.000 L3.000,16.000 L3.000,-0.000 Z"/>
<path fill-rule="evenodd"  fill="rgb(255, 255, 255)"
 d="M4.000,12.000 L-0.000,16.000 L4.000,16.000 L4.000,12.000 Z"/>
<path fill-rule="evenodd"  fill="rgb(255, 255, 255)"
 d="M15.000,-0.000 L16.000,-0.000 L16.000,24.000 L15.000,24.000 L15.000,-0.000 Z"/>
<path fill-rule="evenodd"  fill="rgb(255, 255, 255)"
 d="M15.000,20.000 L20.000,24.000 L15.000,24.000 L15.000,20.000 Z"/>
<path fill-rule="evenodd"  fill="rgb(255, 255, 255)"
 d="M20.000,-0.000 L21.000,-0.000 L21.000,16.000 L20.000,16.000 L20.000,-0.000 Z"/>
<path fill-rule="evenodd"  fill="rgb(255, 255, 255)"
 d="M20.000,12.000 L24.000,16.000 L20.000,16.000 L20.000,12.000 Z"/>
</svg>
