<?xml version="1.0" encoding="UTF-8" standalone="no"?>
<!-- Generator: Adobe Illustrator 13.0.2, SVG Export Plug-In  -->

<svg
   xmlns:dc="http://purl.org/dc/elements/1.1/"
   xmlns:cc="http://creativecommons.org/ns#"
   xmlns:rdf="http://www.w3.org/1999/02/22-rdf-syntax-ns#"
   xmlns:svg="http://www.w3.org/2000/svg"
   xmlns="http://www.w3.org/2000/svg"
   xmlns:sodipodi="http://sodipodi.sourceforge.net/DTD/sodipodi-0.dtd"
   xmlns:inkscape="http://www.inkscape.org/namespaces/inkscape"
   version="1.1"
   x="0px"
   y="0px"
   width="248.19582"
   height="237.87901"
   viewBox="-0.172 -0.251 248.19582 237.87901"
   enable-background="new -0.172 -0.251 249 323"
   xml:space="preserve"
   id="svg7843"
   sodipodi:docname="Drill-Bit.ver.3.svg"
   inkscape:version="0.92.2 (5c3e80d, 2017-08-06)"><metadata
     id="metadata7847"><rdf:RDF><cc:Work
         rdf:about=""><dc:format>image/svg+xml</dc:format><dc:type
           rdf:resource="http://purl.org/dc/dcmitype/StillImage" /></cc:Work></rdf:RDF></metadata><sodipodi:namedview
     pagecolor="#ffffff"
     bordercolor="#666666"
     borderopacity="1"
     objecttolerance="10"
     gridtolerance="10"
     guidetolerance="10"
     inkscape:pageopacity="0"
     inkscape:pageshadow="2"
     inkscape:window-width="640"
     inkscape:window-height="480"
     id="namedview7845"
     showgrid="false"
     inkscape:zoom="0.73065015"
     inkscape:cx="124.33063"
     inkscape:cy="161.49401"
     inkscape:window-x="0"
     inkscape:window-y="0"
     inkscape:window-maximized="0"
     inkscape:current-layer="svg7843" /><defs
     id="defs7104" /><linearGradient
     id="SVGID_1_"
     gradientUnits="userSpaceOnUse"
     x1="-434.65479"
     y1="345.6709"
     x2="-328.65579"
     y2="345.6709"
     gradientTransform="rotate(-179.98854,-128.9191,174.03959)"><stop
       offset="0.05"
       style="stop-color:#828282"
       id="stop7108" /><stop
       offset="0.5"
       style="stop-color:#EDEDED"
       id="stop7110" /><stop
       offset="0.9451"
       style="stop-color:#828282"
       id="stop7112" /></linearGradient><linearGradient
     id="SVGID_2_"
     gradientUnits="userSpaceOnUse"
     x1="-436.90869"
     y1="303.2334"
     x2="-326.43411"
     y2="303.2334"
     gradientTransform="rotate(-179.98854,-128.9191,174.03959)"><stop
       offset="0.05"
       style="stop-color:#4D4D4D"
       id="stop7117" /><stop
       offset="0.5"
       style="stop-color:#E6E6E6"
       id="stop7119" /><stop
       offset="0.9451"
       style="stop-color:#4D4D4D"
       id="stop7121" /></linearGradient><polygon
     points="58.307,85.864 41.392,85.865 38.963,88.285 38.961,157.92 38.961,157.922 208.337,157.922 208.338,88.289 205.918,85.869 189.169,85.869 "
     id="polygon7126"
     style="fill:none;stroke:#005826;stroke-width:2;stroke-linecap:round;stroke-linejoin:round"
     transform="translate(-0.1693672,-85.115)" /><linearGradient
     id="SVGID_3_"
     gradientUnits="userSpaceOnUse"
     x1="-296.78421"
     y1="225.02341"
     x2="-466.5835"
     y2="225.02341"
     gradientTransform="rotate(-179.98854,-128.9191,174.03959)"><stop
       offset="0.05"
       style="stop-color:#007941"
       id="stop7128" /><stop
       offset="0.1671"
       style="stop-color:#319557"
       id="stop7130" /><stop
       offset="0.2842"
       style="stop-color:#62AF6B"
       id="stop7132" /><stop
       offset="0.3827"
       style="stop-color:#7DC179"
       id="stop7134" /><stop
       offset="0.45"
       style="stop-color:#89C97F"
       id="stop7136" /><stop
       offset="0.55"
       style="stop-color:#89C97F"
       id="stop7138" /><stop
       offset="0.6168"
       style="stop-color:#7CC078"
       id="stop7140" /><stop
       offset="0.7206"
       style="stop-color:#5EAD69"
       id="stop7142" /><stop
       offset="0.8478"
       style="stop-color:#229053"
       id="stop7144" /><stop
       offset="0.9451"
       style="stop-color:#007941"
       id="stop7146" /></linearGradient><polygon
     points="38.961,157.92 38.961,157.922 208.337,157.922 208.338,88.289 38.963,88.285 "
     id="polygon7149"
     style="fill:url(#SVGID_3_)"
     transform="translate(-0.1693672,-85.115)" /><linearGradient
     id="SVGID_4_"
     gradientUnits="userSpaceOnUse"
     x1="-466.15869"
     y1="261.05179"
     x2="-296.78421"
     y2="261.05179"
     gradientTransform="rotate(-179.98854,-128.9191,174.03959)"><stop
       offset="0.05"
       style="stop-color:#238958"
       id="stop7151" /><stop
       offset="0.1407"
       style="stop-color:#4E9D6A"
       id="stop7153" /><stop
       offset="0.2687"
       style="stop-color:#7AB881"
       id="stop7155" /><stop
       offset="0.3764"
       style="stop-color:#95C98F"
       id="stop7157" /><stop
       offset="0.45"
       style="stop-color:#A1D296"
       id="stop7159" /><stop
       offset="0.55"
       style="stop-color:#A1D296"
       id="stop7161" /><stop
       offset="0.6234"
       style="stop-color:#94C88F"
       id="stop7163" /><stop
       offset="0.7375"
       style="stop-color:#76B57E"
       id="stop7165" /><stop
       offset="0.8772"
       style="stop-color:#459866"
       id="stop7167" /><stop
       offset="0.9451"
       style="stop-color:#238958"
       id="stop7169" /></linearGradient><linearGradient
     id="SVGID_5_"
     gradientUnits="userSpaceOnUse"
     x1="70.809601"
     y1="129.10941"
     x2="176.14259"
     y2="129.10941"
     gradientTransform="translate(-0.1693672,-85.115)"><stop
       offset="0"
       style="stop-color:#85C87B"
       id="stop7174" /><stop
       offset="0.1771"
       style="stop-color:#78C073"
       id="stop7176" /><stop
       offset="1"
       style="stop-color:#42AB59"
       id="stop7178" /></linearGradient><rect
     x="70.317635"
     y="16.995001"
     width="106.2"
     height="53.998001"
     id="rect7181"
     style="fill:url(#SVGID_5_)" /><path
     d="m 0.9156328,111.955 4.792,49.387 c 0.145,1.508 0.388,3.107 0.687,4.635 0.244,1.229 0.524,2.414 0.831,3.465 l 1.149,3.928 c 0.022,1.662 0.078,3.273 0.16,4.84 -2.375,0.752 -3.692,3.945 -2.956,7.348 0.603,2.801 2.408,4.896 4.407,5.393 0.2560002,1.395 0.5440002,2.734 0.8530002,4.035 l -1.2410002,0.336 c -3.162,1.131 -4.457,5.506 -2.892,9.773 1.561,4.27 5.3890002,6.812 8.5520002,5.68 l 1.285,-0.551 c 0.615,1.119 1.252,2.176 1.907,3.174 -2.668,1.971 -3.229,6.178 -1.19,9.74 2.167,3.787 6.717,5.477 9.833,3.693 l 2.396,-1.83 c 0.095,-0.061 0.176,-0.139 0.251,-0.225 0.303,0.193 0.606,0.381 0.907,0.561 0.747,0.605 1.574,1.043 2.424,1.299 0.034,0.016 0.067,0.031 0.101,0.047 -0.378,2.266 0.438,4.895 2.39,6.926 2.987,3.111 7.481,3.643 10.041,1.186 l 3.996,-4.371 c 0.236,-0.236 0.499,-0.656 0.658,-1.176 1.645,-0.029 3.361,-0.273 5.08,-0.709 2.512,0.393 4.788,0.605 6.716,0.684 1.22,2.057 4.074,3.787 5.907,4.346 l 7.333,2.666 c 1.938,0.703 4.57,-1.613 6.035,-5.227 l 7.051,2.564 c 2.102,0.764 4.827,-1.775 6.296,-5.818 0.007,-0.021 0.012,-0.043 0.021,-0.062 l 1.126,0.443 c 0.003,0.01 0.006,0.021 0.01,0.031 1.179,3.777 2.591,6.695 3.149,6.521 l 2.003997,-0.658 c 0.765,1.666 1.442,2.697 1.78,2.584 l 11.804,-4.154 c 1.659,-0.652 3.162,-1.854 4.198,-3.314 -0.147,0.012 -0.286,0.02 -0.431,0.029 1.025,-0.076 2.11,-0.209 3.24,-0.402 0.846,2.402 1.64,3.998 1.989,3.863 l 7.094,-3.186 c 1.432,-0.699 4.145,-1.982 5.713,-4.08 l -0.001,0.002 c 1.899,2.854 5.345,4.494 8.948,3.898 3.18,-0.523 5.684,-2.66 6.838,-5.432 1.156,0.312 2.338,0.621 3.542,0.922 0.585,3.199 2.831,5.783 5.902,6.35 2.569,0.477 5.106,-0.57 6.859,-2.553 -0.006,-0.002 -0.011,-0.006 -0.018,-0.008 0.204,0.078 0.421,0.148 0.646,0.217 0.102,0.463 0.225,0.928 0.387,1.393 1.541,4.434 5.314,7.152 8.428,6.072 l 11.271,-3.918 c 0.604,-0.221 1.256,-0.6 1.835,-1.01 -0.001,0 -0.001,-0.002 -0.001,-0.002 0.727,0.148 1.471,0.154 2.206,-0.021 0.232,-0.057 0.456,-0.129 0.673,-0.217 l 3.099,-0.994 c 1.532,3.715 5.442,6.025 9.554,5.348 4.328,-0.715 7.379,-4.496 7.342,-8.773 l -3.014,2.201 6.021,-4.402 -0.436,0.32 c 2.081,1.941 5.062,2.824 8.016,2.074 4.633,-1.17 7.433,-5.898 6.254,-10.559 -0.33,-1.303 -0.942,-2.453 -1.744,-3.42 l -3.674,3.041 4.947,-4.098 c 0.332,-0.289 0.631,-0.611 0.902,-0.961 0,0 0,0 -0.002,0 3.326,0.451 6.747,-1.043 8.586,-4.084 2.472,-4.09 1.141,-9.42 -2.975,-11.906 -0.381,-0.23 -0.773,-0.418 -1.172,-0.586 l -1.934,7.25 2.51,-9.412 0.139,-0.133 c 0.1,-0.107 0.18,-0.227 0.268,-0.342 1.466,-0.701 2.75,-1.818 3.652,-3.309 1.869,-3.094 1.561,-6.895 -0.479,-9.639 l -2.322,8.713 2.727,-10.225 1.238,-1.129 c 1.232,-1.174 1.845,-3.326 1.136,-5.205 -0.093,-0.246 -0.254,-0.557 -0.45,-0.881 l 0.134,-0.502 c 0.276,-1.053 0.542,-2.258 0.749,-3.486 0.26,-1.529 0.441,-3.105 0.545,-4.611 l 3.432,-49.391 c 0.339,-3.602 0.115,-15.861 -9.223,-21.148 l -27.826,-16.203 c -0.973,-0.6 -1.723,-1.125 -1.723,-1.801 L 38.791633,72.805 c 0,0.676 -0.749,1.201 -1.724,1.801 l -26.924,16.197 C 0.8046328,96.09 0.5776328,108.354 0.9156328,111.955 Z"
     id="path7183"
     inkscape:connector-curvature="0"
     style="fill:none;stroke:#1a1a1a;stroke-width:2;stroke-linecap:round;stroke-linejoin:round" /><path
     d="m 150.92963,189.666 c -2.053,10.463 -4.328,19.051 -5.615,22.791 -0.214,0.646 -0.566,1.492 -0.865,2.141 3.375,-0.227 11.631,-0.25 11.629,-2.781 0.002,-1.104 -0.939,-2.232 -1.815,-3.053 -0.249,-0.279 -0.663,-0.879 -0.663,-1.48 l 0.416,-17.625 z"
     id="path7185"
     inkscape:connector-curvature="0"
     style="fill:#333333" /><path
     d="m 163.58763,187.467 c -1.203,-4.408 -5.557,-7.002 -10.886,-7 -0.26,1.143 -0.523,2.443 -0.79,3.941 -0.316,1.795 -0.646,3.547 -0.982,5.256 l 3.086,-0.006 c 2.08,0 5.973,-0.543 9.572,-2.191 z"
     id="path7187"
     inkscape:connector-curvature="0"
     style="fill:#6b6b6b" /><linearGradient
     id="SVGID_6_"
     gradientUnits="userSpaceOnUse"
     x1="-411.26071"
     y1="74.785599"
     x2="-411.26071"
     y2="35.4095"
     gradientTransform="rotate(-179.98854,-129.00804,131.4821)"><stop
       offset="0.05"
       style="stop-color:#4D4D4D"
       id="stop7189" /><stop
       offset="0.8242"
       style="stop-color:#A3A3A3"
       id="stop7191" /><stop
       offset="1"
       style="stop-color:#B8B8B8"
       id="stop7193" /></linearGradient><path
     d="m 166.08163,227.033 c -0.916,-0.973 -1.357,-2.182 -1.422,-3.475 l -0.746,-33.824 c -0.021,-0.801 -0.134,-1.561 -0.326,-2.268 -3.6,1.648 -7.492,2.191 -9.572,2.191 l -0.416,17.625 c 0,0.602 0.414,1.201 0.663,1.48 0.876,0.82 1.817,1.949 1.815,3.053 0.002,2.531 -8.254,2.555 -11.629,2.781 -0.965,2.1 -2.277,3.965 -4.078,5.641 6.855,2.341 15.965,4.978 25.711,6.796 z"
     id="path7196"
     inkscape:connector-curvature="0"
     style="fill:url(#SVGID_6_)" /><linearGradient
     id="SVGID_7_"
     gradientUnits="userSpaceOnUse"
     x1="-333.51169"
     y1="33.8325"
     x2="-333.51169"
     y2="47.7845"
     gradientTransform="rotate(-179.98854,-129.00804,131.4821)"><stop
       offset="0.05"
       style="stop-color:#A3A3A3"
       id="stop7198" /><stop
       offset="1"
       style="stop-color:#8F8F8F"
       id="stop7200" /></linearGradient><path
     d="m 94.261633,215.346 -4.655,-0.002 c -5.792,0 -14.429,2.305 -20.672,2.812 -0.285,2.238 -1.152,3.094 -2.166,4.049 l -1.743,1.576 c -2.858,2.271 -6.274,3.893 -9.688,4.756 3.261,0.51 6.13,0.719 8.347,0.721 l 11.663,-0.002 c 6.562,0.002 13.85,-1.195 20.269,-3.35 -0.283,-0.66 -0.481,-1.398 -0.555,-2.199 -0.085,-0.951 -0.486,-3.875 -0.8,-8.361 z"
     id="path7203"
     inkscape:connector-curvature="0"
     style="fill:url(#SVGID_7_)" /><path
     d="m 95.879633,180.471 -13.642,-0.002 c -2.297,0 -4.007,0.236 -5.288,0.617 5.175,3.002 12.215,5.188 17.907,6.078 0.271,-2.207 0.609,-4.447 1.023,-6.693 z"
     id="path7205"
     inkscape:connector-curvature="0"
     style="fill:#6b6b6b" /><linearGradient
     id="SVGID_8_"
     gradientUnits="userSpaceOnUse"
     x1="-339.92581"
     y1="81.918503"
     x2="-339.92581"
     y2="45.982201"
     gradientTransform="rotate(-179.98854,-129.00804,131.4821)"><stop
       offset="0.05"
       style="stop-color:#4D4D4D"
       id="stop7207" /><stop
       offset="0.8242"
       style="stop-color:#A3A3A3"
       id="stop7209" /><stop
       offset="1"
       style="stop-color:#B8B8B8"
       id="stop7211" /></linearGradient><path
     d="m 76.949633,181.086 c -1.159,0.348 -1.97,0.818 -2.539,1.338 -1.282,1.176 -1.333,2.625 -1.509,3.559 l -3.967,32.174 c 6.243,-0.508 14.88,-2.812 20.672,-2.812 l 4.655,0.002 c -0.481,-6.861 -0.763,-17.141 0.595,-28.182 -5.692,-0.891 -12.732,-3.077 -17.907,-6.079 z"
     id="path7214"
     inkscape:connector-curvature="0"
     style="fill:url(#SVGID_8_)" /><linearGradient
     id="SVGID_9_"
     gradientUnits="userSpaceOnUse"
     x1="-330.64261"
     y1="37.734402"
     x2="-328.04211"
     y2="28.838301"
     gradientTransform="rotate(-179.98854,-129.00804,131.4821)"><stop
       offset="0.05"
       style="stop-color:#383838"
       id="stop7216" /><stop
       offset="0.3516"
       style="stop-color:#6B6B6B"
       id="stop7218" /><stop
       offset="0.5989"
       style="stop-color:#E6E6E6"
       id="stop7220" /><stop
       offset="0.6648"
       style="stop-color:#E6E6E6"
       id="stop7222" /><stop
       offset="1"
       style="stop-color:#4F4F4F"
       id="stop7224" /></linearGradient><path
     d="m 75.293633,236.233 -7.333,-2.666 c -2.268,-0.691 -6.099,-3.174 -6.465,-5.852 -0.355,-2.609 10.103,-2.375 20.51,1.156 -0.125,0.539 -0.281,1.09 -0.483,1.643 -1.417,3.894 -4.203,6.453 -6.229,5.719 z"
     id="path7227"
     inkscape:connector-curvature="0"
     style="fill:url(#SVGID_9_)" /><linearGradient
     id="SVGID_10_"
     gradientUnits="userSpaceOnUse"
     x1="-343.67969"
     y1="40.875"
     x2="-340.68469"
     y2="31.596001"
     gradientTransform="rotate(-179.98854,-129.00804,131.4821)"><stop
       offset="0.05"
       style="stop-color:#383838"
       id="stop7229" /><stop
       offset="0.3516"
       style="stop-color:#6B6B6B"
       id="stop7231" /><stop
       offset="0.5989"
       style="stop-color:#E6E6E6"
       id="stop7233" /><stop
       offset="0.6648"
       style="stop-color:#E6E6E6"
       id="stop7235" /><stop
       offset="1"
       style="stop-color:#4F4F4F"
       id="stop7237" /></linearGradient><path
     d="m 88.379633,233.571 -7.613,-2.768 c -2.355,-0.717 -6.335,-3.295 -6.713,-6.074 -0.372,-2.711 10.317,-2.352 21.126,1.316 -0.132,0.561 -0.294,1.131 -0.504,1.707 -1.469,4.043 -4.194,6.582 -6.296,5.819 z"
     id="path7240"
     inkscape:connector-curvature="0"
     style="fill:url(#SVGID_10_)" /><linearGradient
     id="SVGID_11_"
     gradientUnits="userSpaceOnUse"
     x1="-351.33591"
     y1="46.367199"
     x2="-347.60431"
     y2="37.382301"
     gradientTransform="rotate(-179.98854,-129.00804,131.4821)"><stop
       offset="0.05"
       style="stop-color:#383838"
       id="stop7242" /><stop
       offset="0.3516"
       style="stop-color:#6B6B6B"
       id="stop7244" /><stop
       offset="0.5989"
       style="stop-color:#E6E6E6"
       id="stop7246" /><stop
       offset="0.6648"
       style="stop-color:#E6E6E6"
       id="stop7248" /><stop
       offset="1"
       style="stop-color:#4F4F4F"
       id="stop7250" /></linearGradient><path
     d="m 91.580633,226.461 4.243,1.672 c -1.175,-3.762 -1.616,-6.918 -1.057,-7.094 l 0.013,0.111 c -0.08,-0.742 -0.171,-1.607 -0.262,-2.611 -5.823,-0.898 -9.977,-0.422 -9.725,1.395 0.409,2.957 4.422,5.738 6.788,6.527 z"
     id="path7253"
     inkscape:connector-curvature="0"
     style="fill:url(#SVGID_11_)" /><path
     d="m 145.32263,229.268 c 4.904,-0.809 8.224,-5.441 7.414,-10.346 -0.629,-3.803 -3.559,-6.643 -7.128,-7.354 -0.103,0.318 -0.2,0.621 -0.294,0.889 -0.214,0.646 -0.566,1.492 -0.865,2.141 -0.965,2.1 -2.277,3.965 -4.078,5.641 -0.867,0.809 -1.824,1.553 -2.831,2.25 -0.111,1.098 -0.548,2.053 -1.166,2.881 1.899,2.853 5.344,4.494 8.948,3.898 z"
     id="path7255"
     inkscape:connector-curvature="0"
     style="fill:#1a1a1a" /><path
     d="m 166.08163,227.033 c -0.916,-0.973 -1.357,-2.182 -1.422,-3.475 l -0.204,-9.266 c -4.022,-0.588 -7.903,2.506 -8.745,7.043 -0.858,4.635 1.779,9.01 5.894,9.771 2.569,0.477 5.106,-0.57 6.859,-2.553 -1.007,-0.383 -1.798,-0.9 -2.382,-1.52 z"
     id="path7257"
     inkscape:connector-curvature="0"
     style="fill:#1a1a1a" /><path
     d="m 209.24363,229.83 c -2.358,0.959 -5.005,0.293 -6.917,-1.48 0.01,-0.004 0.021,-0.008 0.031,-0.01 -0.031,0.01 -0.063,0.025 -0.094,0.035 l -5.274,1.691 c 1.532,3.715 5.442,6.025 9.554,5.348 4.328,-0.715 7.379,-4.496 7.342,-8.773 l -3.014,2.201 c -0.481,0.414 -1.018,0.738 -1.628,0.988 z"
     id="path7259"
     inkscape:connector-curvature="0"
     style="fill:#1a1a1a" /><path
     d="m 224.58463,216.492 c -0.041,0.029 -0.089,0.051 -0.132,0.078 -1.711,1.559 -3.559,2.941 -5.498,4.154 -0.04,1.533 -1.123,3.033 -2.062,3.715 l -0.436,0.32 c 2.081,1.941 5.062,2.824 8.016,2.074 4.633,-1.17 7.433,-5.898 6.254,-10.559 -0.33,-1.303 -0.942,-2.453 -1.744,-3.42 l -3.674,3.041 z"
     id="path7261"
     inkscape:connector-curvature="0"
     style="fill:#1a1a1a" /><path
     d="m 232.25363,205.676 c 0.007,0.029 0.02,0.057 0.026,0.088 0.396,2.111 -0.132,3.797 -1.124,5.074 3.326,0.451 6.747,-1.043 8.586,-4.084 2.472,-4.09 1.141,-9.42 -2.975,-11.906 -0.381,-0.23 -0.773,-0.418 -1.172,-0.586 l -1.934,7.25 c -0.381,1.461 -0.853,2.848 -1.407,4.164 z"
     id="path7263"
     inkscape:connector-curvature="0"
     style="fill:#1a1a1a" /><path
     d="m 236.57663,191.625 c 1.467,-0.701 2.752,-1.816 3.654,-3.309 1.869,-3.094 1.561,-6.895 -0.479,-9.639 l -2.324,8.715 c 0.239,1.374 0.062,3.02 -0.851,4.233 z"
     id="path7265"
     inkscape:connector-curvature="0"
     style="fill:#1a1a1a" /><path
     d="m 50.257633,229.246 c 1.645,-0.029 3.361,-0.273 5.08,-0.709 3.415,-0.863 6.83,-2.484 9.688,-4.756 l 1.743,-1.576 c 1.014,-0.955 1.881,-1.811 2.166,-4.049 l 3.967,-32.174 c 0.176,-0.934 0.227,-2.383 1.509,-3.559 0.569,-0.52 1.38,-0.99 2.539,-1.338 1.281,-0.381 2.991,-0.617 5.288,-0.617 l 13.642,0.002 c -0.415,2.246 -0.752,4.486 -1.023,6.693 -0.04,0.32 -0.073,0.639 -0.11,0.959 l -0.896,0.197 c -0.253,0.076 -0.038,1.611 0.496,3.865 -0.489,5.912 -0.551,11.467 -0.42,16.229 l -0.104,0.027 c -0.464,0.139 -0.308,2.125 0.312,4.861 0.042,0.707 0.083,1.395 0.129,2.043 0.17,2.43 0.363,4.383 0.521,5.83 l -0.016,-0.137 c -0.561,0.176 -0.116,3.35 1.066,7.125 1.179,3.777 2.591,6.695 3.149,6.521 l 2.003997,-0.658 c 0.765,1.666 1.442,2.697 1.78,2.584 l 11.804,-4.154 c 1.659,-0.652 3.162,-1.854 4.198,-3.314 -0.147,0.012 -0.286,0.02 -0.431,0.029 1.025,-0.076 2.11,-0.209 3.24,-0.402 0.846,2.402 1.64,3.998 1.989,3.863 l 7.094,-3.186 c 1.994,-0.977 6.477,-3.078 6.878,-6.945 1.007,-0.701 1.962,-1.453 2.831,-2.264 1.801,-1.676 3.113,-3.541 4.078,-5.641 0.299,-0.648 0.651,-1.494 0.865,-2.141 1.287,-3.74 3.562,-12.33 5.615,-22.793 0.335,-1.707 0.666,-3.461 0.982,-5.256 0.267,-1.498 0.53,-2.799 0.79,-3.941 5.329,-0.002 9.683,2.592 10.886,7 0.192,0.707 0.306,1.467 0.326,2.268 l 0.746,33.824 c 0.064,1.293 0.506,2.502 1.422,3.475 0.701,0.744 1.695,1.34 3.01,1.73 0.102,0.463 0.225,0.928 0.387,1.393 1.541,4.434 5.314,7.152 8.428,6.072 l 11.271,-3.918 c 0.604,-0.221 1.256,-0.6 1.835,-1.01 -0.001,0 -0.001,-0.002 -0.001,-0.002 0.727,0.148 1.471,0.154 2.206,-0.021 0.232,-0.057 0.456,-0.129 0.673,-0.217 l 8.373,-2.686 c 0.021,-0.006 0.043,-0.018 0.064,-0.025 1.91,1.773 4.557,2.439 6.915,1.48 0.61,-0.25 1.147,-0.574 1.628,-0.988 l 6.021,-4.402 c 0.939,-0.68 2.022,-2.182 2.062,-3.717 1.939,-1.211 3.787,-2.596 5.5,-4.154 0.042,-0.027 0.09,-0.047 0.13,-0.076 l 0.724,-0.596 4.947,-4.098 c 1.545,-1.34 2.531,-3.346 2.024,-6.035 -0.007,-0.031 -0.02,-0.059 -0.026,-0.088 0.553,-1.316 1.027,-2.703 1.408,-4.164 l 2.51,-9.412 0.139,-0.133 c 1.156,-1.229 1.381,-3.072 1.119,-4.576 l 2.727,-10.225"
     id="path7267"
     inkscape:connector-curvature="0"
     style="fill:none;stroke:#1a1a1a;stroke-width:2;stroke-linecap:round;stroke-linejoin:round" /><linearGradient
     id="SVGID_12_"
     gradientUnits="userSpaceOnUse"
     x1="135.82961"
     y1="158.1445"
     x2="135.82961"
     y2="314.59229"
     gradientTransform="translate(-0.1693672,-85.115)"><stop
       offset="0.022"
       style="stop-color:#4A4A4A"
       id="stop7269" /><stop
       offset="0.1319"
       style="stop-color:#C7C7C7"
       id="stop7271" /><stop
       offset="0.2088"
       style="stop-color:#EBEBEB"
       id="stop7273" /><stop
       offset="0.4245"
       style="stop-color:#AAAAAA"
       id="stop7275" /><stop
       offset="0.616"
       style="stop-color:#777777"
       id="stop7277" /><stop
       offset="0.7602"
       style="stop-color:#585858"
       id="stop7279" /><stop
       offset="0.8407"
       style="stop-color:#4D4D4D"
       id="stop7281" /></linearGradient><path
     d="m 165.83063,72.922 c 0,0.789 0.166,1.576 0.617,2.25 l 8.466,12.787 c 5.315,7.912 0.853,19.35 -0.498,23.85 l -13.743,45.514 -2.607,8.639 c -1.834,6.156 -3.554,6.594 -5.362,14.506 -0.26,1.143 -0.523,2.443 -0.79,3.941 -0.314,1.791 -0.647,3.547 -0.984,5.252 -2.051,10.465 -4.326,19.055 -5.613,22.797 -0.214,0.646 -0.566,1.492 -0.865,2.141 -0.965,2.1 -2.277,3.965 -4.078,5.641 -6.477,6.029 -17.299,9.02 -24.009,9.02 l -16.463997,-0.002 c -1.646,0 -3.4,-1.291 -4.281,-3.35 -0.283,-0.66 -0.481,-1.398 -0.555,-2.199 -0.085,-0.951 -0.487,-3.875 -0.8,-8.361 -0.481,-6.861 -0.763,-17.141 0.595,-28.182 0.271,-2.207 0.609,-4.447 1.023,-6.693 0.213,-1.166 0.451,-2.342 0.707,-3.518 0.781,-3.541 1.907,-7.564 3.12,-10.998 l 20.220997,-58.385 c 1.014,-2.588 7.412,-23.285 8.428,-34.76"
     id="path7284"
     inkscape:connector-curvature="0"
     style="fill:url(#SVGID_12_)" /><linearGradient
     id="SVGID_13_"
     gradientUnits="userSpaceOnUse"
     x1="206.01221"
     y1="158.1445"
     x2="206.01221"
     y2="314.59619"
     gradientTransform="translate(-0.1693672,-85.115)"><stop
       offset="0.022"
       style="stop-color:#4A4A4A"
       id="stop7286" /><stop
       offset="0.1319"
       style="stop-color:#C7C7C7"
       id="stop7288" /><stop
       offset="0.2088"
       style="stop-color:#EBEBEB"
       id="stop7290" /><stop
       offset="0.4245"
       style="stop-color:#AAAAAA"
       id="stop7292" /><stop
       offset="0.616"
       style="stop-color:#777777"
       id="stop7294" /><stop
       offset="0.7602"
       style="stop-color:#585858"
       id="stop7296" /><stop
       offset="0.8407"
       style="stop-color:#4D4D4D"
       id="stop7298" /></linearGradient><path
     d="m 208.16763,72.809 c 0,0.676 0.75,1.201 1.723,1.801 l 27.826,16.203 c 9.338,5.287 9.562,17.547 9.223,21.148 l -3.432,49.391 c -0.104,1.506 -0.285,3.082 -0.545,4.611 -0.207,1.229 -0.473,2.434 -0.749,3.486 l -8.552,32.062 c -6.148,23.549 -35.852,27.748 -45.749,27.748 h -15.001 c -3.393,0.002 -5.568,-0.887 -6.83,-2.227 -0.916,-0.973 -1.357,-2.182 -1.422,-3.475 0.002,-1.463 -0.186,-6.072 6.002,-6.861 3.033,-0.387 23.85,-2.137 29.364,-28.236 0.56,-2.814 1.688,-7.988 11.362,-7.986 0.9,0 2.137,-1.465 2.475,-2.59 l 3.713,-11.924 11.252,-54.787 c 1.013,-5.287 2.812,-14.287 -3.488,-19.125 l -23.482,-16.65 -0.478,-0.338 c -1.013,-0.674 -1.35,-1.35 -1.351,-2.252"
     id="path7301"
     inkscape:connector-curvature="0"
     style="fill:url(#SVGID_13_)" /><linearGradient
     id="SVGID_14_"
     gradientUnits="userSpaceOnUse"
     x1="-383.99121"
     y1="97.2817"
     x2="-383.99121"
     y2="33.6842"
     gradientTransform="rotate(-179.98854,-129.00804,131.4821)"><stop
       offset="0"
       style="stop-color:#666666"
       id="stop7303" /><stop
       offset="0.6429"
       style="stop-color:#3B3B3B"
       id="stop7305" /><stop
       offset="1"
       style="stop-color:#4F4F4F"
       id="stop7307" /></linearGradient><path
     d="m 158.06463,165.961 -58.357997,-0.006 c -1.212,3.434 -2.338,7.457 -3.12,10.998 -0.256,1.176 -0.494,2.352 -0.707,3.518 -0.415,2.246 -0.752,4.486 -1.023,6.693 -1.357,11.041 -1.076,21.32 -0.595,28.182 0.313,4.486 0.715,7.41 0.8,8.361 0.074,0.801 0.271,1.539 0.555,2.199 0.881,2.059 2.635,3.35 4.281,3.35 l 16.463997,0.002 c 6.71,0 17.533,-2.99 24.009,-9.02 1.801,-1.676 3.113,-3.541 4.078,-5.641 0.299,-0.648 0.651,-1.494 0.865,-2.141 1.287,-3.74 3.562,-12.338 5.613,-22.797 0.338,-1.709 0.668,-3.457 0.984,-5.252 0.267,-1.498 0.53,-2.799 0.79,-3.941 1.81,-7.911 3.53,-8.349 5.364,-14.505 z"
     id="path7310"
     inkscape:connector-curvature="0"
     style="fill:url(#SVGID_14_)" /><linearGradient
     id="SVGID_15_"
     gradientUnits="userSpaceOnUse"
     x1="-434.03271"
     y1="174.03909"
     x2="-434.03271"
     y2="99.471497"
     gradientTransform="rotate(-179.98854,-129.00804,131.4821)"><stop
       offset="0.7308"
       style="stop-color:#787878"
       id="stop7312" /><stop
       offset="1"
       style="stop-color:#919191"
       id="stop7314" /></linearGradient><path
     d="m 174.91363,87.959 c 5.315,7.912 0.853,19.35 -0.498,23.85 l -13.743,45.514 c 2.24,0.889 5.281,3.318 6.757,7.82 8.515,-7.109 11.483,-14.783 13.437,-24.082 l 10.501,-53.102 z"
     id="path7317"
     inkscape:connector-curvature="0"
     style="fill:url(#SVGID_15_)" /><linearGradient
     id="SVGID_16_"
     gradientUnits="userSpaceOnUse"
     x1="-442.6709"
     y1="174.03999"
     x2="-442.6709"
     y2="99.472198"
     gradientTransform="rotate(-179.98854,-129.00804,131.4821)"><stop
       offset="0.7308"
       style="stop-color:#616161"
       id="stop7319" /><stop
       offset="1"
       style="stop-color:#8A8A8A"
       id="stop7321" /></linearGradient><path
     d="m 200.02963,72.809 c -2.062,6.152 -6.564,12.451 -8.663,15.15 l -10.501,53.102 c -1.953,9.299 -4.922,16.973 -13.437,24.082 0.379,1.141 0.423,2.484 0.425,3.742 l -0.001,9.336 c 3.372,-3.258 16.874,-15.186 21.487,-35.887 l 10.802,-53.436 c 0.562,-2.59 1.958,-9.523 1.716,-13.5 l -0.478,-0.338 c -1.012,-0.673 -1.349,-1.349 -1.35,-2.251 z"
     id="path7324"
     inkscape:connector-curvature="0"
     style="fill:url(#SVGID_16_)" /><linearGradient
     id="SVGID_17_"
     gradientUnits="userSpaceOnUse"
     x1="-440.93359"
     y1="190.4375"
     x2="-440.93359"
     y2="175.13541"
     gradientTransform="rotate(-179.98854,-129.00804,131.4821)"><stop
       offset="0"
       style="stop-color:#5E5E5E"
       id="stop7326" /><stop
       offset="1"
       style="stop-color:#A3A3A3"
       id="stop7328" /></linearGradient><path
     d="m 200.02963,72.809 c -2.062,6.152 -6.564,12.451 -8.663,15.15 h -16.453 l -8.466,-12.787 c -0.451,-0.674 -0.617,-1.574 -0.617,-2.363 z"
     id="path7331"
     inkscape:connector-curvature="0"
     style="fill:url(#SVGID_17_)" /><linearGradient
     id="SVGID_18_"
     gradientUnits="userSpaceOnUse"
     x1="-484.29391"
     y1="113.5479"
     x2="-411.39679"
     y2="113.5479"
     gradientTransform="rotate(-179.98854,-129.00804,131.4821)"><stop
       offset="0"
       style="stop-color:#333333"
       id="stop7333" /><stop
       offset="0.7033"
       style="stop-color:#6B6B6B"
       id="stop7335" /><stop
       offset="0.7729"
       style="stop-color:#808080"
       id="stop7337" /><stop
       offset="0.8242"
       style="stop-color:#8A8A8A"
       id="stop7339" /></linearGradient><path
     d="m 163.58763,187.467 c 0.192,0.707 0.306,1.467 0.326,2.268 l 0.746,33.824 c 0.002,-1.463 -0.186,-6.072 6.002,-6.861 3.033,-0.387 23.85,-2.137 29.364,-28.236 0.56,-2.814 1.688,-7.988 11.362,-7.986 0.9,0 2.137,-1.465 2.475,-2.59 l 3.713,-11.924 11.252,-54.787 c 1.013,-5.287 2.812,-14.287 -3.488,-19.125 l -23.482,-16.65 c 0.242,3.977 -1.153,10.91 -1.716,13.5 l -10.802,53.436 c -4.613,20.701 -18.115,32.629 -21.487,35.887 l 0.001,-9.336 c -0.002,-1.258 -0.046,-2.602 -0.425,-3.742 -1.476,-4.502 -4.517,-6.932 -6.757,-7.82 l -2.607,8.639 c -1.834,6.156 -3.554,6.594 -5.362,14.506 5.329,-0.005 9.682,2.589 10.885,6.997 z"
     id="path7342"
     inkscape:connector-curvature="0"
     style="fill:url(#SVGID_18_)" /><linearGradient
     id="SVGID_19_"
     gradientUnits="userSpaceOnUse"
     x1="-461.83981"
     y1="96.685501"
     x2="-461.83981"
     y2="39.685501"
     gradientTransform="rotate(-179.98854,-129.00804,131.4821)"><stop
       offset="0"
       style="stop-color:#666666"
       id="stop7344" /><stop
       offset="0.6429"
       style="stop-color:#3B3B3B"
       id="stop7346" /><stop
       offset="1"
       style="stop-color:#4F4F4F"
       id="stop7348" /></linearGradient><path
     d="m 242.96263,165.963 c -0.207,1.229 -0.473,2.434 -0.749,3.486 l -8.552,32.062 c -6.148,23.549 -35.852,27.748 -45.749,27.748 h -15.001 c -3.393,0.002 -5.568,-0.887 -6.83,-2.227 -0.916,-0.973 -1.357,-2.182 -1.422,-3.475 0.002,-1.463 -0.186,-6.072 6.002,-6.861 3.033,-0.387 23.85,-2.137 29.364,-28.236 0.56,-2.814 1.688,-7.988 11.362,-7.986 0.9,0 2.137,-1.465 2.475,-2.59 l 3.713,-11.924 z"
     id="path7351"
     inkscape:connector-curvature="0"
     style="fill:url(#SVGID_19_)" /><path
     d="m 38.791633,72.805 c -10e-4,1.574 0.043,5.211 0.939,8.48 l -14.641,9.408 c -7.535,5.062 -8.547,9.336 -9.675,15.262 L 7.3126328,158.68 c -0.302,2.074 0.12,4.984 0.492,7.275 0.31,1.934 0.6,3.75 0.556,5.699 0.002,0.578 0.003,1.15 0.014,1.715 l -1.149,-3.928 c -0.307,-1.051 -0.587,-2.236 -0.831,-3.465 -0.299,-1.527 -0.542,-3.127 -0.687,-4.635 l -4.792,-49.386 c -0.338,-3.602 -0.111,-15.865 9.2280002,-21.152 l 26.924,-16.197 c 0.975,-0.6 1.724,-1.125 1.724,-1.801 z"
     id="path7353"
     inkscape:connector-curvature="0"
     style="fill:#404040" /><linearGradient
     id="SVGID_20_"
     gradientUnits="userSpaceOnUse"
     x1="-302.7695"
     y1="189.98241"
     x2="-302.7695"
     y2="174.90421"
     gradientTransform="rotate(-179.98854,-129.00804,131.4821)"><stop
       offset="0"
       style="stop-color:#5E5E5E"
       id="stop7355" /><stop
       offset="1"
       style="stop-color:#A3A3A3"
       id="stop7357" /></linearGradient><path
     d="m 50.739633,72.805 h -11.948 c -10e-4,1.574 0.043,5.211 0.939,8.48 l 8.648,-5.553 c 1.615,-1.052 2.251,-1.839 2.361,-2.927 z"
     id="path7360"
     inkscape:connector-curvature="0"
     style="fill:url(#SVGID_20_)" /><linearGradient
     id="SVGID_21_"
     gradientUnits="userSpaceOnUse"
     x1="44.256302"
     y1="158.1445"
     x2="44.256302"
     y2="314.59811"
     gradientTransform="translate(-0.1693672,-85.115)"><stop
       offset="0.022"
       style="stop-color:#4A4A4A"
       id="stop7362" /><stop
       offset="0.1319"
       style="stop-color:#C7C7C7"
       id="stop7364" /><stop
       offset="0.2088"
       style="stop-color:#EBEBEB"
       id="stop7366" /><stop
       offset="0.4245"
       style="stop-color:#AAAAAA"
       id="stop7368" /><stop
       offset="0.616"
       style="stop-color:#777777"
       id="stop7370" /><stop
       offset="0.7602"
       style="stop-color:#585858"
       id="stop7372" /><stop
       offset="0.8407"
       style="stop-color:#4D4D4D"
       id="stop7374" /></linearGradient><path
     d="m 50.739633,72.805 c -0.11,1.088 -0.746,1.875 -2.36,2.928 l -8.649,5.552 -14.641,9.408 c -7.535,5.062 -8.547,9.336 -9.675,15.262 L 7.3126328,158.68 c -0.302,2.074 0.12,4.984 0.492,7.275 0.31,1.934 0.6,3.75 0.556,5.699 0.002,0.578 0.003,1.15 0.014,1.715 0.606,46.805 26.0410002,55.885 34.7090002,55.885 l 6.865,0.004 c 1.738,0 3.562,-0.258 5.388,-0.721 3.415,-0.863 6.83,-2.484 9.688,-4.756 l 1.743,-1.576 c 0.509,-0.449 1.195,-2.488 -2.757,-2.924 l -13.499,-1.352 c -3.878,-0.334 -11.811,-5.904 -11.981,-17.043 l -0.541,-14.006 c -0.079,-2.176 -0.978,-15.451 -0.976,-17.1 -0.002,-0.922 0.003,-2.168 0.151,-3.824 0.122,-1.316 0.344,-2.941 0.67,-4.5 l 13.915,-53.775 c 1.688,-5.625 4.911,-12.494 10.128,-17.1 l 17.677,-16.016 c 0.642,-0.553 1.089,-1.029 1.407,-1.76"
     id="path7377"
     inkscape:connector-curvature="0"
     style="fill:url(#SVGID_21_)" /><linearGradient
     id="SVGID_22_"
     gradientUnits="userSpaceOnUse"
     x1="37.653301"
     y1="251.3945"
     x2="37.653301"
     y2="314.6973"
     gradientTransform="translate(-0.1693672,-85.115)"><stop
       offset="0"
       style="stop-color:#666666"
       id="stop7379" /><stop
       offset="0.6429"
       style="stop-color:#3B3B3B"
       id="stop7381" /><stop
       offset="1"
       style="stop-color:#4F4F4F"
       id="stop7383" /></linearGradient><path
     d="m 7.8046328,165.955 c 0.31,1.934 0.6,3.75 0.556,5.699 0.002,0.578 0.003,1.15 0.014,1.715 0.606,46.805 26.0410002,55.885 34.7090002,55.885 l 6.865,0.004 c 1.738,0 3.562,-0.258 5.388,-0.721 3.415,-0.863 6.83,-2.484 9.688,-4.756 l 1.743,-1.576 c 0.509,-0.449 1.195,-2.488 -2.757,-2.924 l -13.499,-1.352 c -3.878,-0.334 -11.811,-5.904 -11.981,-17.043 l -0.541,-14.006 c -0.079,-2.176 -0.978,-15.451 -0.976,-17.1 -0.002,-0.922 0.003,-2.168 0.151,-3.824 z"
     id="path7386"
     inkscape:connector-curvature="0"
     style="fill:url(#SVGID_22_)" /><linearGradient
     id="SVGID_23_"
     gradientUnits="userSpaceOnUse"
     x1="-330.39401"
     y1="115.4985"
     x2="-295.29599"
     y2="115.4985"
     gradientTransform="rotate(-179.98854,-129.00804,131.4821)"><stop
       offset="0"
       style="stop-color:#6E6E6E"
       id="stop7388" /><stop
       offset="0.0332"
       style="stop-color:#6C6C6C"
       id="stop7390" /><stop
       offset="1"
       style="stop-color:#333333"
       id="stop7392" /></linearGradient><path
     d="m 80.964633,72.807 -12.599,67.498 c -2.254,12.303 -2.65,30.117 6.045,42.119 -1.282,1.176 -1.333,2.625 -1.509,3.559 l -3.967,32.174 c -0.285,2.238 -1.152,3.094 -2.166,4.049 0.509,-0.449 1.195,-2.488 -2.757,-2.924 l -13.499,-1.352 c -3.878,-0.334 -11.811,-5.904 -11.981,-17.043 l -0.541,-14.006 c -0.079,-2.176 -0.978,-15.451 -0.976,-17.1 -0.002,-0.922 0.003,-2.168 0.151,-3.824 0.122,-1.316 0.344,-2.941 0.67,-4.5 l 13.915,-53.775 c 1.688,-5.625 4.911,-12.494 10.128,-17.1 l 17.677,-16.016 c 0.643,-0.552 1.09,-1.029 1.409,-1.759 z"
     id="path7395"
     inkscape:connector-curvature="0"
     style="fill:url(#SVGID_23_)" /><path
     d="m 128.35563,72.811 c -0.915,2.416 -5.052,11.191 -8.199,15.148 -3.34,14.398 -11.144,42.896 -22.542997,74.25 -1.273,3.674 -1.773,11.217 -1.026,14.744 0.781,-3.541 1.907,-7.564 3.12,-10.998 L 119.92863,107.57 c 1.012,-2.587 7.411,-23.285 8.427,-34.759 z"
     id="path7397"
     inkscape:connector-curvature="0"
     style="fill:#4a4a4a" /><linearGradient
     id="SVGID_24_"
     gradientUnits="userSpaceOnUse"
     x1="-355.13379"
     y1="174.03709"
     x2="-355.13379"
     y2="99.470299"
     gradientTransform="rotate(-179.98854,-129.00804,131.4821)"><stop
       offset="0.7308"
       style="stop-color:#787878"
       id="stop7399" /><stop
       offset="1"
       style="stop-color:#919191"
       id="stop7401" /></linearGradient><path
     d="m 85.090633,87.957 -10.127,54.15 c -2.398,12.676 0.188,23.287 6.714,32.4 0.785,1.051 1.911,4.275 0.56,5.961 l 13.642,0.002 c 0.213,-1.166 0.451,-2.342 0.707,-3.518 -0.747,-3.527 -0.247,-11.07 1.026,-14.744 11.399997,-31.354 19.203997,-59.852 22.542997,-74.25 z"
     id="path7404"
     inkscape:connector-curvature="0"
     style="fill:url(#SVGID_24_)" /><linearGradient
     id="SVGID_25_"
     gradientUnits="userSpaceOnUse"
     x1="-362.66409"
     y1="189.9834"
     x2="-362.66409"
     y2="174.9086"
     gradientTransform="rotate(-179.98854,-129.00804,131.4821)"><stop
       offset="0"
       style="stop-color:#5E5E5E"
       id="stop7406" /><stop
       offset="1"
       style="stop-color:#A3A3A3"
       id="stop7408" /></linearGradient><path
     d="m 80.964633,72.807 c 0.339,5.064 2.124,10.971 4.126,15.15 l 35.065997,0.002 c 3.147,-3.957 7.284,-12.732 8.199,-15.148 z"
     id="path7411"
     inkscape:connector-curvature="0"
     style="fill:url(#SVGID_25_)" /><linearGradient
     id="SVGID_26_"
     gradientUnits="userSpaceOnUse"
     x1="-334.05469"
     y1="174.03419"
     x2="-334.05469"
     y2="99.4683"
     gradientTransform="rotate(-179.98854,-129.00804,131.4821)"><stop
       offset="0.7308"
       style="stop-color:#666666"
       id="stop7413" /><stop
       offset="1"
       style="stop-color:#8A8A8A"
       id="stop7415" /></linearGradient><path
     d="m 80.964633,72.807 c 0.339,5.064 2.124,10.971 4.126,15.15 l -10.127,54.15 c -2.398,12.676 0.188,23.287 6.714,32.4 0.785,1.051 1.911,4.275 0.56,5.961 -2.297,0 -4.007,0.236 -5.288,0.617 -1.159,0.348 -1.97,0.818 -2.539,1.338 -8.695,-12.002 -8.299,-29.816 -6.045,-42.119 z"
     id="path7418"
     inkscape:connector-curvature="0"
     style="fill:url(#SVGID_26_)" /><linearGradient
     id="SVGID_27_"
     gradientUnits="userSpaceOnUse"
     x1="-355.77341"
     y1="81.682602"
     x2="-355.77341"
     y2="34.284401"
     gradientTransform="rotate(-179.98854,-129.00804,131.4821)"><stop
       offset="0"
       style="stop-color:#5C5C5C"
       id="stop7420" /><stop
       offset="1"
       style="stop-color:#8F8F8F"
       id="stop7422" /></linearGradient><path
     d="m 95.879633,180.471 c 4.897997,0.91 5.707997,5.062 5.370997,7.535 -2.051997,17.82 0.083,33.338 0.297,35.701 0.224,1.988 -0.036,5.547 -1.649997,5.549 -1.646,0 -3.4,-1.291 -4.281,-3.35 -0.283,-0.66 -0.481,-1.398 -0.555,-2.199 -0.085,-0.951 -0.487,-3.875 -0.8,-8.361 -0.481,-6.861 -0.763,-17.141 0.595,-28.182 0.271,-2.207 0.609,-4.447 1.023,-6.693 z"
     id="path7425"
     inkscape:connector-curvature="0"
     style="fill:url(#SVGID_27_)" /><linearGradient
     id="SVGID_28_"
     gradientUnits="userSpaceOnUse"
     x1="-473.36819"
     y1="58.161098"
     x2="-422.69339"
     y2="58.161098"
     gradientTransform="rotate(-179.98854,-129.00804,131.4821)"><stop
       offset="0"
       style="stop-color:#5C5C5C"
       id="stop7427" /><stop
       offset="1"
       style="stop-color:#8F8F8F"
       id="stop7429" /></linearGradient><path
     d="m 172.91263,229.26 c 4.061,-0.473 33.836,-0.629 42.107,-39.672 0.531,-2.363 0.98,-7.65 -3.631,-9.113 -9.674,-0.002 -10.803,5.172 -11.362,7.986 -5.515,26.1 -26.331,27.85 -29.364,28.236 -6.188,0.789 -6,5.398 -6.002,6.861 0.064,1.293 0.506,2.502 1.422,3.475 1.261,1.34 3.437,2.229 6.83,2.227"
     id="path7432"
     inkscape:connector-curvature="0"
     style="fill:url(#SVGID_28_)" /><linearGradient
     id="SVGID_29_"
     gradientUnits="userSpaceOnUse"
     x1="-361.11469"
     y1="77.442902"
     x2="-365.91559"
     y2="61.346699"
     gradientTransform="rotate(-179.98854,-129.00804,131.4821)"><stop
       offset="0.05"
       style="stop-color:#383838"
       id="stop7434" /><stop
       offset="0.3516"
       style="stop-color:#6B6B6B"
       id="stop7436" /><stop
       offset="0.5989"
       style="stop-color:#E6E6E6"
       id="stop7438" /><stop
       offset="0.6648"
       style="stop-color:#E6E6E6"
       id="stop7440" /><stop
       offset="1"
       style="stop-color:#4F4F4F"
       id="stop7442" /></linearGradient><path
     d="m 93.850633,188.321 11.973997,-2.629 c 4.521,-1.113 8.618,1.344 9.617,4.961 1.144,3.57 -1.271,7.811 -5.334,9.412 l -11.457997,4.354 c -0.396,0.121 -1.791,-3.389 -3.116,-7.834 -1.327,-4.446 -2.081,-8.145 -1.683,-8.264 z"
     id="path7445"
     inkscape:connector-curvature="0"
     style="fill:url(#SVGID_29_)" /><path
     d="m 95.532633,196.584 c -1.326,-4.445 -2.08,-8.145 -1.683,-8.264 0.397,-0.117 1.794,3.391 3.118,7.834 1.327,4.447 2.078,8.148 1.681,8.264 -0.396,0.121 -1.791,-3.388 -3.116,-7.834 z"
     id="path7447"
     inkscape:connector-curvature="0"
     style="fill:#1a1a1a" /><linearGradient
     id="SVGID_30_"
     gradientUnits="userSpaceOnUse"
     x1="-361.8403"
     y1="44.764198"
     x2="-366.0582"
     y2="31.117901"
     gradientTransform="rotate(-179.98854,-129.00804,131.4821)"><stop
       offset="0.05"
       style="stop-color:#383838"
       id="stop7449" /><stop
       offset="0.3516"
       style="stop-color:#6B6B6B"
       id="stop7451" /><stop
       offset="0.5989"
       style="stop-color:#E6E6E6"
       id="stop7453" /><stop
       offset="0.6648"
       style="stop-color:#E6E6E6"
       id="stop7455" /><stop
       offset="1"
       style="stop-color:#4F4F4F"
       id="stop7457" /></linearGradient><path
     d="m 97.455633,222.906 c -0.785,0.105 -1.592,0.219 -2.437,0.348 l -0.251,-2.215 c -0.561,0.176 -0.116,3.35 1.066,7.125 1.179,3.777 2.591,6.695 3.149,6.521 l 11.890997,-3.906 c 2.933,-1.08 5.465,-3.826 5.731,-6.824 -0.107,-0.775 -3.135,-2.365 -12.724,-1.715 l -5.430997,1.725 c -0.231,0.068 -0.581,-0.326 -0.994,-1.059 z"
     id="path7460"
     inkscape:connector-curvature="0"
     style="fill:url(#SVGID_30_)" /><linearGradient
     id="SVGID_31_"
     gradientUnits="userSpaceOnUse"
     x1="-361.48389"
     y1="57.441898"
     x2="-366.11499"
     y2="41.9188"
     gradientTransform="rotate(-179.98854,-129.00804,131.4821)"><stop
       offset="0.05"
       style="stop-color:#383838"
       id="stop7462" /><stop
       offset="0.3516"
       style="stop-color:#6B6B6B"
       id="stop7464" /><stop
       offset="0.5989"
       style="stop-color:#E6E6E6"
       id="stop7466" /><stop
       offset="0.6648"
       style="stop-color:#E6E6E6"
       id="stop7468" /><stop
       offset="1"
       style="stop-color:#4F4F4F"
       id="stop7470" /></linearGradient><path
     d="m 94.986633,216.547 c 0.816,2.734 1.74,5.07 2.469,6.359 0.413,0.732 0.763,1.127 0.994,1.059 l 5.430997,-1.725 6.51,-2.068 c 4.247,-1.5 7.615,-5.164 6.158,-10.053 -1.457,-4.887 -6.282,-6.109 -10.657,-5.039 l -12.069997,3.361 c -0.634,0.19 -0.113,3.819 1.165,8.106 z"
     id="path7473"
     inkscape:connector-curvature="0"
     style="fill:url(#SVGID_31_)" /><linearGradient
     id="SVGID_32_"
     gradientUnits="userSpaceOnUse"
     x1="-366.49951"
     y1="36.3843"
     x2="-368.70471"
     y2="28.652599"
     gradientTransform="rotate(-179.98854,-129.00804,131.4821)"><stop
       offset="0.05"
       style="stop-color:#383838"
       id="stop7475" /><stop
       offset="0.3516"
       style="stop-color:#6B6B6B"
       id="stop7477" /><stop
       offset="0.5989"
       style="stop-color:#E6E6E6"
       id="stop7479" /><stop
       offset="0.6648"
       style="stop-color:#E6E6E6"
       id="stop7481" /><stop
       offset="1"
       style="stop-color:#4F4F4F"
       id="stop7483" /></linearGradient><path
     d="m 113.50763,229.254 c -0.801,0.645 -1.692,1.178 -2.634,1.525 l -9.887,3.246 c 0.765,1.668 1.443,2.699 1.781,2.586 l 11.804,-4.154 c 1.659,-0.652 3.162,-1.854 4.198,-3.314 -0.845,0.074 -1.655,0.117 -2.408,0.115 z"
     id="path7486"
     inkscape:connector-curvature="0"
     style="fill:url(#SVGID_32_)" /><linearGradient
     id="SVGID_33_"
     gradientUnits="userSpaceOnUse"
     x1="-391.60739"
     y1="75.213402"
     x2="-394.10361"
     y2="60.117599"
     gradientTransform="rotate(-179.98854,-129.00804,131.4821)"><stop
       offset="0.05"
       style="stop-color:#383838"
       id="stop7488" /><stop
       offset="0.3516"
       style="stop-color:#6B6B6B"
       id="stop7490" /><stop
       offset="0.5989"
       style="stop-color:#E6E6E6"
       id="stop7492" /><stop
       offset="0.6648"
       style="stop-color:#E6E6E6"
       id="stop7494" /><stop
       offset="1"
       style="stop-color:#4F4F4F"
       id="stop7496" /></linearGradient><path
     d="m 125.02463,189.217 13.715,-0.955 c 3.337,-0.152 6.383,1.945 6.938,5.297 0.553,3.348 -1.656,6.314 -4.865,7.246 l -13.294,3.508 c -1.268,0.209 -2.853,-3.002 -3.542,-7.17 -0.688,-4.168 -0.219,-7.719 1.048,-7.926 z"
     id="path7499"
     inkscape:connector-curvature="0"
     style="fill:url(#SVGID_33_)" /><ellipse
     transform="rotate(170.62434)"
     cx="-92.534065"
     cy="-214.71848"
     rx="2.3259022"
     ry="7.6486788"
     id="ellipse7501"
     style="fill:#1a1a1a;stroke-width:0.99995798" /><linearGradient
     id="SVGID_34_"
     gradientUnits="userSpaceOnUse"
     x1="-362.88129"
     y1="92.962898"
     x2="-365.89511"
     y2="79.307098"
     gradientTransform="rotate(-179.98854,-129.00804,131.4821)"><stop
       offset="0.05"
       style="stop-color:#383838"
       id="stop7503" /><stop
       offset="0.3516"
       style="stop-color:#6B6B6B"
       id="stop7505" /><stop
       offset="0.5989"
       style="stop-color:#E6E6E6"
       id="stop7507" /><stop
       offset="0.6648"
       style="stop-color:#E6E6E6"
       id="stop7509" /><stop
       offset="1"
       style="stop-color:#4F4F4F"
       id="stop7511" /></linearGradient><path
     d="m 98.309633,171.492 10.082997,-1.043 c 3.04,-0.301 5.923,1.467 6.591,4.498 0.667,3.029 -1.203,5.844 -4.088,6.848 l -9.575,3.354 c -1.145,0.254 -2.749997,-2.6 -3.582997,-6.369 -0.829,-3.772 -0.574,-7.034 0.572,-7.288 z"
     id="path7514"
     inkscape:connector-curvature="0"
     style="fill:url(#SVGID_34_)" /><path
     d="m 97.737633,178.78 c -0.83,-3.771 -0.575,-7.033 0.571,-7.287 1.145,-0.252 2.748997,2.6 3.580997,6.371 0.834,3.771 0.577,7.035 -0.569,7.285 -1.145,0.254 -2.749997,-2.6 -3.582997,-6.369 z"
     id="path7516"
     inkscape:connector-curvature="0"
     style="fill:#1a1a1a" /><linearGradient
     id="SVGID_35_"
     gradientUnits="userSpaceOnUse"
     x1="-385.8877"
     y1="56.042999"
     x2="-389.21219"
     y2="41.7938"
     gradientTransform="rotate(-179.98854,-129.00804,131.4821)"><stop
       offset="0.05"
       style="stop-color:#383838"
       id="stop7518" /><stop
       offset="0.3516"
       style="stop-color:#6B6B6B"
       id="stop7520" /><stop
       offset="0.5989"
       style="stop-color:#E6E6E6"
       id="stop7522" /><stop
       offset="0.6648"
       style="stop-color:#E6E6E6"
       id="stop7524" /><stop
       offset="1"
       style="stop-color:#4F4F4F"
       id="stop7526" /></linearGradient><path
     d="m 120.65863,208.651 10.712,-1.229 c 3.121,-0.463 6.261,1.438 6.997,4.6 0.737,3.162 -1.254,6.213 -4.237,7.242 l -10.15,3.637 c -0.915,0.213 -2.399,-2.805 -3.314,-6.738 -0.919,-3.938 -0.921,-7.299 -0.008,-7.512 z"
     id="path7529"
     inkscape:connector-curvature="0"
     style="fill:url(#SVGID_35_)" /><ellipse
     transform="rotate(166.82673)"
     cx="-69.929733"
     cy="-237.96609"
     rx="1.6970255"
     ry="7.3161101"
     id="ellipse7531"
     style="fill:#1a1a1a;stroke-width:1.00001502" /><linearGradient
     id="SVGID_36_"
     gradientUnits="userSpaceOnUse"
     x1="-385.12299"
     y1="45.111801"
     x2="-389.22931"
     y2="32.958698"
     gradientTransform="rotate(-179.98854,-129.00804,131.4821)"><stop
       offset="0.05"
       style="stop-color:#383838"
       id="stop7533" /><stop
       offset="0.3516"
       style="stop-color:#6B6B6B"
       id="stop7535" /><stop
       offset="0.5989"
       style="stop-color:#E6E6E6"
       id="stop7537" /><stop
       offset="0.6648"
       style="stop-color:#E6E6E6"
       id="stop7539" /><stop
       offset="1"
       style="stop-color:#4F4F4F"
       id="stop7541" /></linearGradient><path
     d="m 120.24763,224.375 c 0.131,0.508 0.274,1.033 0.43,1.572 1.125,3.873 2.417,6.867 2.891,6.686 l 7.094,-3.186 c 2.11,-1.031 7.016,-3.324 6.91,-7.641 0.001,-1.126 -5.07,-1.282 -17.325,2.569 z"
     id="path7544"
     inkscape:connector-curvature="0"
     style="fill:url(#SVGID_36_)" /><linearGradient
     id="SVGID_37_"
     gradientUnits="userSpaceOnUse"
     x1="-389.64209"
     y1="94.653801"
     x2="-393.1778"
     y2="79.152496"
     gradientTransform="rotate(-179.98854,-129.00804,131.4821)"><stop
       offset="0.05"
       style="stop-color:#383838"
       id="stop7546" /><stop
       offset="0.3516"
       style="stop-color:#6B6B6B"
       id="stop7548" /><stop
       offset="0.5989"
       style="stop-color:#E6E6E6"
       id="stop7550" /><stop
       offset="0.6648"
       style="stop-color:#E6E6E6"
       id="stop7552" /><stop
       offset="1"
       style="stop-color:#4F4F4F"
       id="stop7554" /></linearGradient><path
     d="m 123.86363,170.129 12.407,-1.951 c 4.938,-0.76 7.744,2.545 8.371,5.336 0.611,2.4 -0.456,6.986 -5.229,8.459 l -12.016,3.658 c -1.937,0.443 -4.301,-2.67 -5.276,-6.951 -0.977,-4.281 -0.195,-8.109 1.743,-8.551 z"
     id="path7557"
     inkscape:connector-curvature="0"
     style="fill:url(#SVGID_37_)" /><linearGradient
     id="SVGID_38_"
     gradientUnits="userSpaceOnUse"
     x1="-469.0737"
     y1="81.6763"
     x2="-472.5882"
     y2="65.795601"
     gradientTransform="rotate(-179.98854,-129.00804,131.4821)"><stop
       offset="0.05"
       style="stop-color:#383838"
       id="stop7559" /><stop
       offset="0.3516"
       style="stop-color:#6B6B6B"
       id="stop7561" /><stop
       offset="0.5989"
       style="stop-color:#E6E6E6"
       id="stop7563" /><stop
       offset="0.6648"
       style="stop-color:#E6E6E6"
       id="stop7565" /><stop
       offset="1"
       style="stop-color:#4F4F4F"
       id="stop7567" /></linearGradient><path
     d="m 208.66563,181.883 9.232,0.027 c 2.822,0.076 5.582,1.809 6.36,4.748 0.606,3.141 -1.249,5.727 -3.776,6.982 l -8.305,4.125 c -0.564,0.305 -1.182,0.523 -1.834,0.658 -4.047,0.844 -8.094,-2.148 -9.038,-6.682 -0.942,-4.533 1.573,-8.889 5.621,-9.732 0.578,-0.118 1.172,-0.153 1.74,-0.126 z"
     id="path7570"
     inkscape:connector-curvature="0"
     style="fill:url(#SVGID_38_)" /><linearGradient
     id="SVGID_39_"
     gradientUnits="userSpaceOnUse"
     x1="-465.05911"
     y1="62.769001"
     x2="-468.6636"
     y2="46.486198"
     gradientTransform="rotate(-179.98854,-129.00804,131.4821)"><stop
       offset="0.05"
       style="stop-color:#383838"
       id="stop7572" /><stop
       offset="0.3516"
       style="stop-color:#6B6B6B"
       id="stop7574" /><stop
       offset="0.5989"
       style="stop-color:#E6E6E6"
       id="stop7576" /><stop
       offset="0.6648"
       style="stop-color:#E6E6E6"
       id="stop7578" /><stop
       offset="1"
       style="stop-color:#4F4F4F"
       id="stop7580" /></linearGradient><path
     d="m 204.31063,200.864 9.752,-0.578 c 3.201,0.084 5.947,2.176 6.803,5.406 0.665,3.449 -1.006,6.471 -3.873,7.891 l -9.079,3.564 c -0.579,0.312 -1.214,0.537 -1.882,0.676 -4.148,0.863 -8.298,-2.203 -9.266,-6.852 -0.966,-4.645 1.613,-9.113 5.764,-9.977 0.59,-0.121 1.2,-0.158 1.781,-0.13 z"
     id="path7583"
     inkscape:connector-curvature="0"
     style="fill:url(#SVGID_39_)" /><linearGradient
     id="SVGID_40_"
     gradientUnits="userSpaceOnUse"
     x1="-452.84131"
     y1="49.193401"
     x2="-456.09729"
     y2="32.7089"
     gradientTransform="rotate(-179.98854,-129.00804,131.4821)"><stop
       offset="0.05"
       style="stop-color:#383838"
       id="stop7585" /><stop
       offset="0.3516"
       style="stop-color:#6B6B6B"
       id="stop7587" /><stop
       offset="0.5989"
       style="stop-color:#E6E6E6"
       id="stop7589" /><stop
       offset="0.6648"
       style="stop-color:#E6E6E6"
       id="stop7591" /><stop
       offset="1"
       style="stop-color:#4F4F4F"
       id="stop7593" /></linearGradient><path
     d="m 193.21763,231.278 9.046,-2.902 c 2.443,-0.857 6.121,-3.898 5.648,-8.609 -6.375,0.064 -11.914,-6.318 -18.604,-4.795 -3.451,0.828 -5.375,5.15 -4.295,9.652 1.079,4.501 4.753,7.48 8.205,6.654 z"
     id="path7596"
     inkscape:connector-curvature="0"
     style="fill:url(#SVGID_40_)" /><linearGradient
     id="SVGID_41_"
     gradientUnits="userSpaceOnUse"
     x1="-434.91989"
     y1="44.421398"
     x2="-439.51459"
     y2="27.782499"
     gradientTransform="rotate(-179.98854,-129.00804,131.4821)"><stop
       offset="0.05"
       style="stop-color:#383838"
       id="stop7598" /><stop
       offset="0.3516"
       style="stop-color:#6B6B6B"
       id="stop7600" /><stop
       offset="0.5989"
       style="stop-color:#E6E6E6"
       id="stop7602" /><stop
       offset="0.6648"
       style="stop-color:#E6E6E6"
       id="stop7604" /><stop
       offset="1"
       style="stop-color:#4F4F4F"
       id="stop7606" /></linearGradient><path
     d="m 169.47863,230.156 c 1.541,4.434 5.314,7.152 8.428,6.072 l 11.271,-3.918 c 0.604,-0.221 1.256,-0.6 1.835,-1.01 -1.333,-0.27 -2.606,-1.039 -3.656,-2.182 -2.954,-0.68 -6.069,-1.865 -7.171,-4.166 -2.016,-3.924 -5.264,-5.686 -7.859,-4.781 -3.113,1.081 -4.389,5.552 -2.848,9.985 z"
     id="path7609"
     inkscape:connector-curvature="0"
     style="fill:url(#SVGID_41_)" /><linearGradient
     id="SVGID_42_"
     gradientUnits="userSpaceOnUse"
     x1="-467.03561"
     y1="45.8237"
     x2="-469.81659"
     y2="33.788898"
     gradientTransform="rotate(-179.98854,-129.00804,131.4821)"><stop
       offset="0.05"
       style="stop-color:#383838"
       id="stop7611" /><stop
       offset="0.3516"
       style="stop-color:#6B6B6B"
       id="stop7613" /><stop
       offset="0.5989"
       style="stop-color:#E6E6E6"
       id="stop7615" /><stop
       offset="0.6648"
       style="stop-color:#E6E6E6"
       id="stop7617" /><stop
       offset="1"
       style="stop-color:#4F4F4F"
       id="stop7619" /></linearGradient><path
     d="m 211.99063,219.319 c -0.018,-0.023 -0.041,-0.041 -0.059,-0.064 -0.544,0.197 -1.95,0.516 -3.994,1.617 -0.146,4.041 -3.368,6.664 -5.611,7.479 1.912,1.773 4.559,2.439 6.917,1.48 0.61,-0.25 1.147,-0.574 1.628,-0.988 l 6.021,-4.402 c 1.087,-0.787 2.373,-2.674 2.004,-4.436 -1.371,-0.149 -5.803,0.72 -6.906,-0.686 z"
     id="path7622"
     inkscape:connector-curvature="0"
     style="fill:url(#SVGID_42_)" /><path
     d="m 202.32663,228.35 c 1.912,1.773 4.559,2.439 6.917,1.48 0.61,-0.25 1.147,-0.574 1.628,-0.988 2.182,-1.873 2.97,-5.26 1.705,-8.365 -0.166,-0.41 -0.365,-0.793 -0.586,-1.158 -0.018,-0.023 -0.041,-0.041 -0.059,-0.064 -0.544,0.197 -1.95,0.516 -3.994,1.617 -0.147,4.04 -3.368,6.663 -5.611,7.478 z"
     id="path7624"
     inkscape:connector-curvature="0"
     style="fill:#1a1a1a" /><linearGradient
     id="SVGID_43_"
     gradientUnits="userSpaceOnUse"
     x1="-480.14551"
     y1="61.805199"
     x2="-483.02731"
     y2="46.121899"
     gradientTransform="rotate(-179.98854,-129.00804,131.4821)"><stop
       offset="0.05"
       style="stop-color:#383838"
       id="stop7626" /><stop
       offset="0.3516"
       style="stop-color:#6B6B6B"
       id="stop7628" /><stop
       offset="0.5989"
       style="stop-color:#E6E6E6"
       id="stop7630" /><stop
       offset="0.6648"
       style="stop-color:#E6E6E6"
       id="stop7632" /><stop
       offset="1"
       style="stop-color:#4F4F4F"
       id="stop7634" /></linearGradient><path
     d="m 216.99263,213.582 -1.811,0.713 c 1.801,2.637 4.937,3.939 7.814,2.984 0.574,-0.189 1.109,-0.451 1.589,-0.787 l 0.724,-0.596 4.947,-4.098 c 1.545,-1.34 2.531,-3.346 2.024,-6.035 -0.468,-2.488 -2.769,-3.99 -5.321,-3.568 l -4.204,0.869 c -0.634,0.523 -1.372,1.16 -2.159,1.863 0.096,0.25 0.199,0.496 0.27,0.764 0.665,3.45 -1.006,6.471 -3.873,7.891 z"
     id="path7637"
     inkscape:connector-curvature="0"
     style="fill:url(#SVGID_43_)" /><path
     d="m 222.75463,203.065 c -0.634,0.523 -1.372,1.16 -2.159,1.863 0.096,0.25 0.199,0.496 0.27,0.764 0.665,3.449 -1.006,6.471 -3.873,7.891 l -1.811,0.713 c 1.801,2.637 4.937,3.939 7.814,2.984 0.574,-0.189 1.109,-0.451 1.589,-0.787 l 0.724,-0.596 c 1.963,-1.869 2.744,-4.986 1.748,-7.99 -0.762,-2.292 -2.383,-4.012 -4.302,-4.842 z"
     id="path7639"
     inkscape:connector-curvature="0"
     style="fill:#1a1a1a" /><linearGradient
     id="SVGID_44_"
     gradientUnits="userSpaceOnUse"
     x1="-488.17969"
     y1="80.260696"
     x2="-489.48471"
     y2="65.871498"
     gradientTransform="rotate(-179.98854,-129.00804,131.4821)"><stop
       offset="0.05"
       style="stop-color:#383838"
       id="stop7641" /><stop
       offset="0.3516"
       style="stop-color:#6B6B6B"
       id="stop7643" /><stop
       offset="0.5989"
       style="stop-color:#E6E6E6"
       id="stop7645" /><stop
       offset="0.6648"
       style="stop-color:#E6E6E6"
       id="stop7647" /><stop
       offset="1"
       style="stop-color:#4F4F4F"
       id="stop7649" /></linearGradient><path
     d="m 229.31663,182.85 c -4.238,0.482 -6.244,10.828 -4.254,14.605 1.198,0.512 2.521,0.674 3.844,0.398 0.609,-0.127 1.186,-0.33 1.713,-0.613 0.354,-0.191 0.686,-0.414 0.997,-0.666 l 4.694,-4.607 c 1.357,-1.441 1.436,-3.734 0.945,-5.326 -0.229,-0.734 -0.949,-2.207 -2.142,-2.838 -1.252,-0.662 -2.798,-0.832 -5.797,-0.953 z"
     id="path7652"
     inkscape:connector-curvature="0"
     style="fill:url(#SVGID_44_)" /><linearGradient
     id="SVGID_45_"
     gradientUnits="userSpaceOnUse"
     x1="-493.7886"
     y1="96.138199"
     x2="-495.00751"
     y2="82.624901"
     gradientTransform="rotate(-179.98854,-129.00804,131.4821)"><stop
       offset="0.05"
       style="stop-color:#383838"
       id="stop7654" /><stop
       offset="0.3516"
       style="stop-color:#6B6B6B"
       id="stop7656" /><stop
       offset="0.5989"
       style="stop-color:#E6E6E6"
       id="stop7658" /><stop
       offset="0.6648"
       style="stop-color:#E6E6E6"
       id="stop7660" /><stop
       offset="1"
       style="stop-color:#4F4F4F"
       id="stop7662" /></linearGradient><path
     d="m 234.93163,166.979 c -4.056,0.143 -5.995,9.643 -4.098,13.309 1.146,0.562 2.412,0.812 3.678,0.652 0.582,-0.072 1.133,-0.221 1.637,-0.445 0.338,-0.152 0.657,-0.336 0.955,-0.549 l 4.291,-3.908 c 1.232,-1.174 1.845,-3.326 1.136,-5.205 -0.26,-0.688 -0.914,-1.863 -2.056,-2.539 -1.196,-0.71 -2.675,-0.981 -5.543,-1.315 z"
     id="path7665"
     inkscape:connector-curvature="0"
     style="fill:url(#SVGID_45_)" /><linearGradient
     id="SVGID_46_"
     gradientUnits="userSpaceOnUse"
     x1="-470.646"
     y1="99.3936"
     x2="-472.88199"
     y2="84.528999"
     gradientTransform="rotate(-179.98854,-129.00804,131.4821)"><stop
       offset="0.05"
       style="stop-color:#383838"
       id="stop7667" /><stop
       offset="0.3516"
       style="stop-color:#6B6B6B"
       id="stop7669" /><stop
       offset="0.5989"
       style="stop-color:#E6E6E6"
       id="stop7671" /><stop
       offset="0.6648"
       style="stop-color:#E6E6E6"
       id="stop7673" /><stop
       offset="1"
       style="stop-color:#4F4F4F"
       id="stop7675" /></linearGradient><path
     d="m 213.21463,163.549 c 2.414,0.457 7.287,1.287 8.244,5.689 0.955,4.402 -3.021,7.941 -6.011,9.178 -0.347,0.145 -0.716,0.234 -1.095,0.316 -3.717,0.805 -7.462,-1.918 -8.363,-6.08 -0.9,-4.162 1.381,-8.191 5.1,-8.994 0.714,-0.156 1.432,-0.199 2.125,-0.109 z"
     id="path7678"
     inkscape:connector-curvature="0"
     style="fill:url(#SVGID_46_)" /><linearGradient
     id="SVGID_47_"
     gradientUnits="userSpaceOnUse"
     x1="-290.76611"
     y1="50.769501"
     x2="-297.25189"
     y2="37.724602"
     gradientTransform="rotate(-179.98854,-129.00804,131.4821)"><stop
       offset="0.05"
       style="stop-color:#383838"
       id="stop7680" /><stop
       offset="0.3516"
       style="stop-color:#6B6B6B"
       id="stop7682" /><stop
       offset="0.5989"
       style="stop-color:#E6E6E6"
       id="stop7684" /><stop
       offset="0.6648"
       style="stop-color:#E6E6E6"
       id="stop7686" /><stop
       offset="1"
       style="stop-color:#4F4F4F"
       id="stop7688" /></linearGradient><path
     d="m 30.531633,213.323 5.069,-2.189 c 1.715,-0.812 6.274,0.256 7.927,3.83 2.046,4.555 -0.059,7.744 -1.737,8.629 l -4.776,2.777 c -2.963,1.471 -6.816,-0.256 -8.606,-3.857 -1.791,-3.603 -0.839,-7.716 2.123,-9.19 z"
     id="path7691"
     inkscape:connector-curvature="0"
     style="fill:url(#SVGID_47_)" /><linearGradient
     id="SVGID_48_"
     gradientUnits="userSpaceOnUse"
     x1="-276.82471"
     y1="49.418499"
     x2="-285.10641"
     y2="36.1516"
     gradientTransform="rotate(-179.98854,-129.00804,131.4821)"><stop
       offset="0.05"
       style="stop-color:#383838"
       id="stop7693" /><stop
       offset="0.3516"
       style="stop-color:#6B6B6B"
       id="stop7695" /><stop
       offset="0.5989"
       style="stop-color:#E6E6E6"
       id="stop7697" /><stop
       offset="0.6648"
       style="stop-color:#E6E6E6"
       id="stop7699" /><stop
       offset="1"
       style="stop-color:#4F4F4F"
       id="stop7701" /></linearGradient><path
     d="m 17.260633,223.137 c 2.167,3.787 6.717,5.477 9.833,3.693 l 2.396,-1.83 c 0.152,-0.098 0.277,-0.232 0.384,-0.389 -0.567,-0.602 -1.069,-1.301 -1.465,-2.1 -1.058,-2.129 -1.153,-4.434 -0.445,-6.268 -2.313,-3.465 -6.468,-4.508 -7.299,-4.043 l -1.688,0.85 c -3.115,1.786 -3.884,6.3 -1.716,10.087 z"
     id="path7704"
     inkscape:connector-curvature="0"
     style="fill:url(#SVGID_48_)" /><linearGradient
     id="SVGID_49_"
     gradientUnits="userSpaceOnUse"
     x1="-283.24759"
     y1="67.536102"
     x2="-286.9556"
     y2="53.4496"
     gradientTransform="rotate(-179.98854,-129.00804,131.4821)"><stop
       offset="0.05"
       style="stop-color:#383838"
       id="stop7706" /><stop
       offset="0.3516"
       style="stop-color:#6B6B6B"
       id="stop7708" /><stop
       offset="0.5989"
       style="stop-color:#E6E6E6"
       id="stop7710" /><stop
       offset="0.6648"
       style="stop-color:#E6E6E6"
       id="stop7712" /><stop
       offset="1"
       style="stop-color:#4F4F4F"
       id="stop7714" /></linearGradient><path
     d="m 22.484633,196.176 5.593,-1.133 c 1.622,-0.391 5.734,0.693 6.81,5.338 1.079,4.686 -1.67,7.648 -3.272,8.119 l -5.425,1.764 c -2.818,0.74 -5.933,-1.811 -6.956,-5.703 -1.025,-3.889 0.43,-7.643 3.25,-8.385 z"
     id="path7717"
     inkscape:connector-curvature="0"
     style="fill:url(#SVGID_49_)" /><linearGradient
     id="SVGID_50_"
     gradientUnits="userSpaceOnUse"
     x1="-268.69629"
     y1="68.0625"
     x2="-274.3591"
     y2="52.610401"
     gradientTransform="rotate(-179.98854,-129.00804,131.4821)"><stop
       offset="0.05"
       style="stop-color:#383838"
       id="stop7719" /><stop
       offset="0.3516"
       style="stop-color:#6B6B6B"
       id="stop7721" /><stop
       offset="0.5989"
       style="stop-color:#E6E6E6"
       id="stop7723" /><stop
       offset="0.6648"
       style="stop-color:#E6E6E6"
       id="stop7725" /><stop
       offset="1"
       style="stop-color:#4F4F4F"
       id="stop7727" /></linearGradient><path
     d="m 6.7056328,205.094 c 1.561,4.27 5.3890002,6.812 8.5520002,5.68 l 5.17,-2.215 c 0.213,-0.111 0.383,-0.295 0.521,-0.529 -0.754,-0.945 -1.359,-2.123 -1.714,-3.469 -0.584,-2.215 -0.36,-4.385 0.457,-5.979 -1.144,-2.914 -2.616,-5.229 -4.367,-4.812 l -5.7270002,1.551 c -3.162,1.13 -4.457,5.505 -2.892,9.773 z"
     id="path7730"
     inkscape:connector-curvature="0"
     style="fill:url(#SVGID_50_)" /><linearGradient
     id="SVGID_51_"
     gradientUnits="userSpaceOnUse"
     x1="-282.8013"
     y1="85.861298"
     x2="-286.50961"
     y2="71.773804"
     gradientTransform="rotate(-179.98854,-129.00804,131.4821)"><stop
       offset="0.05"
       style="stop-color:#383838"
       id="stop7732" /><stop
       offset="0.3516"
       style="stop-color:#6B6B6B"
       id="stop7734" /><stop
       offset="0.5989"
       style="stop-color:#E6E6E6"
       id="stop7736" /><stop
       offset="0.6648"
       style="stop-color:#E6E6E6"
       id="stop7738" /><stop
       offset="1"
       style="stop-color:#4F4F4F"
       id="stop7740" /></linearGradient><path
     d="m 22.041633,177.852 5.593,-1.131 c 1.622,-0.391 5.734,0.691 6.811,5.336 1.078,4.688 -1.669,7.65 -3.272,8.121 l -5.426,1.762 c -2.819,0.74 -5.931,-1.811 -6.955,-5.701 -1.026,-3.891 0.428,-7.643 3.249,-8.387 z"
     id="path7743"
     inkscape:connector-curvature="0"
     style="fill:url(#SVGID_51_)" /><linearGradient
     id="SVGID_52_"
     gradientUnits="userSpaceOnUse"
     x1="-280.90771"
     y1="102.6865"
     x2="-283.97739"
     y2="88.449203"
     gradientTransform="rotate(-179.98854,-129.00804,131.4821)"><stop
       offset="0.05"
       style="stop-color:#383838"
       id="stop7745" /><stop
       offset="0.3516"
       style="stop-color:#6B6B6B"
       id="stop7747" /><stop
       offset="0.5989"
       style="stop-color:#E6E6E6"
       id="stop7749" /><stop
       offset="0.6648"
       style="stop-color:#E6E6E6"
       id="stop7751" /><stop
       offset="1"
       style="stop-color:#4F4F4F"
       id="stop7753" /></linearGradient><path
     d="m 20.124633,160.903 5.639,-0.879 c 1.637,-0.318 5.697,0.949 6.563,5.639 0.866,4.729 -2.013,7.566 -3.635,7.963 l -5.5,1.516 c -2.851,0.615 -5.846,-2.072 -6.693,-6.006 -0.848,-3.935 0.774,-7.618 3.626,-8.233 z"
     id="path7756"
     inkscape:connector-curvature="0"
     style="fill:url(#SVGID_52_)" /><linearGradient
     id="SVGID_53_"
     gradientUnits="userSpaceOnUse"
     x1="-267.21921"
     y1="84.945297"
     x2="-269.99469"
     y2="72.076202"
     gradientTransform="rotate(-179.98854,-129.00804,131.4821)"><stop
       offset="0.05"
       style="stop-color:#383838"
       id="stop7758" /><stop
       offset="0.3516"
       style="stop-color:#6B6B6B"
       id="stop7760" /><stop
       offset="0.5989"
       style="stop-color:#E6E6E6"
       id="stop7762" /><stop
       offset="0.6648"
       style="stop-color:#E6E6E6"
       id="stop7764" /><stop
       offset="1"
       style="stop-color:#4F4F4F"
       id="stop7766" /></linearGradient><path
     d="m 8.8526328,178.119 c -2.577,0.555 -4.043,3.885 -3.274,7.438 0.765,3.557 3.471,5.988 6.0470002,5.432 1.797,-0.441 4.763,-4.125 3.99,-7.418 -0.77,-3.291 -4.927,-5.788 -6.7630002,-5.452 z"
     id="path7769"
     inkscape:connector-curvature="0"
     style="fill:url(#SVGID_53_)" /><linearGradient
     id="SVGID_54_"
     gradientUnits="userSpaceOnUse"
     x1="-280.56589"
     y1="170.5713"
     x2="-275.76291"
     y2="159.8954"
     gradientTransform="rotate(-179.98854,-129.00804,131.4821)"><stop
       offset="0.05"
       style="stop-color:#383838"
       id="stop7771" /><stop
       offset="0.3516"
       style="stop-color:#6B6B6B"
       id="stop7773" /><stop
       offset="0.5989"
       style="stop-color:#E6E6E6"
       id="stop7775" /><stop
       offset="0.6648"
       style="stop-color:#E6E6E6"
       id="stop7777" /><stop
       offset="1"
       style="stop-color:#4F4F4F"
       id="stop7779" /></linearGradient><path
     d="m 17.678633,96.647 c 1.325,-2.943 3.748,-4.875 5.274,-4.041 0.821,0.451 1.042,3.236 -0.285,6.184 -1.324,2.945 -3.755,4.877 -4.518,4.486 -1.548,-0.791 -1.796,-3.68 -0.471,-6.629 z"
     id="path7782"
     inkscape:connector-curvature="0"
     style="fill:url(#SVGID_54_)" /><linearGradient
     id="SVGID_55_"
     gradientUnits="userSpaceOnUse"
     x1="-387.36621"
     y1="170.7715"
     x2="-383.8222"
     y2="159.6245"
     gradientTransform="rotate(-179.98854,-129.00804,131.4821)"><stop
       offset="0.05"
       style="stop-color:#383838"
       id="stop7784" /><stop
       offset="0.3516"
       style="stop-color:#6B6B6B"
       id="stop7786" /><stop
       offset="0.5989"
       style="stop-color:#E6E6E6"
       id="stop7788" /><stop
       offset="0.6648"
       style="stop-color:#E6E6E6"
       id="stop7790" /><stop
       offset="1"
       style="stop-color:#4F4F4F"
       id="stop7792" /></linearGradient><path
     d="m 127.12463,91.533 c 2.12,0.865 7.37,4.062 5.81,7.512 -1.446,3.203 -6.344,4.395 -9.356,3.635 -1.657,-0.525 -2.208,-3.449 -1.229,-6.527 0.979,-3.078 3.119,-5.147 4.775,-4.62 z"
     id="path7795"
     inkscape:connector-curvature="0"
     style="fill:url(#SVGID_55_)" /><linearGradient
     id="SVGID_56_"
     gradientUnits="userSpaceOnUse"
     x1="-482.89789"
     y1="170.81841"
     x2="-485.02789"
     y2="157.94119"
     gradientTransform="rotate(-179.98854,-129.00804,131.4821)"><stop
       offset="0.05"
       style="stop-color:#383838"
       id="stop7797" /><stop
       offset="0.3516"
       style="stop-color:#6B6B6B"
       id="stop7799" /><stop
       offset="0.5989"
       style="stop-color:#E6E6E6"
       id="stop7801" /><stop
       offset="0.6648"
       style="stop-color:#E6E6E6"
       id="stop7803" /><stop
       offset="1"
       style="stop-color:#4F4F4F"
       id="stop7805" /></linearGradient><path
     d="m 222.82363,92.559 c 5.618,-1.154 8.698,0.01 9.928,2.389 1.229,2.383 0.819,5.414 -1.095,6.721 l -4.671,2.912 c -0.598,0.434 -1.283,0.732 -2.034,0.855 -3.008,0.496 -5.922,-1.982 -6.51,-5.539 -0.587,-3.555 1.375,-6.84 4.382,-7.338 z"
     id="path7808"
     inkscape:connector-curvature="0"
     style="fill:url(#SVGID_56_)" /><path
     d="m 201.30563,191.742 c -0.942,-4.533 1.573,-8.889 5.621,-9.732 0.577,-0.119 1.171,-0.154 1.739,-0.127 3.417,0.174 6.489,2.922 7.299,6.809 0.791,3.803 -0.847,7.49 -3.787,9.074 -0.564,0.305 -1.182,0.523 -1.834,0.658 -4.047,0.844 -8.094,-2.148 -9.038,-6.682 z"
     id="path7810"
     inkscape:connector-curvature="0"
     style="fill:#1a1a1a" /><path
     d="m 205.99063,172.653 c -0.9,-4.162 1.381,-8.191 5.1,-8.994 0.714,-0.156 1.432,-0.199 2.125,-0.109 2.928,0.385 5.511,2.826 6.238,6.189 0.81,3.738 -0.945,7.393 -4.005,8.678 -0.347,0.145 -0.716,0.234 -1.095,0.316 -3.717,0.804 -7.462,-1.918 -8.363,-6.08 z"
     id="path7812"
     inkscape:connector-curvature="0"
     style="fill:#1a1a1a" /><ellipse
     transform="rotate(166.51407)"
     cx="-133.96867"
     cy="-261.58041"
     rx="6.4268203"
     ry="8.3837652"
     id="ellipse7814"
     style="fill:#1a1a1a;stroke-width:0.99997199" /><path
     d="m 169.47863,230.156 c -1.541,-4.434 -0.265,-8.904 2.848,-9.984 2.596,-0.904 5.844,0.857 7.859,4.781 0.334,0.65 0.311,0.551 0.565,1.287 1.542,4.434 0.267,8.906 -2.845,9.988 -3.113,1.081 -6.886,-1.638 -8.427,-6.072 z"
     id="path7816"
     inkscape:connector-curvature="0"
     style="fill:#1a1a1a" /><path
     d="m 196.76563,210.971 c -0.966,-4.645 1.613,-9.113 5.764,-9.977 0.59,-0.121 1.2,-0.158 1.781,-0.131 3.504,0.18 6.653,2.994 7.482,6.979 0.812,3.898 -0.867,7.68 -3.88,9.305 -0.579,0.312 -1.214,0.537 -1.882,0.676 -4.148,0.863 -8.297,-2.204 -9.265,-6.852 z"
     id="path7818"
     inkscape:connector-curvature="0"
     style="fill:#1a1a1a" /><path
     d="m 229.31663,182.85 c -4.238,0.482 -6.244,10.828 -4.254,14.605 1.198,0.512 2.521,0.674 3.844,0.398 0.609,-0.127 1.186,-0.33 1.713,-0.613 0.354,-0.191 0.686,-0.414 0.997,-0.666 2.099,-1.701 3.176,-4.709 2.532,-7.797 -0.595,-2.859 -2.488,-5.048 -4.832,-5.927 z"
     id="path7820"
     inkscape:connector-curvature="0"
     style="fill:#1a1a1a" /><path
     d="m 234.93163,166.979 c -4.056,0.143 -5.995,9.643 -4.098,13.309 1.146,0.562 2.412,0.812 3.678,0.652 0.582,-0.072 1.133,-0.221 1.637,-0.445 0.338,-0.152 0.657,-0.336 0.955,-0.549 2.012,-1.432 3.048,-4.158 2.438,-7.086 -0.563,-2.707 -2.37,-4.889 -4.61,-5.881 z"
     id="path7822"
     inkscape:connector-curvature="0"
     style="fill:#1a1a1a" /><ellipse
     transform="rotate(167.1617)"
     cx="-82.956917"
     cy="-201.35289"
     rx="3.5999961"
     ry="7.9499912"
     id="ellipse7824"
     style="fill:#1a1a1a;stroke-width:0.99999893" /><path
     d="m 122.34963,96.153 c 0.979,-3.078 3.119,-5.146 4.775,-4.619 1.659,0.527 2.208,3.451 1.229,6.529 -0.98,3.08 -3.117,5.148 -4.775,4.617 -1.658,-0.525 -2.208,-3.449 -1.229,-6.527 z"
     id="path7826"
     inkscape:connector-curvature="0"
     style="fill:#1a1a1a" /><path
     d="m 218.44163,99.897 c -0.587,-3.555 1.375,-6.84 4.382,-7.338 3.007,-0.494 5.92,1.984 6.509,5.539 0.439,2.666 -0.554,5.182 -2.347,6.482 -0.598,0.434 -1.283,0.732 -2.034,0.855 -3.008,0.497 -5.922,-1.982 -6.51,-5.538 z"
     id="path7828"
     inkscape:connector-curvature="0"
     style="fill:#1a1a1a" /><linearGradient
     id="SVGID_57_"
     gradientUnits="userSpaceOnUse"
     x1="-293.11041"
     y1="38.559601"
     x2="-304.9043"
     y2="29.932501"
     gradientTransform="rotate(-179.98854,-129.00804,131.4821)"><stop
       offset="0.05"
       style="stop-color:#383838"
       id="stop7830" /><stop
       offset="0.3516"
       style="stop-color:#6B6B6B"
       id="stop7832" /><stop
       offset="0.5989"
       style="stop-color:#E6E6E6"
       id="stop7834" /><stop
       offset="0.6648"
       style="stop-color:#E6E6E6"
       id="stop7836" /><stop
       offset="1"
       style="stop-color:#4F4F4F"
       id="stop7838" /></linearGradient><path
     d="m 37.014633,226.369 c -1.2,0.596 -2.545,0.658 -3.84,0.293 -0.385,2.27 0.432,4.908 2.388,6.945 2.987,3.111 7.481,3.643 10.041,1.186 l 3.996,-4.371 c 1.087,-1.09 2.732,-6.023 -7.72,-6.883 -0.029,0.016 -0.06,0.039 -0.089,0.053 z"
     id="path7841"
     inkscape:connector-curvature="0"
     style="fill:url(#SVGID_57_)" /></svg>