<?xml version="1.0" encoding="UTF-8" standalone="no"?>
<!-- Generator: Adobe Illustrator 13.0.2, SVG Export Plug-In  -->

<svg
   xmlns:dc="http://purl.org/dc/elements/1.1/"
   xmlns:cc="http://creativecommons.org/ns#"
   xmlns:rdf="http://www.w3.org/1999/02/22-rdf-syntax-ns#"
   xmlns:svg="http://www.w3.org/2000/svg"
   xmlns="http://www.w3.org/2000/svg"
   xmlns:sodipodi="http://sodipodi.sourceforge.net/DTD/sodipodi-0.dtd"
   xmlns:inkscape="http://www.inkscape.org/namespaces/inkscape"
   version="1.1"
   x="0px"
   y="0px"
   width="248.19543"
   height="237.87802"
   viewBox="-0.184 -0.855 248.19543 237.87802"
   enable-background="new -0.184 -0.855 249 324"
   xml:space="preserve"
   id="svg1302"
   sodipodi:docname="Drill-Bit.ver.1.svg"
   inkscape:version="0.92.2 (5c3e80d, 2017-08-06)"><metadata
     id="metadata1306"><rdf:RDF><cc:Work
         rdf:about=""><dc:format>image/svg+xml</dc:format><dc:type
           rdf:resource="http://purl.org/dc/dcmitype/StillImage" /></cc:Work></rdf:RDF></metadata><sodipodi:namedview
     pagecolor="#ffffff"
     bordercolor="#666666"
     borderopacity="1"
     objecttolerance="10"
     gridtolerance="10"
     guidetolerance="10"
     inkscape:pageopacity="0"
     inkscape:pageshadow="2"
     inkscape:window-width="1236"
     inkscape:window-height="995"
     id="namedview1304"
     showgrid="false"
     inkscape:zoom="0.72839506"
     inkscape:cx="124.31863"
     inkscape:cy="161.59701"
     inkscape:window-x="220"
     inkscape:window-y="54"
     inkscape:window-maximized="0"
     inkscape:current-layer="svg1302" /><defs
     id="defs659" /><linearGradient
     id="SVGID_1_"
     gradientUnits="userSpaceOnUse"
     x1="-443.6543"
     y1="342.35641"
     x2="-337.6553"
     y2="342.35641"
     gradientTransform="rotate(-179.98854,-133.41856,172.38139)"><stop
       offset="0.05"
       style="stop-color:#9299B1"
       id="stop663" /><stop
       offset="0.5"
       style="stop-color:#FFFFFF"
       id="stop665" /><stop
       offset="0.9451"
       style="stop-color:#9299B1"
       id="stop667" /></linearGradient><linearGradient
     id="SVGID_2_"
     gradientUnits="userSpaceOnUse"
     x1="-445.9072"
     y1="299.91891"
     x2="-335.43311"
     y2="299.91891"
     gradientTransform="rotate(-179.98854,-133.41856,172.38139)"><stop
       offset="0.05"
       style="stop-color:#5D7091"
       id="stop672" /><stop
       offset="0.5"
       style="stop-color:#FFFFFF"
       id="stop674" /><stop
       offset="0.9451"
       style="stop-color:#5D7091"
       id="stop676" /></linearGradient><path
     d="m 0.9036328,111.35 4.792,49.388 c 0.145,1.507 0.388,3.106 0.687,4.634 0.244,1.229 0.524,2.414 0.831,3.465 l 1.149,3.928 c 0.022,1.662 0.078,3.273 0.16,4.84 -2.375,0.752 -3.692,3.945 -2.956,7.348 0.603,2.801 2.408,4.896 4.407,5.393 0.2560002,1.396 0.5440002,2.734 0.8530002,4.035 l -1.2410002,0.336 c -3.162,1.131 -4.457,5.506 -2.892,9.774 1.561,4.269 5.3890002,6.812 8.5520002,5.68 l 1.285,-0.552 c 0.615,1.12 1.252,2.177 1.907,3.174 -2.668,1.971 -3.229,6.178 -1.19,9.74 2.167,3.787 6.717,5.477 9.833,3.693 l 2.396,-1.83 c 0.095,-0.06 0.176,-0.139 0.251,-0.225 0.303,0.194 0.606,0.382 0.907,0.562 0.747,0.604 1.574,1.042 2.424,1.299 0.034,0.015 0.067,0.03 0.101,0.047 -0.378,2.265 0.438,4.894 2.39,6.925 2.987,3.112 7.481,3.643 10.041,1.186 l 3.996,-4.371 c 0.236,-0.235 0.499,-0.656 0.658,-1.176 1.645,-0.028 3.361,-0.273 5.08,-0.709 2.512,0.393 4.788,0.605 6.716,0.684 1.22,2.057 4.074,3.787 5.907,4.346 l 7.333,2.666 c 1.938,0.703 4.57,-1.613 6.035,-5.227 l 7.051,2.564 c 2.102,0.764 4.827,-1.775 6.296,-5.817 0.007,-0.022 0.012,-0.044 0.021,-0.062 l 1.126,0.442 c 0.003,0.01 0.006,0.021 0.01,0.031 1.179,3.777 2.591,6.695 3.149,6.521 l 2.003997,-0.658 c 0.765,1.666 1.442,2.697 1.78,2.584 l 11.804,-4.154 c 1.659,-0.652 3.162,-1.854 4.198,-3.314 -0.147,0.012 -0.286,0.02 -0.431,0.029 1.025,-0.076 2.11,-0.209 3.24,-0.402 0.846,2.402 1.64,3.998 1.989,3.863 l 7.095,-3.186 c 1.432,-0.698 4.145,-1.981 5.713,-4.08 l -0.002,0.003 c 1.9,2.853 5.346,4.493 8.949,3.897 3.18,-0.522 5.684,-2.66 6.838,-5.431 1.156,0.312 2.338,0.62 3.541,0.921 0.586,3.199 2.832,5.783 5.902,6.35 2.569,0.477 5.107,-0.57 6.859,-2.553 -0.006,-0.002 -0.011,-0.006 -0.018,-0.008 0.205,0.078 0.422,0.148 0.646,0.217 0.101,0.463 0.225,0.928 0.387,1.394 1.541,4.433 5.314,7.151 8.427,6.071 l 11.271,-3.918 c 0.604,-0.221 1.256,-0.6 1.835,-1.01 v -0.002 c 0.727,0.148 1.471,0.154 2.205,-0.021 0.232,-0.057 0.456,-0.129 0.674,-0.217 l 3.098,-0.994 c 1.533,3.715 5.443,6.025 9.555,5.348 4.328,-0.715 7.378,-4.496 7.341,-8.773 l -3.014,2.202 6.022,-4.402 -0.437,0.319 c 2.081,1.941 5.062,2.824 8.016,2.074 4.634,-1.17 7.433,-5.897 6.255,-10.559 -0.33,-1.303 -0.943,-2.453 -1.745,-3.42 l -3.673,3.041 4.947,-4.098 c 0.331,-0.289 0.631,-0.611 0.901,-0.961 0,0 0,0 -10e-4,0 3.326,0.451 6.746,-1.043 8.585,-4.084 2.472,-4.09 1.141,-9.42 -2.974,-11.906 -0.381,-0.23 -0.774,-0.418 -1.172,-0.586 l -1.934,7.25 2.51,-9.412 0.139,-0.132 c 0.1,-0.108 0.18,-0.228 0.267,-0.343 1.466,-0.701 2.751,-1.818 3.653,-3.309 1.868,-3.094 1.561,-6.895 -0.479,-9.639 l -2.323,8.713 2.727,-10.225 1.239,-1.129 c 1.231,-1.174 1.844,-3.326 1.135,-5.205 -0.092,-0.246 -0.254,-0.557 -0.45,-0.881 l 0.134,-0.502 c 0.277,-1.053 0.543,-2.258 0.75,-3.486 0.26,-1.529 0.44,-3.105 0.545,-4.611 l 3.432,-49.391 c 0.338,-3.602 0.114,-15.861 -9.223,-21.148 l -27.826,-16.203 c -0.973,-0.6 -1.724,-1.125 -1.724,-1.801 l 0.001,-69.634 -2.42,-2.42 -16.749,0.001 -130.856997,-0.006 -16.916,0.001 -2.428,2.42 -0.002,69.634 c 0,0.676 -0.749,1.201 -1.724,1.801 l -26.924,16.197 C 0.7926328,95.485 0.5656328,107.749 0.9036328,111.35 Z"
     id="path681"
     inkscape:connector-curvature="0"
     style="fill:none;stroke:#114d75;stroke-width:2;stroke-linecap:round;stroke-linejoin:round" /><path
     d="m 150.91863,189.061 c -2.054,10.463 -4.328,19.052 -5.615,22.791 -0.215,0.646 -0.566,1.492 -0.865,2.141 3.374,-0.227 11.631,-0.25 11.629,-2.781 0.001,-1.104 -0.939,-2.232 -1.816,-3.053 -0.249,-0.279 -0.663,-0.878 -0.663,-1.48 l 0.416,-17.625 z"
     id="path683"
     inkscape:connector-curvature="0"
     style="fill:#6d7b99" /><path
     d="m 163.57663,186.863 c -1.203,-4.409 -5.558,-7.003 -10.887,-7 -0.26,1.142 -0.523,2.442 -0.789,3.94 -0.316,1.795 -0.646,3.547 -0.982,5.256 l 3.085,-0.006 c 2.08,0 5.973,-0.543 9.573,-2.19 z"
     id="path685"
     inkscape:connector-curvature="0"
     style="fill:#a0a6bb" /><linearGradient
     id="SVGID_3_"
     gradientUnits="userSpaceOnUse"
     x1="-420.26031"
     y1="71.4702"
     x2="-420.26031"
     y2="32.0951"
     gradientTransform="rotate(-179.98854,-133.51353,129.5219)"><stop
       offset="0.05"
       style="stop-color:#6A7D9C"
       id="stop687" /><stop
       offset="0.8242"
       style="stop-color:#B3B7C8"
       id="stop689" /><stop
       offset="1"
       style="stop-color:#D0D1DC"
       id="stop691" /></linearGradient><path
     d="m 166.06963,226.428 c -0.915,-0.972 -1.356,-2.182 -1.421,-3.475 l -0.746,-33.824 c -0.021,-0.801 -0.135,-1.561 -0.326,-2.267 -3.6,1.647 -7.493,2.19 -9.573,2.19 l -0.416,17.625 c 0,0.603 0.414,1.201 0.663,1.48 0.877,0.82 1.817,1.949 1.816,3.053 0.002,2.531 -8.255,2.555 -11.629,2.781 -0.966,2.1 -2.277,3.965 -4.078,5.641 6.854,2.341 15.965,4.979 25.71,6.796 z"
     id="path694"
     inkscape:connector-curvature="0"
     style="fill:url(#SVGID_3_)" /><linearGradient
     id="SVGID_4_"
     gradientUnits="userSpaceOnUse"
     x1="-342.5112"
     y1="30.518101"
     x2="-342.5112"
     y2="44.469002"
     gradientTransform="rotate(-179.98854,-133.51353,129.5219)"><stop
       offset="0.05"
       style="stop-color:#DEE0E6"
       id="stop696" /><stop
       offset="1"
       style="stop-color:#BDC0CF"
       id="stop698" /></linearGradient><path
     d="m 94.249633,214.741 -4.655,-0.001 c -5.792,0 -14.429,2.305 -20.672,2.812 -0.285,2.237 -1.152,3.093 -2.166,4.048 l -1.743,1.577 c -2.858,2.271 -6.274,3.892 -9.688,4.755 3.261,0.51 6.13,0.719 8.347,0.721 l 11.663,-0.002 c 6.562,0.002 13.85,-1.194 20.269,-3.349 -0.283,-0.661 -0.481,-1.399 -0.555,-2.2 -0.085,-0.951 -0.486,-3.875 -0.8,-8.361 z"
     id="path701"
     inkscape:connector-curvature="0"
     style="fill:url(#SVGID_4_)" /><path
     d="m 95.867633,179.866 -13.642,-0.001 c -2.297,0 -4.007,0.235 -5.288,0.616 5.175,3.002 12.215,5.188 17.907,6.078 0.271,-2.207 0.609,-4.446 1.023,-6.693 z"
     id="path703"
     inkscape:connector-curvature="0"
     style="fill:#a0a6bb" /><linearGradient
     id="SVGID_5_"
     gradientUnits="userSpaceOnUse"
     x1="-348.92529"
     y1="78.603996"
     x2="-348.92529"
     y2="42.666801"
     gradientTransform="rotate(-179.98854,-133.51353,129.5219)"><stop
       offset="0.1264"
       style="stop-color:#6A7D9C"
       id="stop705" /><stop
       offset="0.3636"
       style="stop-color:#7A89A5"
       id="stop707" /><stop
       offset="0.8528"
       style="stop-color:#A6ACC0"
       id="stop709" /><stop
       offset="1"
       style="stop-color:#B7BBCB"
       id="stop711" /></linearGradient><path
     d="m 76.937633,180.481 c -1.159,0.348 -1.97,0.818 -2.539,1.338 -1.282,1.176 -1.333,2.625 -1.509,3.559 l -3.967,32.175 c 6.243,-0.508 14.88,-2.812 20.672,-2.812 l 4.655,10e-4 c -0.481,-6.861 -0.763,-17.141 0.595,-28.182 -5.692,-0.891 -12.732,-3.077 -17.907,-6.079 z"
     id="path714"
     inkscape:connector-curvature="0"
     style="fill:url(#SVGID_5_)" /><linearGradient
     id="SVGID_6_"
     gradientUnits="userSpaceOnUse"
     x1="-339.64209"
     y1="34.419399"
     x2="-337.04141"
     y2="25.5229"
     gradientTransform="rotate(-179.98854,-133.51353,129.5219)"><stop
       offset="0.05"
       style="stop-color:#486387"
       id="stop716" /><stop
       offset="0.5"
       style="stop-color:#909FB7"
       id="stop718" /><stop
       offset="0.6484"
       style="stop-color:#B5B9C9"
       id="stop720" /><stop
       offset="1"
       style="stop-color:#687796"
       id="stop722" /></linearGradient><path
     d="m 75.281633,235.628 -7.333,-2.666 c -2.268,-0.691 -6.099,-3.174 -6.465,-5.851 -0.355,-2.61 10.103,-2.375 20.51,1.155 -0.125,0.539 -0.281,1.091 -0.483,1.643 -1.417,3.894 -4.203,6.453 -6.229,5.719 z"
     id="path725"
     inkscape:connector-curvature="0"
     style="fill:url(#SVGID_6_)" /><linearGradient
     id="SVGID_7_"
     gradientUnits="userSpaceOnUse"
     x1="-352.68021"
     y1="37.560501"
     x2="-349.685"
     y2="28.281"
     gradientTransform="rotate(-179.98854,-133.51353,129.5219)"><stop
       offset="0.05"
       style="stop-color:#486387"
       id="stop727" /><stop
       offset="0.5"
       style="stop-color:#909FB7"
       id="stop729" /><stop
       offset="0.6484"
       style="stop-color:#B5B9C9"
       id="stop731" /><stop
       offset="1"
       style="stop-color:#687796"
       id="stop733" /></linearGradient><path
     d="m 88.367633,232.966 -7.613,-2.768 c -2.355,-0.716 -6.335,-3.295 -6.713,-6.074 -0.372,-2.711 10.317,-2.351 21.126,1.316 -0.132,0.561 -0.294,1.132 -0.504,1.708 -1.469,4.042 -4.194,6.581 -6.296,5.818 z"
     id="path736"
     inkscape:connector-curvature="0"
     style="fill:url(#SVGID_7_)" /><linearGradient
     id="SVGID_8_"
     gradientUnits="userSpaceOnUse"
     x1="-360.33539"
     y1="43.0522"
     x2="-356.60361"
     y2="34.066799"
     gradientTransform="rotate(-179.98854,-133.51353,129.5219)"><stop
       offset="0.05"
       style="stop-color:#486387"
       id="stop738" /><stop
       offset="0.5"
       style="stop-color:#909FB7"
       id="stop740" /><stop
       offset="0.6484"
       style="stop-color:#B5B9C9"
       id="stop742" /><stop
       offset="1"
       style="stop-color:#687796"
       id="stop744" /></linearGradient><path
     d="m 91.568633,225.857 4.243,1.671 c -1.175,-3.762 -1.616,-6.917 -1.057,-7.094 l 0.013,0.111 c -0.08,-0.742 -0.171,-1.607 -0.262,-2.611 -5.823,-0.898 -9.977,-0.422 -9.725,1.395 0.409,2.957 4.422,5.738 6.788,6.528 z"
     id="path747"
     inkscape:connector-curvature="0"
     style="fill:url(#SVGID_8_)" /><path
     d="m 145.31063,228.663 c 4.904,-0.809 8.223,-5.441 7.413,-10.346 -0.629,-3.802 -3.558,-6.643 -7.128,-7.354 -0.102,0.318 -0.2,0.622 -0.293,0.889 -0.215,0.646 -0.566,1.492 -0.865,2.141 -0.966,2.1 -2.277,3.965 -4.078,5.641 -0.868,0.809 -1.824,1.553 -2.832,2.25 -0.111,1.099 -0.547,2.053 -1.166,2.882 1.9,2.852 5.346,4.493 8.949,3.897 z"
     id="path749"
     inkscape:connector-curvature="0"
     style="fill:#647494" /><path
     d="m 166.06963,226.428 c -0.915,-0.972 -1.356,-2.182 -1.421,-3.475 l -0.205,-9.266 c -4.021,-0.588 -7.903,2.506 -8.744,7.044 -0.859,4.634 1.778,9.009 5.893,9.771 2.569,0.477 5.107,-0.57 6.859,-2.553 -1.006,-0.384 -1.797,-0.9 -2.382,-1.521 z"
     id="path751"
     inkscape:connector-curvature="0"
     style="fill:#647494" /><path
     d="m 209.23063,229.225 c -2.357,0.959 -5.004,0.294 -6.916,-1.48 0.01,-0.004 0.02,-0.007 0.031,-0.009 -0.031,0.009 -0.064,0.024 -0.094,0.034 l -5.275,1.691 c 1.533,3.715 5.443,6.025 9.555,5.348 4.328,-0.715 7.378,-4.496 7.341,-8.773 l -3.014,2.202 c -0.48,0.413 -1.017,0.737 -1.628,0.987 z"
     id="path753"
     inkscape:connector-curvature="0"
     style="fill:#647494" /><path
     d="m 224.57263,215.887 c -0.041,0.029 -0.089,0.051 -0.131,0.078 -1.712,1.559 -3.559,2.941 -5.499,4.154 -0.04,1.533 -1.122,3.033 -2.062,3.716 l -0.437,0.319 c 2.081,1.941 5.062,2.824 8.016,2.074 4.634,-1.17 7.433,-5.897 6.255,-10.559 -0.33,-1.303 -0.943,-2.453 -1.745,-3.42 l -3.673,3.041 z"
     id="path755"
     inkscape:connector-curvature="0"
     style="fill:#647494" /><path
     d="m 232.24263,205.072 c 0.006,0.028 0.02,0.056 0.025,0.087 0.396,2.111 -0.132,3.798 -1.123,5.074 3.326,0.451 6.746,-1.043 8.585,-4.084 2.472,-4.09 1.141,-9.42 -2.974,-11.906 -0.381,-0.23 -0.774,-0.418 -1.172,-0.586 l -1.934,7.25 c -0.382,1.461 -0.854,2.848 -1.407,4.165 z"
     id="path757"
     inkscape:connector-curvature="0"
     style="fill:#647494" /><path
     d="m 236.56463,191.02 c 1.467,-0.701 2.751,-1.816 3.654,-3.309 1.868,-3.094 1.561,-6.895 -0.479,-9.639 l -2.324,8.715 c 0.239,1.374 0.061,3.02 -0.851,4.233 z"
     id="path759"
     inkscape:connector-curvature="0"
     style="fill:#647494" /><path
     d="m 50.245633,228.641 c 1.645,-0.028 3.361,-0.273 5.08,-0.709 3.415,-0.863 6.83,-2.484 9.688,-4.755 l 1.743,-1.577 c 1.014,-0.955 1.881,-1.811 2.166,-4.048 l 3.967,-32.175 c 0.176,-0.934 0.227,-2.383 1.509,-3.559 0.569,-0.52 1.38,-0.99 2.539,-1.338 1.281,-0.381 2.991,-0.616 5.288,-0.616 l 13.642,0.001 c -0.415,2.247 -0.752,4.486 -1.023,6.693 -0.04,0.32 -0.073,0.639 -0.11,0.959 l -0.896,0.197 c -0.253,0.076 -0.038,1.611 0.496,3.865 -0.489,5.912 -0.551,11.467 -0.42,16.229 l -0.104,0.027 c -0.464,0.139 -0.308,2.125 0.312,4.861 0.042,0.707 0.083,1.395 0.129,2.043 0.17,2.43 0.363,4.383 0.521,5.831 l -0.016,-0.138 c -0.561,0.177 -0.116,3.35 1.066,7.125 1.179,3.777 2.591,6.695 3.149,6.521 l 2.003997,-0.658 c 0.765,1.666 1.442,2.697 1.78,2.584 l 11.804,-4.154 c 1.659,-0.652 3.162,-1.854 4.198,-3.314 -0.147,0.012 -0.286,0.02 -0.431,0.029 1.025,-0.076 2.11,-0.209 3.24,-0.402 0.846,2.402 1.64,3.998 1.989,3.863 l 7.095,-3.186 c 1.993,-0.977 6.476,-3.077 6.877,-6.944 1.008,-0.701 1.962,-1.454 2.832,-2.265 1.801,-1.676 3.112,-3.541 4.078,-5.641 0.299,-0.648 0.65,-1.494 0.865,-2.141 1.287,-3.739 3.562,-12.33 5.614,-22.793 0.335,-1.707 0.667,-3.461 0.983,-5.256 0.266,-1.498 0.529,-2.799 0.789,-3.94 5.329,-0.003 9.684,2.591 10.887,7 0.191,0.706 0.305,1.466 0.326,2.267 l 0.746,33.824 c 0.064,1.293 0.506,2.503 1.421,3.475 0.701,0.745 1.696,1.341 3.011,1.73 0.101,0.463 0.225,0.928 0.387,1.394 1.541,4.433 5.314,7.151 8.427,6.071 l 11.271,-3.918 c 0.604,-0.221 1.256,-0.6 1.835,-1.01 v -0.002 c 0.727,0.148 1.471,0.154 2.205,-0.021 0.232,-0.057 0.456,-0.129 0.674,-0.217 l 8.373,-2.686 c 0.02,-0.005 0.042,-0.018 0.063,-0.025 1.911,1.774 4.558,2.439 6.915,1.48 0.611,-0.25 1.147,-0.574 1.628,-0.987 l 6.022,-4.402 c 0.939,-0.681 2.021,-2.183 2.062,-3.718 1.939,-1.211 3.787,-2.595 5.5,-4.154 0.041,-0.027 0.089,-0.047 0.129,-0.076 l 0.725,-0.596 4.947,-4.098 c 1.545,-1.34 2.53,-3.346 2.023,-6.035 -0.006,-0.031 -0.02,-0.059 -0.025,-0.087 0.553,-1.317 1.026,-2.704 1.408,-4.165 l 2.51,-9.412 0.139,-0.132 c 1.156,-1.229 1.38,-3.073 1.118,-4.577 l 2.727,-10.225"
     id="path761"
     inkscape:connector-curvature="0"
     style="fill:none;stroke:#114d75;stroke-width:2;stroke-linecap:round;stroke-linejoin:round" /><linearGradient
     id="SVGID_9_"
     gradientUnits="userSpaceOnUse"
     x1="-305.7944"
     y1="143.48441"
     x2="-475.59439"
     y2="143.48441"
     gradientTransform="rotate(-179.98854,-133.51353,129.5219)"><stop
       offset="0.05"
       style="stop-color:#5D7091"
       id="stop763" /><stop
       offset="0.5"
       style="stop-color:#FFFFFF"
       id="stop765" /><stop
       offset="0.9451"
       style="stop-color:#5D7091"
       id="stop767" /></linearGradient><path
     d="m 150.91763,189.059 c 0.335,-1.707 0.667,-3.461 0.983,-5.256 0.266,-1.498 0.529,-2.799 0.789,-3.94 5.329,-0.003 9.684,2.591 10.887,7 0.191,0.706 0.305,1.466 0.326,2.267 l 0.746,33.824 c 0.064,1.293 0.506,2.503 1.421,3.475 1.263,1.341 3.438,2.229 6.831,2.227 h 15 c 9.898,0 39.601,-4.198 45.75,-27.748 l 8.551,-32.062 c 0.277,-1.053 0.523,-2.236 0.735,-3.465 0.259,-1.529 0.455,-3.127 0.56,-4.633 l 3.432,-49.391 c 0.338,-3.602 0.114,-15.861 -9.223,-21.148 l -27.826,-16.203 c -0.973,-0.6 -1.724,-1.125 -1.724,-1.801 l 0.001,-69.634 -169.374997,-0.005 -0.002,69.634 c 0,0.676 -0.749,1.201 -1.724,1.801 l -26.924,16.197 C 0.7926328,95.485 0.5656328,107.749 0.9036328,111.35 l 4.792,49.388 c 0.145,1.507 0.388,3.106 0.687,4.634 0.244,1.229 0.524,2.414 0.831,3.465 l 1.149,3.928 c 0.606,46.805 26.0410002,55.885 34.7090002,55.885 l 6.865,0.004 c 1.738,0 3.562,-0.258 5.388,-0.721 3.415,-0.863 6.83,-2.484 9.688,-4.755 l 1.743,-1.577 c 1.014,-0.955 1.881,-1.811 2.166,-4.048 l 3.967,-32.175 c 0.176,-0.934 0.227,-2.383 1.509,-3.559 0.569,-0.52 1.38,-0.99 2.539,-1.338 1.281,-0.381 2.991,-0.616 5.288,-0.616 l 13.642,0.001 c -0.415,2.247 -0.752,4.486 -1.023,6.693 -1.357,11.041 -1.076,21.32 -0.595,28.182 0.313,4.486 0.715,7.41 0.8,8.361 0.074,0.801 0.271,1.539 0.555,2.2 0.881,2.059 2.635,3.349 4.281,3.349 l 16.463997,0.002 c 6.71,0 17.533,-2.99 24.01,-9.02 1.801,-1.676 3.112,-3.541 4.078,-5.641 0.299,-0.648 0.65,-1.494 0.865,-2.141 1.288,-3.738 3.564,-12.329 5.616,-22.792 z"
     id="path770"
     inkscape:connector-curvature="0"
     style="fill:url(#SVGID_9_)" /><linearGradient
     id="SVGID_10_"
     gradientUnits="userSpaceOnUse"
     x1="-475.1582"
     y1="257.7373"
     x2="-305.7832"
     y2="257.7373"
     gradientTransform="rotate(-179.98854,-133.41856,172.38139)"><stop
       offset="0.05"
       style="stop-color:#9299B1"
       id="stop772" /><stop
       offset="0.5"
       style="stop-color:#FFFFFF"
       id="stop774" /><stop
       offset="0.9451"
       style="stop-color:#9299B1"
       id="stop776" /></linearGradient><linearGradient
     id="SVGID_11_"
     gradientUnits="userSpaceOnUse"
     x1="-402.67819"
     y1="186.8896"
     x2="-402.67819"
     y2="31.569201"
     gradientTransform="rotate(-179.98854,-133.51353,129.5219)"><stop
       offset="0.022"
       style="stop-color:#526C8E"
       id="stop781" /><stop
       offset="0.1319"
       style="stop-color:#A6ACBF"
       id="stop783" /><stop
       offset="0.2088"
       style="stop-color:#C5C7D4"
       id="stop785" /><stop
       offset="0.4777"
       style="stop-color:#969DB4"
       id="stop787" /><stop
       offset="0.7928"
       style="stop-color:#6A7998"
       id="stop789" /><stop
       offset="0.9451"
       style="stop-color:#5A6E8F"
       id="stop791" /></linearGradient><path
     d="m 165.81863,72.317 c -0.001,0.789 0.166,1.576 0.616,2.25 l 8.466,12.787 c 5.316,7.912 0.853,19.35 -0.498,23.85 l -13.742,45.514 -2.607,8.639 c -1.835,6.156 -3.555,6.594 -5.363,14.507 -0.26,1.142 -0.523,2.442 -0.789,3.94 -0.314,1.791 -0.648,3.547 -0.984,5.252 -2.051,10.465 -4.326,19.056 -5.613,22.797 -0.215,0.646 -0.566,1.492 -0.865,2.141 -0.966,2.1 -2.277,3.965 -4.078,5.641 -6.477,6.029 -17.299,9.02 -24.01,9.02 l -16.463997,-0.002 c -1.646,0 -3.4,-1.29 -4.281,-3.349 -0.283,-0.661 -0.481,-1.399 -0.555,-2.2 -0.085,-0.951 -0.487,-3.875 -0.8,-8.361 -0.481,-6.861 -0.763,-17.141 0.595,-28.182 0.271,-2.207 0.609,-4.446 1.023,-6.693 0.213,-1.166 0.451,-2.342 0.707,-3.518 0.781,-3.541 1.907,-7.564 3.12,-10.998 l 20.220997,-58.385 c 1.014,-2.588 7.412,-23.285 8.428,-34.76"
     id="path794"
     inkscape:connector-curvature="0"
     style="fill:url(#SVGID_11_)" /><linearGradient
     id="SVGID_12_"
     gradientUnits="userSpaceOnUse"
     x1="-472.86469"
     y1="186.9072"
     x2="-472.86469"
     y2="30.4492"
     gradientTransform="rotate(-179.98854,-133.51353,129.5219)"><stop
       offset="0.022"
       style="stop-color:#526C8E"
       id="stop796" /><stop
       offset="0.1319"
       style="stop-color:#A6ACBF"
       id="stop798" /><stop
       offset="0.2088"
       style="stop-color:#C5C7D4"
       id="stop800" /><stop
       offset="0.4777"
       style="stop-color:#969DB4"
       id="stop802" /><stop
       offset="0.7928"
       style="stop-color:#6A7998"
       id="stop804" /><stop
       offset="0.9451"
       style="stop-color:#5A6E8F"
       id="stop806" /></linearGradient><path
     d="m 208.15563,72.204 c 0,0.676 0.751,1.201 1.724,1.801 l 27.826,16.203 c 9.337,5.287 9.561,17.547 9.223,21.148 l -3.432,49.391 c -0.104,1.506 -0.285,3.082 -0.545,4.611 -0.207,1.229 -0.473,2.434 -0.75,3.486 l -8.551,32.062 c -6.149,23.55 -35.852,27.748 -45.75,27.748 h -15 c -3.394,0.002 -5.568,-0.886 -6.831,-2.227 -0.915,-0.972 -1.356,-2.182 -1.421,-3.475 0.002,-1.463 -0.186,-6.072 6.002,-6.861 3.033,-0.386 23.849,-2.136 29.363,-28.236 0.561,-2.814 1.688,-7.988 11.363,-7.986 0.9,0 2.136,-1.465 2.475,-2.589 l 3.713,-11.925 11.252,-54.787 c 1.012,-5.287 2.812,-14.287 -3.489,-19.125 l -23.481,-16.65 -0.479,-0.338 c -1.012,-0.674 -1.35,-1.35 -1.35,-2.252"
     id="path809"
     inkscape:connector-curvature="0"
     style="fill:url(#SVGID_12_)" /><linearGradient
     id="SVGID_13_"
     gradientUnits="userSpaceOnUse"
     x1="-392.99069"
     y1="93.9673"
     x2="-392.99069"
     y2="30.368799"
     gradientTransform="rotate(-179.98854,-133.51353,129.5219)"><stop
       offset="0.05"
       style="stop-color:#8D96AF"
       id="stop811" /><stop
       offset="0.8242"
       style="stop-color:#A6ACBF"
       id="stop813" /><stop
       offset="1"
       style="stop-color:#BDC0CF"
       id="stop815" /></linearGradient><path
     d="M 158.05263,165.356 99.694633,165.35 c -1.212,3.434 -2.338,7.457 -3.12,10.998 -0.256,1.176 -0.494,2.352 -0.707,3.518 -0.415,2.247 -0.752,4.486 -1.023,6.693 -1.357,11.041 -1.076,21.32 -0.595,28.182 0.313,4.486 0.715,7.41 0.8,8.361 0.074,0.801 0.271,1.539 0.555,2.2 0.881,2.059 2.635,3.349 4.281,3.349 l 16.463997,0.002 c 6.71,0 17.533,-2.99 24.01,-9.02 1.801,-1.676 3.112,-3.541 4.078,-5.641 0.299,-0.648 0.65,-1.494 0.865,-2.141 1.287,-3.739 3.562,-12.338 5.613,-22.797 0.338,-1.709 0.668,-3.457 0.984,-5.252 0.266,-1.498 0.529,-2.799 0.789,-3.94 1.81,-7.912 3.529,-8.35 5.364,-14.506 z"
     id="path818"
     inkscape:connector-curvature="0"
     style="fill:url(#SVGID_13_)" /><linearGradient
     id="SVGID_14_"
     gradientUnits="userSpaceOnUse"
     x1="-443.03271"
     y1="170.72459"
     x2="-443.03271"
     y2="96.157097"
     gradientTransform="rotate(-179.98854,-133.51353,129.5219)"><stop
       offset="0.7308"
       style="stop-color:#8E96AF"
       id="stop820" /><stop
       offset="1"
       style="stop-color:#B5BCCC"
       id="stop822" /></linearGradient><path
     d="m 174.90063,87.354 c 5.316,7.912 0.853,19.35 -0.498,23.85 l -13.742,45.514 c 2.24,0.889 5.28,3.318 6.756,7.82 8.516,-7.109 11.484,-14.783 13.437,-24.082 l 10.501,-53.102 z"
     id="path825"
     inkscape:connector-curvature="0"
     style="fill:url(#SVGID_14_)" /><linearGradient
     id="SVGID_15_"
     gradientUnits="userSpaceOnUse"
     x1="-451.6694"
     y1="170.7256"
     x2="-451.6694"
     y2="96.1577"
     gradientTransform="rotate(-179.98854,-133.51353,129.5219)"><stop
       offset="0.7308"
       style="stop-color:#7F8DA9"
       id="stop827" /><stop
       offset="1"
       style="stop-color:#ADB5C7"
       id="stop829" /></linearGradient><path
     d="m 200.01763,72.204 c -2.062,6.152 -6.564,12.451 -8.664,15.15 l -10.501,53.102 c -1.952,9.299 -4.921,16.973 -13.437,24.082 0.379,1.141 0.423,2.484 0.426,3.743 l -0.002,9.335 c 3.373,-3.258 16.875,-15.186 21.488,-35.887 l 10.801,-53.436 c 0.562,-2.59 1.958,-9.523 1.717,-13.5 l -0.479,-0.338 c -1.011,-0.673 -1.349,-1.349 -1.349,-2.251 z"
     id="path832"
     inkscape:connector-curvature="0"
     style="fill:url(#SVGID_15_)" /><linearGradient
     id="SVGID_16_"
     gradientUnits="userSpaceOnUse"
     x1="-449.93411"
     y1="187.123"
     x2="-449.93411"
     y2="171.82091"
     gradientTransform="rotate(-179.98854,-133.51353,129.5219)"><stop
       offset="0"
       style="stop-color:#828CA7"
       id="stop834" /><stop
       offset="1"
       style="stop-color:#A9B1C5"
       id="stop836" /></linearGradient><path
     d="m 200.01763,72.204 c -2.062,6.152 -6.564,12.451 -8.664,15.15 h -16.453 l -8.466,-12.787 c -0.45,-0.674 -0.617,-1.574 -0.616,-2.363 z"
     id="path839"
     inkscape:connector-curvature="0"
     style="fill:url(#SVGID_16_)" /><linearGradient
     id="SVGID_17_"
     gradientUnits="userSpaceOnUse"
     x1="-493.29391"
     y1="110.2334"
     x2="-420.39539"
     y2="110.2334"
     gradientTransform="rotate(-179.98854,-133.51353,129.5219)"><stop
       offset="0"
       style="stop-color:#647495"
       id="stop841" /><stop
       offset="0.7033"
       style="stop-color:#9098B1"
       id="stop843" /><stop
       offset="0.7075"
       style="stop-color:#9299B1"
       id="stop845" /><stop
       offset="0.7808"
       style="stop-color:#A7AEC2"
       id="stop847" /><stop
       offset="0.8242"
       style="stop-color:#B0B6C8"
       id="stop849" /></linearGradient><path
     d="m 163.57663,186.863 c 0.191,0.706 0.305,1.466 0.326,2.267 l 0.746,33.824 c 0.002,-1.463 -0.186,-6.072 6.002,-6.861 3.033,-0.386 23.849,-2.136 29.363,-28.236 0.561,-2.814 1.688,-7.988 11.363,-7.986 0.9,0 2.136,-1.465 2.475,-2.589 l 3.713,-11.925 11.252,-54.787 c 1.012,-5.287 2.812,-14.287 -3.489,-19.125 l -23.481,-16.65 c 0.241,3.977 -1.154,10.91 -1.717,13.5 l -10.801,53.436 c -4.613,20.701 -18.115,32.629 -21.488,35.887 l 0.002,-9.335 c -0.003,-1.259 -0.047,-2.603 -0.426,-3.743 -1.476,-4.502 -4.516,-6.932 -6.756,-7.82 l -2.607,8.639 c -1.835,6.156 -3.555,6.594 -5.363,14.507 5.328,-0.006 9.683,2.588 10.886,6.997 z"
     id="path852"
     inkscape:connector-curvature="0"
     style="fill:url(#SVGID_17_)" /><linearGradient
     id="SVGID_18_"
     gradientUnits="userSpaceOnUse"
     x1="-470.83939"
     y1="93.371101"
     x2="-470.83939"
     y2="36.370201"
     gradientTransform="rotate(-179.98854,-133.51353,129.5219)"><stop
       offset="0.05"
       style="stop-color:#8D96AF"
       id="stop854" /><stop
       offset="0.8242"
       style="stop-color:#A6ACBF"
       id="stop856" /><stop
       offset="1"
       style="stop-color:#BDC0CF"
       id="stop858" /></linearGradient><path
     d="m 242.95163,165.358 c -0.207,1.229 -0.473,2.434 -0.75,3.486 l -8.551,32.062 c -6.149,23.55 -35.852,27.748 -45.75,27.748 h -15 c -3.394,0.002 -5.568,-0.886 -6.831,-2.227 -0.915,-0.972 -1.356,-2.182 -1.421,-3.475 0.002,-1.463 -0.186,-6.072 6.002,-6.861 3.033,-0.386 23.849,-2.136 29.363,-28.236 0.561,-2.814 1.688,-7.988 11.363,-7.986 0.9,0 2.136,-1.465 2.475,-2.589 l 3.713,-11.925 z"
     id="path861"
     inkscape:connector-curvature="0"
     style="fill:url(#SVGID_18_)" /><path
     d="m 38.779633,72.2 c -10e-4,1.574 0.043,5.211 0.939,8.48 l -14.641,9.408 c -7.535,5.062 -8.547,9.336 -9.675,15.262 l -8.1020002,52.725 c -0.302,2.074 0.12,4.984 0.492,7.275 0.31,1.934 0.6,3.75 0.556,5.699 0.002,0.578 0.003,1.15 0.014,1.715 l -1.149,-3.928 c -0.307,-1.051 -0.587,-2.236 -0.831,-3.465 -0.299,-1.527 -0.542,-3.127 -0.687,-4.634 l -4.792,-49.388 c -0.338,-3.602 -0.111,-15.865 9.2280002,-21.152 L 37.055633,74 c 0.975,-0.599 1.724,-1.124 1.724,-1.8 z"
     id="path863"
     inkscape:connector-curvature="0"
     style="fill:#5d6f90" /><linearGradient
     id="SVGID_19_"
     gradientUnits="userSpaceOnUse"
     x1="-311.76901"
     y1="186.668"
     x2="-311.76901"
     y2="171.58971"
     gradientTransform="rotate(-179.98854,-133.51353,129.5219)"><stop
       offset="0"
       style="stop-color:#828CA7"
       id="stop865" /><stop
       offset="1"
       style="stop-color:#A9B1C5"
       id="stop867" /></linearGradient><path
     d="m 50.727633,72.2 h -11.948 c -10e-4,1.574 0.043,5.211 0.939,8.48 l 8.648,-5.553 c 1.615,-1.052 2.251,-1.839 2.361,-2.927 z"
     id="path870"
     inkscape:connector-curvature="0"
     style="fill:url(#SVGID_19_)" /><linearGradient
     id="SVGID_20_"
     gradientUnits="userSpaceOnUse"
     x1="-311.09909"
     y1="187.2666"
     x2="-311.09909"
     y2="93.066299"
     gradientTransform="rotate(-179.98854,-133.51353,129.5219)"><stop
       offset="0.022"
       style="stop-color:#526C8E"
       id="stop872" /><stop
       offset="0.2198"
       style="stop-color:#A6ACBF"
       id="stop874" /><stop
       offset="0.3242"
       style="stop-color:#C7C9D5"
       id="stop876" /><stop
       offset="0.5376"
       style="stop-color:#A1A6BB"
       id="stop878" /><stop
       offset="0.8494"
       style="stop-color:#74809D"
       id="stop880" /><stop
       offset="1"
       style="stop-color:#637494"
       id="stop882" /></linearGradient><path
     d="m 50.727633,72.2 c -0.11,1.088 -0.746,1.875 -2.36,2.928 l -8.648,5.553 -14.641,9.408 c -7.535,5.062 -8.547,9.336 -9.675,15.262 l -8.1020002,52.725 c -0.302,2.074 0.12,4.984 0.492,7.275 0.31,1.934 0.6,3.75 0.556,5.699 0.002,0.578 0.003,1.15 0.014,1.715 0.606,46.805 26.0410002,55.885 34.7090002,55.885 l 6.865,0.004 c 1.738,0 3.562,-0.258 5.388,-0.721 3.415,-0.863 6.83,-2.484 9.688,-4.755 l 1.743,-1.577 c 0.509,-0.449 1.195,-2.487 -2.757,-2.923 l -13.499,-1.353 c -3.878,-0.334 -11.811,-5.904 -11.981,-17.043 l -0.541,-14.006 c -0.079,-2.176 -0.978,-15.451 -0.976,-17.1 -0.002,-0.922 0.003,-2.168 0.151,-3.824 0.122,-1.316 0.344,-2.941 0.67,-4.5 l 13.915,-53.775 c 1.688,-5.625 4.911,-12.494 10.128,-17.1 l 17.677,-16.016 c 0.642,-0.553 1.089,-1.029 1.407,-1.76"
     id="path885"
     inkscape:connector-curvature="0"
     style="fill:url(#SVGID_20_)" /><linearGradient
     id="SVGID_21_"
     gradientUnits="userSpaceOnUse"
     x1="-304.5112"
     y1="93.725098"
     x2="-304.5112"
     y2="31.025299"
     gradientTransform="rotate(-179.98854,-133.51353,129.5219)"><stop
       offset="0"
       style="stop-color:#697F9E"
       id="stop887" /><stop
       offset="0.8242"
       style="stop-color:#A7ADC1"
       id="stop889" /><stop
       offset="1"
       style="stop-color:#BDC0CF"
       id="stop891" /></linearGradient><path
     d="m 7.7926328,165.35 c 0.31,1.934 0.6,3.75 0.556,5.699 0.002,0.578 0.003,1.15 0.014,1.715 0.606,46.805 26.0410002,55.885 34.7090002,55.885 l 6.865,0.004 c 1.738,0 3.562,-0.258 5.388,-0.721 3.415,-0.863 6.83,-2.484 9.688,-4.755 l 1.743,-1.577 c 0.509,-0.449 1.195,-2.487 -2.757,-2.923 l -13.499,-1.353 c -3.878,-0.334 -11.811,-5.904 -11.981,-17.043 l -0.541,-14.006 c -0.079,-2.176 -0.978,-15.451 -0.976,-17.1 -0.002,-0.922 0.003,-2.168 0.151,-3.824 z"
     id="path894"
     inkscape:connector-curvature="0"
     style="fill:url(#SVGID_21_)" /><linearGradient
     id="SVGID_22_"
     gradientUnits="userSpaceOnUse"
     x1="-339.39359"
     y1="112.1841"
     x2="-304.2955"
     y2="112.1841"
     gradientTransform="rotate(-179.98854,-133.51353,129.5219)"><stop
       offset="0"
       style="stop-color:#7686A3"
       id="stop896" /><stop
       offset="1"
       style="stop-color:#5F7191"
       id="stop898" /></linearGradient><path
     d="m 80.952633,72.202 -12.599,67.498 c -2.254,12.303 -2.65,30.117 6.045,42.119 -1.282,1.176 -1.333,2.625 -1.509,3.559 l -3.967,32.175 c -0.285,2.237 -1.152,3.093 -2.166,4.048 0.509,-0.449 1.195,-2.487 -2.757,-2.923 l -13.499,-1.353 c -3.878,-0.334 -11.811,-5.904 -11.981,-17.043 l -0.541,-14.006 c -0.079,-2.176 -0.978,-15.451 -0.976,-17.1 -0.002,-0.922 0.003,-2.168 0.151,-3.824 0.122,-1.316 0.344,-2.941 0.67,-4.5 l 13.915,-53.775 c 1.688,-5.625 4.911,-12.494 10.128,-17.1 l 17.677,-16.016 c 0.643,-0.552 1.09,-1.029 1.409,-1.759 z"
     id="path901"
     inkscape:connector-curvature="0"
     style="fill:url(#SVGID_22_)" /><path
     d="m 128.34263,72.206 c -0.915,2.416 -5.051,11.191 -8.198,15.148 -3.34,14.398 -11.144,42.896 -22.542997,74.25 -1.273,3.674 -1.773,11.218 -1.026,14.744 0.781,-3.541 1.907,-7.564 3.12,-10.998 l 20.220997,-58.385 c 1.012,-2.587 7.411,-23.285 8.426,-34.759 z"
     id="path903"
     inkscape:connector-curvature="0"
     style="fill:#5d6f90" /><linearGradient
     id="SVGID_23_"
     gradientUnits="userSpaceOnUse"
     x1="-364.13281"
     y1="170.7227"
     x2="-364.13281"
     y2="96.155098"
     gradientTransform="rotate(-179.98854,-133.51353,129.5219)"><stop
       offset="0.7308"
       style="stop-color:#8E96AF"
       id="stop905" /><stop
       offset="1"
       style="stop-color:#B5BCCC"
       id="stop907" /></linearGradient><path
     d="m 85.078633,87.352 -10.127,54.15 c -2.398,12.676 0.188,23.287 6.714,32.4 0.785,1.051 1.911,4.275 0.56,5.962 l 13.642,0.001 c 0.213,-1.166 0.451,-2.342 0.707,-3.518 -0.747,-3.526 -0.247,-11.07 1.026,-14.744 11.399997,-31.354 19.203997,-59.852 22.542997,-74.25 z"
     id="path910"
     inkscape:connector-curvature="0"
     style="fill:url(#SVGID_23_)" /><linearGradient
     id="SVGID_24_"
     gradientUnits="userSpaceOnUse"
     x1="-371.6636"
     y1="186.6689"
     x2="-371.6636"
     y2="171.5932"
     gradientTransform="rotate(-179.98854,-133.51353,129.5219)"><stop
       offset="0"
       style="stop-color:#828CA7"
       id="stop912" /><stop
       offset="1"
       style="stop-color:#A9B1C5"
       id="stop914" /></linearGradient><path
     d="m 80.952633,72.202 c 0.339,5.064 2.124,10.971 4.126,15.15 l 35.065997,0.002 c 3.147,-3.957 7.283,-12.732 8.198,-15.148 z"
     id="path917"
     inkscape:connector-curvature="0"
     style="fill:url(#SVGID_24_)" /><linearGradient
     id="SVGID_25_"
     gradientUnits="userSpaceOnUse"
     x1="-343.0542"
     y1="170.7197"
     x2="-343.0542"
     y2="96.153801"
     gradientTransform="rotate(-179.98854,-133.51353,129.5219)"><stop
       offset="0.7308"
       style="stop-color:#7F8DA9"
       id="stop919" /><stop
       offset="1"
       style="stop-color:#B3BACB"
       id="stop921" /></linearGradient><path
     d="m 80.952633,72.202 c 0.339,5.064 2.124,10.971 4.126,15.15 l -10.127,54.15 c -2.398,12.676 0.188,23.287 6.714,32.4 0.785,1.051 1.911,4.275 0.56,5.962 -2.297,0 -4.007,0.235 -5.288,0.616 -1.159,0.348 -1.97,0.818 -2.539,1.338 -8.695,-12.002 -8.299,-29.816 -6.045,-42.119 z"
     id="path924"
     inkscape:connector-curvature="0"
     style="fill:url(#SVGID_25_)" /><linearGradient
     id="SVGID_26_"
     gradientUnits="userSpaceOnUse"
     x1="-443.5195"
     y1="215.7061"
     x2="-337.311"
     y2="215.7061"
     gradientTransform="rotate(-179.98854,-133.51353,129.5219)"><stop
       offset="0"
       style="stop-color:#9DA4BA"
       id="stop926" /><stop
       offset="1"
       style="stop-color:#AEBBCE"
       id="stop928" /></linearGradient><rect
     x="70.305634"
     y="16.390001"
     width="106.199"
     height="53.999001"
     id="rect931"
     style="fill:url(#SVGID_26_)" /><linearGradient
     id="SVGID_27_"
     gradientUnits="userSpaceOnUse"
     x1="-364.77249"
     y1="78.368202"
     x2="-364.77249"
     y2="30.969"
     gradientTransform="rotate(-179.98854,-133.51353,129.5219)"><stop
       offset="0"
       style="stop-color:#707E9C"
       id="stop933" /><stop
       offset="0.5846"
       style="stop-color:#7886A3"
       id="stop935" /><stop
       offset="1"
       style="stop-color:#808FAA"
       id="stop937" /></linearGradient><path
     d="m 95.867633,179.866 c 4.897997,0.91 5.707997,5.062 5.370997,7.535 -2.051997,17.82 0.083,33.339 0.297,35.701 0.224,1.988 -0.036,5.547 -1.649997,5.549 -1.646,0 -3.4,-1.29 -4.281,-3.349 -0.283,-0.661 -0.481,-1.399 -0.555,-2.2 -0.085,-0.951 -0.487,-3.875 -0.8,-8.361 -0.481,-6.861 -0.763,-17.141 0.595,-28.182 0.271,-2.207 0.609,-4.446 1.023,-6.693 z"
     id="path940"
     inkscape:connector-curvature="0"
     style="fill:url(#SVGID_27_)" /><linearGradient
     id="SVGID_28_"
     gradientUnits="userSpaceOnUse"
     x1="-482.36771"
     y1="54.846699"
     x2="-431.69379"
     y2="54.846699"
     gradientTransform="rotate(-179.98854,-133.51353,129.5219)"><stop
       offset="0"
       style="stop-color:#7A86A2"
       id="stop942" /><stop
       offset="0.6677"
       style="stop-color:#828FAA"
       id="stop944" /><stop
       offset="1"
       style="stop-color:#8795AF"
       id="stop946" /></linearGradient><path
     d="m 172.90063,228.655 c 4.06,-0.473 33.836,-0.629 42.107,-39.672 0.53,-2.363 0.98,-7.65 -3.631,-9.113 -9.675,-0.002 -10.803,5.172 -11.363,7.986 -5.515,26.101 -26.33,27.851 -29.363,28.236 -6.188,0.789 -6,5.398 -6.002,6.861 0.064,1.293 0.506,2.503 1.421,3.475 1.263,1.341 3.437,2.229 6.831,2.227"
     id="path949"
     inkscape:connector-curvature="0"
     style="fill:url(#SVGID_28_)" /><linearGradient
     id="SVGID_29_"
     gradientUnits="userSpaceOnUse"
     x1="-370.11429"
     y1="74.128899"
     x2="-374.91541"
     y2="58.031799"
     gradientTransform="rotate(-179.98854,-133.51353,129.5219)"><stop
       offset="0.05"
       style="stop-color:#486387"
       id="stop951" /><stop
       offset="0.5"
       style="stop-color:#909FB7"
       id="stop953" /><stop
       offset="0.6484"
       style="stop-color:#B5B9C9"
       id="stop955" /><stop
       offset="1"
       style="stop-color:#687796"
       id="stop957" /></linearGradient><path
     d="m 93.838633,187.716 11.973997,-2.629 c 4.521,-1.113 8.618,1.344 9.617,4.961 1.144,3.57 -1.271,7.811 -5.334,9.412 l -11.457997,4.354 c -0.396,0.121 -1.791,-3.389 -3.116,-7.834 -1.327,-4.446 -2.081,-8.145 -1.683,-8.264 z"
     id="path960"
     inkscape:connector-curvature="0"
     style="fill:url(#SVGID_29_)" /><path
     d="m 95.520633,195.979 c -1.326,-4.445 -2.08,-8.145 -1.683,-8.264 0.397,-0.117 1.794,3.391 3.118,7.834 1.327,4.447 2.078,8.148 1.681,8.264 -0.396,0.121 -1.791,-3.388 -3.116,-7.834 z"
     id="path962"
     inkscape:connector-curvature="0"
     style="fill:#4b6588" /><linearGradient
     id="SVGID_30_"
     gradientUnits="userSpaceOnUse"
     x1="-370.83981"
     y1="41.4492"
     x2="-375.0574"
     y2="27.8039"
     gradientTransform="rotate(-179.98854,-133.51353,129.5219)"><stop
       offset="0.05"
       style="stop-color:#486387"
       id="stop964" /><stop
       offset="0.5"
       style="stop-color:#909FB7"
       id="stop966" /><stop
       offset="0.6484"
       style="stop-color:#B5B9C9"
       id="stop968" /><stop
       offset="1"
       style="stop-color:#687796"
       id="stop970" /></linearGradient><path
     d="m 97.443633,222.302 c -0.785,0.104 -1.592,0.218 -2.437,0.347 l -0.251,-2.215 c -0.561,0.177 -0.116,3.35 1.066,7.125 1.179,3.777 2.591,6.695 3.149,6.521 l 11.890997,-3.906 c 2.933,-1.08 5.465,-3.826 5.731,-6.824 -0.107,-0.775 -3.135,-2.364 -12.724,-1.715 l -5.430997,1.726 c -0.231,0.067 -0.581,-0.327 -0.994,-1.059 z"
     id="path973"
     inkscape:connector-curvature="0"
     style="fill:url(#SVGID_30_)" /><linearGradient
     id="SVGID_31_"
     gradientUnits="userSpaceOnUse"
     x1="-370.48291"
     y1="54.126999"
     x2="-375.11401"
     y2="38.603802"
     gradientTransform="rotate(-179.98854,-133.51353,129.5219)"><stop
       offset="0.05"
       style="stop-color:#486387"
       id="stop975" /><stop
       offset="0.5"
       style="stop-color:#909FB7"
       id="stop977" /><stop
       offset="0.6484"
       style="stop-color:#B5B9C9"
       id="stop979" /><stop
       offset="1"
       style="stop-color:#687796"
       id="stop981" /></linearGradient><path
     d="m 94.974633,215.942 c 0.816,2.735 1.74,5.07 2.469,6.36 0.413,0.731 0.763,1.126 0.994,1.059 l 5.430997,-1.726 6.51,-2.068 c 4.247,-1.5 7.615,-5.164 6.158,-10.052 -1.457,-4.888 -6.282,-6.11 -10.657,-5.04 l -12.069997,3.361 c -0.634,0.19 -0.113,3.819 1.165,8.106 z"
     id="path984"
     inkscape:connector-curvature="0"
     style="fill:url(#SVGID_31_)" /><linearGradient
     id="SVGID_32_"
     gradientUnits="userSpaceOnUse"
     x1="-375.49899"
     y1="33.070801"
     x2="-377.70419"
     y2="25.3391"
     gradientTransform="rotate(-179.98854,-133.51353,129.5219)"><stop
       offset="0.05"
       style="stop-color:#486387"
       id="stop986" /><stop
       offset="0.5"
       style="stop-color:#909FB7"
       id="stop988" /><stop
       offset="0.6484"
       style="stop-color:#B5B9C9"
       id="stop990" /><stop
       offset="1"
       style="stop-color:#687796"
       id="stop992" /></linearGradient><path
     d="m 113.49563,228.649 c -0.801,0.646 -1.692,1.179 -2.634,1.525 l -9.887,3.246 c 0.765,1.668 1.443,2.699 1.781,2.586 l 11.804,-4.154 c 1.659,-0.652 3.162,-1.854 4.198,-3.314 -0.845,0.075 -1.655,0.117 -2.408,0.115 z"
     id="path995"
     inkscape:connector-curvature="0"
     style="fill:url(#SVGID_32_)" /><linearGradient
     id="SVGID_33_"
     gradientUnits="userSpaceOnUse"
     x1="-400.60739"
     y1="71.898399"
     x2="-403.1033"
     y2="56.8046"
     gradientTransform="rotate(-179.98854,-133.51353,129.5219)"><stop
       offset="0.05"
       style="stop-color:#486387"
       id="stop997" /><stop
       offset="0.5"
       style="stop-color:#909FB7"
       id="stop999" /><stop
       offset="0.6484"
       style="stop-color:#B5B9C9"
       id="stop1001" /><stop
       offset="1"
       style="stop-color:#687796"
       id="stop1003" /></linearGradient><path
     d="m 125.01263,188.613 13.716,-0.956 c 3.336,-0.152 6.383,1.945 6.937,5.297 0.554,3.348 -1.655,6.314 -4.865,7.246 l -13.294,3.508 c -1.268,0.209 -2.853,-3.002 -3.541,-7.17 -0.689,-4.168 -0.22,-7.719 1.047,-7.925 z"
     id="path1006"
     inkscape:connector-curvature="0"
     style="fill:url(#SVGID_33_)" /><path
     d="m 123.96463,196.538 c -0.689,-4.168 -0.22,-7.719 1.048,-7.925 1.267,-0.212 2.853,3 3.542,7.168 0.688,4.167 0.218,7.716 -1.049,7.927 -1.267,0.209 -2.852,-3.002 -3.541,-7.17 z"
     id="path1008"
     inkscape:connector-curvature="0"
     style="fill:#4b6588" /><linearGradient
     id="SVGID_34_"
     gradientUnits="userSpaceOnUse"
     x1="-371.88089"
     y1="89.648399"
     x2="-374.89459"
     y2="75.992699"
     gradientTransform="rotate(-179.98854,-133.51353,129.5219)"><stop
       offset="0.05"
       style="stop-color:#486387"
       id="stop1010" /><stop
       offset="0.5"
       style="stop-color:#909FB7"
       id="stop1012" /><stop
       offset="0.6484"
       style="stop-color:#B5B9C9"
       id="stop1014" /><stop
       offset="1"
       style="stop-color:#687796"
       id="stop1016" /></linearGradient><path
     d="m 98.297633,170.887 10.082997,-1.043 c 3.04,-0.301 5.923,1.467 6.591,4.498 0.667,3.029 -1.203,5.844 -4.088,6.848 l -9.575,3.354 c -1.145,0.254 -2.749997,-2.6 -3.582997,-6.369 -0.829,-3.772 -0.574,-7.034 0.572,-7.288 z"
     id="path1019"
     inkscape:connector-curvature="0"
     style="fill:url(#SVGID_34_)" /><path
     d="m 97.725633,178.175 c -0.83,-3.771 -0.575,-7.033 0.571,-7.287 1.145,-0.252 2.748997,2.601 3.580997,6.371 0.834,3.772 0.577,7.035 -0.569,7.285 -1.145,0.254 -2.749997,-2.6 -3.582997,-6.369 z"
     id="path1021"
     inkscape:connector-curvature="0"
     style="fill:#4b6588" /><linearGradient
     id="SVGID_35_"
     gradientUnits="userSpaceOnUse"
     x1="-394.88669"
     y1="52.7285"
     x2="-398.2113"
     y2="38.479401"
     gradientTransform="rotate(-179.98854,-133.51353,129.5219)"><stop
       offset="0.05"
       style="stop-color:#486387"
       id="stop1023" /><stop
       offset="0.5"
       style="stop-color:#909FB7"
       id="stop1025" /><stop
       offset="0.6484"
       style="stop-color:#B5B9C9"
       id="stop1027" /><stop
       offset="1"
       style="stop-color:#687796"
       id="stop1029" /></linearGradient><path
     d="m 120.64663,208.046 10.713,-1.229 c 3.121,-0.463 6.26,1.438 6.996,4.6 0.738,3.162 -1.254,6.213 -4.236,7.242 l -10.15,3.637 c -0.915,0.213 -2.399,-2.805 -3.314,-6.738 -0.92,-3.938 -0.922,-7.299 -0.009,-7.512 z"
     id="path1032"
     inkscape:connector-curvature="0"
     style="fill:url(#SVGID_35_)" /><ellipse
     transform="rotate(166.82673)"
     cx="-70.04644"
     cy="-237.37848"
     rx="1.6970255"
     ry="7.3161101"
     id="ellipse1034"
     style="fill:#4b6588;stroke-width:1.00001502" /><linearGradient
     id="SVGID_36_"
     gradientUnits="userSpaceOnUse"
     x1="-394.1221"
     y1="41.796902"
     x2="-398.2283"
     y2="29.643801"
     gradientTransform="rotate(-179.98854,-133.51353,129.5219)"><stop
       offset="0.05"
       style="stop-color:#486387"
       id="stop1036" /><stop
       offset="0.5"
       style="stop-color:#909FB7"
       id="stop1038" /><stop
       offset="0.6484"
       style="stop-color:#B5B9C9"
       id="stop1040" /><stop
       offset="1"
       style="stop-color:#687796"
       id="stop1042" /></linearGradient><path
     d="m 120.23563,223.77 c 0.131,0.508 0.274,1.033 0.43,1.572 1.125,3.873 2.417,6.867 2.891,6.686 l 7.095,-3.186 c 2.109,-1.031 7.016,-3.323 6.91,-7.64 -0.001,-1.127 -5.071,-1.282 -17.326,2.568 z"
     id="path1045"
     inkscape:connector-curvature="0"
     style="fill:url(#SVGID_36_)" /><linearGradient
     id="SVGID_37_"
     gradientUnits="userSpaceOnUse"
     x1="-398.6416"
     y1="91.339401"
     x2="-402.17761"
     y2="75.837097"
     gradientTransform="rotate(-179.98854,-133.51353,129.5219)"><stop
       offset="0.05"
       style="stop-color:#486387"
       id="stop1047" /><stop
       offset="0.5"
       style="stop-color:#909FB7"
       id="stop1049" /><stop
       offset="0.6484"
       style="stop-color:#B5B9C9"
       id="stop1051" /><stop
       offset="1"
       style="stop-color:#687796"
       id="stop1053" /></linearGradient><path
     d="m 123.85163,169.524 12.406,-1.951 c 4.938,-0.76 7.744,2.545 8.371,5.336 0.611,2.4 -0.455,6.986 -5.229,8.459 l -12.015,3.658 c -1.938,0.443 -4.301,-2.67 -5.276,-6.951 -0.977,-4.281 -0.195,-8.109 1.743,-8.551 z"
     id="path1056"
     inkscape:connector-curvature="0"
     style="fill:url(#SVGID_37_)" /><linearGradient
     id="SVGID_38_"
     gradientUnits="userSpaceOnUse"
     x1="-478.07321"
     y1="78.360802"
     x2="-481.58771"
     y2="62.480099"
     gradientTransform="rotate(-179.98854,-133.51353,129.5219)"><stop
       offset="0.05"
       style="stop-color:#486387"
       id="stop1058" /><stop
       offset="0.5"
       style="stop-color:#909FB7"
       id="stop1060" /><stop
       offset="0.6484"
       style="stop-color:#B5B9C9"
       id="stop1062" /><stop
       offset="1"
       style="stop-color:#687796"
       id="stop1064" /></linearGradient><path
     d="m 208.65463,181.278 9.231,0.027 c 2.822,0.076 5.582,1.81 6.36,4.748 0.606,3.141 -1.248,5.728 -3.776,6.982 l -8.304,4.125 c -0.564,0.305 -1.183,0.523 -1.834,0.658 -4.048,0.844 -8.095,-2.148 -9.039,-6.682 -0.942,-4.533 1.574,-8.889 5.621,-9.732 0.578,-0.118 1.173,-0.153 1.741,-0.126 z"
     id="path1067"
     inkscape:connector-curvature="0"
     style="fill:url(#SVGID_38_)" /><linearGradient
     id="SVGID_39_"
     gradientUnits="userSpaceOnUse"
     x1="-474.05859"
     y1="59.454601"
     x2="-477.6629"
     y2="43.172699"
     gradientTransform="rotate(-179.98854,-133.51353,129.5219)"><stop
       offset="0.05"
       style="stop-color:#486387"
       id="stop1069" /><stop
       offset="0.5"
       style="stop-color:#909FB7"
       id="stop1071" /><stop
       offset="0.6484"
       style="stop-color:#B5B9C9"
       id="stop1073" /><stop
       offset="1"
       style="stop-color:#687796"
       id="stop1075" /></linearGradient><path
     d="m 204.29863,200.259 9.751,-0.578 c 3.201,0.084 5.947,2.176 6.803,5.406 0.665,3.449 -1.006,6.471 -3.872,7.891 l -9.08,3.564 c -0.579,0.312 -1.213,0.537 -1.882,0.676 -4.148,0.864 -8.298,-2.202 -9.265,-6.852 -0.967,-4.645 1.613,-9.113 5.763,-9.977 0.591,-0.121 1.2,-0.158 1.782,-0.13 z"
     id="path1078"
     inkscape:connector-curvature="0"
     style="fill:url(#SVGID_39_)" /><linearGradient
     id="SVGID_40_"
     gradientUnits="userSpaceOnUse"
     x1="-461.84079"
     y1="45.878399"
     x2="-465.0968"
     y2="29.393999"
     gradientTransform="rotate(-179.98854,-133.51353,129.5219)"><stop
       offset="0.05"
       style="stop-color:#486387"
       id="stop1080" /><stop
       offset="0.5"
       style="stop-color:#909FB7"
       id="stop1082" /><stop
       offset="0.6484"
       style="stop-color:#B5B9C9"
       id="stop1084" /><stop
       offset="1"
       style="stop-color:#687796"
       id="stop1086" /></linearGradient><path
     d="m 193.20563,230.673 9.047,-2.902 c 2.442,-0.857 6.121,-3.898 5.647,-8.609 -6.374,0.064 -11.914,-6.318 -18.603,-4.795 -3.452,0.828 -5.375,5.15 -4.295,9.653 1.079,4.5 4.753,7.479 8.204,6.653 z"
     id="path1089"
     inkscape:connector-curvature="0"
     style="fill:url(#SVGID_40_)" /><linearGradient
     id="SVGID_41_"
     gradientUnits="userSpaceOnUse"
     x1="-443.91891"
     y1="41.105999"
     x2="-448.5134"
     y2="24.468"
     gradientTransform="rotate(-179.98854,-133.51353,129.5219)"><stop
       offset="0.05"
       style="stop-color:#486387"
       id="stop1091" /><stop
       offset="0.5"
       style="stop-color:#909FB7"
       id="stop1093" /><stop
       offset="0.6484"
       style="stop-color:#B5B9C9"
       id="stop1095" /><stop
       offset="1"
       style="stop-color:#687796"
       id="stop1097" /></linearGradient><path
     d="m 169.46663,229.552 c 1.541,4.433 5.314,7.151 8.427,6.071 l 11.271,-3.918 c 0.604,-0.221 1.256,-0.6 1.835,-1.01 -1.332,-0.27 -2.605,-1.039 -3.656,-2.181 -2.953,-0.68 -6.068,-1.866 -7.17,-4.167 -2.016,-3.924 -5.264,-5.686 -7.859,-4.781 -3.113,1.082 -4.389,5.552 -2.848,9.986 z"
     id="path1100"
     inkscape:connector-curvature="0"
     style="fill:url(#SVGID_41_)" /><linearGradient
     id="SVGID_42_"
     gradientUnits="userSpaceOnUse"
     x1="-476.03519"
     y1="42.508801"
     x2="-478.8161"
     y2="30.474001"
     gradientTransform="rotate(-179.98854,-133.51353,129.5219)"><stop
       offset="0.05"
       style="stop-color:#486387"
       id="stop1102" /><stop
       offset="0.5"
       style="stop-color:#909FB7"
       id="stop1104" /><stop
       offset="0.6484"
       style="stop-color:#B5B9C9"
       id="stop1106" /><stop
       offset="1"
       style="stop-color:#687796"
       id="stop1108" /></linearGradient><path
     d="m 211.97863,218.714 c -0.018,-0.023 -0.042,-0.04 -0.059,-0.064 -0.545,0.197 -1.951,0.516 -3.994,1.617 -0.147,4.041 -3.369,6.664 -5.611,7.479 1.912,1.774 4.559,2.439 6.916,1.48 0.611,-0.25 1.147,-0.574 1.628,-0.987 l 6.022,-4.402 c 1.086,-0.787 2.372,-2.675 2.004,-4.437 -1.371,-0.149 -5.802,0.72 -6.906,-0.686 z"
     id="path1111"
     inkscape:connector-curvature="0"
     style="fill:url(#SVGID_42_)" /><path
     d="m 202.31463,227.745 c 1.912,1.774 4.559,2.439 6.916,1.48 0.611,-0.25 1.147,-0.574 1.628,-0.987 2.183,-1.873 2.97,-5.261 1.706,-8.366 -0.166,-0.41 -0.366,-0.793 -0.586,-1.158 -0.018,-0.023 -0.042,-0.04 -0.059,-0.064 -0.545,0.197 -1.951,0.516 -3.994,1.617 -0.147,4.04 -3.369,6.663 -5.611,7.478 z"
     id="path1113"
     inkscape:connector-curvature="0"
     style="fill:#5b6e8f" /><linearGradient
     id="SVGID_43_"
     gradientUnits="userSpaceOnUse"
     x1="-489.14551"
     y1="58.4902"
     x2="-492.02731"
     y2="42.8069"
     gradientTransform="rotate(-179.98854,-133.51353,129.5219)"><stop
       offset="0.05"
       style="stop-color:#486387"
       id="stop1115" /><stop
       offset="0.5"
       style="stop-color:#909FB7"
       id="stop1117" /><stop
       offset="0.6484"
       style="stop-color:#B5B9C9"
       id="stop1119" /><stop
       offset="1"
       style="stop-color:#687796"
       id="stop1121" /></linearGradient><path
     d="m 216.98063,212.977 -1.811,0.713 c 1.801,2.638 4.936,3.939 7.814,2.984 0.574,-0.188 1.109,-0.451 1.588,-0.787 l 0.725,-0.596 4.947,-4.098 c 1.545,-1.34 2.53,-3.346 2.023,-6.035 -0.468,-2.488 -2.768,-3.99 -5.32,-3.568 l -4.205,0.869 c -0.634,0.523 -1.371,1.16 -2.158,1.863 0.096,0.25 0.198,0.496 0.269,0.764 0.665,3.45 -1.006,6.471 -3.872,7.891 z"
     id="path1124"
     inkscape:connector-curvature="0"
     style="fill:url(#SVGID_43_)" /><path
     d="m 222.74263,202.46 c -0.634,0.523 -1.371,1.16 -2.158,1.863 0.096,0.25 0.198,0.496 0.269,0.764 0.665,3.449 -1.006,6.471 -3.872,7.891 l -1.811,0.713 c 1.801,2.638 4.936,3.939 7.814,2.984 0.574,-0.188 1.109,-0.451 1.588,-0.787 l 0.725,-0.596 c 1.963,-1.868 2.743,-4.986 1.747,-7.989 -0.761,-2.293 -2.383,-4.013 -4.302,-4.843 z"
     id="path1126"
     inkscape:connector-curvature="0"
     style="fill:#5b6e8f" /><linearGradient
     id="SVGID_44_"
     gradientUnits="userSpaceOnUse"
     x1="-497.1792"
     y1="76.946297"
     x2="-498.48419"
     y2="62.556999"
     gradientTransform="rotate(-179.98854,-133.51353,129.5219)"><stop
       offset="0.05"
       style="stop-color:#486387"
       id="stop1128" /><stop
       offset="0.5"
       style="stop-color:#909FB7"
       id="stop1130" /><stop
       offset="0.6484"
       style="stop-color:#B5B9C9"
       id="stop1132" /><stop
       offset="1"
       style="stop-color:#687796"
       id="stop1134" /></linearGradient><path
     d="m 229.30363,182.245 c -4.238,0.482 -6.244,10.828 -4.253,14.605 1.197,0.513 2.521,0.674 3.844,0.398 0.609,-0.127 1.185,-0.33 1.712,-0.613 0.354,-0.191 0.687,-0.414 0.997,-0.666 l 4.695,-4.606 c 1.357,-1.442 1.436,-3.735 0.944,-5.327 -0.228,-0.734 -0.948,-2.207 -2.142,-2.838 -1.251,-0.662 -2.798,-0.832 -5.797,-0.953 z"
     id="path1137"
     inkscape:connector-curvature="0"
     style="fill:url(#SVGID_44_)" /><linearGradient
     id="SVGID_45_"
     gradientUnits="userSpaceOnUse"
     x1="-502.7876"
     y1="92.824203"
     x2="-504.00659"
     y2="79.309998"
     gradientTransform="rotate(-179.98854,-133.51353,129.5219)"><stop
       offset="0.05"
       style="stop-color:#486387"
       id="stop1139" /><stop
       offset="0.5"
       style="stop-color:#909FB7"
       id="stop1141" /><stop
       offset="0.6484"
       style="stop-color:#B5B9C9"
       id="stop1143" /><stop
       offset="1"
       style="stop-color:#687796"
       id="stop1145" /></linearGradient><path
     d="m 234.92063,166.374 c -4.057,0.143 -5.996,9.643 -4.098,13.309 1.145,0.562 2.411,0.812 3.678,0.652 0.581,-0.072 1.133,-0.22 1.636,-0.445 0.339,-0.151 0.657,-0.336 0.956,-0.549 l 4.291,-3.908 c 1.231,-1.174 1.844,-3.326 1.135,-5.205 -0.26,-0.688 -0.914,-1.862 -2.055,-2.539 -1.198,-0.71 -2.676,-0.981 -5.543,-1.315 z"
     id="path1148"
     inkscape:connector-curvature="0"
     style="fill:url(#SVGID_45_)" /><linearGradient
     id="SVGID_46_"
     gradientUnits="userSpaceOnUse"
     x1="-479.64551"
     y1="96.077599"
     x2="-481.8812"
     y2="81.214996"
     gradientTransform="rotate(-179.98854,-133.51353,129.5219)"><stop
       offset="0.05"
       style="stop-color:#486387"
       id="stop1150" /><stop
       offset="0.5"
       style="stop-color:#909FB7"
       id="stop1152" /><stop
       offset="0.6484"
       style="stop-color:#B5B9C9"
       id="stop1154" /><stop
       offset="1"
       style="stop-color:#687796"
       id="stop1156" /></linearGradient><path
     d="m 213.20363,162.944 c 2.413,0.457 7.287,1.287 8.243,5.689 0.955,4.402 -3.021,7.941 -6.011,9.178 -0.347,0.145 -0.715,0.234 -1.094,0.316 -3.718,0.805 -7.463,-1.918 -8.364,-6.08 -0.9,-4.162 1.382,-8.191 5.101,-8.994 0.713,-0.156 1.43,-0.199 2.125,-0.109 z"
     id="path1159"
     inkscape:connector-curvature="0"
     style="fill:url(#SVGID_46_)" /><linearGradient
     id="SVGID_47_"
     gradientUnits="userSpaceOnUse"
     x1="-299.76559"
     y1="47.454601"
     x2="-306.25189"
     y2="34.408699"
     gradientTransform="rotate(-179.98854,-133.51353,129.5219)"><stop
       offset="0.05"
       style="stop-color:#486387"
       id="stop1161" /><stop
       offset="0.5"
       style="stop-color:#909FB7"
       id="stop1163" /><stop
       offset="0.6484"
       style="stop-color:#B5B9C9"
       id="stop1165" /><stop
       offset="1"
       style="stop-color:#687796"
       id="stop1167" /></linearGradient><path
     d="m 30.519633,212.718 5.069,-2.189 c 1.715,-0.812 6.274,0.256 7.927,3.83 2.046,4.555 -0.059,7.744 -1.737,8.63 l -4.776,2.777 c -2.963,1.471 -6.816,-0.257 -8.606,-3.858 -1.791,-3.603 -0.839,-7.716 2.123,-9.19 z"
     id="path1170"
     inkscape:connector-curvature="0"
     style="fill:url(#SVGID_47_)" /><linearGradient
     id="SVGID_48_"
     gradientUnits="userSpaceOnUse"
     x1="-285.8237"
     y1="46.103001"
     x2="-294.10541"
     y2="32.836201"
     gradientTransform="rotate(-179.98854,-133.51353,129.5219)"><stop
       offset="0.05"
       style="stop-color:#486387"
       id="stop1172" /><stop
       offset="0.5"
       style="stop-color:#909FB7"
       id="stop1174" /><stop
       offset="0.6484"
       style="stop-color:#B5B9C9"
       id="stop1176" /><stop
       offset="1"
       style="stop-color:#687796"
       id="stop1178" /></linearGradient><path
     d="m 17.248633,222.532 c 2.167,3.787 6.717,5.477 9.833,3.693 l 2.396,-1.83 c 0.152,-0.097 0.277,-0.232 0.384,-0.389 -0.567,-0.602 -1.069,-1.3 -1.465,-2.1 -1.058,-2.129 -1.153,-4.434 -0.445,-6.267 -2.313,-3.466 -6.468,-4.509 -7.299,-4.044 l -1.688,0.851 c -3.115,1.786 -3.884,6.299 -1.716,10.086 z"
     id="path1181"
     inkscape:connector-curvature="0"
     style="fill:url(#SVGID_48_)" /><linearGradient
     id="SVGID_49_"
     gradientUnits="userSpaceOnUse"
     x1="-292.24759"
     y1="64.220703"
     x2="-295.95541"
     y2="50.135101"
     gradientTransform="rotate(-179.98854,-133.51353,129.5219)"><stop
       offset="0.05"
       style="stop-color:#486387"
       id="stop1183" /><stop
       offset="0.5"
       style="stop-color:#909FB7"
       id="stop1185" /><stop
       offset="0.6484"
       style="stop-color:#B5B9C9"
       id="stop1187" /><stop
       offset="1"
       style="stop-color:#687796"
       id="stop1189" /></linearGradient><path
     d="m 22.472633,195.572 5.593,-1.134 c 1.622,-0.391 5.734,0.693 6.81,5.338 1.079,4.686 -1.67,7.648 -3.272,8.119 l -5.425,1.764 c -2.818,0.74 -5.933,-1.811 -6.956,-5.703 -1.025,-3.889 0.43,-7.643 3.25,-8.384 z"
     id="path1192"
     inkscape:connector-curvature="0"
     style="fill:url(#SVGID_49_)" /><linearGradient
     id="SVGID_50_"
     gradientUnits="userSpaceOnUse"
     x1="-277.69531"
     y1="64.748001"
     x2="-283.3584"
     y2="49.295101"
     gradientTransform="rotate(-179.98854,-133.51353,129.5219)"><stop
       offset="0.05"
       style="stop-color:#486387"
       id="stop1194" /><stop
       offset="0.5"
       style="stop-color:#909FB7"
       id="stop1196" /><stop
       offset="0.6484"
       style="stop-color:#B5B9C9"
       id="stop1198" /><stop
       offset="1"
       style="stop-color:#687796"
       id="stop1200" /></linearGradient><path
     d="m 6.6936328,204.49 c 1.561,4.269 5.3890002,6.812 8.5520002,5.68 l 5.17,-2.216 c 0.213,-0.111 0.383,-0.295 0.521,-0.529 -0.754,-0.945 -1.359,-2.123 -1.714,-3.469 -0.584,-2.215 -0.36,-4.384 0.457,-5.979 -1.144,-2.914 -2.616,-5.229 -4.367,-4.812 l -5.7270002,1.551 c -3.162,1.13 -4.457,5.505 -2.892,9.774 z"
     id="path1203"
     inkscape:connector-curvature="0"
     style="fill:url(#SVGID_50_)" /><linearGradient
     id="SVGID_51_"
     gradientUnits="userSpaceOnUse"
     x1="-291.80081"
     y1="82.545898"
     x2="-295.50891"
     y2="68.459396"
     gradientTransform="rotate(-179.98854,-133.51353,129.5219)"><stop
       offset="0.05"
       style="stop-color:#486387"
       id="stop1205" /><stop
       offset="0.5"
       style="stop-color:#909FB7"
       id="stop1207" /><stop
       offset="0.6484"
       style="stop-color:#B5B9C9"
       id="stop1209" /><stop
       offset="1"
       style="stop-color:#687796"
       id="stop1211" /></linearGradient><path
     d="m 22.029633,177.247 5.593,-1.131 c 1.622,-0.391 5.734,0.691 6.811,5.336 1.078,4.688 -1.669,7.65 -3.272,8.121 l -5.426,1.762 c -2.819,0.74 -5.931,-1.811 -6.955,-5.701 -1.026,-3.891 0.428,-7.643 3.249,-8.387 z"
     id="path1214"
     inkscape:connector-curvature="0"
     style="fill:url(#SVGID_51_)" /><linearGradient
     id="SVGID_52_"
     gradientUnits="userSpaceOnUse"
     x1="-289.9072"
     y1="99.372101"
     x2="-292.9769"
     y2="85.134804"
     gradientTransform="rotate(-179.98854,-133.51353,129.5219)"><stop
       offset="0.05"
       style="stop-color:#486387"
       id="stop1216" /><stop
       offset="0.5"
       style="stop-color:#909FB7"
       id="stop1218" /><stop
       offset="0.6484"
       style="stop-color:#B5B9C9"
       id="stop1220" /><stop
       offset="1"
       style="stop-color:#687796"
       id="stop1222" /></linearGradient><path
     d="m 20.112633,160.298 5.639,-0.879 c 1.637,-0.318 5.697,0.949 6.563,5.639 0.866,4.729 -2.013,7.566 -3.635,7.963 l -5.5,1.516 c -2.851,0.615 -5.846,-2.072 -6.693,-6.005 -0.848,-3.936 0.774,-7.619 3.626,-8.234 z"
     id="path1225"
     inkscape:connector-curvature="0"
     style="fill:url(#SVGID_52_)" /><linearGradient
     id="SVGID_53_"
     gradientUnits="userSpaceOnUse"
     x1="-276.21881"
     y1="81.630898"
     x2="-278.9942"
     y2="68.761703"
     gradientTransform="rotate(-179.98854,-133.51353,129.5219)"><stop
       offset="0.05"
       style="stop-color:#486387"
       id="stop1227" /><stop
       offset="0.5"
       style="stop-color:#909FB7"
       id="stop1229" /><stop
       offset="0.6484"
       style="stop-color:#B5B9C9"
       id="stop1231" /><stop
       offset="1"
       style="stop-color:#687796"
       id="stop1233" /></linearGradient><path
     d="m 8.8406328,177.514 c -2.577,0.555 -4.043,3.885 -3.274,7.438 0.765,3.557 3.471,5.988 6.0470002,5.432 1.797,-0.441 4.763,-4.125 3.99,-7.418 -0.77,-3.291 -4.927,-5.788 -6.7630002,-5.452 z"
     id="path1236"
     inkscape:connector-curvature="0"
     style="fill:url(#SVGID_53_)" /><linearGradient
     id="SVGID_54_"
     gradientUnits="userSpaceOnUse"
     x1="-289.5654"
     y1="167.25681"
     x2="-284.76239"
     y2="156.58099"
     gradientTransform="rotate(-179.98854,-133.51353,129.5219)"><stop
       offset="0.05"
       style="stop-color:#486387"
       id="stop1238" /><stop
       offset="0.5"
       style="stop-color:#909FB7"
       id="stop1240" /><stop
       offset="0.6484"
       style="stop-color:#B5B9C9"
       id="stop1242" /><stop
       offset="1"
       style="stop-color:#687796"
       id="stop1244" /></linearGradient><path
     d="m 17.666633,96.042 c 1.325,-2.943 3.748,-4.875 5.274,-4.041 0.821,0.451 1.042,3.236 -0.285,6.184 -1.324,2.945 -3.755,4.877 -4.518,4.486 -1.548,-0.791 -1.796,-3.68 -0.471,-6.629 z"
     id="path1247"
     inkscape:connector-curvature="0"
     style="fill:url(#SVGID_54_)" /><linearGradient
     id="SVGID_55_"
     gradientUnits="userSpaceOnUse"
     x1="-396.36621"
     y1="167.45799"
     x2="-392.82211"
     y2="156.31059"
     gradientTransform="rotate(-179.98854,-133.51353,129.5219)"><stop
       offset="0.05"
       style="stop-color:#486387"
       id="stop1249" /><stop
       offset="0.5"
       style="stop-color:#909FB7"
       id="stop1251" /><stop
       offset="0.6484"
       style="stop-color:#B5B9C9"
       id="stop1253" /><stop
       offset="1"
       style="stop-color:#687796"
       id="stop1255" /></linearGradient><path
     d="m 127.11263,90.928 c 2.119,0.865 7.369,4.062 5.81,7.512 -1.446,3.203 -6.344,4.395 -9.356,3.635 -1.657,-0.525 -2.208,-3.449 -1.229,-6.527 0.979,-3.078 3.119,-5.147 4.775,-4.62 z"
     id="path1258"
     inkscape:connector-curvature="0"
     style="fill:url(#SVGID_55_)" /><linearGradient
     id="SVGID_56_"
     gradientUnits="userSpaceOnUse"
     x1="-491.89651"
     y1="167.50391"
     x2="-494.0264"
     y2="154.6268"
     gradientTransform="rotate(-179.98854,-133.51353,129.5219)"><stop
       offset="0.05"
       style="stop-color:#486387"
       id="stop1260" /><stop
       offset="0.5"
       style="stop-color:#909FB7"
       id="stop1262" /><stop
       offset="0.6484"
       style="stop-color:#B5B9C9"
       id="stop1264" /><stop
       offset="1"
       style="stop-color:#687796"
       id="stop1266" /></linearGradient><path
     d="m 222.81063,91.954 c 5.618,-1.154 8.699,0.01 9.928,2.389 1.23,2.383 0.819,5.414 -1.094,6.721 l -4.672,2.912 c -0.598,0.434 -1.283,0.732 -2.034,0.855 -3.008,0.496 -5.922,-1.982 -6.51,-5.539 -0.587,-3.554 1.376,-6.84 4.382,-7.338 z"
     id="path1269"
     inkscape:connector-curvature="0"
     style="fill:url(#SVGID_56_)" /><path
     d="m 201.29363,191.137 c -0.942,-4.533 1.574,-8.889 5.621,-9.732 0.577,-0.119 1.172,-0.154 1.74,-0.127 3.416,0.174 6.488,2.922 7.299,6.809 0.791,3.803 -0.848,7.49 -3.787,9.074 -0.564,0.305 -1.183,0.523 -1.834,0.658 -4.048,0.844 -8.095,-2.148 -9.039,-6.682 z"
     id="path1271"
     inkscape:connector-curvature="0"
     style="fill:#5b6e8f" /><path
     d="m 205.97763,172.048 c -0.9,-4.162 1.382,-8.191 5.101,-8.994 0.713,-0.156 1.431,-0.199 2.125,-0.109 2.928,0.385 5.51,2.826 6.238,6.189 0.809,3.738 -0.945,7.393 -4.006,8.678 -0.347,0.145 -0.715,0.234 -1.094,0.316 -3.717,0.804 -7.462,-1.918 -8.364,-6.08 z"
     id="path1273"
     inkscape:connector-curvature="0"
     style="fill:#5b6e8f" /><ellipse
     transform="rotate(166.5085)"
     cx="-134.06088"
     cy="-260.99979"
     rx="6.42697"
     ry="8.3849611"
     id="ellipse1275"
     style="fill:#5b6e8f;stroke-width:0.99999535" /><path
     d="m 169.46663,229.552 c -1.541,-4.435 -0.266,-8.904 2.848,-9.985 2.596,-0.904 5.844,0.857 7.859,4.781 0.334,0.65 0.311,0.551 0.564,1.287 1.542,4.434 0.268,8.906 -2.845,9.988 -3.111,1.081 -6.885,-1.638 -8.426,-6.071 z"
     id="path1277"
     inkscape:connector-curvature="0"
     style="fill:#5b6e8f" /><path
     d="m 196.75463,210.366 c -0.967,-4.645 1.613,-9.113 5.763,-9.977 0.591,-0.121 1.2,-0.158 1.782,-0.131 3.504,0.18 6.652,2.994 7.482,6.979 0.812,3.897 -0.867,7.679 -3.881,9.304 -0.579,0.312 -1.213,0.537 -1.882,0.676 -4.148,0.865 -8.298,-2.202 -9.264,-6.851 z"
     id="path1279"
     inkscape:connector-curvature="0"
     style="fill:#5b6e8f" /><path
     d="m 229.30363,182.245 c -4.238,0.482 -6.244,10.828 -4.253,14.605 1.197,0.513 2.521,0.674 3.844,0.398 0.609,-0.127 1.185,-0.33 1.712,-0.613 0.354,-0.191 0.687,-0.414 0.997,-0.666 2.1,-1.701 3.176,-4.709 2.533,-7.797 -0.595,-2.859 -2.488,-5.048 -4.833,-5.927 z"
     id="path1281"
     inkscape:connector-curvature="0"
     style="fill:#5b6e8f" /><path
     d="m 234.92063,166.374 c -4.057,0.143 -5.996,9.643 -4.098,13.309 1.145,0.562 2.411,0.812 3.678,0.652 0.581,-0.072 1.133,-0.22 1.636,-0.445 0.339,-0.151 0.657,-0.336 0.956,-0.549 2.012,-1.432 3.047,-4.158 2.438,-7.086 -0.565,-2.707 -2.371,-4.889 -4.61,-5.881 z"
     id="path1283"
     inkscape:connector-curvature="0"
     style="fill:#5b6e8f" /><ellipse
     transform="rotate(167.1617)"
     cx="-83.083076"
     cy="-200.75845"
     rx="3.5999961"
     ry="7.9499912"
     id="ellipse1285"
     style="fill:#4b6588;stroke-width:0.99999893" /><path
     d="m 122.33763,95.548 c 0.979,-3.078 3.119,-5.146 4.775,-4.619 1.658,0.527 2.207,3.451 1.229,6.529 -0.98,3.08 -3.117,5.148 -4.776,4.617 -1.657,-0.525 -2.207,-3.449 -1.228,-6.527 z"
     id="path1287"
     inkscape:connector-curvature="0"
     style="fill:#4b6588" /><path
     d="m 218.42863,99.292 c -0.587,-3.554 1.376,-6.84 4.382,-7.338 3.008,-0.494 5.92,1.984 6.509,5.539 0.44,2.666 -0.554,5.182 -2.347,6.482 -0.598,0.434 -1.283,0.732 -2.034,0.855 -3.008,0.497 -5.922,-1.982 -6.51,-5.538 z"
     id="path1289"
     inkscape:connector-curvature="0"
     style="fill:#4b6588" /><linearGradient
     id="SVGID_57_"
     gradientUnits="userSpaceOnUse"
     x1="-302.1084"
     y1="35.245098"
     x2="-313.9024"
     y2="26.618099"
     gradientTransform="rotate(-179.98854,-133.51353,129.5219)"><stop
       offset="0.05"
       style="stop-color:#486387"
       id="stop1291" /><stop
       offset="0.5"
       style="stop-color:#909FB7"
       id="stop1293" /><stop
       offset="0.6484"
       style="stop-color:#B5B9C9"
       id="stop1295" /><stop
       offset="1"
       style="stop-color:#687796"
       id="stop1297" /></linearGradient><path
     d="m 37.002633,225.765 c -1.2,0.596 -2.545,0.658 -3.84,0.292 -0.385,2.271 0.432,4.908 2.388,6.945 2.987,3.112 7.481,3.643 10.041,1.186 l 3.996,-4.371 c 1.087,-1.09 2.732,-6.022 -7.72,-6.883 -0.029,0.016 -0.06,0.039 -0.089,0.054 z"
     id="path1300"
     inkscape:connector-curvature="0"
     style="fill:url(#SVGID_57_)" /></svg>