<?xml version="1.0"?>
<!-- Copyright (c) 2005 by Interactive Network Technologies, Inc. -->
<svg  x="-50%" y ="0%" width="100%" height="100%" viewBox="-100 0 200 100" preserveAspectRatio="none"
     xmlns="http://www.w3.org/2000/svg" version="1.1">


    <defs>
      <linearGradient x1="0%" x2="50%" id="MyGradient" spreadMethod = "reflect" gradientUnits="objectBoundingBox">
        <stop offset="5%" stop-color="gray" />
        <stop offset="95%" stop-color="white" />
      </linearGradient>
      <linearGradient x1="0" x2="50%" id="MyGradient2" spreadMethod = "reflect" gradientUnits="objectBoundingBox">
        <stop offset="5%" stop-color="rgb(214,83,65)" />
        <stop offset="95%" stop-color="white" />
      </linearGradient>

    </defs>

  <polygon fill="url(#MyGradient)" stroke="gray"
            points="-80  0 80 0 100 5 -100 5" />

  <polygon fill="url(#MyGradient)" stroke="gray"
            points="-100  5 100 5 80 15 80 20 100 30 100 70 80 80 80 85 100 95 -100 95" />

  <polygon fill="url(#MyGradient)" stroke="gray"
            points="-80  100 80 100 100 95 -100 95" />


  <rect x="0" y="30" width="100" height="40"
        fill="url(#MyGradient2)" stroke="black"  />

  <line x1="0" y1="30" x2="100" y2="70"
             />
  <line x1="0" y1="70" x2="100" y2="30"
             />


  <ellipse transform="translate(50,50)" rx="20" ry="5"
	fill="white" stroke="black" stroke-width="2" />


</svg>

