<?xml version="1.0" encoding="UTF-8" standalone="no"?>
<!-- Generator: Adobe Illustrator 13.0.2, SVG Export Plug-In  -->

<svg
   xmlns:dc="http://purl.org/dc/elements/1.1/"
   xmlns:cc="http://creativecommons.org/ns#"
   xmlns:rdf="http://www.w3.org/1999/02/22-rdf-syntax-ns#"
   xmlns:svg="http://www.w3.org/2000/svg"
   xmlns="http://www.w3.org/2000/svg"
   xmlns:sodipodi="http://sodipodi.sourceforge.net/DTD/sodipodi-0.dtd"
   xmlns:inkscape="http://www.inkscape.org/namespaces/inkscape"
   version="1.1"
   x="0px"
   y="0px"
   width="180.52397"
   height="334.11099"
   viewBox="-0.365 -0.414 180.52397 334.11099"
   enable-background="new -0.365 -0.414 181 405"
   xml:space="preserve"
   id="svg732"
   sodipodi:docname="Hole-Opener.ver.1.svg"
   inkscape:version="0.92.2 (5c3e80d, 2017-08-06)"><metadata
     id="metadata736"><rdf:RDF><cc:Work
         rdf:about=""><dc:format>image/svg+xml</dc:format><dc:type
           rdf:resource="http://purl.org/dc/dcmitype/StillImage" /></cc:Work></rdf:RDF></metadata><sodipodi:namedview
     pagecolor="#ffffff"
     bordercolor="#666666"
     borderopacity="1"
     objecttolerance="10"
     gridtolerance="10"
     guidetolerance="10"
     inkscape:pageopacity="0"
     inkscape:pageshadow="2"
     inkscape:window-width="1522"
     inkscape:window-height="969"
     id="namedview734"
     showgrid="false"
     showguides="true"
     inkscape:guide-bbox="true"
     inkscape:zoom="2.291358"
     inkscape:cx="90.134985"
     inkscape:cy="156.32982"
     inkscape:window-x="384"
     inkscape:window-y="37"
     inkscape:window-maximized="0"
     inkscape:current-layer="svg732" /><defs
     id="defs374" /><polygon
     points="170.323,212.064 176.311,247.087 176.311,307.002 140.459,307.002 140.459,165.564 143.647,165.573 "
     id="polygon376"
     style="fill:none;stroke:#114d75;stroke-width:2;stroke-linecap:round;stroke-linejoin:round"
     transform="translate(-0.36501516,-70.414)" /><polygon
     points="170.323,212.064 176.311,247.087 176.311,307.002 140.459,307.002 140.459,165.564 143.647,165.573 "
     id="polygon378"
     style="fill:#9fa7bc"
     transform="translate(-0.36501516,-70.414)" /><path
     d="m 149.44498,176.747 h -9.35 v 42.583 h 19.841 v -24.132 c 0,-0.929 -0.085,-1.969 -0.534,-2.897 l -6.582,-13.612 c -0.759,-1.294 -2.025,-1.942 -3.375,-1.942 z"
     id="path380"
     inkscape:connector-curvature="0"
     style="fill:none;stroke:#4b6588;stroke-width:2;stroke-linecap:round;stroke-linejoin:round" /><rect
     x="140.09499"
     y="195.198"
     width="19.841"
     height="24.132"
     id="rect382"
     style="fill:#95a2b9" /><path
     d="m 152.81998,178.689 c -0.759,-1.294 -2.024,-1.941 -3.375,-1.941 h -9.35 v 1.941 z"
     id="path384"
     inkscape:connector-curvature="0"
     style="fill:#a4acc0" /><path
     d="m 159.93598,195.198 c 0,-0.929 -0.085,-1.969 -0.534,-2.897 h -19.307 v 2.897 z"
     id="path386"
     inkscape:connector-curvature="0"
     style="fill:#a9b0c3" /><polygon
     points="140.46,249.103 140.46,262.715 159.767,262.715 153.185,249.103 "
     id="polygon388"
     style="fill:#b5bacb"
     transform="translate(-0.36501516,-70.414)" /><path
     d="m 176.28598,226.882 c 1.451,5.219 1.855,9.858 1.156,13.283 l -0.98,0.357 c 1.327,3.197 2.459,7.811 2.697,9.068 l -9.074,2.631 c 0.332,1.083 0.644,2.229 0.711,2.955 l -9.061,1.965 -0.074,0.195 -14.639,3.955 -1.529,-1.369 -1.697,-1.519 c -0.555,0.625 -2.27,1.728 -4.277,0.548 0.179,-0.127 0.36,-0.254 0.531,-0.379 0.499,-0.369 0.973,-0.734 1.396,-1.085 1.279,-1.06 3.58,-3.229 1.644,-7.69 -2.294,-5.283 -2.93,-9.291 -2.978,-12.771 -0.002,-0.146 -0.01,-0.295 -0.01,-0.438 v -34.1 l -0.008,-3.526 v -14.297 c 3.756,1.771 6.792,3.863 8.836,5.305 4.297,2.603 8.271,5.51 12.371,9.949 2.305,2.588 4.559,5.549 6.656,8.822 0.35,0.547 0.697,1.1 1.038,1.664 1.271,2.1 2.403,4.205 3.403,6.287 1.691,3.518 2.99,6.965 3.888,10.19 z"
     id="path390"
     inkscape:connector-curvature="0"
     style="fill:none;stroke:#114d75;stroke-width:2;stroke-linecap:round;stroke-linejoin:round" /><path
     d="m 143.08998,249.798 c -2.294,-5.283 -2.93,-9.291 -2.978,-12.771 1.398,1.894 2.704,5.123 3.457,8.92 1.258,6.338 0.5,11.83 -1.694,12.265 l -1.825,0.362 c 0.499,-0.369 0.973,-0.734 1.396,-1.085 1.28,-1.06 3.581,-3.23 1.644,-7.691 z"
     id="path392"
     inkscape:connector-curvature="0"
     style="fill:#ffffff;stroke:#000000;stroke-width:0.5;stroke-linecap:round;stroke-linejoin:round" /><rect
     x="-272.20523"
     y="14.819112"
     transform="rotate(-121.70172)"
     width="1.1260061"
     height="17.536095"
     id="rect394"
     style="fill:#5d7495;stroke-width:1.00000548" /><polygon
     points="144.041,278.101 143.298,277.257 155.974,266.099 156.862,266.822 "
     id="polygon396"
     style="fill:#5d7495"
     transform="translate(-0.36501516,-70.414)" /><polygon
     points="162.263,302.28 157.563,304.656 146.804,310.097 146.462,309.008 161.784,301.261 "
     id="polygon398"
     style="fill:#5d7495"
     transform="translate(-0.36501516,-70.414)" /><polygon
     points="162.423,326.712 162.101,327.556 162.026,327.751 147.388,331.706 147.574,330.694 160.995,327.095 "
     id="polygon400"
     style="fill:#577091"
     transform="translate(-0.36501516,-70.414)" /><polygon
     points="159.331,296.718 161.784,301.261 146.462,309.008 142.604,306.202 155.478,298.901 "
     id="polygon402"
     style="fill:#7383a0"
     transform="translate(-0.36501516,-70.414)" /><path
     d="m 176.95198,234.174 0.211,0.888 -14.453,6.02 c -0.184,-0.254 -0.371,-0.502 -0.56,-0.742 z"
     id="path404"
     inkscape:connector-curvature="0"
     style="fill:#5d7495" /><path
     d="m 177.16298,235.062 0.279,5.104 -0.98,0.357 -11.622,4.229 c -0.116,-0.262 -0.259,-0.496 -0.385,-0.748 -0.524,-1.048 -1.104,-2.039 -1.745,-2.922 z"
     id="path406"
     inkscape:connector-curvature="0"
     style="fill:#386085" /><path
     d="m 158.88198,241.135 c -0.298,-1.681 -0.694,-3.417 -1.184,-5.186 1.27,0.97 2.925,2.454 4.452,4.39 0.188,0.24 0.376,0.488 0.56,0.742 0.794,1.096 1.526,2.322 2.13,3.67 0.266,0.593 0.513,1.201 0.72,1.844 l -8.332,2.891 -8.824,3.062 -2.91,-5.712 z"
     id="path408"
     inkscape:connector-curvature="0"
     style="fill:#6b809e" /><polygon
     points="160.062,320.228 157.958,320.958 149.083,324.04 148.769,322.962 165.925,317.009 165.99,318.177 "
     id="polygon410"
     style="fill:#5d7495"
     transform="translate(-0.36501516,-70.414)" /><path
     d="m 170.79598,255.177 -9.061,1.965 0.322,-0.844 c -0.125,-0.545 -0.273,-1.09 -0.432,-1.627 l 8.459,-2.449 c 0.333,1.083 0.645,2.228 0.712,2.955 z"
     id="path412"
     inkscape:connector-curvature="0"
     style="fill:#2a5a80" /><path
     d="m 165.62498,247.763 -0.065,-1.168 c -0.207,-0.643 -0.454,-1.251 -0.72,-1.844 l 11.622,-4.229 c 1.327,3.197 2.459,7.811 2.697,9.068 l -9.074,2.631 -8.459,2.449 c -0.092,-0.314 -0.523,-1.62 -0.626,-1.9 -0.444,-1.223 -0.913,-2.279 -1.303,-2.957 z"
     id="path414"
     inkscape:connector-curvature="0"
     style="fill:#6a7d9c" /><path
     d="m 148.71798,253.626 8.875,-3.082 2.104,-0.73 c 0.391,0.678 0.858,1.734 1.303,2.957 0.219,0.602 0.433,1.241 0.626,1.9 0.158,0.537 0.307,1.082 0.432,1.627 l -1.428,0.383 -13.421,3.6 -1.571,-5.584 z"
     id="path416"
     inkscape:connector-curvature="0"
     style="fill:#386085" /><polygon
     points="150.796,289.87 140.468,296.975 140.468,293.2 152.774,284.097 154.661,287.212 "
     id="polygon418"
     style="fill:#035279"
     transform="translate(-0.36501516,-70.414)" /><polygon
     points="140.468,293.2 140.468,291.801 152.104,283.192 152.774,284.097 "
     id="polygon420"
     style="fill:#5d7495"
     transform="translate(-0.36501516,-70.414)" /><polygon
     points="152.104,283.192 140.468,291.801 140.468,288.788 146.479,284.082 149.88,281.418 "
     id="polygon422"
     style="fill:#808ea9"
     transform="translate(-0.36501516,-70.414)" /><path
     d="m 140.10298,216.816 v -7.877 l 0.299,-0.267 c 1.579,0.97 3.42,2.542 5.05,4.258 0.288,0.303 0.376,0.414 0.662,0.737 l -6.011,4.706 z"
     id="path424"
     inkscape:connector-curvature="0"
     style="fill:#386085" /><polygon
     points="140.767,279.087 140.468,279.354 140.468,272.902 144.144,276.074 142.946,277.142 "
     id="polygon426"
     style="fill:#035279"
     transform="translate(-0.36501516,-70.414)" /><path
     d="m 141.87498,258.211 c 2.194,-0.435 2.952,-5.927 1.694,-12.265 -0.753,-3.797 -2.059,-7.026 -3.457,-8.92 -0.002,-0.146 -0.01,-0.295 -0.01,-0.438 v -4.579 c 0.742,1.031 1.463,2.301 2.137,3.779 l 3.857,2.806 0.342,1.089 -2.33,1.169 c 0.42,1.413 0.795,2.907 1.105,4.47 0.102,0.508 0.195,1.014 0.279,1.515 l 2.91,5.712 0.314,1.078 -2.589,0.9 -0.491,0.17 0.423,1.503 1.148,4.081 -0.187,1.012 -1.529,-1.369 -1.697,-1.519 c -0.555,0.625 -2.27,1.728 -4.277,0.548 0.179,-0.127 0.36,-0.254 0.531,-0.379 z"
     id="path428"
     inkscape:connector-curvature="0"
     style="fill:#024a6f" /><path
     d="m 144.10898,240.852 2.33,-1.169 10.76,-5.44 c 0.178,0.572 0.342,1.142 0.5,1.707 0.489,1.769 0.886,3.505 1.184,5.186 l -13.389,5.701 c -0.084,-0.501 -0.178,-1.007 -0.279,-1.515 -0.311,-1.563 -0.686,-3.057 -1.106,-4.47 z"
     id="path430"
     inkscape:connector-curvature="0"
     style="fill:#426488" /><path
     d="m 155.03898,222.833 0.592,0.959 -1.11,3.355 c -0.943,-2.117 -2.15,-4.533 -3.233,-6.385 z"
     id="path432"
     inkscape:connector-curvature="0"
     style="fill:#024a6f" /><path
     d="m 150.43098,219.456 c 0.354,0.557 0.513,0.721 0.856,1.307 1.083,1.852 2.29,4.268 3.233,6.385 0.197,0.445 0.4,0.884 0.592,1.34 l -12.873,7.301 c -0.674,-1.479 -1.395,-2.748 -2.137,-3.779 v -5.448 z"
     id="path434"
     inkscape:connector-curvature="0"
     style="fill:#4b698c" /><path
     d="m 142.58098,206.728 0.352,0.115 0.743,0.844 1.775,5.244 c -1.63,-1.716 -3.471,-3.288 -5.05,-4.258 z"
     id="path436"
     inkscape:connector-curvature="0"
     style="fill:#024a6f" /><path
     d="m 167.95798,208.741 c 0.35,0.547 0.697,1.1 1.038,1.664 1.271,2.1 2.403,4.205 3.403,6.287 l -1.845,-2.109 -0.592,-0.958 z"
     id="path438"
     inkscape:connector-curvature="0"
     style="fill:#7484a2" /><path
     d="m 172.39998,216.692 c 1.689,3.518 2.988,6.965 3.887,10.189 l -18.59,9.06 c -0.157,-0.563 -0.322,-1.13 -0.498,-1.699 l 4.699,-2.376 -0.479,-1.02 -2.453,-4.543 -3.854,2.184 c -0.191,-0.456 -0.395,-0.895 -0.592,-1.34 z"
     id="path440"
     inkscape:connector-curvature="0"
     style="fill:#426488" /><path
     d="m 154.29598,216.798 -1.887,-3.115 -0.67,-0.904 -2.225,-1.774 -3.401,2.664 c -0.286,-0.323 -0.374,-0.435 -0.662,-0.737 l 15.851,-13.012 c 2.305,2.588 4.559,5.549 6.656,8.822 l -16.671,12.021 c -0.344,-0.586 -0.503,-0.75 -0.856,-1.307 z"
     id="path442"
     inkscape:connector-curvature="0"
     style="fill:#4b698c" /><path
     d="m 176.28598,226.882 c 1.451,5.219 1.855,9.858 1.156,13.283 l -0.279,-5.104 -0.211,-0.888 z"
     id="path444"
     inkscape:connector-curvature="0"
     style="fill:#7484a2" /><path
     d="m 176.28598,226.882 -18.588,9.067 c 1.27,0.97 2.926,2.458 4.454,4.395 l 14.801,-6.165 z"
     id="path446"
     inkscape:connector-curvature="0"
     style="fill:#70819f" /><polygon
     points="151.652,291.177 155.404,293.247 170.328,284.039 168.323,279.155 "
     id="polygon448"
     style="fill:#808ea9"
     transform="translate(-0.36501516,-70.414)" /><polygon
     points="170.92,284.997 172.765,287.106 154.886,297.562 155.996,294.206 "
     id="polygon450"
     style="fill:#035279"
     transform="translate(-0.36501516,-70.414)" /><path
     d="m 161.30198,199.919 -4.805,-3.511 -0.889,-0.724 -6.678,-5.715 c 4.298,2.603 8.272,5.511 12.372,9.95 z"
     id="path452"
     inkscape:connector-curvature="0"
     style="fill:#7484a2" /><polygon
     points="145.816,283.345 144.041,278.101 156.862,266.822 161.667,270.333 "
     id="polygon454"
     style="fill:#035279"
     transform="translate(-0.36501516,-70.414)" /><path
     d="m 148.93098,189.97 -8.836,8.992 v -14.297 c 3.756,1.772 6.792,3.863 8.836,5.305 z"
     id="path456"
     inkscape:connector-curvature="0"
     style="fill:#386085" /><polygon
     points="143.298,277.257 142.946,277.142 144.144,276.074 140.468,272.902 140.46,269.376 149.296,260.384 155.974,266.099 "
     id="polygon458"
     style="fill:#808ea9"
     transform="translate(-0.36501516,-70.414)" /><polygon
     points="10.193,212.064 4.205,247.087 4.205,307.002 40.057,307.002 40.057,165.564 36.869,165.573 "
     id="polygon460"
     style="fill:none;stroke:#114d75;stroke-width:2;stroke-linecap:round;stroke-linejoin:round"
     transform="translate(-0.36501516,-70.414)" /><polygon
     points="10.193,212.064 4.205,247.087 4.205,307.002 40.057,307.002 40.057,165.564 36.869,165.573 "
     id="polygon462"
     style="fill:#9fa7bc"
     transform="translate(-0.36501516,-70.414)" /><path
     d="m 26.974985,178.689 -6.582,13.612 c -0.449,0.929 -0.534,1.969 -0.534,2.897 v 24.132 h 19.841 v -42.583 h -9.35 c -1.351,0 -2.616,0.648 -3.375,1.942 z"
     id="path464"
     inkscape:connector-curvature="0"
     style="fill:none;stroke:#4b6588;stroke-width:2;stroke-linecap:round;stroke-linejoin:round" /><rect
     x="19.858986"
     y="195.198"
     width="19.841"
     height="24.132"
     id="rect466"
     style="fill:#95a2b9" /><path
     d="m 26.974985,178.689 c 0.759,-1.294 2.024,-1.941 3.375,-1.941 h 9.35 v 1.941 z"
     id="path468"
     inkscape:connector-curvature="0"
     style="fill:#a4acc0" /><path
     d="m 19.858985,195.198 c 0,-0.929 0.085,-1.969 0.534,-2.897 h 19.307 v 2.897 z"
     id="path470"
     inkscape:connector-curvature="0"
     style="fill:#a9b0c3" /><polygon
     points="40.064,249.103 40.064,262.715 20.758,262.715 27.34,249.103 "
     id="polygon472"
     style="fill:#b5bacb"
     transform="translate(-0.36501516,-70.414)" /><path
     d="m 3.5079848,226.882 c -1.451,5.219 -1.855,9.858 -1.156,13.283 l 0.98,0.357 c -1.327,3.197 -2.45899996,7.811 -2.69699996,9.068 l 9.07399996,2.631 c -0.332,1.083 -0.644,2.229 -0.711,2.955 l 9.0610002,1.965 0.074,0.195 14.639,3.955 1.529,-1.369 1.697,-1.519 c 0.555,0.625 2.27,1.728 4.277,0.548 -0.179,-0.127 -0.36,-0.254 -0.531,-0.379 -0.499,-0.369 -0.973,-0.734 -1.396,-1.085 -1.279,-1.06 -3.58,-3.229 -1.644,-7.69 2.294,-5.283 2.93,-9.291 2.978,-12.771 0.002,-0.146 0.01,-0.295 0.01,-0.438 v -34.1 l 0.008,-3.526 v -14.297 c -3.756,1.771 -6.792,3.863 -8.836,5.305 -4.297,2.603 -8.271,5.51 -12.371,9.949 -2.305,2.588 -4.559,5.549 -6.656,8.822 -0.35,0.547 -0.697,1.1 -1.038,1.664 -1.2710002,2.1 -2.4030002,4.205 -3.4030002,6.287 -1.691,3.518 -2.99,6.965 -3.888,10.19 z"
     id="path474"
     inkscape:connector-curvature="0"
     style="fill:none;stroke:#114d75;stroke-width:2;stroke-linecap:round;stroke-linejoin:round" /><path
     d="m 36.703985,249.798 c 2.294,-5.283 2.93,-9.291 2.978,-12.771 -1.398,1.894 -2.704,5.123 -3.457,8.92 -1.258,6.338 -0.5,11.83 1.694,12.265 l 1.825,0.362 c -0.499,-0.369 -0.973,-0.734 -1.396,-1.085 -1.279,-1.06 -3.58,-3.23 -1.644,-7.691 z"
     id="path476"
     inkscape:connector-curvature="0"
     style="fill:#ffffff;stroke:#000000;stroke-width:0.5;stroke-linecap:round;stroke-linejoin:round" /><rect
     x="-177.69"
     y="120.62388"
     transform="rotate(-58.298284)"
     width="1.1260061"
     height="17.536095"
     id="rect478"
     style="fill:#5d7495;stroke-width:1.00000548" /><polygon
     points="36.483,278.101 37.227,277.257 24.551,266.099 23.662,266.822 "
     id="polygon480"
     style="fill:#5d7495"
     transform="translate(-0.36501516,-70.414)" /><polygon
     points="18.262,302.28 22.961,304.656 33.721,310.097 34.062,309.008 18.74,301.261 "
     id="polygon482"
     style="fill:#5d7495"
     transform="translate(-0.36501516,-70.414)" /><polygon
     points="18.102,326.712 18.424,327.556 18.498,327.751 33.137,331.706 32.95,330.694 19.529,327.095 "
     id="polygon484"
     style="fill:#577091"
     transform="translate(-0.36501516,-70.414)" /><polygon
     points="21.193,296.718 18.74,301.261 34.062,309.008 37.92,306.202 25.047,298.901 "
     id="polygon486"
     style="fill:#7383a0"
     transform="translate(-0.36501516,-70.414)" /><path
     d="m 2.8419848,234.174 -0.211,0.888 14.4530002,6.02 c 0.184,-0.254 0.371,-0.502 0.56,-0.742 z"
     id="path488"
     inkscape:connector-curvature="0"
     style="fill:#5d7495" /><path
     d="m 2.6309848,235.062 -0.279,5.104 0.98,0.357 11.6220002,4.229 c 0.116,-0.262 0.259,-0.496 0.385,-0.748 0.524,-1.048 1.104,-2.039 1.745,-2.922 z"
     id="path490"
     inkscape:connector-curvature="0"
     style="fill:#386085" /><path
     d="m 20.911985,241.135 c 0.298,-1.681 0.694,-3.417 1.184,-5.186 -1.27,0.97 -2.925,2.454 -4.452,4.39 -0.188,0.24 -0.376,0.488 -0.56,0.742 -0.794,1.096 -1.526,2.322 -2.13,3.67 -0.266,0.593 -0.513,1.201 -0.72,1.844 l 8.332,2.891 8.824,3.062 2.91,-5.712 z"
     id="path492"
     inkscape:connector-curvature="0"
     style="fill:#6b809e" /><polygon
     points="20.462,320.228 22.566,320.958 31.441,324.04 31.756,322.962 14.6,317.009 14.534,318.177 "
     id="polygon494"
     style="fill:#5d7495"
     transform="translate(-0.36501516,-70.414)" /><path
     d="m 8.9979848,255.177 9.0610002,1.965 -0.322,-0.844 c 0.125,-0.545 0.273,-1.09 0.432,-1.627 l -8.4590002,-2.449 c -0.333,1.083 -0.644,2.228 -0.712,2.955 z"
     id="path496"
     inkscape:connector-curvature="0"
     style="fill:#2a5a80" /><path
     d="m 14.168985,247.763 0.065,-1.168 c 0.207,-0.643 0.454,-1.251 0.72,-1.844 L 3.3319848,240.522 c -1.327,3.197 -2.45899996,7.811 -2.69699996,9.068 l 9.07399996,2.631 8.4590002,2.449 c 0.092,-0.314 0.523,-1.62 0.626,-1.9 0.444,-1.223 0.913,-2.279 1.303,-2.957 z"
     id="path498"
     inkscape:connector-curvature="0"
     style="fill:#6a7d9c" /><path
     d="m 31.075985,253.626 -8.875,-3.082 -2.104,-0.73 c -0.391,0.678 -0.858,1.734 -1.303,2.957 -0.219,0.602 -0.433,1.241 -0.626,1.9 -0.158,0.537 -0.307,1.082 -0.432,1.627 l 1.428,0.383 13.421,3.6 1.571,-5.584 z"
     id="path500"
     inkscape:connector-curvature="0"
     style="fill:#386085" /><polygon
     points="29.729,289.87 40.057,296.975 40.057,293.2 27.75,284.097 25.863,287.212 "
     id="polygon502"
     style="fill:#035279"
     transform="translate(-0.36501516,-70.414)" /><polygon
     points="40.057,293.2 40.057,291.801 28.42,283.192 27.75,284.097 "
     id="polygon504"
     style="fill:#5d7495"
     transform="translate(-0.36501516,-70.414)" /><polygon
     points="28.42,283.192 40.057,291.801 40.057,288.788 34.046,284.082 30.645,281.418 "
     id="polygon506"
     style="fill:#808ea9"
     transform="translate(-0.36501516,-70.414)" /><path
     d="m 39.691985,216.816 v -7.877 l -0.299,-0.267 c -1.579,0.97 -3.42,2.542 -5.05,4.258 -0.288,0.303 -0.376,0.414 -0.662,0.737 l 6.011,4.706 z"
     id="path508"
     inkscape:connector-curvature="0"
     style="fill:#386085" /><polygon
     points="39.758,279.087 40.057,279.354 40.057,272.902 36.381,276.074 37.578,277.142 "
     id="polygon510"
     style="fill:#035279"
     transform="translate(-0.36501516,-70.414)" /><path
     d="m 37.918985,258.211 c -2.194,-0.435 -2.952,-5.927 -1.694,-12.265 0.753,-3.797 2.059,-7.026 3.457,-8.92 0.002,-0.146 0.01,-0.295 0.01,-0.438 v -4.579 c -0.742,1.031 -1.463,2.301 -2.137,3.779 l -3.857,2.806 -0.342,1.089 2.33,1.169 c -0.42,1.413 -0.795,2.907 -1.105,4.47 -0.102,0.508 -0.195,1.014 -0.279,1.515 l -2.91,5.712 -0.314,1.078 2.589,0.9 0.491,0.17 -0.423,1.503 -1.148,4.081 0.187,1.012 1.529,-1.369 1.697,-1.519 c 0.555,0.625 2.27,1.728 4.277,0.548 -0.179,-0.127 -0.36,-0.254 -0.531,-0.379 z"
     id="path512"
     inkscape:connector-curvature="0"
     style="fill:#024a6f" /><path
     d="m 35.685985,240.852 -2.33,-1.169 -10.76,-5.44 c -0.178,0.572 -0.342,1.142 -0.5,1.707 -0.489,1.769 -0.886,3.505 -1.184,5.186 l 13.389,5.701 c 0.084,-0.501 0.178,-1.007 0.279,-1.515 0.311,-1.563 0.686,-3.057 1.106,-4.47 z"
     id="path514"
     inkscape:connector-curvature="0"
     style="fill:#426488" /><path
     d="m 24.754985,222.833 -0.592,0.959 1.11,3.355 c 0.943,-2.117 2.15,-4.533 3.233,-6.385 z"
     id="path516"
     inkscape:connector-curvature="0"
     style="fill:#024a6f" /><path
     d="m 29.363985,219.456 c -0.354,0.557 -0.513,0.721 -0.856,1.307 -1.083,1.852 -2.29,4.268 -3.233,6.385 -0.197,0.445 -0.4,0.884 -0.592,1.34 l 12.873,7.301 c 0.674,-1.479 1.395,-2.748 2.137,-3.779 v -5.448 z"
     id="path518"
     inkscape:connector-curvature="0"
     style="fill:#4b698c" /><path
     d="m 37.212985,206.728 -0.352,0.115 -0.743,0.844 -1.775,5.244 c 1.63,-1.716 3.471,-3.288 5.05,-4.258 z"
     id="path520"
     inkscape:connector-curvature="0"
     style="fill:#024a6f" /><path
     d="m 11.835985,208.741 c -0.35,0.547 -0.697,1.1 -1.038,1.664 -1.2710002,2.1 -2.4030002,4.205 -3.4030002,6.287 l 1.845,-2.109 0.592,-0.958 z"
     id="path522"
     inkscape:connector-curvature="0"
     style="fill:#7484a2" /><path
     d="m 7.3949848,216.692 c -1.689,3.518 -2.988,6.965 -3.887,10.189 l 18.5900002,9.06 c 0.157,-0.563 0.322,-1.13 0.498,-1.699 l -4.699,-2.376 0.479,-1.02 2.453,-4.543 3.854,2.184 c 0.191,-0.456 0.395,-0.895 0.592,-1.34 z"
     id="path524"
     inkscape:connector-curvature="0"
     style="fill:#426488" /><path
     d="m 25.497985,216.798 1.887,-3.115 0.67,-0.904 2.225,-1.774 3.401,2.664 c 0.286,-0.323 0.374,-0.435 0.662,-0.737 l -15.851,-13.012 c -2.305,2.588 -4.559,5.549 -6.656,8.822 l 16.671,12.021 c 0.344,-0.586 0.503,-0.75 0.856,-1.307 z"
     id="path526"
     inkscape:connector-curvature="0"
     style="fill:#4b698c" /><path
     d="m 3.5079848,226.882 c -1.451,5.219 -1.855,9.858 -1.156,13.283 l 0.279,-5.104 0.211,-0.888 z"
     id="path528"
     inkscape:connector-curvature="0"
     style="fill:#7484a2" /><path
     d="m 3.5079848,226.882 18.5880002,9.067 c -1.27,0.97 -2.926,2.458 -4.454,4.395 L 2.8409848,234.179 Z"
     id="path530"
     inkscape:connector-curvature="0"
     style="fill:#70819f" /><polygon
     points="28.872,291.177 25.12,293.247 10.196,284.039 12.201,279.155 "
     id="polygon532"
     style="fill:#808ea9"
     transform="translate(-0.36501516,-70.414)" /><polygon
     points="9.604,284.997 7.76,287.106 25.639,297.562 24.528,294.206 "
     id="polygon534"
     style="fill:#035279"
     transform="translate(-0.36501516,-70.414)" /><path
     d="m 18.491985,199.919 4.805,-3.511 0.889,-0.724 6.678,-5.715 c -4.297,2.603 -8.272,5.511 -12.372,9.95 z"
     id="path536"
     inkscape:connector-curvature="0"
     style="fill:#7484a2" /><polygon
     points="34.708,283.345 36.483,278.101 23.662,266.822 18.857,270.333 "
     id="polygon538"
     style="fill:#035279"
     transform="translate(-0.36501516,-70.414)" /><path
     d="m 30.863985,189.97 8.836,8.992 v -14.297 c -3.756,1.772 -6.793,3.863 -8.836,5.305 z"
     id="path540"
     inkscape:connector-curvature="0"
     style="fill:#386085" /><polygon
     points="37.227,277.257 37.578,277.142 36.381,276.074 40.057,272.902 40.064,269.376 31.229,260.384 24.551,266.099 "
     id="polygon542"
     style="fill:#808ea9"
     transform="translate(-0.36501516,-70.414)" /><path
     d="m 143.65132,261.09887 c -0.75425,-3.13772 -2.06343,-5.80606 -3.46375,-7.37119 -0.001,-0.12065 -0.01,-0.24378 -0.01,-0.36195 V 132.84755 c 0,-1.22302 -0.10017,-2.64602 -0.84941,-3.74427 L 125.05942,108.9201 c -1.42837,-1.98328 -1.31418,-2.83279 -1.31418,-4.80285 V 2.9550708 L 120.76429,0.49580381 H 59.02168 L 56.040726,2.9550708 V 104.11643 c 0,1.97006 0.113188,2.82039 -1.314184,4.80284 L 40.45883,129.10328 c -0.750247,1.09825 -0.851415,2.52125 -0.851415,3.74427 v 120.51818 c 0,0.11899 -0.008,0.24212 -0.01002,0.36195 -1.400328,1.56513 -2.708502,4.23347 -3.462755,7.37119 -1.260094,5.23751 -0.500832,9.77592 1.69682,10.13539 l 1.828038,0.29914 c 0.480799,0.29336 0.99866,0.5892 1.541562,0.88339 0.230383,0.12561 0.465774,0.25121 0.706173,0.37517 0.183305,0.0934 0.363605,0.18676 0.551918,0.27849 0.398662,0.19667 0.808343,0.39004 1.231045,0.5768 0.04708,0.0207 0.09015,0.0438 0.136227,0.0645 0.007,0.003 0.01503,0.006 0.02204,0.01 l 7.939194,3.70708 c 2.058421,0.97016 4.174938,2.7171 4.174938,5.82176 v 47.27314 l 2.74356,2.2626 h 62.372655 l 2.74256,-2.2626 v -47.27314 c 0,-3.10466 2.11752,-4.8516 4.17594,-5.82176 l 7.94019,-3.70708 c 0.006,-0.004 0.014,-0.007 0.021,-0.01 0.0471,-0.0207 0.0892,-0.0438 0.13723,-0.0645 0.42069,-0.18759 0.83038,-0.38013 1.22904,-0.5768 0.18831,-0.0917 0.36961,-0.18511 0.55292,-0.27849 0.2414,-0.12396 0.47579,-0.24956 0.70617,-0.37517 0.5429,-0.29419 1.06176,-0.59003 1.54256,-0.88339 l 1.82704,-0.29914 c 2.19765,-0.35947 2.95792,-4.89788 1.69782,-10.13539 z"
     id="path544"
     inkscape:connector-curvature="0"
     style="fill:none;stroke:#4b6588;stroke-width:1.81960714;stroke-linecap:round;stroke-linejoin:round" /><path
     d="m 143.65132,261.099 c -0.75425,-3.13771 -2.06343,-5.80605 -3.46375,-7.37119 -0.001,-0.12065 -0.01,-0.24378 -0.01,-0.36195 V 132.84762 c 0,-1.22302 -0.10017,-2.64603 -0.84941,-3.74427 l -14.26872,-20.18319 c -1.42837,-1.98329 -1.31418,-2.83279 -1.31418,-4.80285 V 2.9550728 L 120.76431,0.49580381 H 59.02168 L 56.040726,2.9550728 V 104.11648 c 0,1.97006 0.113188,2.82039 -1.314184,4.80285 L 40.45883,129.10335 c -0.750246,1.09824 -0.851414,2.52125 -0.851414,3.74427 v 120.51824 c 0,0.119 -0.008,0.24212 -0.01002,0.36195 -1.400327,1.56514 -2.708501,4.23348 -3.462755,7.37119 -1.260094,5.23752 -0.500832,9.77593 1.69682,10.1354 l 1.828038,0.29914 c 1.209009,0.73795 2.613343,1.49656 4.166925,2.17831 l 7.960229,3.71783 c 2.058421,0.97015 4.174939,2.71709 4.174939,5.82175 v 47.27317 l 2.743559,2.2626 h 62.372659 l 2.74255,-2.2626 v -47.27317 c 0,-3.10466 2.11752,-4.8516 4.17594,-5.82175 l 7.96023,-3.71783 c 1.55459,-0.68175 2.95792,-1.44036 4.16593,-2.17831 l 1.82904,-0.29914 c 2.19965,-0.35947 2.95992,-4.89788 1.69982,-10.1354 z"
     id="path546"
     inkscape:connector-curvature="0"
     style="fill:#4b6588;stroke:#114d75;stroke-width:1.81960762;stroke-linecap:round;stroke-linejoin:round" /><linearGradient
     id="SVGID_1_"
     gradientUnits="userSpaceOnUse"
     x1="56.3848"
     y1="371.7695"
     x2="124.1309"
     y2="371.7695"
     gradientTransform="translate(-0.36501516,-70.414)"><stop
       offset="0.05"
       style="stop-color:#5D7091"
       id="stop548" /><stop
       offset="0.5"
       style="stop-color:#FFFFFF"
       id="stop550" /><stop
       offset="0.9451"
       style="stop-color:#5D7091"
       id="stop552" /></linearGradient><rect
     x="56.019981"
     y="272.75299"
     width="67.746002"
     height="57.206001"
     id="rect555"
     style="fill:url(#SVGID_1_)" /><linearGradient
     id="SVGID_2_"
     gradientUnits="userSpaceOnUse"
     x1="44.269501"
     y1="333.87299"
     x2="136.2471"
     y2="333.87299"><stop
       offset="0.05"
       style="stop-color:#34597F"
       id="stop557" /><stop
       offset="0.5"
       style="stop-color:#AAB2C6"
       id="stop559" /><stop
       offset="0.9451"
       style="stop-color:#34597F"
       id="stop561" /></linearGradient><polygon
     points="136.247,331.623 128.3,336.122 52.217,336.122 44.27,331.623 "
     id="polygon564"
     style="fill:url(#SVGID_2_)"
     transform="translate(-0.36501516,-70.414)" /><linearGradient
     id="SVGID_3_"
     gradientUnits="userSpaceOnUse"
     x1="37.069302"
     y1="313.60739"
     x2="143.4473"
     y2="313.60739"
     gradientTransform="translate(-0.36501516,-70.414)"><stop
       offset="0.05"
       style="stop-color:#5D7091"
       id="stop566" /><stop
       offset="0.5"
       style="stop-color:#FFFFFF"
       id="stop568" /><stop
       offset="0.9451"
       style="stop-color:#5D7091"
       id="stop570" /></linearGradient><path
     d="m 143.08198,249.798 c -2.389,-5.502 -2.988,-9.629 -2.988,-13.21 H 39.691985 c 0,3.581 -0.6,7.708 -2.987,13.21 z"
     id="path573"
     inkscape:connector-curvature="0"
     style="fill:url(#SVGID_3_)" /><linearGradient
     id="SVGID_4_"
     gradientUnits="userSpaceOnUse"
     x1="40.056599"
     y1="158.89549"
     x2="140.459"
     y2="158.89549"
     gradientTransform="translate(-0.36501516,-70.414)"><stop
       offset="0.05"
       style="stop-color:#76819F"
       id="stop575" /><stop
       offset="0.5"
       style="stop-color:#FFFFFF"
       id="stop577" /><stop
       offset="0.9451"
       style="stop-color:#76819F"
       id="stop579" /></linearGradient><path
     d="m 39.691985,90.747 c 0,-1.48 0.101,-3.202 0.85,-4.531 h 98.704995 c 0.748,1.329 0.848,3.051 0.848,4.531 z"
     id="path582"
     inkscape:connector-curvature="0"
     style="fill:url(#SVGID_4_)" /><linearGradient
     id="SVGID_5_"
     gradientUnits="userSpaceOnUse"
     x1="55.150398"
     y1="129.2993"
     x2="125.3662"
     y2="129.2993"
     gradientTransform="matrix(1,0,0,0.46648781,-0.36501516,0.11951181)"><stop
       offset="0.05"
       style="stop-color:#76819F"
       id="stop584" /><stop
       offset="0.5"
       style="stop-color:#FFFFFF"
       id="stop586" /><stop
       offset="0.9451"
       style="stop-color:#76819F"
       id="stop588" /></linearGradient><path
     d="m 54.784985,61.792 c 1.426,-1.11957 1.312,-1.59912 1.312,-2.71123 h 67.591995 c 0,1.11211 -0.114,1.59213 1.312,2.71123 z"
     id="path591"
     style="fill:url(#SVGID_5_);stroke-width:0.68299913"
     inkscape:connector-curvature="0" /><linearGradient
     id="SVGID_6_"
     gradientUnits="userSpaceOnUse"
     x1="56.462898"
     y1="2.4877999"
     x2="124.0547"
     y2="2.4877999"><stop
       offset="0.05"
       style="stop-color:#9299B1"
       id="stop593" /><stop
       offset="0.5"
       style="stop-color:#FFFFFF"
       id="stop595" /><stop
       offset="0.9451"
       style="stop-color:#9299B1"
       id="stop597" /></linearGradient><polygon
     points="56.463,3.976 124.055,3.976 121.078,1 59.438,1 "
     id="polygon600"
     style="fill:url(#SVGID_6_)"
     transform="matrix(1,0,0,0.46648781,-0.36501516,0.11951181)" /><linearGradient
     id="SVGID_7_"
     gradientUnits="userSpaceOnUse"
     x1="52.216801"
     y1="339.6445"
     x2="128.2998"
     y2="339.6445"
     gradientTransform="translate(-0.36501516,-70.414)"><stop
       offset="0.05"
       style="stop-color:#34597F"
       id="stop602" /><stop
       offset="0.5"
       style="stop-color:#AAB2C6"
       id="stop604" /><stop
       offset="0.9451"
       style="stop-color:#34597F"
       id="stop606" /></linearGradient><path
     d="m 127.93498,265.708 c -2.055,1.174 -4.169,3.288 -4.169,7.045 H 56.019985 c 0,-3.757 -2.113,-5.871 -4.168,-7.045 z"
     id="path609"
     inkscape:connector-curvature="0"
     style="fill:url(#SVGID_7_)" /><linearGradient
     id="SVGID_8_"
     gradientUnits="userSpaceOnUse"
     x1="36.3237"
     y1="325.918"
     x2="144.19341"
     y2="325.918"
     gradientTransform="translate(-0.36501516,-70.414)"><stop
       offset="0.05"
       style="stop-color:#466386"
       id="stop611" /><stop
       offset="0.5"
       style="stop-color:#C6CCD9"
       id="stop613" /><stop
       offset="0.9451"
       style="stop-color:#466386"
       id="stop615" /></linearGradient><path
     d="m 36.703985,249.798 c -1.937,4.461 0.364,6.631 1.644,7.69 1.449,1.199 3.365,2.556 5.557,3.721 h 91.977995 c 2.192,-1.165 4.108,-2.521 5.557,-3.721 1.278,-1.06 3.581,-3.229 1.644,-7.69 z"
     id="path618"
     inkscape:connector-curvature="0"
     style="fill:url(#SVGID_8_)" /><linearGradient
     id="SVGID_9_"
     gradientUnits="userSpaceOnUse"
     x1="40.056599"
     y1="234.082"
     x2="140.459"
     y2="234.082"
     gradientTransform="translate(-0.36501516,-70.414)"><stop
       offset="0.05"
       style="stop-color:#5D7091"
       id="stop620" /><stop
       offset="0.5"
       style="stop-color:#FFFFFF"
       id="stop622" /><stop
       offset="0.9451"
       style="stop-color:#5D7091"
       id="stop624" /></linearGradient><rect
     x="39.691982"
     y="90.746994"
     width="100.402"
     height="145.841"
     id="rect627"
     style="fill:url(#SVGID_9_)" /><linearGradient
     id="SVGID_10_"
     gradientUnits="userSpaceOnUse"
     x1="56.462898"
     y1="65.184601"
     x2="124.0547"
     y2="65.184601"
     gradientTransform="matrix(1,0,0,0.46648781,-0.36501516,0.11951181)"><stop
       offset="0.05"
       style="stop-color:#5D7091"
       id="stop629" /><stop
       offset="0.5"
       style="stop-color:#FFFFFF"
       id="stop631" /><stop
       offset="0.9451"
       style="stop-color:#5D7091"
       id="stop633" /></linearGradient><rect
     x="56.097984"
     y="1.9742674"
     width="67.592003"
     height="57.106037"
     id="rect636"
     style="fill:url(#SVGID_10_);stroke-width:0.68299913" /><linearGradient
     id="SVGID_11_"
     gradientUnits="userSpaceOnUse"
     x1="40.9062"
     y1="144.418"
     x2="139.6113"
     y2="144.418"><stop
       offset="0.05"
       style="stop-color:#9299B1"
       id="stop638" /><stop
       offset="0.5"
       style="stop-color:#FFFFFF"
       id="stop640" /><stop
       offset="0.9451"
       style="stop-color:#9299B1"
       id="stop642" /></linearGradient><polygon
     points="40.906,156.63 55.15,132.206 125.366,132.206 139.611,156.63 "
     id="polygon645"
     style="fill:url(#SVGID_11_)"
     transform="translate(-0.36501516,-70.414)" /><linearGradient
     id="SVGID_12_"
     gradientUnits="userSpaceOnUse"
     x1="56.3848"
     y1="401.74219"
     x2="124.1309"
     y2="401.74219"><stop
       offset="0.05"
       style="stop-color:#34597F"
       id="stop647" /><stop
       offset="0.5"
       style="stop-color:#AAB2C6"
       id="stop649" /><stop
       offset="0.9451"
       style="stop-color:#34597F"
       id="stop651" /></linearGradient><polygon
     points="59.124,403.111 56.385,400.373 124.131,400.373 121.393,403.111 "
     id="polygon654"
     style="fill:url(#SVGID_12_)"
     transform="translate(-0.36501516,-70.414)" /><path
     d="m 43.903985,261.21 c 2.964,1.574 6.435,2.795 9.944,2.795 5.637,0 12.916,-2.992 12.916,-7.572 0,-3.289 -14.677,-18.788 -20.372,-18.788 -5.695,0 -8.044,8.513 -9.688,12.153 -1.937,4.461 0.364,6.631 1.644,7.69 1.449,1.2 3.363,2.558 5.556,3.722 z"
     id="path656"
     inkscape:connector-curvature="0"
     style="fill:#949eb5" /><path
     d="m 94.053985,14.134206 c 0,-1.071989 -1.863,-1.94059 -4.161,-1.94059 -2.297,0 -4.159,0.868601 -4.159,1.94059 V 47.44097 c 0,1.07199 1.862,1.94059 4.159,1.94059 2.298,0 4.161,-0.8686 4.161,-1.94059 z"
     id="path658"
     inkscape:connector-curvature="0"
     style="fill:#cdd0da;stroke-width:0.68299913" /><ellipse
     transform="rotate(-23.121855)"
     cx="-51.447472"
     cy="244.32794"
     rx="3.0760944"
     ry="6.3741956"
     id="ellipse660"
     style="fill:#dbdde5;stroke-width:1.00003064" /><ellipse
     transform="rotate(-23.111316)"
     cx="-51.404408"
     cy="244.31235"
     rx="2.3558872"
     ry="4.8807664"
     id="ellipse662"
     style="fill:#376084;stroke-width:0.9999522" /><path
     d="m 135.88298,261.21 c -2.964,1.574 -6.435,2.795 -9.943,2.795 -5.637,0 -12.917,-2.992 -12.917,-7.572 0,-3.289 14.677,-18.788 20.372,-18.788 5.695,0 8.044,8.513 9.688,12.153 1.938,4.461 -0.365,6.631 -1.644,7.69 -1.449,1.2 -3.365,2.558 -5.556,3.722 z"
     id="path664"
     inkscape:connector-curvature="0"
     style="fill:#949eb5" /><ellipse
     transform="rotate(-156.87063)"
     cx="-216.83682"
     cy="-173.68752"
     rx="3.0759323"
     ry="6.3738599"
     id="ellipse666"
     style="fill:#dbdde5;stroke-width:0.99997801" /><ellipse
     transform="rotate(-156.87814)"
     cx="-216.79485"
     cy="-173.70462"
     rx="2.3550723"
     ry="4.8811498"
     id="ellipse668"
     style="fill:#376084;stroke-width:1.00003064" /><rect
     x="65.548988"
     y="93.914993"
     width="48.688"
     height="142.668"
     id="rect670"
     style="fill:#4b678a" /><path
     d="m 124.40498,223.248 4.875,-9.15 -7.693,-4.553 c -0.179,-0.681 -0.387,-1.351 -0.615,-2.012 -0.064,-0.188 -0.141,-0.372 -0.209,-0.558 -0.175,-0.477 -0.357,-0.947 -0.557,-1.413 -0.088,-0.204 -0.184,-0.405 -0.275,-0.606 -0.203,-0.444 -0.416,-0.883 -0.641,-1.315 -0.102,-0.196 -0.205,-0.39 -0.312,-0.583 -0.102,-0.185 -0.193,-0.374 -0.299,-0.557 l 1.432,-6.91 -6.82,0.105 c -5.938,-5.641 -14.241995,-9.152 -23.440995,-9.152 -9.199,0 -17.504,3.512 -23.441,9.152 l -6.821,-0.105 1.433,6.91 c -0.104,0.179 -0.192,0.365 -0.292,0.545 -0.11,0.201 -0.218,0.402 -0.324,0.605 -0.222,0.426 -0.43,0.855 -0.63,1.293 -0.096,0.208 -0.193,0.414 -0.283,0.625 -0.196,0.457 -0.375,0.92 -0.548,1.389 -0.071,0.193 -0.149,0.384 -0.217,0.58 -0.228,0.66 -0.435,1.328 -0.614,2.006 l -7.693,4.554 4.875,9.15 2.049,0.748 c 0.102,0.979 0.257,1.946 0.458,2.896 l -4.231,6.949 4.799,6.601 5.905,-0.642 c 0.329,0.381 0.668,0.754 1.016,1.119 -0.007,-0.007 -0.015,-0.014 -0.022,-0.021 l -1.965,6.405 4.949,5.4 2.049,-0.871 1.476,1.977 2.816,-1.82 c 1.532,0.873 3.152,1.625 4.856,2.227 l 0.202,2.988 2.101,3 3.996,-4.484 c 1.09,0.143 2.201,0.216 3.325,0.244 l 0.778,1.489 0.777,-1.489 c 1.125,-0.028 2.235,-0.102 3.325,-0.244 l 3.997,4.484 2.099995,-3.002 0.204,-2.988 c 1.703,-0.602 3.323,-1.354 4.854,-2.226 l 2.816,1.821 1.477,-1.977 2.048,0.871 4.95,-5.4 v -0.001 l 0.002,0.001 -1.967,-6.407 c 0.34,-0.358 0.671,-0.724 0.992,-1.097 l 5.905,0.642 4.8,-6.601 h 0.002 l -4.233,-6.949 c 0.201,-0.949 0.356,-1.916 0.459,-2.896 z"
     id="path672"
     inkscape:connector-curvature="0"
     style="fill:none;stroke:#114d75;stroke-width:2;stroke-linecap:round;stroke-linejoin:round" /><path
     d="m 85.068985,251.124 -5.421,6.08 2.101,3 3.996,-4.484 c 1.09,0.143 2.201,0.216 3.325,0.244 l -2.432,-4.659 c -0.526,-0.055 -1.054,-0.103 -1.569,-0.181 z"
     id="path674"
     inkscape:connector-curvature="0"
     style="fill:#035279" /><path
     d="m 78.601985,249.395 -4.013,2.595 c 1.532,0.873 3.152,1.625 4.856,2.227 l -0.312,-4.613 c -0.18,-0.068 -0.354,-0.14 -0.531,-0.209 z"
     id="path676"
     inkscape:connector-curvature="0"
     style="fill:#035279" /><path
     d="m 100.56498,249.601 -0.313,4.613 c 1.703,-0.602 3.323,-1.354 4.854,-2.226 l -4.012,-2.595 c -0.178,0.069 -0.352,0.143 -0.529,0.208 z"
     id="path678"
     inkscape:connector-curvature="0"
     style="fill:#035279" /><path
     d="m 93.056985,251.304 -2.432,4.66 c 1.125,-0.028 2.235,-0.102 3.325,-0.244 l 3.997,4.484 2.099995,-3.002 v 0 l -5.418995,-6.08 c -0.516,0.08 -1.046,0.128 -1.571,0.182 z"
     id="path680"
     inkscape:connector-curvature="0"
     style="fill:#035279" /><polygon
     points="111.812,323.118 116.762,317.718 116.762,317.717 111.61,315.527 111.812,319.499 109.764,322.247 "
     id="polygon682"
     style="fill:#035279"
     transform="translate(-0.36501516,-70.414)" /><polygon
     points="68.613,323.118 70.662,322.247 68.613,319.499 68.814,315.528 63.664,317.718 "
     id="polygon684"
     style="fill:#035279"
     transform="translate(-0.36501516,-70.414)" /><path
     d="m 78.634985,249.372 -0.033,0.022 c 0.177,0.069 0.352,0.142 0.531,0.208 l 0.515,7.602 5.421,-6.08 c 0.516,0.078 1.043,0.126 1.569,0.181 l -0.14,-0.267 c -2.734,-0.256 -5.37,-0.825 -7.863,-1.666 z"
     id="path686"
     inkscape:connector-curvature="0"
     style="fill:#376084" /><path
     d="m 65.263985,240.898 -1.965,6.405 5.15,-2.189 0.063,-1.242 c -1.156,-0.92 -2.241,-1.914 -3.248,-2.974 z"
     id="path688"
     inkscape:connector-curvature="0"
     style="fill:#376084" /><path
     d="m 93.195985,251.038 -0.139,0.266 c 0.525,-0.054 1.055,-0.102 1.571,-0.182 l 5.418995,6.08 0.518,-7.602 c 0.178,-0.064 0.353,-0.139 0.529,-0.207 l -0.033,-0.021 c -2.493995,0.841 -5.128995,1.41 -7.864995,1.666 z"
     id="path690"
     inkscape:connector-curvature="0"
     style="fill:#376084" /><path
     d="m 111.18198,243.874 0.063,1.239 5.153,2.19 -1.967,-6.407 c -1.006,1.062 -2.091,2.055 -3.249,2.978 z"
     id="path692"
     inkscape:connector-curvature="0"
     style="fill:#376084" /><path
     d="m 122.35698,223.996 2.048,-0.748 4.875,-9.15 -7.693,-4.553 c -0.652,-2.481 -1.635,-4.845 -2.908,-7.044 l 1.432,-6.91 -6.82,0.105 c -5.938,-5.641 -14.241995,-9.152 -23.440995,-9.152 -9.199,0 -17.504,3.512 -23.441,9.152 l -6.821,-0.105 1.433,6.91 c -1.273,2.199 -2.256,4.562 -2.908,7.043 l -7.693,4.554 4.875,9.15 2.049,0.748 c 0.102,0.979 0.257,1.946 0.458,2.896 l -4.231,6.949 4.799,6.601 5.905,-0.642 c 1.273,1.477 2.694,2.84 4.242,4.072 l -0.265,5.213 3.524,4.725 6.859,-4.438 c 2.493,0.841 5.129,1.41 7.863,1.666 l 3.35,6.415 3.348,-6.415 c 2.736,-0.256 5.371,-0.825 7.864995,-1.666 l 6.861,4.438 3.525,-4.725 -0.266,-5.211 c 1.549,-1.234 2.969,-2.598 4.242,-4.074 l 5.905,0.642 4.8,-6.601 -4.231,-6.947 c 0.202,-0.952 0.357,-1.918 0.46,-2.898 z"
     id="path694"
     inkscape:connector-curvature="0"
     style="fill:#035279" /><polygon
     points="90.213,327.867 90.213,324.866 86.072,316.935 86.863,321.452 "
     id="polygon696"
     style="fill:#024a6f"
     transform="translate(-0.36501516,-70.414)" /><polygon
     points="68.613,319.499 72.138,324.224 78.967,319.809 76.497,314.401 "
     id="polygon698"
     style="fill:#024a6f"
     transform="translate(-0.36501516,-70.414)" /><polygon
     points="53.932,304.255 58.73,310.855 64.636,310.214 62.678,303.261 "
     id="polygon700"
     style="fill:#024a6f"
     transform="translate(-0.36501516,-70.414)" /><polygon
     points="50.781,284.512 55.656,293.662 57.705,294.41 57.553,286.983 "
     id="polygon702"
     style="fill:#024a6f"
     transform="translate(-0.36501516,-70.414)" /><polygon
     points="90.213,327.867 90.213,324.866 94.354,316.935 93.561,321.452 "
     id="polygon704"
     style="fill:#024a6f"
     transform="translate(-0.36501516,-70.414)" /><polygon
     points="111.812,319.499 108.287,324.224 101.459,319.809 103.928,314.401 "
     id="polygon706"
     style="fill:#024a6f"
     transform="translate(-0.36501516,-70.414)" /><polygon
     points="126.494,304.255 121.694,310.855 115.789,310.214 117.748,303.261 "
     id="polygon708"
     style="fill:#024a6f"
     transform="translate(-0.36501516,-70.414)" /><polygon
     points="129.645,284.512 124.77,293.662 122.721,294.41 122.873,286.983 "
     id="polygon710"
     style="fill:#024a6f"
     transform="translate(-0.36501516,-70.414)" /><path
     d="m 121.06898,225.528 c 0.937,-2.805 1.443,-5.783 1.443,-8.87 0,-0.03 -0.004,-0.06 -0.004,-0.089 l 6.771,-2.472 -7.693,-4.553 c -0.76,-2.891 -1.971,-5.616 -3.562,-8.114 l 2.085,-5.84 -6.82,0.105 c -5.938,-5.641 -14.241995,-9.152 -23.440995,-9.152 -9.199,0 -17.504,3.512 -23.441,9.152 l -6.821,-0.105 2.085,5.841 c -1.59,2.497 -2.801,5.223 -3.561,8.112 l -7.693,4.554 6.771,2.472 c 0,0.029 -0.003,0.059 -0.003,0.089 0,3.089 0.507,6.067 1.443,8.872 l -5.062,8.311 8.746,-0.994 c 1.764,2.545 3.928,4.828 6.416,6.774 l -0.48,9.464 7.884,-5.098 c 2.978,1.271 6.194,2.14 9.575,2.533 l 4.141,7.932 4.141,-7.932 c 3.38,-0.394 6.597995,-1.262 9.573995,-2.533 l 7.885,5.098 -0.481,-9.464 c 2.488,-1.946 4.653,-4.229 6.417,-6.774 l 8.748,0.994 z"
     id="path712"
     inkscape:connector-curvature="0"
     style="fill:#376084" /><ellipse
     cx="89.846985"
     cy="216.14401"
     rx="31.504999"
     ry="29.047001"
     id="ellipse714"
     style="fill:#4b698c" /><ellipse
     cx="89.846985"
     cy="215.504"
     rx="30.261999"
     ry="27.899"
     id="ellipse716"
     style="fill:#5d7495" /><ellipse
     cx="89.847984"
     cy="215.504"
     rx="25.577999"
     ry="23.580999"
     id="ellipse718"
     style="fill:#7484a2" /><polygon
     points="74.049,304.063 106.467,304.063 111.19,299.931 111.19,165.558 69.325,165.558 69.325,299.931 "
     id="polygon720"
     style="fill:none;stroke:#114d75;stroke-width:2;stroke-linecap:round;stroke-linejoin:round"
     transform="translate(-0.36501516,-70.414)" /><rect
     x="77.620987"
     y="95.143997"
     width="24.542999"
     height="138.506"
     id="rect722"
     style="fill:#b3b8c9" /><polygon
     points="102.529,304.063 106.467,304.063 111.19,299.931 111.19,165.558 102.529,165.558 "
     id="polygon724"
     style="fill:#7383a0"
     transform="translate(-0.36501516,-70.414)" /><polygon
     points="77.986,304.063 74.049,304.063 69.325,299.931 69.325,165.558 77.986,165.558 "
     id="polygon726"
     style="fill:#7383a0"
     transform="translate(-0.36501516,-70.414)" /><ellipse
     cx="89.89299"
     cy="208.22601"
     rx="9.3190002"
     ry="10.98"
     id="ellipse728"
     style="fill:#dbdde5" /><ellipse
     cx="89.891991"
     cy="208.22601"
     rx="4.1999998"
     ry="4.9489999"
     id="ellipse730"
     style="fill:#5d7495" /></svg>