<?xml version="1.0" encoding="utf-8"?>
<!-- Generator: Adobe Illustrator 13.0.2, SVG Export Plug-In . SVG Version: 6.00 Build 14948)  -->
<!DOCTYPE svg PUBLIC "-//W3C//DTD SVG 1.1//EN" "http://www.w3.org/Graphics/SVG/1.1/DTD/svg11.dtd">
<svg version="1.1" id="drawing" xmlns="http://www.w3.org/2000/svg" xmlns:xlink="http://www.w3.org/1999/xlink" x="0px" y="0px"
	 width="258.698px" height="320.729px" viewBox="0 0 258.698 320.729" enable-background="new 0 0 258.698 320.729"
	 xml:space="preserve">
<g>
	<polygon fill="none" stroke="#114D75" stroke-width="2" stroke-linecap="round" stroke-linejoin="round" points="193.886,1.001 
		64.809,1 61.89,3.914 61.89,49.404 196.804,49.392 196.806,3.916 	"/>
	
		<linearGradient id="SVGID_1_" gradientUnits="userSpaceOnUse" x1="-452.1846" y1="322.9248" x2="-317.2686" y2="322.9248" gradientTransform="matrix(-1 -2.000000e-04 2.000000e-04 -1 -255.4437 325.3059)">
		<stop  offset="0.05" style="stop-color:#9299B1"/>
		<stop  offset="0.5" style="stop-color:#FFFFFF"/>
		<stop  offset="0.9451" style="stop-color:#9299B1"/>
	</linearGradient>
	<polygon fill="url(#SVGID_1_)" points="61.889,3.914 64.809,1 193.886,1.001 196.806,3.916 	"/>
	<g>
		
			<linearGradient id="SVGID_2_" gradientUnits="userSpaceOnUse" x1="-455.0415" y1="298.7227" x2="-314.4306" y2="298.7227" gradientTransform="matrix(-1 -2.000000e-04 2.000000e-04 -1 -255.4437 325.3059)">
			<stop  offset="0.05" style="stop-color:#5D7091"/>
			<stop  offset="0.5" style="stop-color:#FFFFFF"/>
			<stop  offset="0.9451" style="stop-color:#5D7091"/>
		</linearGradient>
		<polygon fill="url(#SVGID_2_)" points="61.889,3.914 61.889,49.404 196.804,49.392 196.806,3.916 		"/>
	</g>
</g>
<rect x="88.17" y="133.629" fill="#154E75" width="81.838" height="104.861"/>
<g>
	<linearGradient id="SVGID_3_" gradientUnits="userSpaceOnUse" x1="102.0747" y1="231.6113" x2="102.0747" y2="301.1114">
		<stop  offset="0" style="stop-color:#55698B"/>
		<stop  offset="1" style="stop-color:#8A95AF"/>
	</linearGradient>
	<path fill="url(#SVGID_3_)" d="M87.91,263.608c-1.565,1.945-1.76,4.146-1.085,5.98l2.556,6.467
		c6.344-2.164,15.337,1.203,19.904,2.127c2.938,0.594,6.005,0.01,7.49-1.756c1.403-1.822,1.121-4.699-0.346-7.119
		c-1.608-2.66-5.116-6.908-6.9-11.365c-0.5,0.332-1.11,0.648-1.842,0.947C103.706,260.511,91.188,259.538,87.91,263.608z"/>
	<linearGradient id="SVGID_4_" gradientUnits="userSpaceOnUse" x1="118.7681" y1="231.6123" x2="118.7681" y2="301.1079">
		<stop  offset="0" style="stop-color:#55698B"/>
		<stop  offset="1" style="stop-color:#8A95AF"/>
	</linearGradient>
	<path fill="url(#SVGID_4_)" d="M103.858,238.104c2.928,2.508,5.188,4.734,5.829,6.109l0.121,0.281
		c0.322,0.674,0.584,1.523,0.823,2.879c4.562-4.738,15.056-4.588,19.418-6.146c2.921-1.047,4.002-2.652,3.516-4.002
		c-0.331-0.92-1.384-1.713-3.095-2.143l-12.285-3.371l-11.615,4.811C105.464,237.033,104.635,237.455,103.858,238.104z"/>
	<linearGradient id="SVGID_5_" gradientUnits="userSpaceOnUse" x1="78.6436" y1="231.6123" x2="78.6436" y2="301.1105">
		<stop  offset="0" style="stop-color:#55698B"/>
		<stop  offset="1" style="stop-color:#8A95AF"/>
	</linearGradient>
	<path fill="url(#SVGID_5_)" d="M77.357,282.272c-1.988,1.295-3.201,7.232-3.938,10.561c-0.072,0.33-0.154,0.715-0.245,1.137
		l4.658,6.514c0.936,1.381,2.065,2.074,3.112,2.105c1.544,0.049,2.901-1.365,3.141-4.256c0.259-3.115-1.345-8.811-0.885-13.768
		c-0.211-0.047-0.421-0.086-0.637-0.154L77.357,282.272z"/>
	<path fill="#31587E" d="M111.425,254.597c0.099,1.24-0.427,2.367-1.896,3.346c1.784,4.457,5.292,8.705,6.9,11.365
		c1.467,2.42,1.749,5.297,0.346,7.119c-1.485,1.766-4.552,2.35-7.49,1.756c-4.567-0.924-13.561-4.291-19.904-2.127l0.548,1.387
		c0.751,1.777,0.321,3.803-0.895,5.271c-1.253,1.51-3.346,2.408-5.834,1.852c-0.46,4.957,1.144,10.652,0.885,13.768
		c-0.239,2.891-1.597,4.305-3.141,4.256l5.892-0.008c2.098,0.057,4.526-1.363,5.727-4.645c2.332-6.475-1.096-14.842,3.098-18.156
		c3.671-2.9,9.91-1.582,15.216-0.508c2.938,0.594,6.005,0.01,7.492-1.756c1.399-1.824,1.119-4.699-0.348-7.123
		c-2.65-4.373-5.824-9.5-3.877-13.58c2.227-4.661,11.903-4.056,17.947-7.989c3.058-2.01,3.829-4.564,3.162-6.398l-1.688-5.201
		c0.486,1.35-0.595,2.955-3.516,4.002c-4.362,1.559-14.856,1.408-19.418,6.146C110.907,248.932,111.154,251.156,111.425,254.597z"/>
</g>
<g>
	<linearGradient id="SVGID_6_" gradientUnits="userSpaceOnUse" x1="156.625" y1="231.6113" x2="156.625" y2="301.1114">
		<stop  offset="0" style="stop-color:#55698B"/>
		<stop  offset="1" style="stop-color:#8A95AF"/>
	</linearGradient>
	<path fill="url(#SVGID_6_)" d="M170.79,263.608c1.565,1.945,1.76,4.146,1.083,5.98l-2.554,6.467
		c-6.343-2.164-15.337,1.203-19.904,2.127c-2.939,0.594-6.006,0.01-7.491-1.756c-1.402-1.822-1.121-4.699,0.347-7.119
		c1.608-2.66,5.115-6.908,6.9-11.365c0.5,0.332,1.108,0.648,1.841,0.947C154.993,260.511,167.513,259.538,170.79,263.608z"/>
	<linearGradient id="SVGID_7_" gradientUnits="userSpaceOnUse" x1="139.9316" y1="231.6123" x2="139.9316" y2="301.1079">
		<stop  offset="0" style="stop-color:#55698B"/>
		<stop  offset="1" style="stop-color:#8A95AF"/>
	</linearGradient>
	<path fill="url(#SVGID_7_)" d="M154.842,238.104c-2.93,2.508-5.19,4.734-5.829,6.109l-0.122,0.281
		c-0.321,0.674-0.584,1.523-0.822,2.879c-4.562-4.738-15.057-4.588-19.419-6.146c-2.921-1.047-4.001-2.652-3.516-4.002
		c0.331-0.92,1.384-1.713,3.096-2.143l12.284-3.371l11.616,4.811C153.235,237.033,154.064,237.455,154.842,238.104z"/>
	<linearGradient id="SVGID_8_" gradientUnits="userSpaceOnUse" x1="180.0557" y1="231.6123" x2="180.0557" y2="301.1105">
		<stop  offset="0" style="stop-color:#55698B"/>
		<stop  offset="1" style="stop-color:#8A95AF"/>
	</linearGradient>
	<path fill="url(#SVGID_8_)" d="M181.343,282.272c1.988,1.295,3.199,7.232,3.937,10.561c0.074,0.33,0.156,0.715,0.245,1.137
		l-4.656,6.514c-0.936,1.381-2.065,2.074-3.113,2.105c-1.544,0.049-2.902-1.365-3.14-4.256c-0.26-3.115,1.344-8.811,0.884-13.768
		c0.211-0.047,0.422-0.086,0.639-0.154L181.343,282.272z"/>
	<path fill="#31587E" d="M147.275,254.597c-0.099,1.24,0.427,2.367,1.896,3.346c-1.785,4.457-5.292,8.705-6.9,11.365
		c-1.468,2.42-1.749,5.297-0.347,7.119c1.485,1.766,4.552,2.35,7.491,1.756c4.567-0.924,13.562-4.291,19.904-2.127l-0.548,1.387
		c-0.752,1.777-0.32,3.803,0.893,5.271c1.256,1.51,3.348,2.408,5.835,1.852c0.46,4.957-1.144,10.652-0.884,13.768
		c0.237,2.891,1.596,4.305,3.14,4.256l-5.891-0.008c-2.099,0.057-4.526-1.363-5.728-4.645c-2.332-6.475,1.096-14.842-3.097-18.156
		c-3.672-2.9-9.91-1.582-15.216-0.508c-2.938,0.594-6.006,0.01-7.492-1.756c-1.4-1.824-1.12-4.699,0.347-7.123
		c2.651-4.373,5.825-9.5,3.876-13.58c-2.225-4.661-11.902-4.056-17.945-7.989c-3.058-2.01-3.829-4.564-3.163-6.398l1.688-5.201
		c-0.485,1.35,0.595,2.955,3.516,4.002c4.362,1.559,14.856,1.408,19.419,6.146C147.793,248.932,147.546,251.156,147.275,254.597z"/>
</g>
<g>
	<g>
		<path fill="none" stroke="#114D75" stroke-width="2" stroke-linecap="round" stroke-linejoin="round" d="M13.241,313.552
			l-8.015-33.445c-2.667-10.332,7.708-33.319,26.298-56.415c18.591-23.1,39.443-38.92,50.94-39.559l36.948-2.492
			c2.81-0.375,6.948,0.537,8.681,5.154c1.731,4.615-1.36,10.596-8.771,16.771c-1.172,0.979-2.357,1.887-3.479,2.736
			c1.069,0.371,2.009,0.686,2.757,0.924c1.275,0.408,2.152,1.182,2.615,2.088l7.332,10.797c2.345,3.766,0.752,5.453-0.157,6.582
			c-0.81,0.963-2.372,1.771-4.149,2.508l-17.67,7.32c-1.106,0.512-1.936,0.934-2.712,1.582c2.928,2.508,5.188,4.734,5.829,6.109
			l0.121,0.281c0.692,1.453,1.109,3.674,1.616,10.103c0.131,1.664-0.854,3.119-3.737,4.293c-3.981,1.621-16.5,0.648-19.777,4.719
			c-1.565,1.945-1.76,4.146-1.085,5.98l3.104,7.854c0.751,1.777,0.321,3.803-0.895,5.271c-1.36,1.637-3.702,2.578-6.471,1.697
			l-5.206-2.139c-1.988,1.295-3.201,7.232-3.938,10.561c-0.87,3.934-2.914,15.02-6.934,15.562c-5.822,0.783-7.893,0.852-9.353,0.549
			c-4.199-0.477-9.002-7.008-15.084-12.768c-2.009,1-3.511,5.941-6.076,10.947c-4.27,8.332-9.577,12.791-14.87,12.6
			C15.81,319.53,13.665,316.14,13.241,313.552z"/>
		<linearGradient id="SVGID_9_" gradientUnits="userSpaceOnUse" x1="118.0825" y1="180.5117" x2="13.4648" y2="313.6559">
			<stop  offset="0" style="stop-color:#55698B"/>
			<stop  offset="1" style="stop-color:#8A95AF"/>
		</linearGradient>
		<path fill="url(#SVGID_9_)" d="M13.241,313.552l-8.015-33.445c-2.667-10.332,7.708-33.319,26.298-56.415
			c18.591-23.1,39.443-38.92,50.94-39.559l36.948-2.492c2.81-0.375,6.948,0.537,8.681,5.154c1.731,4.615-1.36,10.596-8.771,16.771
			c-1.172,0.979-2.357,1.887-3.479,2.736c1.069,0.371,2.009,0.686,2.757,0.924c1.275,0.408,2.152,1.182,2.615,2.088l7.332,10.797
			c2.345,3.766,0.752,5.453-0.157,6.582c-0.81,0.963-2.372,1.771-4.149,2.508l-17.67,7.32c-1.106,0.512-1.936,0.934-2.712,1.582
			c2.928,2.508,5.188,4.734,5.829,6.109l0.121,0.281c0.692,1.453,1.109,3.674,1.616,10.103c0.131,1.664-0.854,3.119-3.737,4.293
			c-3.981,1.621-16.5,0.648-19.777,4.719c-1.565,1.945-1.76,4.146-1.085,5.98l3.104,7.854c0.751,1.777,0.321,3.803-0.895,5.271
			c-1.36,1.637-3.702,2.578-6.471,1.697l-5.206-2.139c-1.988,1.295-3.201,7.232-3.938,10.561c-0.87,3.934-2.914,15.02-6.934,15.562
			c-5.822,0.783-7.893,0.852-9.353,0.549c-4.199-0.477-9.002-7.008-15.084-12.768c-2.009,1-3.511,5.941-6.076,10.947
			c-4.27,8.332-9.577,12.791-14.87,12.6C15.81,319.53,13.665,316.14,13.241,313.552z"/>
		<path fill="#466286" d="M42.049,296.177c-4.469-4.23-9.296-8.551-13.696-11.283c-3.227-2.002-5.413-1.957-7.49-1.113
			c-2.075,0.842-2.433,2.812-2.662,6.512c-0.271,4.344-1.14,22.787-1.14,22.787c-0.114,3.215-3.252,3.641-3.819,0.473
			c0.424,2.588,2.568,5.979,7.861,6.172c5.293,0.191,10.601-4.268,14.87-12.6C38.538,302.118,40.04,297.177,42.049,296.177z"/>
		<path fill="#2E577D" d="M115.843,206.303c1.122-0.85,2.308-1.758,3.479-2.736c7.411-6.176,10.503-12.156,8.771-16.771
			c-1.732-4.617-5.871-5.529-8.681-5.154c3.452-0.416,3.919,2.479,0.615,3.51c0,0-20.905,5.992-25.349,7.451
			c-2.337,0.766-3.465,1.561-3.642,3.125c-0.058,0.996,0.992,1.867,2.928,2.586C93.966,198.312,108.242,203.678,115.843,206.303z"/>
		<path fill="#2E577D" d="M121.215,209.314l7.332,10.797c2.345,3.766,0.752,5.453-0.157,6.582c-0.81,0.963-2.372,1.771-4.149,2.508
			l-17.67,7.32c-1.106,0.512-1.936,0.934-2.712,1.582c-6.932-5.941-17.621-13.469-19.526-15.076c-1.57-1.322-2.55-2.516-1.507-4.479
			c1.202-2.162,2.846-2.375,5.832-2.525l27.897-1.004C120.921,214.768,122.392,211.611,121.215,209.314z"/>
		<path fill="#466286" d="M77.357,282.272c-1.988,1.295-3.201,7.232-3.938,10.561c-0.87,3.934-2.914,15.02-6.934,15.562
			c-5.822,0.783-7.893,0.852-9.353,0.549c0.197,0.012,0.371-0.01,0.518-0.082c5.466-3.049-13.144-30.131-15.366-33.264
			c-1.562-2.201-2.1-4.252,0.015-6.164c1.67-1.514,3.577-1.773,5.073-1.16l25.349,9.398c2.624,0.836,5.047-0.215,6.424-1.881
			c1.376-1.664,1.705-3.943,0.142-5.564l-13.708-18.94c-1.616-1.846-1.922-4.246-0.468-6.176c1.457-1.809,3.811-1.742,5.768-1.637
			c4.306,0.297,36.825,8.34,38.963,1.592c0.046-0.178,0.028-0.369-0.032-0.572c0.692,1.453,1.109,3.674,1.616,10.103
			c0.131,1.664-0.854,3.119-3.737,4.293c-3.981,1.621-16.5,0.648-19.777,4.719c-1.565,1.945-1.76,4.146-1.085,5.98l3.104,7.854
			c0.751,1.777,0.321,3.803-0.895,5.271c-1.36,1.637-3.702,2.578-6.471,1.697L77.357,282.272z"/>
		<linearGradient id="SVGID_10_" gradientUnits="userSpaceOnUse" x1="87.2222" y1="184.9121" x2="8.6325" y2="284.9297">
			<stop  offset="0" style="stop-color:#436185"/>
			<stop  offset="1" style="stop-color:#8E99B2"/>
		</linearGradient>
		<path fill="url(#SVGID_10_)" d="M64.33,246.15c22.02-27.359,32.527-54.566,23.47-60.768c-1.412-0.967-3.215-1.365-5.335-1.25
			c-11.497,0.639-32.35,16.459-50.94,39.559c-18.59,23.096-28.974,46.085-26.309,56.421c0.493,1.904,1.427,3.381,2.84,4.346
			C17.112,290.659,42.309,273.509,64.33,246.15z"/>
	</g>
	<linearGradient id="SVGID_11_" gradientUnits="userSpaceOnUse" x1="84.6182" y1="183.0625" x2="6.0285" y2="283.0837">
		<stop  offset="0" style="stop-color:#28557B"/>
		<stop  offset="1" style="stop-color:#7A89A5"/>
	</linearGradient>
	<path fill="url(#SVGID_11_)" d="M85.857,184.053c9.06,6.203-1.447,33.408-23.469,60.77c-22.021,27.36-47.217,44.509-56.273,38.308
		c-10.069-6.893,0.054-34.364,22.074-61.724C50.211,194.049,75.79,177.158,85.857,184.053z"/>
	<linearGradient id="SVGID_12_" gradientUnits="userSpaceOnUse" x1="81.769" y1="184.1777" x2="5.8477" y2="280.588">
		<stop  offset="0" style="stop-color:#436185"/>
		<stop  offset="1" style="stop-color:#8E99B2"/>
	</linearGradient>
	<path fill="url(#SVGID_12_)" d="M82.273,184.592c8.705,5.961-1.394,32.105-22.557,58.4c-21.162,26.294-45.376,42.778-54.081,36.815
		c-8.706-5.959,1.392-32.108,22.554-58.401C49.353,195.113,73.566,178.631,82.273,184.592z"/>
</g>
<g>
	<g>
		<path fill="none" stroke="#114D75" stroke-width="2" stroke-linecap="round" stroke-linejoin="round" d="M245.458,313.552
			l8.015-33.445c2.668-10.332-7.709-33.319-26.298-56.415c-18.591-23.1-39.443-38.92-50.939-39.559l-36.948-2.492
			c-2.81-0.375-6.949,0.537-8.681,5.154c-1.732,4.615,1.36,10.596,8.77,16.771c1.174,0.979,2.359,1.887,3.481,2.736
			c-1.069,0.371-2.01,0.686-2.757,0.924c-1.276,0.408-2.152,1.182-2.617,2.088l-7.331,10.797c-2.345,3.766-0.751,5.453,0.157,6.582
			c0.809,0.963,2.373,1.771,4.15,2.508l17.67,7.32c1.105,0.512,1.935,0.934,2.712,1.582c-2.93,2.508-5.19,4.734-5.829,6.109
			l-0.122,0.281c-0.692,1.453-1.108,3.674-1.615,10.103c-0.132,1.664,0.854,3.119,3.736,4.293
			c3.981,1.621,16.501,0.648,19.778,4.719c1.565,1.945,1.76,4.146,1.083,5.98l-3.102,7.854c-0.752,1.777-0.32,3.803,0.893,5.271
			c1.361,1.637,3.703,2.578,6.474,1.697l5.205-2.139c1.988,1.295,3.199,7.232,3.937,10.561c0.872,3.934,2.915,15.02,6.935,15.562
			c5.822,0.783,7.893,0.852,9.354,0.549c4.199-0.477,9.002-7.008,15.084-12.768c2.008,1,3.512,5.941,6.076,10.947
			c4.269,8.332,9.577,12.791,14.87,12.6C242.89,319.53,245.034,316.14,245.458,313.552z"/>
		<linearGradient id="SVGID_13_" gradientUnits="userSpaceOnUse" x1="143.165" y1="183.2627" x2="242.8333" y2="311.1913">
			<stop  offset="0" style="stop-color:#55698B"/>
			<stop  offset="1" style="stop-color:#8A95AF"/>
		</linearGradient>
		<path fill="url(#SVGID_13_)" d="M245.458,313.552l8.015-33.445c2.668-10.332-7.709-33.319-26.298-56.415
			c-18.591-23.1-39.443-38.92-50.939-39.559l-36.948-2.492c-2.81-0.375-6.949,0.537-8.681,5.154
			c-1.732,4.615,1.36,10.596,8.77,16.771c1.174,0.979,2.359,1.887,3.481,2.736c-1.069,0.371-2.01,0.686-2.757,0.924
			c-1.276,0.408-2.152,1.182-2.617,2.088l-7.331,10.797c-2.345,3.766-0.751,5.453,0.157,6.582c0.809,0.963,2.373,1.771,4.15,2.508
			l17.67,7.32c1.105,0.512,1.935,0.934,2.712,1.582c-2.93,2.508-5.19,4.734-5.829,6.109l-0.122,0.281
			c-0.692,1.453-1.108,3.674-1.615,10.103c-0.132,1.664,0.854,3.119,3.736,4.293c3.981,1.621,16.501,0.648,19.778,4.719
			c1.565,1.945,1.76,4.146,1.083,5.98l-3.102,7.854c-0.752,1.777-0.32,3.803,0.893,5.271c1.361,1.637,3.703,2.578,6.474,1.697
			l5.205-2.139c1.988,1.295,3.199,7.232,3.937,10.561c0.872,3.934,2.915,15.02,6.935,15.562c5.822,0.783,7.893,0.852,9.354,0.549
			c4.199-0.477,9.002-7.008,15.084-12.768c2.008,1,3.512,5.941,6.076,10.947c4.269,8.332,9.577,12.791,14.87,12.6
			C242.89,319.53,245.034,316.14,245.458,313.552z"/>
		<path fill="#466286" d="M216.651,296.177c4.469-4.23,9.295-8.551,13.696-11.283c3.226-2.002,5.412-1.957,7.488-1.113
			c2.076,0.842,2.435,2.812,2.664,6.512c0.271,4.344,1.14,22.787,1.14,22.787c0.114,3.215,3.252,3.641,3.818,0.473
			c-0.424,2.588-2.568,5.979-7.86,6.172c-5.293,0.191-10.602-4.268-14.87-12.6C220.163,302.118,218.659,297.177,216.651,296.177z"/>
		<path fill="#2E577D" d="M142.857,206.303c-1.122-0.85-2.308-1.758-3.481-2.736c-7.409-6.176-10.502-12.156-8.77-16.771
			c1.731-4.617,5.871-5.529,8.681-5.154c-3.452-0.416-3.919,2.479-0.616,3.51c0,0,20.906,5.992,25.349,7.451
			c2.338,0.766,3.464,1.561,3.643,3.125c0.057,0.996-0.992,1.867-2.928,2.586C164.734,198.312,150.458,203.678,142.857,206.303z"/>
		<path fill="#2E577D" d="M137.483,209.314l-7.331,10.797c-2.345,3.766-0.751,5.453,0.157,6.582c0.809,0.963,2.373,1.771,4.15,2.508
			l17.67,7.32c1.105,0.512,1.935,0.934,2.712,1.582c6.931-5.941,17.621-13.469,19.526-15.076c1.57-1.322,2.549-2.516,1.507-4.479
			c-1.202-2.162-2.846-2.375-5.832-2.525l-27.897-1.004C137.779,214.768,136.309,211.611,137.483,209.314z"/>
		<path fill="#466286" d="M181.343,282.272c1.988,1.295,3.199,7.232,3.937,10.561c0.872,3.934,2.915,15.02,6.935,15.562
			c5.822,0.783,7.893,0.852,9.354,0.549c-0.197,0.012-0.372-0.01-0.519-0.082c-5.466-3.049,13.145-30.131,15.368-33.264
			c1.562-2.201,2.099-4.252-0.017-6.164c-1.668-1.514-3.576-1.773-5.072-1.16l-25.35,9.398c-2.624,0.836-5.047-0.215-6.424-1.881
			c-1.375-1.664-1.704-3.943-0.142-5.564l13.708-18.94c1.618-1.846,1.923-4.246,0.468-6.176c-1.457-1.809-3.812-1.742-5.767-1.637
			c-4.306,0.297-36.826,8.34-38.964,1.592c-0.045-0.178-0.028-0.369,0.032-0.572c-0.692,1.453-1.108,3.674-1.615,10.103
			c-0.132,1.664,0.854,3.119,3.736,4.293c3.981,1.621,16.501,0.648,19.778,4.719c1.565,1.945,1.76,4.146,1.083,5.98l-3.102,7.854
			c-0.752,1.777-0.32,3.803,0.893,5.271c1.361,1.637,3.703,2.578,6.474,1.697L181.343,282.272z"/>
		<linearGradient id="SVGID_14_" gradientUnits="userSpaceOnUse" x1="167.6484" y1="234.9199" x2="253.8975" y2="234.9199">
			<stop  offset="0" style="stop-color:#667796"/>
			<stop  offset="0.1718" style="stop-color:#6C7A99"/>
			<stop  offset="0.4156" style="stop-color:#7A86A2"/>
			<stop  offset="0.7023" style="stop-color:#919BB3"/>
			<stop  offset="1" style="stop-color:#B3B9C9"/>
		</linearGradient>
		<path fill="url(#SVGID_14_)" d="M194.371,246.15c-22.021-27.359-32.527-54.566-23.471-60.768c1.411-0.967,3.215-1.365,5.335-1.25
			c11.496,0.639,32.349,16.459,50.939,39.559c18.589,23.096,28.975,46.085,26.31,56.421c-0.492,1.904-1.43,3.381-2.841,4.346
			C241.588,290.659,216.392,273.509,194.371,246.15z"/>
	</g>
	<linearGradient id="SVGID_15_" gradientUnits="userSpaceOnUse" x1="169.5879" y1="233.4541" x2="256.4902" y2="233.4541">
		<stop  offset="0" style="stop-color:#4D6689"/>
		<stop  offset="0.1712" style="stop-color:#536A8C"/>
		<stop  offset="0.4141" style="stop-color:#617494"/>
		<stop  offset="0.6998" style="stop-color:#7985A2"/>
		<stop  offset="1" style="stop-color:#97A0B7"/>
	</linearGradient>
	<path fill="url(#SVGID_15_)" d="M172.843,184.053c-9.061,6.203,1.447,33.408,23.469,60.77
		c22.021,27.36,47.217,44.509,56.273,38.308c10.069-6.893-0.054-34.364-22.075-61.724
		C208.489,194.049,182.909,177.158,172.843,184.053z"/>
	<linearGradient id="SVGID_16_" gradientUnits="userSpaceOnUse" x1="173.2998" y1="232.2002" x2="256.1904" y2="232.2002">
		<stop  offset="0" style="stop-color:#647495"/>
		<stop  offset="0.8077" style="stop-color:#9098B1"/>
		<stop  offset="0.8129" style="stop-color:#9299B1"/>
		<stop  offset="0.9028" style="stop-color:#A7AEC2"/>
		<stop  offset="0.956" style="stop-color:#B0B6C8"/>
	</linearGradient>
	<path fill="url(#SVGID_16_)" d="M176.427,184.592c-8.706,5.961,1.393,32.105,22.556,58.4
		c21.162,26.294,45.377,42.778,54.081,36.815c8.706-5.959-1.391-32.108-22.554-58.401
		C209.348,195.113,185.133,178.631,176.427,184.592z"/>
</g>
<g>
	<path fill="none" stroke="#114D75" stroke-width="2" stroke-linecap="round" stroke-linejoin="round" d="M61.889,49.404
		l-12.082,8.428l-7.104,18.101L9.159,108.734c-2.615,2.619-2.646,5.047-2.646,6.711L1.253,258.606l-0.198,5.201
		c-0.295,3.977,0.59,6.924,2.804,8.439c7.956,5.447,30.089-9.619,49.434-33.653c1.763-2.189,3.44-4.379,5.03-6.553l71.026-95.871
		l71.025,95.871c1.592,2.174,3.268,4.363,5.033,6.553c19.342,24.034,41.477,39.101,49.434,33.653
		c2.213-1.516,3.098-4.463,2.803-8.439l-0.199-5.201l-5.258-143.161c0-1.664-0.031-4.092-2.646-6.711l-33.545-32.802l-7.104-18.101
		l-12.088-8.428H61.889z"/>
	<linearGradient id="SVGID_17_" gradientUnits="userSpaceOnUse" x1="49.8076" y1="53.6177" x2="208.8926" y2="53.6177">
		<stop  offset="0.05" style="stop-color:#9299B1"/>
		<stop  offset="0.5" style="stop-color:#FFFFFF"/>
		<stop  offset="0.9451" style="stop-color:#9299B1"/>
	</linearGradient>
	<polygon fill="url(#SVGID_17_)" points="196.804,49.404 208.893,57.832 49.808,57.832 61.89,49.404 	"/>
	<linearGradient id="SVGID_18_" gradientUnits="userSpaceOnUse" x1="41.4438" y1="66.8818" x2="217.1172" y2="66.8818">
		<stop  offset="0.05" style="stop-color:#5D7091"/>
		<stop  offset="0.5" style="stop-color:#FFFFFF"/>
		<stop  offset="0.9451" style="stop-color:#5D7091"/>
	</linearGradient>
	<polygon fill="url(#SVGID_18_)" points="42.704,75.932 49.808,57.832 99.528,57.832 100.498,75.932 	"/>
	<linearGradient id="SVGID_19_" gradientUnits="userSpaceOnUse" x1="41.4448" y1="66.8818" x2="217.1182" y2="66.8818">
		<stop  offset="0.05" style="stop-color:#5D7091"/>
		<stop  offset="0.5" style="stop-color:#FFFFFF"/>
		<stop  offset="0.9451" style="stop-color:#5D7091"/>
	</linearGradient>
	<polygon fill="url(#SVGID_19_)" points="215.995,75.932 158.201,75.932 159.171,57.832 208.893,57.832 	"/>
	<linearGradient id="SVGID_20_" gradientUnits="userSpaceOnUse" x1="128.854" y1="200.4082" x2="-0.2126" y2="200.4082">
		<stop  offset="0" style="stop-color:#8291AC"/>
		<stop  offset="1" style="stop-color:#5F7191"/>
	</linearGradient>
	<path fill="url(#SVGID_20_)" d="M129.35,128.205c-2.28,0-4.495-0.26-6.612-0.75c-0.312,0.42-0.606,0.828-0.887,1.201
		l-71.019,95.166c-1.59,2.174-3.269,4.361-5.031,6.553c-19.344,24.034-33.843,39.757-41.8,34.31
		c-2.215-1.518-2.817-4.209-2.747-6.078l-0.198,5.201c-0.295,3.977,0.59,6.924,2.804,8.439c7.956,5.447,30.089-9.619,49.434-33.653
		c1.763-2.189,3.44-4.379,5.03-6.553l71.026-95.871V128.205z"/>
	<linearGradient id="SVGID_21_" gradientUnits="userSpaceOnUse" x1="258.6035" y1="200.4082" x2="130.5605" y2="200.4082">
		<stop  offset="0" style="stop-color:#8291AC"/>
		<stop  offset="0.0252" style="stop-color:#808FAB"/>
		<stop  offset="0.258" style="stop-color:#6D7E9D"/>
		<stop  offset="0.4959" style="stop-color:#5E7293"/>
		<stop  offset="0.7401" style="stop-color:#556D8F"/>
		<stop  offset="1" style="stop-color:#526A8C"/>
	</linearGradient>
	<path fill="url(#SVGID_21_)" d="M129.35,128.205c2.28,0,4.495-0.26,6.613-0.75c0.312,0.42,0.606,0.828,0.886,1.201l71.019,95.166
		c1.59,2.174,3.269,4.361,5.032,6.553c19.343,24.034,33.843,39.757,41.799,34.31c2.215-1.518,2.818-4.209,2.746-6.078l0.199,5.201
		c0.295,3.977-0.589,6.924-2.803,8.439c-7.956,5.447-30.091-9.619-49.434-33.653c-1.765-2.189-3.44-4.379-5.032-6.553L129.35,136.17
		V128.205z"/>
	<linearGradient id="SVGID_22_" gradientUnits="userSpaceOnUse" x1="149.6748" y1="93.0181" x2="109.0501" y2="93.0181">
		<stop  offset="0" style="stop-color:#8291AC"/>
		<stop  offset="0.1771" style="stop-color:#7685A2"/>
		<stop  offset="0.4171" style="stop-color:#697A98"/>
		<stop  offset="0.6788" style="stop-color:#617393"/>
		<stop  offset="1" style="stop-color:#5F7191"/>
	</linearGradient>
	<path fill="url(#SVGID_22_)" d="M159.171,57.832l-0.97,18.101l-1.504,28.035c-0.615,11.4-9.242,20.83-20.734,23.488
		c-2.118,0.49-4.333,0.75-6.613,0.75s-4.495-0.26-6.612-0.75c-11.492-2.658-20.12-12.088-20.735-23.488l-1.504-28.035l-0.97-18.101
		l7.296,18.101l2.2,28.142c0.773,9.848,9.575,17.607,20.325,17.607c10.751,0,19.552-7.76,20.325-17.607l2.2-28.142L159.171,57.832z"
		/>
	<linearGradient id="SVGID_23_" gradientUnits="userSpaceOnUse" x1="129.3501" y1="121.1118" x2="129.3501" y2="74.6115">
		<stop  offset="0" style="stop-color:#828CA7"/>
		<stop  offset="0.9451" style="stop-color:#A3A9BD"/>
		<stop  offset="0.9777" style="stop-color:#B7BBCB"/>
		<stop  offset="1" style="stop-color:#C0C4D2"/>
	</linearGradient>
	<path fill="url(#SVGID_23_)" d="M159.171,57.832l-7.296,18.101l-2.2,28.142c-0.773,9.848-9.574,17.607-20.325,17.607
		c-10.75,0-19.552-7.76-20.325-17.607l-2.2-28.142l-7.296-18.101H159.171z"/>
	<linearGradient id="SVGID_24_" gradientUnits="userSpaceOnUse" x1="172.9863" y1="188.0439" x2="254.952" y2="187.0194">
		<stop  offset="0" style="stop-color:#647495"/>
		<stop  offset="0.4945" style="stop-color:#9098B1"/>
		<stop  offset="0.5061" style="stop-color:#9299B1"/>
		<stop  offset="0.706" style="stop-color:#A7AEC2"/>
		<stop  offset="0.8242" style="stop-color:#B0B6C8"/>
	</linearGradient>
	<path fill="url(#SVGID_24_)" d="M254.698,264.685c2.215-1.518,2.818-4.209,2.746-6.078l-5.258-143.161
		c0-1.664-0.03-4.092-2.646-6.711h-27.636c-1.932,0-5.067,0.207-7.127,2.467c-1.122,1.23-1.926,3.068-2.038,5.822
		c0,0-2.15,86.969-2.711,109.682c0.931,1.221,1.885,2.447,2.871,3.67C232.242,254.409,246.742,270.132,254.698,264.685z"/>
	<g>
		<linearGradient id="SVGID_25_" gradientUnits="userSpaceOnUse" x1="135.9629" y1="151.3184" x2="214.7773" y2="151.3184">
			<stop  offset="0" style="stop-color:#7686A3"/>
			<stop  offset="1" style="stop-color:#5F7191"/>
		</linearGradient>
		<path fill="url(#SVGID_25_)" d="M156.697,103.967c-0.615,11.4-9.242,20.83-20.734,23.488c0.312,0.42,0.606,0.828,0.886,1.201
			l71.019,95.166c0.7,0.959,1.425,1.92,2.161,2.883c0.561-22.713,2.711-109.682,2.711-109.682c0.112-2.754,0.916-4.592,2.038-5.822
			l-56.576-35.269L156.697,103.967z"/>
		<linearGradient id="SVGID_26_" gradientUnits="userSpaceOnUse" x1="203.8711" y1="109.6118" x2="203.8711" y2="78.6114">
			<stop  offset="0" style="stop-color:#828CA7"/>
			<stop  offset="1" style="stop-color:#A9B1C5"/>
		</linearGradient>
		<path fill="url(#SVGID_26_)" d="M221.904,108.734h27.636l-33.545-32.802h-57.794l56.576,35.269
			C216.837,108.941,219.973,108.734,221.904,108.734z"/>
	</g>
	<linearGradient id="SVGID_27_" gradientUnits="userSpaceOnUse" x1="5.5586" y1="187.3193" x2="47.5141" y2="186.296">
		<stop  offset="0" style="stop-color:#647495"/>
		<stop  offset="0.8077" style="stop-color:#9098B1"/>
		<stop  offset="0.8129" style="stop-color:#9299B1"/>
		<stop  offset="0.9028" style="stop-color:#A7AEC2"/>
		<stop  offset="0.956" style="stop-color:#B0B6C8"/>
	</linearGradient>
	<path fill="url(#SVGID_27_)" d="M4.001,264.685c-2.215-1.518-2.817-4.209-2.747-6.078l5.259-143.161
		c0-1.664,0.031-4.092,2.646-6.711h27.637c1.932,0,5.066,0.207,7.127,2.467c1.121,1.23,1.925,3.068,2.038,5.822
		c0,0,2.151,86.969,2.711,109.682c-0.933,1.221-1.885,2.447-2.871,3.67C26.457,254.409,11.958,270.132,4.001,264.685z"/>
	<g>
		<linearGradient id="SVGID_28_" gradientUnits="userSpaceOnUse" x1="120.3184" y1="151.3193" x2="45.0291" y2="151.3193">
			<stop  offset="0" style="stop-color:#647495"/>
			<stop  offset="0.4945" style="stop-color:#9098B1"/>
			<stop  offset="0.5061" style="stop-color:#9299B1"/>
			<stop  offset="0.706" style="stop-color:#A7AEC2"/>
			<stop  offset="0.8242" style="stop-color:#B0B6C8"/>
		</linearGradient>
		<path fill="url(#SVGID_28_)" d="M102.002,103.967c0.615,11.4,9.243,20.83,20.735,23.488c-0.312,0.42-0.606,0.828-0.887,1.201
			l-71.019,95.166c-0.7,0.959-1.425,1.92-2.16,2.883c-0.56-22.713-2.711-109.682-2.711-109.682
			c-0.113-2.754-0.917-4.592-2.038-5.822l56.575-35.269L102.002,103.967z"/>
		<linearGradient id="SVGID_29_" gradientUnits="userSpaceOnUse" x1="54.8286" y1="109.6118" x2="54.8286" y2="78.6114">
			<stop  offset="0" style="stop-color:#828CA7"/>
			<stop  offset="1" style="stop-color:#A9B1C5"/>
		</linearGradient>
		<path fill="url(#SVGID_29_)" d="M36.796,108.734H9.159l33.545-32.802h57.794l-56.575,35.269
			C41.862,108.941,38.728,108.734,36.796,108.734z"/>
	</g>
	<ellipse fill="#5D6F90" cx="129.302" cy="104.02" rx="6.234" ry="6.086"/>
	<linearGradient id="SVGID_30_" gradientUnits="userSpaceOnUse" x1="13.3447" y1="175.1113" x2="13.3447" y2="216.1105">
		<stop  offset="0" style="stop-color:#8291AC"/>
		<stop  offset="0.1777" style="stop-color:#6C7E9D"/>
		<stop  offset="0.374" style="stop-color:#576F90"/>
		<stop  offset="0.5748" style="stop-color:#476588"/>
		<stop  offset="0.7808" style="stop-color:#3E6084"/>
		<stop  offset="1" style="stop-color:#3A5E83"/>
	</linearGradient>
	<ellipse fill="url(#SVGID_30_)" cx="13.345" cy="193.795" rx="6.76" ry="23.303"/>
	<linearGradient id="SVGID_31_" gradientUnits="userSpaceOnUse" x1="245.3555" y1="193.1113" x2="245.3555" y2="215.4443">
		<stop  offset="0" style="stop-color:#8291AC"/>
		<stop  offset="0.194" style="stop-color:#7484A2"/>
		<stop  offset="0.4519" style="stop-color:#667898"/>
		<stop  offset="0.7174" style="stop-color:#5E7292"/>
		<stop  offset="1" style="stop-color:#5B7091"/>
	</linearGradient>
	<ellipse fill="url(#SVGID_31_)" cx="245.355" cy="193.795" rx="6.76" ry="23.303"/>
</g>
</svg>
