<svg 
 xmlns="http://www.w3.org/2000/svg"
 xmlns:xlink="http://www.w3.org/1999/xlink"
 width="18px" height="19px">
<path fill-rule="evenodd"  stroke="rgb(255, 255, 255)" stroke-width="2px" stroke-linecap="butt" stroke-linejoin="miter" fill="none"
 d="M2.000,1.000 L7.000,1.000 C7.552,1.000 8.000,1.448 8.000,2.000 L8.000,7.000 C8.000,7.552 7.552,8.000 7.000,8.000 L2.000,8.000 C1.448,8.000 1.000,7.552 1.000,7.000 L1.000,2.000 C1.000,1.448 1.448,1.000 2.000,1.000 Z"/>
<path fill-rule="evenodd"  stroke="rgb(255, 255, 255)" stroke-width="2px" stroke-linecap="butt" stroke-linejoin="miter" fill="none"
 d="M2.000,10.000 L7.000,10.000 C7.552,10.000 8.000,10.448 8.000,11.000 L8.000,16.000 C8.000,16.552 7.552,17.000 7.000,17.000 L2.000,17.000 C1.448,17.000 1.000,16.552 1.000,16.000 L1.000,11.000 C1.000,10.448 1.448,10.000 2.000,10.000 Z"/>
<path fill-rule="evenodd"  fill="rgb(255, 255, 255)"
 d="M10.000,2.000 L17.000,2.000 L17.000,3.000 L10.000,3.000 L10.000,2.000 Z"/>
<path fill-rule="evenodd"  fill="rgb(255, 255, 255)"
 d="M10.000,6.000 L17.000,6.000 L17.000,7.000 L10.000,7.000 L10.000,6.000 Z"/>
<path fill-rule="evenodd"  fill="rgb(255, 255, 255)"
 d="M10.000,11.000 L17.000,11.000 L17.000,12.000 L10.000,12.000 L10.000,11.000 Z"/>
<path fill-rule="evenodd"  fill="rgb(255, 255, 255)"
 d="M10.000,15.000 L17.000,15.000 L17.000,16.000 L10.000,16.000 L10.000,15.000 Z"/>
</svg>
