<svg 
 xmlns="http://www.w3.org/2000/svg"
 xmlns:xlink="http://www.w3.org/1999/xlink"
 width="16.5px" height="16.5px">
<path fill-rule="evenodd"  stroke="rgb(255, 255, 255)" stroke-width="1px" stroke-linecap="butt" stroke-linejoin="miter" fill="none"
 d="M14.000,4.500 L14.000,13.500 C14.000,14.605 13.104,15.500 12.000,15.500 L4.000,15.500 C2.895,15.500 2.000,14.605 2.000,13.500 L2.000,4.500 "/>
<path fill-rule="evenodd"  stroke="rgb(255, 255, 255)" stroke-width="1px" stroke-linecap="butt" stroke-linejoin="miter" fill="none"
 d="M4.000,3.500 L4.000,2.500 C4.000,1.395 4.895,0.500 6.000,0.500 L10.000,0.500 C11.105,0.500 12.000,1.395 12.000,2.500 L12.000,3.500 "/>
<path fill-rule="evenodd"  fill="rgb(255, 255, 255)"
 d="M-0.000,3.500 L16.000,3.500 L16.000,4.500 L-0.000,4.500 L-0.000,3.500 Z"/>
<path fill-rule="evenodd"  fill="rgb(255, 255, 255)"
 d="M6.000,6.500 L7.000,6.500 L7.000,12.500 L6.000,12.500 L6.000,6.500 Z"/>
<path fill-rule="evenodd"  fill="rgb(255, 255, 255)"
 d="M9.000,6.500 L10.000,6.500 L10.000,12.500 L9.000,12.500 L9.000,6.500 Z"/>
</svg>
