<svg 
 xmlns="http://www.w3.org/2000/svg"
 xmlns:xlink="http://www.w3.org/1999/xlink"
 width="17.5px" height="17.5px">
<path fill-rule="evenodd"  stroke="rgb(255, 255, 255)" stroke-width="1px" stroke-linecap="butt" stroke-linejoin="miter" fill="none"
 d="M0.500,14.500 L0.500,2.500 C0.500,1.395 1.395,0.500 2.500,0.500 L14.500,0.500 C15.604,0.500 16.500,1.395 16.500,2.500 L16.500,14.500 "/>
<path fill-rule="evenodd"  stroke="rgb(255, 255, 255)" stroke-width="1px" stroke-linecap="butt" stroke-linejoin="miter" fill="none"
 d="M3.000,11.500 L16.500,11.500 L16.500,16.500 L3.000,16.500 C1.619,16.500 0.500,15.381 0.500,14.000 C0.500,12.619 1.619,11.500 3.000,11.500 Z"/>
<path fill-rule="evenodd"  fill="rgb(255, 255, 255)"
 d="M4.500,4.500 L12.500,4.500 L12.500,5.500 L4.500,5.500 L4.500,4.500 Z"/>
<path fill-rule="evenodd"  fill="rgb(255, 255, 255)"
 d="M4.500,7.500 L12.500,7.500 L12.500,8.500 L4.500,8.500 L4.500,7.500 Z"/>
</svg>
