<svg 
 xmlns="http://www.w3.org/2000/svg"
 xmlns:xlink="http://www.w3.org/1999/xlink"
 width="21px" height="21px">
<path fill-rule="evenodd"  stroke="rgb(255, 255, 255)" stroke-width="2px" stroke-linecap="round" stroke-linejoin="round" fill="none"
 d="M9.000,2.000 C9.000,2.000 10.000,0.875 11.000,2.000 L13.000,6.000 L18.000,7.000 C18.000,7.000 19.375,7.937 18.000,9.000 L15.000,12.000 L16.000,17.000 C16.000,17.000 15.437,18.312 14.000,18.000 L11.000,16.000 C11.000,16.000 10.062,15.187 9.000,16.000 L6.000,18.000 C6.000,18.000 4.187,18.312 4.000,17.000 L5.000,12.000 L2.000,9.000 C2.000,9.000 0.750,8.062 2.000,7.000 L7.000,6.000 L9.000,2.000 Z"/>
</svg>
