<svg 
 xmlns="http://www.w3.org/2000/svg"
 xmlns:xlink="http://www.w3.org/1999/xlink"
 width="17.5px" height="17px">
<path fill-rule="evenodd"  stroke="rgb(255, 255, 255)" stroke-width="1px" stroke-linecap="butt" stroke-linejoin="miter" fill="none"
 d="M11.500,13.500 C11.500,14.881 10.381,16.000 9.000,16.000 L8.000,16.000 C6.619,16.000 5.500,14.881 5.500,13.500 "/>
<path fill-rule="evenodd"  stroke="rgb(255, 255, 255)" stroke-width="1px" stroke-linecap="butt" stroke-linejoin="miter" fill="none"
 d="M0.500,14.000 L0.500,13.000 C0.500,11.696 1.337,10.597 2.500,10.184 L2.500,7.000 C2.500,3.686 5.186,1.000 8.500,1.000 C11.814,1.000 14.500,3.686 14.500,7.000 L14.500,10.184 C15.663,10.597 16.500,11.696 16.500,13.000 L16.500,14.000 L0.500,14.000 Z"/>
<path fill-rule="evenodd"  fill="rgb(255, 255, 255)"
 d="M7.500,-0.000 L9.500,-0.000 L9.500,2.000 L7.500,2.000 L7.500,-0.000 Z"/>
</svg>
