<svg 
 xmlns="http://www.w3.org/2000/svg"
 xmlns:xlink="http://www.w3.org/1999/xlink"
 width="17.5px" height="17.5px">
<path fill-rule="evenodd"  stroke="rgb(255, 255, 255)" stroke-width="1px" stroke-linecap="butt" stroke-linejoin="miter" fill="none"
 d="M15.477,7.739 L14.595,8.243 C14.557,8.265 14.536,8.264 14.500,8.283 L14.500,14.500 C14.500,15.605 13.604,16.500 12.500,16.500 L4.500,16.500 C3.395,16.500 2.500,15.605 2.500,14.500 L2.500,8.243 C2.474,8.228 2.460,8.230 2.433,8.214 L1.567,7.714 C0.610,7.162 0.282,4.939 0.835,3.982 L2.835,1.518 C3.270,0.765 4.118,0.421 4.927,0.571 C4.982,0.559 5.029,0.561 5.083,0.552 C5.782,1.714 7.044,2.500 8.500,2.500 C9.958,2.500 11.221,1.712 11.920,0.546 C11.951,0.551 11.977,0.550 12.009,0.556 C12.847,0.381 13.735,0.720 14.186,1.494 L16.222,3.986 C16.785,4.950 16.451,7.183 15.477,7.739 Z"/>
</svg>
