<svg 
 xmlns="http://www.w3.org/2000/svg"
 xmlns:xlink="http://www.w3.org/1999/xlink"
 width="17.5px" height="17.5px">
<path fill-rule="evenodd"  stroke="rgb(255, 255, 255)" stroke-width="1px" stroke-linecap="round" stroke-linejoin="round" fill="none"
 d="M7.540,0.983 C7.540,0.983 8.471,-0.104 9.402,0.983 L11.263,4.847 L15.918,5.813 C15.918,5.813 17.198,6.719 15.918,7.745 L13.125,10.643 L14.056,15.473 C14.056,15.473 13.533,16.741 12.194,16.440 L9.402,14.507 C9.402,14.507 8.529,13.723 7.540,14.507 L4.747,16.440 C4.747,16.440 3.060,16.741 2.885,15.473 L3.816,10.643 L1.024,7.745 C1.024,7.745 -0.140,6.840 1.024,5.813 L5.678,4.847 L7.540,0.983 Z"/>
</svg>
