<svg 
 xmlns="http://www.w3.org/2000/svg"
 xmlns:xlink="http://www.w3.org/1999/xlink"
 width="17.5px" height="15.5px">
<path fill-rule="evenodd"  stroke="rgb(255, 255, 255)" stroke-width="1px" stroke-linecap="butt" stroke-linejoin="miter" fill="none"
 d="M0.500,13.300 L0.500,2.500 C0.500,1.395 1.395,0.500 2.500,0.500 L6.666,0.500 L9.500,2.500 L12.500,2.500 C13.604,2.500 14.500,3.395 14.500,4.500 L14.500,6.100 "/>
<path fill-rule="evenodd"  stroke="rgb(255, 255, 255)" stroke-width="1px" stroke-linecap="butt" stroke-linejoin="miter" fill="none"
 d="M4.500,5.500 L14.500,5.500 C15.604,5.500 16.500,6.395 16.500,7.500 L14.500,12.500 C14.500,13.605 13.604,14.500 12.500,14.500 L2.500,14.500 C1.395,14.500 0.500,13.605 0.500,12.500 L2.500,7.500 C2.500,6.395 3.395,5.500 4.500,5.500 Z"/>
</svg>
