<svg 
 xmlns="http://www.w3.org/2000/svg"
 xmlns:xlink="http://www.w3.org/1999/xlink"
 width="29px" height="25px">
<path fill-rule="evenodd"  stroke="rgb(255, 255, 255)" stroke-width="2px" stroke-linecap="butt" stroke-linejoin="miter" fill="none"
 d="M2.000,19.800 L2.000,4.000 C2.000,2.895 2.895,2.000 4.000,2.000 L10.167,2.000 L13.000,5.000 L21.000,5.000 C22.104,5.000 23.000,5.895 23.000,7.000 L23.000,10.600 "/>
<path fill-rule="evenodd"  stroke="rgb(255, 255, 255)" stroke-width="2px" stroke-linecap="butt" stroke-linejoin="miter" fill="none"
 d="M5.000,10.000 L25.000,10.000 C26.105,10.000 27.000,10.895 27.000,12.000 L25.000,21.000 C25.000,22.105 24.105,23.000 23.000,23.000 L3.000,23.000 C1.895,23.000 1.000,22.105 1.000,21.000 L3.000,12.000 C3.000,10.895 3.895,10.000 5.000,10.000 Z"/>
</svg>
