<svg 
 xmlns="http://www.w3.org/2000/svg"
 xmlns:xlink="http://www.w3.org/1999/xlink"
 width="31px" height="31px">
<path fill-rule="evenodd"  stroke="rgb(255, 255, 255)" stroke-width="2px" stroke-linecap="butt" stroke-linejoin="miter" fill="none"
 d="M1.000,6.000 L27.000,6.000 C28.104,6.000 29.000,6.895 29.000,8.000 L29.000,27.000 C29.000,28.105 28.104,29.000 27.000,29.000 L3.000,29.000 C1.895,29.000 1.000,28.105 1.000,27.000 L1.000,6.000 Z"/>
<path fill-rule="evenodd"  stroke="rgb(255, 255, 255)" stroke-width="2px" stroke-linecap="butt" stroke-linejoin="miter" fill="none"
 d="M1.000,6.000 L1.000,2.600 C1.000,1.716 1.716,1.000 2.600,1.000 L13.000,1.000 C16.314,1.000 19.000,3.686 19.000,7.000 "/>
<path fill-rule="evenodd"  fill="rgb(255, 255, 255)"
 d="M11.000,15.000 L11.000,13.000 L24.000,13.000 L24.000,15.000 L11.000,15.000 ZM6.000,13.000 L8.000,13.000 L8.000,15.000 L6.000,15.000 L6.000,13.000 Z"/>
<path fill-rule="evenodd"  fill="rgb(255, 255, 255)"
 d="M11.000,22.000 L11.000,20.000 L24.000,20.000 L24.000,22.000 L11.000,22.000 ZM6.000,20.000 L8.000,20.000 L8.000,22.000 L6.000,22.000 L6.000,20.000 Z"/>
</svg>
