<svg 
 xmlns="http://www.w3.org/2000/svg"
 xmlns:xlink="http://www.w3.org/1999/xlink"
 width="17.5px" height="17.5px">
<path fill-rule="evenodd"  stroke="rgb(255, 255, 255)" stroke-width="1px" stroke-linecap="butt" stroke-linejoin="miter" fill="none"
 d="M2.500,0.500 L14.500,0.500 C15.605,0.500 16.500,1.395 16.500,2.500 L16.500,14.500 C16.500,15.605 15.605,16.500 14.500,16.500 L2.500,16.500 C1.395,16.500 0.500,15.605 0.500,14.500 L0.500,2.500 C0.500,1.395 1.395,0.500 2.500,0.500 Z"/>
<path fill-rule="evenodd"  fill="rgb(255, 255, 255)"
 d="M4.500,4.500 L7.500,4.500 L7.500,5.500 L4.500,5.500 L4.500,4.500 Z"/>
<path fill-rule="evenodd"  fill="rgb(255, 255, 255)"
 d="M4.500,11.500 L7.500,11.500 L7.500,12.500 L4.500,12.500 L4.500,11.500 Z"/>
<path fill-rule="evenodd"  fill="rgb(255, 255, 255)"
 d="M5.500,5.500 L6.500,5.500 L6.500,11.500 L5.500,11.500 L5.500,5.500 Z"/>
<path fill-rule="evenodd"  fill="rgb(255, 255, 255)"
 d="M8.500,11.500 L9.500,11.500 L9.500,12.500 L8.500,12.500 L8.500,11.500 Z"/>
<path fill-rule="evenodd"  fill="rgb(255, 255, 255)"
 d="M11.500,11.500 L12.500,11.500 L12.500,12.500 L11.500,12.500 L11.500,11.500 Z"/>
</svg>
