<svg 
 xmlns="http://www.w3.org/2000/svg"
 xmlns:xlink="http://www.w3.org/1999/xlink"
 width="19.5px" height="19.5px">
<path fill-rule="evenodd"  stroke="rgb(255, 255, 255)" stroke-width="1px" stroke-linecap="butt" stroke-linejoin="miter" fill="none"
 d="M16.500,12.500 L15.800,12.500 C15.640,12.837 15.467,13.167 15.257,13.471 L15.598,14.062 C16.150,15.019 15.823,16.242 14.866,16.794 L13.134,17.794 C12.177,18.346 10.954,18.019 10.402,17.062 L10.046,16.445 C9.862,16.459 9.687,16.500 9.500,16.500 C9.313,16.500 9.138,16.459 8.954,16.445 L8.598,17.062 C8.046,18.019 6.823,18.346 5.866,17.794 L4.134,16.794 C3.177,16.242 2.850,15.019 3.402,14.062 L3.743,13.471 C3.532,13.167 3.360,12.837 3.199,12.500 L2.500,12.500 C1.395,12.500 0.500,11.605 0.500,10.500 L0.500,8.500 C0.500,7.395 1.395,6.500 2.500,6.500 L3.199,6.500 C3.360,6.163 3.532,5.833 3.743,5.529 L3.402,4.938 C2.850,3.981 3.177,2.758 4.134,2.206 L5.866,1.206 C6.823,0.653 8.046,0.981 8.598,1.938 L8.954,2.555 C9.138,2.541 9.313,2.500 9.500,2.500 C9.687,2.500 9.862,2.541 10.046,2.555 L10.402,1.938 C10.954,0.981 12.177,0.653 13.134,1.206 L14.866,2.206 C15.823,2.758 16.150,3.981 15.598,4.938 L15.257,5.529 C15.467,5.833 15.640,6.163 15.800,6.500 L16.500,6.500 C17.604,6.500 18.500,7.395 18.500,8.500 L18.500,10.500 C18.500,11.605 17.604,12.500 16.500,12.500 ZM9.500,6.500 C7.843,6.500 6.500,7.843 6.500,9.500 C6.500,11.157 7.843,12.500 9.500,12.500 C11.157,12.500 12.500,11.157 12.500,9.500 C12.500,7.843 11.157,6.500 9.500,6.500 Z"/>
</svg>
