<svg 
 xmlns="http://www.w3.org/2000/svg"
 xmlns:xlink="http://www.w3.org/1999/xlink"
 width="19px" height="19px">
<path fill-rule="evenodd"  stroke="rgb(255, 255, 255)" stroke-width="2px" stroke-linecap="round" stroke-linejoin="miter" fill="none"
 d="M16.000,11.875 L16.000,14.000 C16.000,15.105 15.105,16.000 14.000,16.000 L4.000,16.000 C2.895,16.000 2.000,15.105 2.000,14.000 L2.000,4.000 C2.000,2.895 2.895,2.000 4.000,2.000 L6.125,2.000 "/>
<path fill-rule="evenodd"  fill="rgb(255, 255, 255)"
 d="M9.970,7.061 L16.288,7.061 C16.824,7.061 17.258,7.495 17.258,8.030 C17.258,8.566 16.824,9.000 16.288,9.000 L9.970,9.000 C9.434,9.000 9.000,8.566 9.000,8.030 C9.000,7.495 9.434,7.061 9.970,7.061 Z"/>
<path fill-rule="evenodd"  fill="rgb(255, 255, 255)"
 d="M10.000,1.242 L10.064,1.242 C10.617,1.242 11.064,1.690 11.064,2.242 L11.064,8.000 C11.064,8.552 10.617,9.000 10.064,9.000 L10.000,9.000 C9.448,9.000 9.000,8.552 9.000,8.000 L9.000,2.242 C9.000,1.690 9.448,1.242 10.000,1.242 Z"/>
<path fill-rule="evenodd"  stroke="rgb(255, 255, 255)" stroke-width="2px" stroke-linecap="round" stroke-linejoin="round" fill="none"
 d="M10.032,8.061 L15.258,2.273 "/>
</svg>
