<svg 
 xmlns="http://www.w3.org/2000/svg"
 xmlns:xlink="http://www.w3.org/1999/xlink"
 width="15.5px" height="15.5px">
<path fill-rule="evenodd"  stroke="rgb(255, 255, 255)" stroke-width="1px" stroke-linecap="butt" stroke-linejoin="miter" fill="none"
 d="M14.500,10.375 L14.500,12.500 C14.500,13.605 13.604,14.500 12.500,14.500 L2.500,14.500 C1.395,14.500 0.500,13.605 0.500,12.500 L0.500,2.500 C0.500,1.395 1.395,0.500 2.500,0.500 L4.625,0.500 "/>
<path fill-rule="evenodd"  fill="rgb(255, 255, 255)"
 d="M8.000,0.500 L14.000,0.500 C14.276,0.500 14.500,0.724 14.500,1.000 C14.500,1.276 14.276,1.500 14.000,1.500 L8.000,1.500 C7.724,1.500 7.500,1.276 7.500,1.000 C7.500,0.724 7.724,0.500 8.000,0.500 Z"/>
<path fill-rule="evenodd"  fill="rgb(255, 255, 255)"
 d="M14.000,0.500 C14.276,0.500 14.500,0.724 14.500,1.000 L14.500,7.000 C14.500,7.276 14.276,7.500 14.000,7.500 C13.724,7.500 13.500,7.276 13.500,7.000 L13.500,1.000 C13.500,0.724 13.724,0.500 14.000,0.500 Z"/>
<path fill-rule="evenodd"  stroke="rgb(255, 255, 255)" stroke-width="1px" stroke-linecap="round" stroke-linejoin="round" fill="none"
 d="M13.500,2.500 L7.500,8.500 "/>
</svg>
