<svg 
 xmlns="http://www.w3.org/2000/svg"
 xmlns:xlink="http://www.w3.org/1999/xlink"
 width="20px" height="20px">
<path fill-rule="evenodd"  stroke="rgb(100, 194, 80)" stroke-width="2px" stroke-linecap="round" stroke-linejoin="miter" fill="none"
 d="M16.000,12.875 L16.000,15.000 C16.000,16.105 15.105,17.000 14.000,17.000 L4.000,17.000 C2.895,17.000 2.000,16.105 2.000,15.000 L2.000,5.000 C2.000,3.895 2.895,3.000 4.000,3.000 L6.125,3.000 "/>
<path fill-rule="evenodd"  fill="rgb(100, 194, 80)"
 d="M9.970,8.061 L16.288,8.061 C16.824,8.061 17.258,8.495 17.258,9.030 C17.258,9.566 16.824,10.000 16.288,10.000 L9.970,10.000 C9.434,10.000 9.000,9.566 9.000,9.030 C9.000,8.495 9.434,8.061 9.970,8.061 Z"/>
<path fill-rule="evenodd"  fill="rgb(100, 194, 80)"
 d="M10.000,2.242 L10.064,2.242 C10.617,2.242 11.064,2.690 11.064,3.242 L11.064,9.000 C11.064,9.552 10.617,10.000 10.064,10.000 L10.000,10.000 C9.448,10.000 9.000,9.552 9.000,9.000 L9.000,3.242 C9.000,2.690 9.448,2.242 10.000,2.242 Z"/>
<path fill-rule="evenodd"  stroke="rgb(100, 194, 80)" stroke-width="2px" stroke-linecap="round" stroke-linejoin="round" fill="none"
 d="M11.032,8.061 L16.258,2.273 "/>
</svg>
