<svg 
 xmlns="http://www.w3.org/2000/svg"
 xmlns:xlink="http://www.w3.org/1999/xlink"
 width="19px" height="19px">
<path fill-rule="evenodd"  stroke="rgb(255, 255, 255)" stroke-width="2px" stroke-linecap="round" stroke-linejoin="miter" fill="none"
 d="M16.000,11.875 L16.000,14.000 C16.000,15.105 15.105,16.000 14.000,16.000 L4.000,16.000 C2.895,16.000 2.000,15.105 2.000,14.000 L2.000,4.000 C2.000,2.895 2.895,2.000 4.000,2.000 L6.125,2.000 "/>
<path fill-rule="evenodd"  fill="rgb(255, 255, 255)"
 d="M10.000,1.000 L16.000,1.000 C16.552,1.000 17.000,1.448 17.000,2.000 C17.000,2.552 16.552,3.000 16.000,3.000 L10.000,3.000 C9.448,3.000 9.000,2.552 9.000,2.000 C9.000,1.448 9.448,1.000 10.000,1.000 Z"/>
<path fill-rule="evenodd"  fill="rgb(255, 255, 255)"
 d="M16.000,1.000 C16.552,1.000 17.000,1.448 17.000,2.000 L17.000,8.000 C17.000,8.552 16.552,9.000 16.000,9.000 C15.448,9.000 15.000,8.552 15.000,8.000 L15.000,2.000 C15.000,1.448 15.448,1.000 16.000,1.000 Z"/>
<path fill-rule="evenodd"  stroke="rgb(255, 255, 255)" stroke-width="2px" stroke-linecap="round" stroke-linejoin="round" fill="none"
 d="M16.000,2.000 L10.000,8.000 "/>
</svg>
