<?xml version="1.0" standalone="no"?><!DOCTYPE svg PUBLIC "-//W3C//DTD SVG 1.1//EN" "http://www.w3.org/Graphics/SVG/1.1/DTD/svg11.dtd"><svg t="1736402833995" class="icon" viewBox="0 0 1024 1024" version="1.1" xmlns="http://www.w3.org/2000/svg" p-id="5587" xmlns:xlink="http://www.w3.org/1999/xlink" width="16" height="16"><path d="M741.376 950.272H296.96c-51.2 0-92.16-40.96-92.16-92.16v-307.2c-26.624 2.048-53.248-6.144-73.728-26.624L40.96 434.176C4.096 397.312 4.096 339.968 40.96 303.104l225.28-225.28c18.432-18.432 40.96-26.624 65.536-26.624 24.576 0 47.104 10.24 65.536 26.624l28.672 28.672c6.144 6.144 14.336 10.24 24.576 10.24h141.312c8.192 0 18.432-4.096 24.576-10.24l28.672-28.672C677.888 40.96 737.28 40.96 772.096 77.824l225.28 225.28c18.432 18.432 26.624 40.96 26.624 65.536 0 24.576-10.24 47.104-26.624 65.536l-90.112 90.112c-20.48 20.48-47.104 28.672-73.728 26.624v307.2c0 51.2-40.96 92.16-92.16 92.16zM217.088 489.472c10.24 0 18.432 4.096 26.624 8.192 10.24 8.192 16.384 20.48 16.384 34.816v325.632c0 18.432 16.384 34.816 34.816 34.816h444.416c18.432 0 34.816-16.384 34.816-34.816V532.48c0-14.336 6.144-26.624 16.384-34.816 10.24-8.192 26.624-10.24 38.912-8.192 12.288 4.096 24.576 0 32.768-8.192l90.112-90.112c14.336-14.336 14.336-34.816 0-49.152l-225.28-225.28c-14.336-14.336-34.816-14.336-49.152 0L655.36 147.456c-18.432 18.432-40.96 26.624-65.536 26.624h-141.312c-24.576 0-47.104-10.24-65.536-26.624l-28.672-28.672c-14.336-14.336-34.816-14.336-49.152 0l-225.28 225.28c-14.336 14.336-14.336 34.816 0 49.152l90.112 90.112c10.24 8.192 22.528 10.24 34.816 8.192 4.096-2.048 8.192-2.048 12.288-2.048z" p-id="5588" fill="#0092ca"></path></svg>