<?xml version="1.0" standalone="no"?><!DOCTYPE svg PUBLIC "-//W3C//DTD SVG 1.1//EN" "http://www.w3.org/Graphics/SVG/1.1/DTD/svg11.dtd"><svg t="1734921968618" class="icon" viewBox="0 0 1024 1024" version="1.1" xmlns="http://www.w3.org/2000/svg" p-id="16055" xmlns:xlink="http://www.w3.org/1999/xlink" width="16" height="16"><path d="M968.647353 857.944964 871.782763 857.944964 871.782763 982.485151C871.782763 1005.400546 853.184761 1023.998547 830.269367 1023.998547 807.353973 1023.998547 788.755971 1005.400546 788.755971 982.485151L788.755971 857.944964 691.891381 857.944964C668.975987 857.944964 650.377986 839.346963 650.377986 816.431568 650.377986 793.488498 668.975987 774.918173 691.891381 774.918173L788.755971 774.918173 788.755971 650.377986C788.755971 627.434916 807.353973 608.86459 830.269367 608.86459 853.184761 608.86459 871.782763 627.434916 871.782763 650.377986L871.782763 774.918173 968.647353 774.918173C991.562747 774.918173 1010.160748 793.488498 1010.160748 816.431568 1010.160748 839.346963 991.562747 857.944964 968.647353 857.944964ZM664.215784 691.891381 221.40623 691.891381C198.490836 691.891381 179.892834 673.29338 179.892834 650.377986 179.892834 627.434916 198.490836 608.86459 221.40623 608.86459L664.215784 608.86459C687.131179 608.86459 705.72918 627.434916 705.72918 650.377986 705.72918 673.29338 687.131179 691.891381 664.215784 691.891381ZM664.215784 304.433021 221.40623 304.433021C198.490836 304.433021 179.892834 285.83502 179.892834 262.919626 179.892834 239.976556 198.490836 221.40623 221.40623 221.40623L664.215784 221.40623C687.131179 221.40623 705.72918 239.976556 705.72918 262.919626 705.72918 285.83502 687.131179 304.433021 664.215784 304.433021ZM664.215784 498.162201 221.40623 498.162201C198.490836 498.162201 179.892834 479.5642 179.892834 456.648806 179.892834 433.705736 198.490836 415.13541 221.40623 415.13541L664.215784 415.13541C687.131179 415.13541 705.72918 433.705736 705.72918 456.648806 705.72918 479.5642 687.131179 498.162201 664.215784 498.162201ZM830.269367 525.837799C807.353973 525.837799 788.755971 507.239797 788.755971 484.324403L788.755971 83.028244 96.866043 83.028244 96.866043 913.296158 664.215784 913.296158C687.131179 913.296158 705.72918 931.89416 705.72918 954.809554 705.72918 977.724949 687.131179 996.32295 664.215784 996.32295L55.352647 996.32295C32.437253 996.32295 13.839252 977.724949 13.839252 954.809554L13.839252 41.514849C13.839252 18.571779 32.437253 0.001453 55.352647 0.001453L830.269367 0.001453C853.184761 0.001453 871.782763 18.571779 871.782763 41.514849 871.782763 46.413429 870.565036 50.979903 868.987527 55.352647 870.565036 59.725392 871.782763 64.26419 871.782763 69.190446L871.782763 484.324403C871.782763 507.239797 853.184761 525.837799 830.269367 525.837799Z" p-id="16056" fill="#ffffff"></path></svg>