<?xml version="1.0" standalone="no"?><!DOCTYPE svg PUBLIC "-//W3C//DTD SVG 1.1//EN" "http://www.w3.org/Graphics/SVG/1.1/DTD/svg11.dtd"><svg t="1735630170003" class="icon" viewBox="0 0 1024 1024" version="1.1" xmlns="http://www.w3.org/2000/svg" p-id="6972" xmlns:xlink="http://www.w3.org/1999/xlink" width="16" height="16"><path d="M415.168 938.56a438.506667 438.506667 0 0 1-175.402667-84.245333l39.872-50.090667a373.76 373.76 0 0 0 149.632 71.914667l-14.101333 62.421333z m194.474667-0.149333l-14.250667-62.421334a374.229333 374.229333 0 0 0 149.504-72.192l39.957333 50.005334a438.314667 438.314667 0 0 1-175.210666 84.608zM118.229333 702.506667a433.365333 433.365333 0 0 1-43.541333-189.610667l64-0.128c0.106667 56.746667 12.608 111.189333 37.141333 161.813333l-57.6 27.925334z m787.946667-0.789334l-57.664-27.797333A370.069333 370.069333 0 0 0 885.333333 512l64-1.642667V512c0 66.432-14.528 130.261333-43.157333 189.717333zM175.168 350.762667l-57.706667-27.690667a441.429333 441.429333 0 0 1 120.96-152.32l40.064 49.92a377.152 377.152 0 0 0-103.317333 130.090667z m672.661333-2.026667a376.576 376.576 0 0 0-104.085333-129.450667l39.744-50.154666a441.066667 441.066667 0 0 1 121.877333 151.573333l-57.536 28.032zM427.861333 148.181333l-14.357333-62.378666a442.624 442.624 0 0 1 194.432-0.576l-13.952 62.464a378.922667 378.922667 0 0 0-166.122667 0.490666z" p-id="6973" fill="#ffffff"></path></svg>