<?xml version="1.0" standalone="no"?><!DOCTYPE svg PUBLIC "-//W3C//DTD SVG 1.1//EN" "http://www.w3.org/Graphics/SVG/1.1/DTD/svg11.dtd"><svg t="1734933116726" class="icon" viewBox="0 0 1024 1024" version="1.1" xmlns="http://www.w3.org/2000/svg" p-id="19229" xmlns:xlink="http://www.w3.org/1999/xlink" width="16" height="16"><path d="M153.7 286H33c-15 0-27.2-12.2-27.2-27.2V138c0-14.9 12.2-27.2 27.2-27.2h120.8c14.9 0 27.2 12.2 27.2 27.2v120.8c-0.1 15-12.3 27.2-27.3 27.2z" fill="#ffffff" p-id="19230"></path><path d="M990 271.8H365.9c-14.9 0-27.2-12.2-27.2-27.2V138c0-14.9 12.2-27.2 27.2-27.2H990c14.9 0 27.2 12.2 27.2 27.2v106.6c0 15-12.2 27.2-27.2 27.2z" fill="#ffffff" p-id="19231"></path><path d="M153.7 597.8H33c-14.9 0-27.2-12.2-27.2-27.2V449.9C5.8 435 18 422.8 33 422.8h120.8c14.9 0 27.2 12.2 27.2 27.2v120.8c-0.1 14.8-12.3 27-27.3 27z" fill="#ffffff" p-id="19232"></path><path d="M990 587.2H365.9c-14.9 0-27.2-12.2-27.2-27.2V453.5c0-14.9 12.2-27.2 27.2-27.2H990c14.9 0 27.2 12.2 27.2 27.2v106.6c0 14.9-12.2 27.1-27.2 27.1z" fill="#ffffff" p-id="19233"></path><path d="M153.7 909.7H33c-14.9 0-27.2-12.2-27.2-27.2V761.8c0-14.9 12.2-27.2 27.2-27.2h120.8c14.9 0 27.2 12.2 27.2 27.2v120.8c-0.1 14.9-12.3 27.1-27.3 27.1z" fill="#ffffff" p-id="19234"></path><path d="M990 902.6H365.9c-14.9 0-27.2-12.2-27.2-27.2V768.9c0-14.9 12.2-27.2 27.2-27.2H990c14.9 0 27.2 12.2 27.2 27.2v106.6c0 14.9-12.2 27.1-27.2 27.1z" fill="#ffffff" p-id="19235"></path></svg>