<?xml version="1.0" standalone="no"?><!DOCTYPE svg PUBLIC "-//W3C//DTD SVG 1.1//EN" "http://www.w3.org/Graphics/SVG/1.1/DTD/svg11.dtd"><svg t="1735630138856" class="icon" viewBox="0 0 1024 1024" version="1.1" xmlns="http://www.w3.org/2000/svg" p-id="5943" xmlns:xlink="http://www.w3.org/1999/xlink" width="16" height="16"><path d="M108.8 569.6h57.6v144h-57.6V569.6z m0-230.4h57.6v144h-57.6V339.2z m57.6 518.4v-57.6h-57.6v89.6a25.6 25.6 0 0 0 25.6 25.6h118.4v-57.6H166.4z m172.8 0h144v57.6H339.2v-57.6z m230.4 0h144v57.6H569.6v-57.6z m288-547.2h57.6V454.4h-57.6V310.4z m0 230.4h57.6v144h-57.6V540.8z m0 230.4v86.4h-57.6v57.6h86.4a28.8 28.8 0 0 0 28.8-28.8v-115.2h-57.6z m32-662.4h-118.4v57.6h86.4v57.6h57.6V134.4a25.6 25.6 0 0 0-25.6-25.6z m-348.8 0h144v57.6H540.8v-57.6z m-230.4 0H454.4v57.6H310.4v-57.6z m-86.4 0H137.6a28.8 28.8 0 0 0-28.8 28.8v115.2h57.6V166.4h57.6v-57.6z" p-id="5944" fill="#ffffff"></path></svg>