<svg 
 xmlns="http://www.w3.org/2000/svg"
 xmlns:xlink="http://www.w3.org/1999/xlink"
 width="17.5px" height="17.5px">
<path fill-rule="evenodd"  stroke="rgb(255, 255, 255)" stroke-width="1px" stroke-linecap="butt" stroke-linejoin="miter" fill="none"
 d="M10.583,16.500 L2.500,16.500 C1.395,16.500 0.500,15.604 0.500,14.500 L0.500,2.500 C0.500,1.395 1.395,0.500 2.500,0.500 L14.500,0.500 C15.604,0.500 16.500,1.395 16.500,2.500 L16.500,6.583 "/>
<path fill-rule="evenodd"  stroke="rgb(255, 255, 255)" stroke-width="1px" stroke-linecap="round" stroke-linejoin="round" fill="none"
 d="M13.500,9.500 L15.500,11.500 L15.500,12.500 L13.500,14.500 "/>
<path fill-rule="evenodd"  fill="rgb(255, 255, 255)"
 d="M8.500,11.500 L15.500,11.500 L15.500,12.500 L8.500,12.500 L8.500,11.500 Z"/>
<path fill-rule="evenodd"  stroke="rgb(255, 255, 255)" stroke-width="1px" stroke-linecap="butt" stroke-linejoin="miter" fill="none"
 d="M12.500,1.500 L12.500,4.500 C12.500,5.605 11.605,6.500 10.500,6.500 L6.500,6.500 C5.395,6.500 4.500,5.605 4.500,4.500 L4.500,1.500 "/>
</svg>
