<?xml version="1.0" standalone="no"?><!DOCTYPE svg PUBLIC "-//W3C//DTD SVG 1.1//EN" "http://www.w3.org/Graphics/SVG/1.1/DTD/svg11.dtd"><svg t="1734672401935" class="icon" viewBox="0 0 1024 1024" version="1.1" xmlns="http://www.w3.org/2000/svg" p-id="4704" xmlns:xlink="http://www.w3.org/1999/xlink" width="16" height="16"><path d="M1001.4 964.6L789.3 752.51q6.68-7.38 13-15a451.52 451.52 0 0 0 43.38-62.6A448.15 448.15 0 0 0 631.13 41a445.4 445.4 0 0 0-347.7 0A451.54 451.54 0 0 0 45.08 279.33a445.31 445.31 0 0 0 0 347.71 451.63 451.63 0 0 0 238.35 238.35 445.4 445.4 0 0 0 347.7 0 446.83 446.83 0 0 0 114.72-70.75L958.6 1007.4a30.26 30.26 0 0 0 42.8-42.8zM607.47 809.69a384.81 384.81 0 0 1-300.38 0 391.12 391.12 0 0 1-206.32-206.32 384.92 384.92 0 0 1 0-300.38A391.15 391.15 0 0 1 307.09 96.68a384.81 384.81 0 0 1 300.38 0A391.08 391.08 0 0 1 813.78 303a384.71 384.71 0 0 1-20.57 341.74A391.66 391.66 0 0 1 755.64 699c-7.88 9.53-16.31 18.79-25 27.54-0.64 0.64-1.3 1.26-2 1.9a30.24 30.24 0 0 0-5.66 5.5 387.47 387.47 0 0 1-115.51 75.75z" p-id="4705" fill="#ffffff"></path></svg>