<?xml version="1.0" standalone="no"?><!DOCTYPE svg PUBLIC "-//W3C//DTD SVG 1.1//EN" "http://www.w3.org/Graphics/SVG/1.1/DTD/svg11.dtd"><svg t="1734686183678" class="icon" viewBox="0 0 1024 1024" version="1.1" xmlns="http://www.w3.org/2000/svg" p-id="26062" xmlns:xlink="http://www.w3.org/1999/xlink" width="16" height="16"><path d="M751.030857 921.6c0 37.741714-30.72 34.157714-68.315428 34.157714H136.557714a68.242286 68.242286 0 0 1-68.242285-68.315428V341.357714c0-37.668571-3.584-68.315429 34.084571-68.315428h68.242286V204.8h-68.315429C26.989714 204.8 0 265.874286 0 341.357714v546.084572C0 962.852571 61.147429 1024 136.557714 1024h546.157715c75.410286 0 136.411429-26.989714 136.411428-102.4v-68.169143h-68.169143v68.169143z" fill="#ffffff" p-id="26063"></path><path d="M820.150857 172.982857a34.084571 34.084571 0 0 0-46.592 12.507429L555.227429 563.565714 433.005714 450.925714a34.230857 34.230857 0 0 0-48.274285-1.609143 34.230857 34.230857 0 0 0-1.536 48.274286l156.086857 143.945143a34.304 34.304 0 0 0 48.347428 1.536c4.169143-3.876571 245.028571-423.497143 245.028572-423.497143a34.230857 34.230857 0 0 0-12.507429-46.592z" fill="#ffffff" p-id="26064"></path><path d="M887.442286 0H341.357714A136.557714 136.557714 0 0 0 204.8 136.557714v546.157715c0 75.410286 61.074286 136.411429 136.557714 136.411428h546.084572A136.411429 136.411429 0 0 0 1024 682.715429V136.557714A136.557714 136.557714 0 0 0 887.442286 0z m68.242285 682.715429a68.388571 68.388571 0 0 1-68.315428 68.315428H341.357714a68.461714 68.461714 0 0 1-68.315428-68.315428V136.557714c0-37.741714 30.573714-68.242286 68.315428-68.242285h546.084572c37.741714 0 68.315429 30.500571 68.315428 68.242285v546.157715z" fill="#ffffff" p-id="26065"></path></svg>