<?xml version="1.0" encoding="utf-8"?>
<svg version="1.1" xmlns:xlink="http://www.w3.org/1999/xlink" width="183px" height="183px" xmlns="http://www.w3.org/2000/svg">
  <g transform="matrix(1 0 0 1 -652 -336 )">
    <path d="M 743.5 336.5  C 794.46 336.5  834.5 376.53999999999996  834.5 427.5  C 834.5 478.46000000000004  794.46 518.5  743.5 518.5  C 692.54 518.5  652.5 478.46000000000004  652.5 427.5  C 652.5 376.53999999999996  692.54 336.5  743.5 336.5  Z " fill-rule="nonzero" fill="#ffffff" stroke="none" />
    <path d="M 743.5 336.5  C 794.46 336.5  834.5 376.53999999999996  834.5 427.5  C 834.5 478.46000000000004  794.46 518.5  743.5 518.5  C 692.54 518.5  652.5 478.46000000000004  652.5 427.5  C 652.5 376.53999999999996  692.54 336.5  743.5 336.5  Z " stroke-width="1" stroke="#aaaaaa" fill="none" stroke-opacity="0.5098039215686274" />
  </g>
</svg>