<svg t="1724825472229" class="icon" viewBox="0 0 1024 1024" version="1.1" xmlns="http://www.w3.org/2000/svg" p-id="7247" width="16" height="16"><path d="M448 112a32 32 0 0 1 32 32v32a32 32 0 0 1-32 32H208v608h608V576a32 32 0 0 1 32-32h32a32 32 0 0 1 32 32v256a80 80 0 0 1-80 80H192A80 80 0 0 1 112 832V192A80 80 0 0 1 192 112h256z m431.04 12.576l22.656 22.624a32 32 0 0 1 0 45.28l-227.84 227.84 76.032 0.48a32 32 0 0 1 31.584 28.16l0.224 4.032-0.192 32a32 32 0 0 1-32.224 31.808l-162.464-1.056a80 80 0 0 1-79.488-80v-159.04a32 32 0 0 1 32-32h32a32 32 0 0 1 32 32v78.4l230.496-230.528a32 32 0 0 1 45.248 0z" fill="#333333" p-id="7248"></path></svg>