<?xml version="1.0" standalone="no"?><!DOCTYPE svg PUBLIC "-//W3C//DTD SVG 1.1//EN" "http://www.w3.org/Graphics/SVG/1.1/DTD/svg11.dtd"><svg t="1733474232668" class="icon" viewBox="0 0 1024 1024" version="1.1" xmlns="http://www.w3.org/2000/svg" p-id="7021" xmlns:xlink="http://www.w3.org/1999/xlink" width="16" height="16"><path d="M310.272 1024a51.2 51.2 0 0 1-48.5376-54.0672 57.5488 57.5488 0 0 1 13.824-38.0928l375.296-416.768L270.4384 92.16a57.344 57.344 0 0 1 0-76.288A45.568 45.568 0 0 1 304.8448 0a45.568 45.568 0 0 1 34.4064 15.7696l414.0032 461.1072a58.0608 58.0608 0 0 1 0 76.288L344.3712 1008.64a45.568 45.568 0 0 1-34.0992 15.36z" fill="#666666" p-id="7022"></path></svg>