<?xml version="1.0" encoding="utf-8"?>
<!-- Generator: Adobe Illustrator 25.2.1, SVG Export Plug-In . SVG Version: 6.00 Build 0)  -->
<svg version="1.1" id="图层_1" xmlns="http://www.w3.org/2000/svg" xmlns:xlink="http://www.w3.org/1999/xlink" x="0px" y="0px"
	 viewBox="0 0 220 380" style="enable-background:new 0 0 220 380;" xml:space="preserve">
<style type="text/css">
	.st0{fill-rule:evenodd;clip-rule:evenodd;fill:#434346;}
	.st1{fill-rule:evenodd;clip-rule:evenodd;fill:url(#SVGID_1_);}
	.st2{fill-rule:evenodd;clip-rule:evenodd;fill:url(#SVGID_2_);}
	.st3{fill-rule:evenodd;clip-rule:evenodd;fill:url(#SVGID_3_);}
	.st4{fill-rule:evenodd;clip-rule:evenodd;fill:url(#SVGID_4_);}
	.st5{fill-rule:evenodd;clip-rule:evenodd;fill:url(#SVGID_5_);}
	.st6{fill:none;}
	.st7{fill-rule:evenodd;clip-rule:evenodd;fill:url(#SVGID_6_);}
	.st8{fill-rule:evenodd;clip-rule:evenodd;fill:#939496;}
	.st9{fill-rule:evenodd;clip-rule:evenodd;fill:url(#SVGID_7_);}
	.st10{fill-rule:evenodd;clip-rule:evenodd;fill:url(#SVGID_8_);}
	.st11{fill-rule:evenodd;clip-rule:evenodd;fill:#813C11;}
	.st12{fill-rule:evenodd;clip-rule:evenodd;fill:#363639;}
	.st13{fill-rule:evenodd;clip-rule:evenodd;fill:url(#SVGID_9_);fill-opacity:0.302;}
	.st14{fill-rule:evenodd;clip-rule:evenodd;fill:url(#SVGID_10_);}
	.st15{fill-rule:evenodd;clip-rule:evenodd;fill:#151515;}
	.st16{fill-rule:evenodd;clip-rule:evenodd;fill:url(#SVGID_11_);}
	.st17{fill-rule:evenodd;clip-rule:evenodd;fill:url(#SVGID_12_);}
	.st18{fill-rule:evenodd;clip-rule:evenodd;fill:url(#SVGID_13_);}
	.st19{fill-rule:evenodd;clip-rule:evenodd;fill:url(#SVGID_14_);}
	.st20{fill-rule:evenodd;clip-rule:evenodd;fill:url(#SVGID_15_);}
	.st21{fill-rule:evenodd;clip-rule:evenodd;fill:url(#SVGID_16_);}
	.st22{fill-rule:evenodd;clip-rule:evenodd;fill:url(#SVGID_17_);}
	.st23{fill-rule:evenodd;clip-rule:evenodd;fill:url(#SVGID_18_);}
	.st24{fill-rule:evenodd;clip-rule:evenodd;fill:url(#SVGID_19_);}
	.st25{fill-rule:evenodd;clip-rule:evenodd;fill:url(#SVGID_20_);}
	.st26{fill-rule:evenodd;clip-rule:evenodd;fill:url(#SVGID_21_);}
</style>
<g id="_898600752">
	<path class="st0" d="M90,351c0,0,19,15,39,0l3-8l-9-22l2-98l-22-4l-12,6l5,36l-2,61l-4,28V351z"/>
	
		<linearGradient id="SVGID_1_" gradientUnits="userSpaceOnUse" x1="92.2869" y1="91.6667" x2="130.2869" y2="91.6667" gradientTransform="matrix(1 0 0 -1 0 382)">
		<stop  offset="0" style="stop-color:#3A3A3B"/>
		<stop  offset="0.502" style="stop-color:#595A5C"/>
		<stop  offset="1" style="stop-color:#3A3A3B"/>
	</linearGradient>
	<path class="st1" d="M92,350c0,0,18,15,35,0l3-7l-8-21l2-95l-20-3l-11,6l5,35l-2,59l-4,27V350z"/>
	<path class="st0" d="M104,236c0,0,17,77-12,116c0,0-16,7-19-7l10-32v-45l-5-33h5h22L104,236z"/>
	
		<linearGradient id="SVGID_2_" gradientUnits="userSpaceOnUse" x1="77.3022" y1="87.059" x2="114.65" y2="87.059" gradientTransform="matrix(1 0 0 -1 0 382)">
		<stop  offset="0" style="stop-color:#434445"/>
		<stop  offset="1" style="stop-color:#6D6E72"/>
	</linearGradient>
	<path class="st2" d="M102,238c0,0,13,74-10,112c0,0-12,7-15-6l8-30v-43l-4-32h4h17V238z"/>
	<path class="st0" d="M86,236c0,0,20,64,2,100c0,0-16,30-26,23l-2-19l11-58l-2-45l18-1H86z"/>
	
		<linearGradient id="SVGID_3_" gradientUnits="userSpaceOnUse" x1="61.0809" y1="83.9549" x2="102.276" y2="83.9549" gradientTransform="matrix(1 0 0 -1 0 382)">
		<stop  offset="0" style="stop-color:#434445"/>
		<stop  offset="1" style="stop-color:#6D6E72"/>
	</linearGradient>
	<path class="st3" d="M85,238c0,0,17,62,2,97c0,0-14,29-23,22l-2-18l9-56l-2-43l16-1V238z"/>
	<path class="st0" d="M74,236c0,0,10,11,9,64c0,0-7,67-32,62l1-10l11-43l-4-52l-1-19l16-1V236z"/>
	
		<linearGradient id="SVGID_4_" gradientUnits="userSpaceOnUse" x1="52.7411" y1="83.3628" x2="81.3712" y2="83.3628" gradientTransform="matrix(1 0 0 -1 0 382)">
		<stop  offset="0" style="stop-color:#595959"/>
		<stop  offset="1" style="stop-color:#858587"/>
	</linearGradient>
	<path class="st4" d="M73,238c0,0,8,11,8,62c0,0-6,65-28,60l1-10l10-42l-4-51l-1-19l14-1V238z"/>
	<path class="st0" d="M70,243c0,0,14,48,1,83c0,0-9,49-32,34c0,0-11-14-11-30l11-3l10-18l9-35l4-24l9-8L70,243z"/>
	
		<linearGradient id="SVGID_5_" gradientUnits="userSpaceOnUse" x1="30.358" y1="79.1977" x2="80.8964" y2="79.1977" gradientTransform="matrix(1 0 0 -1 0 382)">
		<stop  offset="0" style="stop-color:#434445"/>
		<stop  offset="1" style="stop-color:#6D6E72"/>
	</linearGradient>
	<path class="st5" d="M68,245c0,0,12,47,1,80c0,0-9,47-29,33c0,0-10-14-10-29l10-3l9-17l8-34l3-23L68,245z"/>
	<polygon class="st0" points="60,17 160,17 160,74 177,113 43,113 60,74 	"/>
	<path class="st6" d="M62,75h95l0,0v1l17,37c-46,0-83,0-129,0l17-37V75L62,75z"/>
	<polygon class="st0" points="83,129 85,240 69,241 60,235 56,183 61,158 72,153 78,134 	"/>
	
		<linearGradient id="SVGID_6_" gradientUnits="userSpaceOnUse" x1="82.6279" y1="197" x2="56.6279" y2="197" gradientTransform="matrix(1 0 0 -1 0 382)">
		<stop  offset="0" style="stop-color:#828080"/>
		<stop  offset="0.149" style="stop-color:#828080"/>
		<stop  offset="0.4196" style="stop-color:#B7B8BA"/>
		<stop  offset="0.702" style="stop-color:#727376"/>
		<stop  offset="1" style="stop-color:#6F7073"/>
	</linearGradient>
	<polygon class="st7" points="81,131 83,238 69,239 60,233 57,183 61,159 72,154 78,136 	"/>
	<polygon class="st0" points="86,109 72,113 74,122 68,144 61,169 75,164 87,130 	"/>
	<polygon class="st8" points="82,113 72,116 74,124 70,144 65,165 75,161 83,132 	"/>
	<polygon class="st0" points="82,119 80,133 67,164 68,234 72,239 69,261 60,310 47,334 35,337 28,333 24,328 20,320 11,300 38,260 
		38,181 46,147 65,120 	"/>
	
		<linearGradient id="SVGID_7_" gradientUnits="userSpaceOnUse" x1="-832.7593" y1="728.4592" x2="-832.7593" y2="729.2792" gradientTransform="matrix(54 0 0 -214 45021 156206)">
		<stop  offset="0" style="stop-color:#969696"/>
		<stop  offset="0.102" style="stop-color:#B7B8BA"/>
		<stop  offset="0.8" style="stop-color:#7E7F83"/>
		<stop  offset="1" style="stop-color:#6F7073"/>
	</linearGradient>
	<polygon class="st9" points="80,121 76,135 65,165 65,234 69,239 67,260 59,308 46,332 37,335 31,331 28,326 24,318 39,259 39,182 
		47,148 63,122 	"/>
	<polygon class="st0" points="17,173 11,234 11,300 23,320 29,325 38,323 50,300 55,252 55,231 53,168 	"/>
	
		<linearGradient id="SVGID_8_" gradientUnits="userSpaceOnUse" x1="62.5077" y1="317" x2="157.23" y2="317" gradientTransform="matrix(1 0 0 -1 0 382)">
		<stop  offset="0" style="stop-color:#8A4012"/>
		<stop  offset="0.102" style="stop-color:#964A1B"/>
		<stop  offset="0.502" style="stop-color:#F58A1F"/>
		<stop  offset="0.902" style="stop-color:#964A1B"/>
		<stop  offset="1" style="stop-color:#8A4012"/>
	</linearGradient>
	<polygon class="st10" points="63,19 157,19 157,75 174,111 46,111 63,75 	"/>
	<polygon class="st11" points="172,108 173,110 47,110 47,108 	"/>
	<polygon class="st12" points="174,112 174,113 45,113 46,112 	"/>
	
		<linearGradient id="SVGID_9_" gradientUnits="userSpaceOnUse" x1="62.6967" y1="310" x2="157.306" y2="310" gradientTransform="matrix(1 0 0 -1 0 382)">
		<stop  offset="0" style="stop-color:#18181A"/>
		<stop  offset="0.502" style="stop-color:#79797D"/>
		<stop  offset="1" style="stop-color:#18181A"/>
	</linearGradient>
	<polygon class="st13" points="63,75 157,75 157,69 63,69 	"/>
	
		<linearGradient id="SVGID_10_" gradientUnits="userSpaceOnUse" x1="21.0839" y1="136" x2="45.0852" y2="136" gradientTransform="matrix(1 0 0 -1 0 382)">
		<stop  offset="0" style="stop-color:#636262"/>
		<stop  offset="1" style="stop-color:#929293"/>
	</linearGradient>
	<polygon class="st14" points="19,169 13,235 13,299 24,318 30,323 37,321 48,299 53,252 53,231 51,170 	"/>
	<g>
		<ellipse class="st0" cx="42" cy="182" rx="4" ry="6"/>
		<ellipse class="st0" cx="33" cy="182" rx="4" ry="6"/>
		<ellipse class="st0" cx="24" cy="182" rx="4" ry="6"/>
		<ellipse class="st0" cx="45" cy="195" rx="4" ry="6"/>
		<ellipse class="st0" cx="35" cy="195" rx="4" ry="6"/>
		<ellipse class="st0" cx="27" cy="195" rx="4" ry="6"/>
		<ellipse class="st0" cx="43" cy="208" rx="4" ry="6"/>
		<ellipse class="st0" cx="34" cy="208" rx="4" ry="6"/>
		<ellipse class="st0" cx="25" cy="208" rx="4" ry="6"/>
		<ellipse class="st0" cx="45" cy="222" rx="4" ry="6"/>
		<ellipse class="st0" cx="35" cy="222" rx="4" ry="6"/>
		<ellipse class="st0" cx="27" cy="222" rx="4" ry="6"/>
		<ellipse class="st0" cx="43" cy="235" rx="4" ry="6"/>
		<ellipse class="st0" cx="34" cy="235" rx="4" ry="6"/>
		<ellipse class="st0" cx="25" cy="235" rx="4" ry="6"/>
		<ellipse class="st0" cx="44" cy="250" rx="4" ry="6"/>
		<ellipse class="st0" cx="34" cy="250" rx="4" ry="6"/>
		<ellipse class="st0" cx="26" cy="250" rx="4" ry="6"/>
		<ellipse class="st0" cx="41" cy="263" rx="4" ry="6"/>
		<ellipse class="st0" cx="32" cy="263" rx="4" ry="6"/>
		<ellipse class="st0" cx="23" cy="263" rx="4" ry="6"/>
		<ellipse class="st0" cx="41" cy="276" rx="4" ry="6"/>
		<ellipse class="st0" cx="32" cy="276" rx="4" ry="6"/>
		<ellipse class="st0" cx="23" cy="276" rx="4" ry="6"/>
		<ellipse class="st0" cx="39" cy="289" rx="4" ry="6"/>
		<ellipse class="st0" cx="30" cy="291" rx="4" ry="9"/>
		<ellipse class="st0" cx="21" cy="289" rx="4" ry="6"/>
		<ellipse class="st0" cx="34" cy="304" rx="4" ry="6"/>
		<ellipse class="st0" cx="25" cy="304" rx="4" ry="6"/>
		<ellipse class="st15" cx="24" cy="182" rx="2" ry="4"/>
		<ellipse class="st15" cx="27" cy="195" rx="2" ry="4"/>
		<ellipse class="st15" cx="25" cy="208" rx="2" ry="4"/>
		<ellipse class="st15" cx="27" cy="222" rx="2" ry="4"/>
		<ellipse class="st15" cx="25" cy="235" rx="2" ry="4"/>
		<ellipse class="st15" cx="26" cy="250" rx="2" ry="4"/>
		<ellipse class="st15" cx="23" cy="263" rx="2" ry="4"/>
		<ellipse class="st15" cx="23" cy="276" rx="2" ry="4"/>
		<ellipse class="st15" cx="21" cy="289" rx="2" ry="4"/>
		<ellipse class="st15" cx="25" cy="304" rx="2" ry="4"/>
		<ellipse class="st15" cx="34" cy="304" rx="2" ry="4"/>
		<ellipse class="st15" cx="33" cy="182" rx="2" ry="4"/>
		<ellipse class="st15" cx="35" cy="195" rx="2" ry="4"/>
		<ellipse class="st15" cx="34" cy="208" rx="2" ry="4"/>
		<ellipse class="st15" cx="35" cy="222" rx="2" ry="4"/>
		<ellipse class="st15" cx="34" cy="235" rx="2" ry="4"/>
		<ellipse class="st15" cx="34" cy="250" rx="2" ry="4"/>
		<ellipse class="st15" cx="32" cy="263" rx="2" ry="4"/>
		<ellipse class="st15" cx="32" cy="276" rx="2" ry="4"/>
		<ellipse class="st15" cx="30" cy="291" rx="2" ry="7"/>
		<ellipse class="st15" cx="42" cy="182" rx="2" ry="4"/>
		<ellipse class="st15" cx="45" cy="195" rx="2" ry="4"/>
		<ellipse class="st15" cx="43" cy="208" rx="2" ry="4"/>
		<ellipse class="st15" cx="45" cy="222" rx="2" ry="4"/>
		<ellipse class="st15" cx="43" cy="235" rx="2" ry="4"/>
		<ellipse class="st15" cx="44" cy="250" rx="2" ry="4"/>
		<ellipse class="st15" cx="41" cy="263" rx="2" ry="4"/>
		<ellipse class="st15" cx="41" cy="276" rx="2" ry="4"/>
		<ellipse class="st15" cx="39" cy="289" rx="2" ry="4"/>
	</g>
	<polygon class="st0" points="44,110 17,173 51,174 87,110 	"/>
	
		<linearGradient id="SVGID_11_" gradientUnits="userSpaceOnUse" x1="32.3824" y1="240" x2="70.8262" y2="240" gradientTransform="matrix(1 0 0 -1 0 382)">
		<stop  offset="0" style="stop-color:#636262"/>
		<stop  offset="1" style="stop-color:#929293"/>
	</linearGradient>
	<polygon class="st16" points="45,113 21,170 51,171 83,113 	"/>
	<path class="st0" d="M116,236c0,0-17,77,12,116c0,0,16,7,19-7l-10-32v-45l5-33h-5h-22L116,236z"/>
	
		<linearGradient id="SVGID_12_" gradientUnits="userSpaceOnUse" x1="105.349" y1="87.059" x2="142.698" y2="87.059" gradientTransform="matrix(1 0 0 -1 0 382)">
		<stop  offset="0" style="stop-color:#434445"/>
		<stop  offset="1" style="stop-color:#6D6E72"/>
	</linearGradient>
	<path class="st17" d="M118,238c0,0-13,74,10,112c0,0,12,7,15-6l-8-30v-43l4-32h-4h-17V238z"/>
	<path class="st0" d="M134,236c0,0-20,64-2,100c0,0,16,30,26,23l2-19l-11-58l2-45l-18-1H134z"/>
	
		<linearGradient id="SVGID_13_" gradientUnits="userSpaceOnUse" x1="117.724" y1="83.9549" x2="158.919" y2="83.9549" gradientTransform="matrix(1 0 0 -1 0 382)">
		<stop  offset="0" style="stop-color:#434445"/>
		<stop  offset="1" style="stop-color:#6D6E72"/>
	</linearGradient>
	<path class="st18" d="M135,238c0,0-17,62-2,97c0,0,14,29,23,22l2-18l-9-56l2-43l-16-1V238z"/>
	<path class="st0" d="M146,236c0,0-10,11-9,64c0,0,7,67,32,62l-1-10l-11-43l4-52l1-19l-16-1V236z"/>
	
		<linearGradient id="SVGID_14_" gradientUnits="userSpaceOnUse" x1="138.629" y1="83.3628" x2="167.258" y2="83.3628" gradientTransform="matrix(1 0 0 -1 0 382)">
		<stop  offset="0" style="stop-color:#595959"/>
		<stop  offset="1" style="stop-color:#858587"/>
	</linearGradient>
	<path class="st19" d="M147,238c0,0-8,11-8,62c0,0,6,65,28,60l-1-10l-10-42l4-51l1-19l-14-1V238z"/>
	<path class="st0" d="M150,243c0,0-14,48-1,83c0,0,9,49,32,34c0,0,11-14,11-30l-11-3l-10-18l-9-35l-4-24l-9-8L150,243z"/>
	
		<linearGradient id="SVGID_15_" gradientUnits="userSpaceOnUse" x1="139.102" y1="79.1977" x2="189.641" y2="79.1977" gradientTransform="matrix(1 0 0 -1 0 382)">
		<stop  offset="0" style="stop-color:#434445"/>
		<stop  offset="1" style="stop-color:#6D6E72"/>
	</linearGradient>
	<path class="st20" d="M152,245c0,0-12,47-1,80c0,0,9,47,29,33c0,0,10-14,10-29l-10-3l-9-17l-8-34l-3-23L152,245z"/>
	<polygon class="st0" points="136,129 134,240 150,241 159,235 163,183 158,158 147,153 141,134 	"/>
	
		<linearGradient id="SVGID_16_" gradientUnits="userSpaceOnUse" x1="162.371" y1="197" x2="136.371" y2="197" gradientTransform="matrix(1 0 0 -1 0 382)">
		<stop  offset="0" style="stop-color:#828080"/>
		<stop  offset="0.149" style="stop-color:#828080"/>
		<stop  offset="0.4196" style="stop-color:#B7B8BA"/>
		<stop  offset="0.702" style="stop-color:#727376"/>
		<stop  offset="1" style="stop-color:#6F7073"/>
	</linearGradient>
	<polygon class="st21" points="138,131 136,238 150,239 159,233 162,183 158,159 147,154 141,136 	"/>
	<polygon class="st0" points="134,110 148,113 146,122 152,144 159,169 145,164 133,130 	"/>
	<polygon class="st8" points="138,113 148,116 146,124 150,144 155,165 145,161 137,132 	"/>
	<polygon class="st0" points="138,119 140,133 153,164 152,234 148,239 151,261 160,310 173,334 185,337 192,333 196,328 200,320 
		209,300 182,260 182,181 174,147 155,120 	"/>
	
		<linearGradient id="SVGID_17_" gradientUnits="userSpaceOnUse" x1="-832.7963" y1="728.4592" x2="-832.7963" y2="729.2792" gradientTransform="matrix(54 0 0 -214 45139 156206)">
		<stop  offset="0" style="stop-color:#969696"/>
		<stop  offset="0.102" style="stop-color:#B7B8BA"/>
		<stop  offset="0.8" style="stop-color:#7E7F83"/>
		<stop  offset="1" style="stop-color:#6F7073"/>
	</linearGradient>
	<polygon class="st22" points="140,121 144,135 155,165 155,234 151,239 153,260 161,308 174,332 183,335 189,331 192,326 196,318 
		181,259 181,182 173,148 157,122 	"/>
	<polygon class="st0" points="203,173 209,234 209,300 197,320 191,325 182,323 170,300 165,252 165,231 167,168 	"/>
	
		<linearGradient id="SVGID_18_" gradientUnits="userSpaceOnUse" x1="174.915" y1="136" x2="198.916" y2="136" gradientTransform="matrix(1 0 0 -1 0 382)">
		<stop  offset="0" style="stop-color:#636262"/>
		<stop  offset="1" style="stop-color:#929293"/>
	</linearGradient>
	<polygon class="st23" points="201,169 207,235 207,299 196,318 190,323 183,321 172,299 167,252 167,231 169,170 	"/>
	<ellipse class="st0" cx="178" cy="182" rx="4" ry="6"/>
	<ellipse class="st0" cx="187" cy="182" rx="4" ry="6"/>
	<ellipse class="st0" cx="196" cy="182" rx="4" ry="6"/>
	<ellipse class="st0" cx="175" cy="195" rx="4" ry="6"/>
	<ellipse class="st0" cx="185" cy="195" rx="4" ry="6"/>
	<ellipse class="st0" cx="193" cy="195" rx="4" ry="6"/>
	<ellipse class="st0" cx="177" cy="208" rx="4" ry="6"/>
	<ellipse class="st0" cx="186" cy="208" rx="4" ry="6"/>
	<ellipse class="st0" cx="195" cy="208" rx="4" ry="6"/>
	<ellipse class="st0" cx="175" cy="222" rx="4" ry="6"/>
	<ellipse class="st0" cx="185" cy="222" rx="4" ry="6"/>
	<ellipse class="st0" cx="193" cy="222" rx="4" ry="6"/>
	<ellipse class="st0" cx="177" cy="235" rx="4" ry="6"/>
	<ellipse class="st0" cx="186" cy="235" rx="4" ry="6"/>
	<ellipse class="st0" cx="195" cy="235" rx="4" ry="6"/>
	<ellipse class="st0" cx="176" cy="250" rx="4" ry="6"/>
	<ellipse class="st0" cx="186" cy="250" rx="4" ry="6"/>
	<ellipse class="st0" cx="194" cy="250" rx="4" ry="6"/>
	<ellipse class="st0" cx="179" cy="263" rx="4" ry="6"/>
	<ellipse class="st0" cx="188" cy="263" rx="4" ry="6"/>
	<ellipse class="st0" cx="197" cy="263" rx="4" ry="6"/>
	<ellipse class="st0" cx="179" cy="276" rx="4" ry="6"/>
	<ellipse class="st0" cx="188" cy="276" rx="4" ry="6"/>
	<ellipse class="st0" cx="197" cy="276" rx="4" ry="6"/>
	<ellipse class="st0" cx="181" cy="289" rx="4" ry="6"/>
	<ellipse class="st0" cx="190" cy="291" rx="4" ry="9"/>
	<ellipse class="st0" cx="199" cy="289" rx="4" ry="6"/>
	<ellipse class="st0" cx="186" cy="304" rx="4" ry="6"/>
	<ellipse class="st0" cx="195" cy="304" rx="4" ry="6"/>
	<ellipse class="st15" cx="196" cy="182" rx="2" ry="4"/>
	<ellipse class="st15" cx="193" cy="195" rx="2" ry="4"/>
	<ellipse class="st15" cx="195" cy="208" rx="2" ry="4"/>
	<ellipse class="st15" cx="193" cy="222" rx="2" ry="4"/>
	<ellipse class="st15" cx="195" cy="235" rx="2" ry="4"/>
	<ellipse class="st15" cx="194" cy="250" rx="2" ry="4"/>
	<ellipse class="st15" cx="197" cy="263" rx="2" ry="4"/>
	<ellipse class="st15" cx="197" cy="276" rx="2" ry="4"/>
	<ellipse class="st15" cx="199" cy="289" rx="2" ry="4"/>
	<ellipse class="st15" cx="195" cy="304" rx="2" ry="4"/>
	<ellipse class="st15" cx="186" cy="304" rx="2" ry="4"/>
	<ellipse class="st15" cx="187" cy="182" rx="2" ry="4"/>
	<ellipse class="st15" cx="185" cy="195" rx="2" ry="4"/>
	<ellipse class="st15" cx="186" cy="208" rx="2" ry="4"/>
	<ellipse class="st15" cx="185" cy="222" rx="2" ry="4"/>
	<ellipse class="st15" cx="186" cy="235" rx="2" ry="4"/>
	<ellipse class="st15" cx="186" cy="250" rx="2" ry="4"/>
	<ellipse class="st15" cx="188" cy="263" rx="2" ry="4"/>
	<ellipse class="st15" cx="188" cy="276" rx="2" ry="4"/>
	<ellipse class="st15" cx="190" cy="291" rx="2" ry="7"/>
	<ellipse class="st15" cx="178" cy="182" rx="2" ry="4"/>
	<ellipse class="st15" cx="175" cy="195" rx="2" ry="4"/>
	<ellipse class="st15" cx="177" cy="208" rx="2" ry="4"/>
	<ellipse class="st15" cx="175" cy="222" rx="2" ry="4"/>
	<ellipse class="st15" cx="177" cy="235" rx="2" ry="4"/>
	<ellipse class="st15" cx="176" cy="250" rx="2" ry="4"/>
	<ellipse class="st15" cx="179" cy="263" rx="2" ry="4"/>
	<ellipse class="st15" cx="179" cy="276" rx="2" ry="4"/>
	<ellipse class="st15" cx="181" cy="289" rx="2" ry="4"/>
	<polygon class="st0" points="175,110 203,173 169,174 133,110 	"/>
	
		<linearGradient id="SVGID_19_" gradientUnits="userSpaceOnUse" x1="149.174" y1="240" x2="187.618" y2="240" gradientTransform="matrix(1 0 0 -1 0 382)">
		<stop  offset="0" style="stop-color:#636262"/>
		<stop  offset="1" style="stop-color:#929293"/>
	</linearGradient>
	<polygon class="st24" points="175,113 199,170 169,171 137,113 	"/>
	<path class="st11" d="M102,235c1,0,1-1,2-2h-4C100,234,101,235,102,235z"/>
	<polygon class="st0" points="111,241 111,241 110,241 109,241 109,241 83,240 81,129 81,125 100,139 110,157 119,139 139,125 
		139,129 137,240 	"/>
	<g>
		<ellipse class="st15" cx="78" cy="339" rx="4" ry="6"/>
		<ellipse class="st11" cx="78" cy="339" rx="2" ry="4"/>
	</g>
	<g>
		<ellipse class="st15" cx="141" cy="339" rx="4" ry="6"/>
		<ellipse class="st11" cx="141" cy="339" rx="2" ry="4"/>
	</g>
	<g>
		<ellipse class="st15" cx="84" cy="334" rx="4" ry="6"/>
		<ellipse class="st11" cx="84" cy="334" rx="2" ry="4"/>
	</g>
	<g>
		<ellipse class="st15" cx="136" cy="334" rx="4" ry="6"/>
		<ellipse class="st11" cx="136" cy="334" rx="2" ry="4"/>
	</g>
	<g>
		<ellipse class="st15" cx="137" cy="330" rx="4" ry="6"/>
		<ellipse class="st11" cx="137" cy="330" rx="2" ry="4"/>
	</g>
	<g>
		<ellipse class="st15" cx="89" cy="332" rx="4" ry="6"/>
		<ellipse class="st11" cx="89" cy="332" rx="2" ry="4"/>
	</g>
	<g>
		<ellipse class="st15" cx="130" cy="332" rx="4" ry="6"/>
		<ellipse class="st11" cx="130" cy="332" rx="2" ry="4"/>
	</g>
	<g>
		<ellipse class="st15" cx="88" cy="341" rx="4" ry="6"/>
		<ellipse class="st11" cx="88" cy="341" rx="2" ry="4"/>
	</g>
	<g>
		<ellipse class="st15" cx="94" cy="337" rx="4" ry="6"/>
		<ellipse class="st11" cx="94" cy="337" rx="2" ry="4"/>
	</g>
	<g>
		<ellipse class="st15" cx="126" cy="337" rx="4" ry="6"/>
		<ellipse class="st11" cx="126" cy="337" rx="2" ry="4"/>
	</g>
	<g>
		<ellipse class="st15" cx="94" cy="327" rx="4" ry="6"/>
		<ellipse class="st11" cx="94" cy="327" rx="2" ry="4"/>
	</g>
	<g>
		<ellipse class="st15" cx="126" cy="327" rx="4" ry="6"/>
		<ellipse class="st11" cx="126" cy="327" rx="2" ry="4"/>
	</g>
	<g>
		<ellipse class="st15" cx="87" cy="324" rx="4" ry="6"/>
		<ellipse class="st11" cx="87" cy="324" rx="2" ry="4"/>
	</g>
	<g>
		<ellipse class="st15" cx="86" cy="318" rx="4" ry="6"/>
		<ellipse class="st11" cx="86" cy="318" rx="2" ry="4"/>
	</g>
	<g>
		<ellipse class="st15" cx="134" cy="318" rx="4" ry="6"/>
		<ellipse class="st11" cx="134" cy="318" rx="2" ry="4"/>
	</g>
	<g>
		<ellipse class="st15" cx="91" cy="319" rx="4" ry="6"/>
		<ellipse class="st11" cx="91" cy="319" rx="2" ry="4"/>
	</g>
	<g>
		<ellipse class="st15" cx="129" cy="319" rx="4" ry="6"/>
		<ellipse class="st11" cx="129" cy="319" rx="2" ry="4"/>
	</g>
	<g>
		<ellipse class="st15" cx="97" cy="321" rx="4" ry="6"/>
		<ellipse class="st11" cx="97" cy="321" rx="2" ry="4"/>
	</g>
	<g>
		<ellipse class="st15" cx="122" cy="321" rx="4" ry="6"/>
		<ellipse class="st11" cx="122" cy="321" rx="2" ry="4"/>
	</g>
	<g>
		<ellipse class="st15" cx="99" cy="334" rx="4" ry="6"/>
		<ellipse class="st11" cx="99" cy="334" rx="2" ry="4"/>
	</g>
	<g>
		<ellipse class="st15" cx="121" cy="334" rx="4" ry="6"/>
		<ellipse class="st11" cx="121" cy="334" rx="2" ry="4"/>
	</g>
	<g>
		<ellipse class="st15" cx="125" cy="343" rx="4" ry="6"/>
		<ellipse class="st11" cx="125" cy="343" rx="2" ry="4"/>
	</g>
	<g>
		<ellipse class="st15" cx="91" cy="311" rx="4" ry="6"/>
		<ellipse class="st11" cx="91" cy="311" rx="2" ry="4"/>
	</g>
	<g>
		<ellipse class="st15" cx="129" cy="311" rx="4" ry="6"/>
		<ellipse class="st11" cx="129" cy="311" rx="2" ry="4"/>
	</g>
	<g>
		<ellipse class="st15" cx="97" cy="314" rx="4" ry="6"/>
		<ellipse class="st11" cx="97" cy="314" rx="2" ry="4"/>
	</g>
	<g>
		<ellipse class="st15" cx="123" cy="314" rx="4" ry="6"/>
		<ellipse class="st11" cx="123" cy="314" rx="2" ry="4"/>
	</g>
	<g>
		<ellipse class="st15" cx="133" cy="308" rx="4" ry="6"/>
		<ellipse class="st11" cx="133" cy="308" rx="2" ry="4"/>
	</g>
	<g>
		<ellipse class="st15" cx="90" cy="305" rx="4" ry="6"/>
		<ellipse class="st11" cx="90" cy="305" rx="2" ry="4"/>
	</g>
	<g>
		<ellipse class="st15" cx="130" cy="305" rx="4" ry="6"/>
		<ellipse class="st11" cx="130" cy="305" rx="2" ry="4"/>
	</g>
	<g>
		<ellipse class="st15" cx="95" cy="306" rx="4" ry="6"/>
		<ellipse class="st11" cx="95" cy="306" rx="2" ry="4"/>
	</g>
	<g>
		<ellipse class="st15" cx="125" cy="306" rx="4" ry="6"/>
		<ellipse class="st11" cx="125" cy="306" rx="2" ry="4"/>
	</g>
	<g>
		<ellipse class="st15" cx="100" cy="309" rx="4" ry="6"/>
		<ellipse class="st11" cx="100" cy="309" rx="2" ry="4"/>
	</g>
	<g>
		<ellipse class="st15" cx="119" cy="309" rx="4" ry="6"/>
		<ellipse class="st11" cx="119" cy="309" rx="2" ry="4"/>
	</g>
	<g>
		<ellipse class="st15" cx="101" cy="317" rx="4" ry="6"/>
		<ellipse class="st11" cx="101" cy="317" rx="2" ry="4"/>
	</g>
	<g>
		<ellipse class="st15" cx="119" cy="317" rx="4" ry="6"/>
		<ellipse class="st11" cx="119" cy="317" rx="2" ry="4"/>
	</g>
	<g>
		<ellipse class="st15" cx="102" cy="326" rx="4" ry="6"/>
		<ellipse class="st11" cx="102" cy="326" rx="2" ry="4"/>
	</g>
	<g>
		<ellipse class="st15" cx="118" cy="326" rx="4" ry="6"/>
		<ellipse class="st11" cx="118" cy="326" rx="2" ry="4"/>
	</g>
	<g>
		<ellipse class="st15" cx="110" cy="304" rx="4" ry="6"/>
		<ellipse class="st11" cx="110" cy="304" rx="2" ry="4"/>
	</g>
	<g>
		<ellipse class="st15" cx="113" cy="310" rx="4" ry="6"/>
		<ellipse class="st11" cx="113" cy="310" rx="2" ry="4"/>
	</g>
	<g>
		<ellipse class="st15" cx="106" cy="310" rx="4" ry="6"/>
		<ellipse class="st11" cx="106" cy="310" rx="2" ry="4"/>
	</g>
	<g>
		<ellipse class="st15" cx="109" cy="314" rx="4" ry="6"/>
		<ellipse class="st11" cx="109" cy="314" rx="2" ry="4"/>
	</g>
	<g>
		<ellipse class="st15" cx="113" cy="319" rx="4" ry="6"/>
		<ellipse class="st11" cx="113" cy="319" rx="2" ry="4"/>
	</g>
	<g>
		<ellipse class="st15" cx="110" cy="328" rx="4" ry="6"/>
		<ellipse class="st11" cx="110" cy="328" rx="2" ry="4"/>
	</g>
	<g>
		<ellipse class="st15" cx="119" cy="340" rx="4" ry="6"/>
		<ellipse class="st11" cx="119" cy="340" rx="2" ry="4"/>
	</g>
	<g>
		<ellipse class="st15" cx="106" cy="330" rx="4" ry="6"/>
		<ellipse class="st11" cx="106" cy="330" rx="2" ry="4"/>
	</g>
	<g>
		<ellipse class="st15" cx="101" cy="338" rx="4" ry="6"/>
		<ellipse class="st11" cx="101" cy="338" rx="2" ry="4"/>
	</g>
	<g>
		<ellipse class="st15" cx="112" cy="335" rx="4" ry="6"/>
		<ellipse class="st11" cx="112" cy="335" rx="2" ry="4"/>
	</g>
	<g>
		<ellipse class="st15" cx="121" cy="345" rx="4" ry="6"/>
		<ellipse class="st11" cx="121" cy="345" rx="2" ry="4"/>
	</g>
	<g>
		<ellipse class="st15" cx="116" cy="338" rx="4" ry="6"/>
		<ellipse class="st11" cx="116" cy="338" rx="2" ry="4"/>
	</g>
	<g>
		<ellipse class="st15" cx="106" cy="339" rx="4" ry="6"/>
		<ellipse class="st11" cx="106" cy="339" rx="2" ry="4"/>
	</g>
	<g>
		<ellipse class="st15" cx="101" cy="345" rx="4" ry="6"/>
		<ellipse class="st11" cx="101" cy="345" rx="2" ry="4"/>
	</g>
	<g>
		<ellipse class="st15" cx="108" cy="347" rx="4" ry="6"/>
		<ellipse class="st11" cx="108" cy="347" rx="2" ry="4"/>
	</g>
	<g>
		<ellipse class="st15" cx="115" cy="348" rx="4" ry="6"/>
		<ellipse class="st11" cx="115" cy="348" rx="2" ry="4"/>
	</g>
	<g>
		<ellipse class="st15" cx="118" cy="305" rx="4" ry="6"/>
		<ellipse class="st11" cx="118" cy="305" rx="2" ry="4"/>
	</g>
	<g>
		<ellipse class="st15" cx="88" cy="299" rx="4" ry="6"/>
		<ellipse class="st11" cx="88" cy="299" rx="2" ry="4"/>
	</g>
	<g>
		<ellipse class="st15" cx="132" cy="299" rx="4" ry="6"/>
		<ellipse class="st11" cx="132" cy="299" rx="2" ry="4"/>
	</g>
	<g>
		<ellipse class="st15" cx="88" cy="291" rx="4" ry="6"/>
		<ellipse class="st11" cx="88" cy="291" rx="2" ry="4"/>
	</g>
	<g>
		<ellipse class="st15" cx="132" cy="291" rx="4" ry="6"/>
		<ellipse class="st11" cx="132" cy="291" rx="2" ry="4"/>
	</g>
	<g>
		<ellipse class="st15" cx="89" cy="283" rx="4" ry="6"/>
		<ellipse class="st11" cx="89" cy="283" rx="2" ry="4"/>
	</g>
	<g>
		<ellipse class="st15" cx="131" cy="283" rx="4" ry="6"/>
		<ellipse class="st11" cx="131" cy="283" rx="2" ry="4"/>
	</g>
	<g>
		<ellipse class="st15" cx="91" cy="288" rx="4" ry="6"/>
		<ellipse class="st11" cx="91" cy="288" rx="2" ry="4"/>
	</g>
	<g>
		<ellipse class="st15" cx="128" cy="288" rx="4" ry="6"/>
		<ellipse class="st11" cx="128" cy="288" rx="2" ry="4"/>
	</g>
	<g>
		<ellipse class="st15" cx="93" cy="297" rx="4" ry="6"/>
		<ellipse class="st11" cx="93" cy="297" rx="2" ry="4"/>
	</g>
	<g>
		<ellipse class="st15" cx="127" cy="297" rx="4" ry="6"/>
		<ellipse class="st11" cx="127" cy="297" rx="2" ry="4"/>
	</g>
	<g>
		<ellipse class="st15" cx="99" cy="301" rx="4" ry="6"/>
		<ellipse class="st11" cx="99" cy="301" rx="2" ry="4"/>
	</g>
	<g>
		<ellipse class="st15" cx="121" cy="301" rx="4" ry="6"/>
		<ellipse class="st11" cx="121" cy="301" rx="2" ry="4"/>
	</g>
	<g>
		<ellipse class="st15" cx="104" cy="301" rx="4" ry="6"/>
		<ellipse class="st11" cx="104" cy="301" rx="2" ry="4"/>
	</g>
	<g>
		<ellipse class="st15" cx="108" cy="296" rx="4" ry="6"/>
		<ellipse class="st11" cx="108" cy="296" rx="2" ry="4"/>
	</g>
	<g>
		<ellipse class="st15" cx="112" cy="296" rx="4" ry="6"/>
		<ellipse class="st11" cx="112" cy="296" rx="2" ry="4"/>
	</g>
	<g>
		<ellipse class="st15" cx="104" cy="295" rx="4" ry="6"/>
		<ellipse class="st11" cx="104" cy="295" rx="2" ry="4"/>
	</g>
	<g>
		<ellipse class="st15" cx="116" cy="295" rx="4" ry="6"/>
		<ellipse class="st11" cx="116" cy="295" rx="2" ry="4"/>
	</g>
	<g>
		<ellipse class="st15" cx="97" cy="287" rx="4" ry="6"/>
		<ellipse class="st11" cx="97" cy="287" rx="2" ry="4"/>
	</g>
	<g>
		<ellipse class="st15" cx="123" cy="287" rx="4" ry="6"/>
		<ellipse class="st11" cx="123" cy="287" rx="2" ry="4"/>
	</g>
	<g>
		<ellipse class="st15" cx="103" cy="288" rx="4" ry="6"/>
		<ellipse class="st11" cx="103" cy="288" rx="2" ry="4"/>
	</g>
	<g>
		<ellipse class="st15" cx="117" cy="288" rx="4" ry="6"/>
		<ellipse class="st11" cx="117" cy="288" rx="2" ry="4"/>
	</g>
	<g>
		<ellipse class="st15" cx="107" cy="288" rx="4" ry="6"/>
		<ellipse class="st11" cx="107" cy="288" rx="2" ry="4"/>
	</g>
	<g>
		<ellipse class="st15" cx="113" cy="288" rx="4" ry="6"/>
		<ellipse class="st11" cx="113" cy="288" rx="2" ry="4"/>
	</g>
	<g>
		<ellipse class="st15" cx="104" cy="284" rx="4" ry="6"/>
		<ellipse class="st11" cx="104" cy="284" rx="2" ry="4"/>
	</g>
	<g>
		<ellipse class="st15" cx="116" cy="284" rx="4" ry="6"/>
		<ellipse class="st11" cx="116" cy="284" rx="2" ry="4"/>
	</g>
	<g>
		<ellipse class="st15" cx="99" cy="278" rx="4" ry="6"/>
		<ellipse class="st11" cx="99" cy="278" rx="2" ry="4"/>
	</g>
	<g>
		<ellipse class="st15" cx="121" cy="278" rx="4" ry="6"/>
		<ellipse class="st11" cx="121" cy="278" rx="2" ry="4"/>
	</g>
	<g>
		<ellipse class="st15" cx="94" cy="283" rx="4" ry="6"/>
		<ellipse class="st11" cx="94" cy="283" rx="2" ry="4"/>
	</g>
	<g>
		<ellipse class="st15" cx="125" cy="283" rx="4" ry="6"/>
		<ellipse class="st11" cx="125" cy="283" rx="2" ry="4"/>
	</g>
	<g>
		<ellipse class="st15" cx="93" cy="277" rx="4" ry="6"/>
		<ellipse class="st11" cx="93" cy="277" rx="2" ry="4"/>
	</g>
	<g>
		<ellipse class="st15" cx="127" cy="277" rx="4" ry="6"/>
		<ellipse class="st11" cx="127" cy="277" rx="2" ry="4"/>
	</g>
	<g>
		<ellipse class="st15" cx="132" cy="274" rx="4" ry="6"/>
		<ellipse class="st11" cx="132" cy="274" rx="2" ry="4"/>
	</g>
	<g>
		<ellipse class="st15" cx="87" cy="266" rx="4" ry="6"/>
		<ellipse class="st11" cx="87" cy="266" rx="2" ry="4"/>
	</g>
	<g>
		<ellipse class="st15" cx="133" cy="266" rx="4" ry="6"/>
		<ellipse class="st11" cx="133" cy="266" rx="2" ry="4"/>
	</g>
	<g>
		<ellipse class="st15" cx="91" cy="271" rx="4" ry="6"/>
		<ellipse class="st11" cx="91" cy="271" rx="2" ry="4"/>
	</g>
	<g>
		<ellipse class="st15" cx="129" cy="271" rx="4" ry="6"/>
		<ellipse class="st11" cx="129" cy="271" rx="2" ry="4"/>
	</g>
	<g>
		<ellipse class="st15" cx="98" cy="272" rx="4" ry="6"/>
		<ellipse class="st11" cx="98" cy="272" rx="2" ry="4"/>
	</g>
	<g>
		<ellipse class="st15" cx="122" cy="272" rx="4" ry="6"/>
		<ellipse class="st11" cx="122" cy="272" rx="2" ry="4"/>
	</g>
	<g>
		<ellipse class="st15" cx="104" cy="275" rx="4" ry="6"/>
		<ellipse class="st11" cx="104" cy="275" rx="2" ry="4"/>
	</g>
	<g>
		<ellipse class="st15" cx="115" cy="275" rx="4" ry="6"/>
		<ellipse class="st11" cx="115" cy="275" rx="2" ry="4"/>
	</g>
	<g>
		<ellipse class="st15" cx="108" cy="279" rx="4" ry="6"/>
		<ellipse class="st11" cx="108" cy="279" rx="2" ry="4"/>
	</g>
	<g>
		<ellipse class="st15" cx="108" cy="271" rx="4" ry="6"/>
		<ellipse class="st11" cx="108" cy="271" rx="2" ry="4"/>
	</g>
	<g>
		<ellipse class="st15" cx="112" cy="271" rx="4" ry="6"/>
		<ellipse class="st11" cx="112" cy="271" rx="2" ry="4"/>
	</g>
	<g>
		<ellipse class="st15" cx="110" cy="266" rx="4" ry="6"/>
		<ellipse class="st11" cx="110" cy="266" rx="2" ry="4"/>
	</g>
	<g>
		<ellipse class="st15" cx="110" cy="266" rx="4" ry="6"/>
		<ellipse class="st11" cx="110" cy="266" rx="2" ry="4"/>
	</g>
	<g>
		<ellipse class="st15" cx="105" cy="268" rx="4" ry="6"/>
		<ellipse class="st11" cx="105" cy="268" rx="2" ry="4"/>
	</g>
	<g>
		<ellipse class="st15" cx="115" cy="268" rx="4" ry="6"/>
		<ellipse class="st11" cx="115" cy="268" rx="2" ry="4"/>
	</g>
	<g>
		<ellipse class="st15" cx="100" cy="266" rx="4" ry="6"/>
		<ellipse class="st11" cx="100" cy="266" rx="2" ry="4"/>
	</g>
	<g>
		<ellipse class="st15" cx="119" cy="266" rx="4" ry="6"/>
		<ellipse class="st11" cx="119" cy="266" rx="2" ry="4"/>
	</g>
	<g>
		<ellipse class="st15" cx="89" cy="262" rx="4" ry="6"/>
		<ellipse class="st11" cx="89" cy="262" rx="2" ry="4"/>
	</g>
	<g>
		<ellipse class="st15" cx="130" cy="262" rx="4" ry="6"/>
		<ellipse class="st11" cx="130" cy="262" rx="2" ry="4"/>
	</g>
	<g>
		<ellipse class="st15" cx="86" cy="258" rx="4" ry="6"/>
		<ellipse class="st11" cx="86" cy="258" rx="2" ry="4"/>
	</g>
	<g>
		<ellipse class="st15" cx="133" cy="258" rx="4" ry="6"/>
		<ellipse class="st11" cx="133" cy="258" rx="2" ry="4"/>
	</g>
	<g>
		<ellipse class="st15" cx="86" cy="252" rx="4" ry="6"/>
		<ellipse class="st11" cx="86" cy="252" rx="2" ry="4"/>
	</g>
	<g>
		<ellipse class="st15" cx="84" cy="247" rx="4" ry="6"/>
		<ellipse class="st11" cx="84" cy="247" rx="2" ry="4"/>
	</g>
	<g>
		<ellipse class="st15" cx="136" cy="247" rx="4" ry="6"/>
		<ellipse class="st11" cx="136" cy="247" rx="2" ry="4"/>
	</g>
	<g>
		<ellipse class="st15" cx="90" cy="247" rx="4" ry="6"/>
		<ellipse class="st11" cx="90" cy="247" rx="2" ry="4"/>
	</g>
	<g>
		<ellipse class="st15" cx="92" cy="256" rx="4" ry="6"/>
		<ellipse class="st11" cx="92" cy="256" rx="2" ry="4"/>
	</g>
	<g>
		<ellipse class="st15" cx="128" cy="256" rx="4" ry="6"/>
		<ellipse class="st11" cx="128" cy="256" rx="2" ry="4"/>
	</g>
	<g>
		<ellipse class="st15" cx="97" cy="258" rx="4" ry="6"/>
		<ellipse class="st11" cx="97" cy="258" rx="2" ry="4"/>
	</g>
	<g>
		<ellipse class="st15" cx="123" cy="258" rx="4" ry="6"/>
		<ellipse class="st11" cx="123" cy="258" rx="2" ry="4"/>
	</g>
	<g>
		<ellipse class="st15" cx="96" cy="251" rx="4" ry="6"/>
		<ellipse class="st11" cx="96" cy="251" rx="2" ry="4"/>
	</g>
	<g>
		<ellipse class="st15" cx="124" cy="251" rx="4" ry="6"/>
		<ellipse class="st11" cx="124" cy="251" rx="2" ry="4"/>
	</g>
	<g>
		<ellipse class="st15" cx="125" cy="247" rx="4" ry="6"/>
		<ellipse class="st11" cx="125" cy="247" rx="2" ry="4"/>
	</g>
	<g>
		<ellipse class="st15" cx="99" cy="247" rx="4" ry="6"/>
		<ellipse class="st11" cx="99" cy="247" rx="2" ry="4"/>
	</g>
	<g>
		<ellipse class="st15" cx="121" cy="247" rx="4" ry="6"/>
		<ellipse class="st11" cx="121" cy="247" rx="2" ry="4"/>
	</g>
	<g>
		<ellipse class="st15" cx="102" cy="256" rx="4" ry="6"/>
		<ellipse class="st11" cx="102" cy="256" rx="2" ry="4"/>
	</g>
	<g>
		<ellipse class="st15" cx="118" cy="256" rx="4" ry="6"/>
		<ellipse class="st11" cx="118" cy="256" rx="2" ry="4"/>
	</g>
	<g>
		<ellipse class="st15" cx="107" cy="260" rx="4" ry="6"/>
		<ellipse class="st11" cx="107" cy="260" rx="2" ry="4"/>
	</g>
	<g>
		<ellipse class="st15" cx="113" cy="260" rx="4" ry="6"/>
		<ellipse class="st11" cx="113" cy="260" rx="2" ry="4"/>
	</g>
	<g>
		<ellipse class="st15" cx="106" cy="252" rx="4" ry="6"/>
		<ellipse class="st11" cx="106" cy="252" rx="2" ry="4"/>
	</g>
	<g>
		<ellipse class="st15" cx="114" cy="252" rx="4" ry="6"/>
		<ellipse class="st11" cx="114" cy="252" rx="2" ry="4"/>
	</g>
	<g>
		<ellipse class="st15" cx="105" cy="247" rx="4" ry="6"/>
		<ellipse class="st11" cx="105" cy="247" rx="2" ry="4"/>
	</g>
	<g>
		<ellipse class="st15" cx="115" cy="247" rx="4" ry="6"/>
		<ellipse class="st11" cx="115" cy="247" rx="2" ry="4"/>
	</g>
	
		<linearGradient id="SVGID_20_" gradientUnits="userSpaceOnUse" x1="82.8735" y1="199" x2="136.8735" y2="199" gradientTransform="matrix(1 0 0 -1 0 382)">
		<stop  offset="0" style="stop-color:#6D6E72"/>
		<stop  offset="1.176470e-02" style="stop-color:#949599"/>
		<stop  offset="0.502" style="stop-color:#CFCFD1"/>
		<stop  offset="0.9882" style="stop-color:#949599"/>
		<stop  offset="1" style="stop-color:#6D6E72"/>
	</linearGradient>
	<polygon class="st25" points="111,239 111,239 110,239 109,239 109,239 85,238 83,131 83,127 101,141 110,158 119,141 137,127 
		137,131 135,238 	"/>
	<polygon class="st0" points="141,110 140,131 136,150 126,166 108,166 108,166 94,166 84,150 79,131 79,110 114,110 114,110 	"/>
	
		<linearGradient id="SVGID_21_" gradientUnits="userSpaceOnUse" x1="80.8739" y1="244" x2="138.8739" y2="244" gradientTransform="matrix(1 0 0 -1 0 382)">
		<stop  offset="0" style="stop-color:#6B6B6B"/>
		<stop  offset="1.176470e-02" style="stop-color:#7C7C7C"/>
		<stop  offset="0.502" style="stop-color:#B0AEAE"/>
		<stop  offset="0.9882" style="stop-color:#7C7C7D"/>
		<stop  offset="1" style="stop-color:#6B6B6B"/>
	</linearGradient>
	<polygon class="st26" points="139,112 138,132 135,149 125,164 108,164 108,164 95,164 85,149 81,132 81,112 114,112 114,112 	"/>
</g>
</svg>
