<svg t="1724827195795" class="icon" viewBox="0 0 1024 1024" version="1.1" xmlns="http://www.w3.org/2000/svg" p-id="12585" width="16" height="16"><path d="M455.72608 114.53952c-10.165248 0-19.579904 4.107264-27.556864 10.90048-1.1264 0.9472-2.147328 2.049024-3.209216 3.094528L285.160448 265.068544 122.472448 423.82848l-3.854336 3.7888c-12.076032 12.4928-19.987456 31.859712-19.987456 53.87264 0.04096 22.053888 7.944192 41.469952 20.08576 53.95456l3.756032 3.641344 162.719744 158.866432L419.228672 828.83584l12.45184 12.166144c7.1936 5.151744 15.285248 8.385536 24.045568 8.385536 28.275712 0 51.15392-30.585856 51.15392-68.35712V182.89664c0-37.730304-22.878208-68.35712-51.15392-68.35712z" fill="#2c2c2c" p-id="12586"></path><path d="M863.975424 114.53952c-10.165248 0-19.579904 4.107264-27.556864 10.90048-1.1264 0.9472-2.147328 2.049024-3.209216 3.094528L693.408768 265.068544 530.721792 423.82848l-3.854336 3.7888c-12.076032 12.4928-19.987456 31.859712-19.987456 53.87264 0.04096 22.053888 7.944192 41.469952 20.08576 53.95456l3.756032 3.641344 162.719744 158.866432L827.478016 828.83584l12.45184 12.166144c7.1936 5.151744 15.285248 8.385536 24.045568 8.385536 28.275712 0 51.15392-30.585856 51.15392-68.35712V182.89664c0-37.730304-22.878208-68.35712-51.15392-68.35712z" fill="#2c2c2c" p-id="12587"></path></svg>