<?xml version="1.0"?>
<svg x="-50%" y="0%" width="100%" height="100%" viewBox="-95 0 190 400" xmlns="http://www.w3.org/2000/svg" version="1.1" preserveAspectRatio="none">
  <desc>Anchor Catcher</desc>
<!-- Copyright (c) 2006 Interactive Network Technologies, Inc. -->

    <defs>
      <linearGradient x1="0%" x2="50%" id="Gradient" spreadMethod="reflect" gradientUnits="objectBoundingBox">
        <stop offset="25%" stop-color="rgb(201, 4, 4)"/>
        <stop offset="95%" stop-color="rgb(247, 100, 100)"/>
      </linearGradient>
      <linearGradient x1="0%" x2="50%" id="DarkGradient" spreadMethod="reflect" gradientUnits="objectBoundingBox">
        <stop offset="25%" stop-color="rgb(155, 10, 10)"/>
        <stop offset="95%" stop-color="rgb(147, 50, 50)"/>
      </linearGradient>
    </defs>


  <rect x="-70" y="0" width="140" height="50" fill="url(#Gradient)" stroke="black" stroke-width="1" />
  <rect x="-85" y="50" width="170" height="150" fill="url(#Gradient)" stroke-width="1" stroke="black"/>
  <rect x="-70" y="200" width="140" height="20" fill="url(#Gradient)" stroke-width="1" stroke="black"/>
  <rect x="-75" y="220" width="150" height="5" fill="url(#DarkGradient)" stroke-width="1" stroke="black"/>
  <rect x="-85" y="225" width="170" height="20" fill="url(#Gradient)" stroke-width="1" stroke="black"/>

  <polygon fill="rgb(200, 200, 200)" stroke="black" stroke-width="1"
      points="-75, 245, -80, 245, -95, 255, -95, 265, -90, 270, -95, 275, -100, 285,
              -90, 290, -95, 295, -95, 305, -80, 310, -75, 310" />
  <polygon fill="rgb(200, 200, 200)" stroke="black" stroke-width="1"
      points="75, 245, 80, 245, 95, 255, 95, 265, 90, 270, 95, 275, 95, 285,
              90, 290, 95, 295, 95, 305, 80, 310, 75, 310" />
  <polygon fill="url(#Gradient)" stroke="black" stroke-width="1"
      points="-75, 245, 75, 245, 80, 255, 80, 300, 75, 310, -75, 310, -80, 300, -80, 255" />

  <rect x="-85" y="310" width="170" height="25" fill="url(#Gradient)" stroke-width="1" stroke="black"/>
  <rect x="-70" y="335" width="140" height="30" fill="url(#Gradient)" stroke-width="1" stroke="black"/>
  <polygon fill="url(#Gradient)" stroke="black" stroke-width="1"
      points="-55, 365, 55, 365, 50, 400, -50, 400" />

  <polygon fill="rgb(200, 200, 200)" stroke="black" stroke-width="1"
      points="-90, 80, -87, 85, -90, 90, -87, 95, -90, 100, -87, 105, -90, 110,-82, 110, -82, 80" />
  <polygon fill="rgb(200, 200, 200)" stroke="black" stroke-width="1"
      points="-90, 140, -87, 145, -90, 150, -87, 155, -90, 160, -87, 165, -90, 170,-82, 170, -82, 140" />
  <polygon fill="rgb(200, 200, 200)" stroke="black" stroke-width="1"
      points="90, 80, 87, 85, 90, 90, 87, 95, 90, 100, 87, 105, 90, 110,82, 110, 82, 80" />
  <polygon fill="rgb(200, 200, 200)" stroke="black" stroke-width="1"
      points="90, 140, 87, 145, 90, 150, 87, 155, 90, 160, 87, 165, 90, 170,82, 170, 82, 140" />

  <rect x="-50" y="80" width="30" height="30" fill="rgb(200, 200, 200)" stroke="black" stroke-width="1" />
  <line x1="-53" y1="80" x2="-17" y2="80" stroke="black" stroke-width="1" />
  <line x1="-53" y1="90" x2="-17" y2="90" stroke="black" stroke-width="1" />
  <line x1="-53" y1="95" x2="-17" y2="95" stroke="black" stroke-width="1" />
  <line x1="-53" y1="100" x2="-17" y2="100" stroke="black" stroke-width="1" />
  <line x1="-53" y1="110" x2="-17" y2="110" stroke="black" stroke-width="1" />

  <rect x="-50" y="140" width="30" height="30" fill="rgb(200, 200, 200)" stroke="black" stroke-width="1" />
  <line x1="-53" y1="140" x2="-17" y2="140" stroke="black" stroke-width="1" />
  <line x1="-53" y1="150" x2="-17" y2="150" stroke="black" stroke-width="1" />
  <line x1="-53" y1="155" x2="-17" y2="155" stroke="black" stroke-width="1" />
  <line x1="-53" y1="160" x2="-17" y2="160" stroke="black" stroke-width="1" />
  <line x1="-53" y1="170" x2="-17" y2="170" stroke="black" stroke-width="1" />

  <rect x="20" y="80" width="30" height="30" fill="rgb(200, 200, 200)" stroke="black" stroke-width="1" />
  <line x1="53" y1="80" x2="17" y2="80" stroke="black" stroke-width="1" />
  <line x1="53" y1="90" x2="17" y2="90" stroke="black" stroke-width="1" />
  <line x1="53" y1="95" x2="17" y2="95" stroke="black" stroke-width="1" />
  <line x1="53" y1="100" x2="17" y2="100" stroke="black" stroke-width="1" />
  <line x1="53" y1="110" x2="17" y2="110" stroke="black" stroke-width="1" />

  <rect x="20" y="140" width="30" height="30" fill="rgb(200, 200, 200)" stroke="black" stroke-width="1" />
  <line x1="53" y1="140" x2="17" y2="140" stroke="black" stroke-width="1" />
  <line x1="53" y1="150" x2="17" y2="150" stroke="black" stroke-width="1" />
  <line x1="53" y1="155" x2="17" y2="155" stroke="black" stroke-width="1" />
  <line x1="53" y1="160" x2="17" y2="160" stroke="black" stroke-width="1" />
  <line x1="53" y1="170" x2="17" y2="170" stroke="black" stroke-width="1" />


  <polygon fill="rgb(200, 200, 200)" stroke="black" stroke-width="1"
      points="-30, 245, 30, 245, 35, 255, -35, 255" />

  <rect x="-35" y="255" width="70" height="9" fill="white" stroke="black" stroke-width="1" />
  <rect x="-35" y="264" width="70" height="9" fill="black" stroke="black" stroke-width="0" />
  <rect x="-35" y="273" width="70" height="9" fill="white" stroke="black" stroke-width="1" />
  <rect x="-35" y="282" width="70" height="9" fill="black" stroke="black" stroke-width="0" />
  <rect x="-35" y="291" width="70" height="9" fill="white" stroke="black" stroke-width="1" />

  <polygon fill="rgb(200, 200, 200)" stroke="black" stroke-width="1"
      points="-35, 300, 35, 300, 30, 310, -30, 310" />


  
</svg>