<?xml version="1.0"?>
<svg x="-50%" y="0%" width="100%" height="100%" viewBox="-100 0 200 215" xmlns="http://www.w3.org/2000/svg" version="1.1" preserveAspectRatio="none">
  <desc>Bridge Plug</desc>
<!-- Copyright (c) 2006 Interactive Network Technologies, Inc. -->

    <defs>
      <linearGradient x1="0%" x2="50%" id="Gradient" spreadMethod="reflect" gradientUnits="objectBoundingBox">
        <stop offset="5%" stop-color="rgb(51, 153, 153)"/>
        <stop offset="95%" stop-color="rgb(204, 255, 255)"/>
      </linearGradient>
      <linearGradient x1="0%" x2="50%" id="GreyGradient" spreadMethod="reflect" gradientUnits="objectBoundingBox">
        <stop offset="5%" stop-color="rgb(60, 60, 60)"/>
        <stop offset="95%" stop-color="rgb(200, 200, 200)"/>
      </linearGradient>
      <linearGradient x1="0%" x2="50%" id="SilverGradient" spreadMethod="reflect" gradientUnits="objectBoundingBox">
        <stop offset="5%" stop-color="rgb(150, 150, 150)"/>
        <stop offset="65%" stop-color="rgb(250, 250, 250)"/>
      </linearGradient>
    </defs>


  <rect x="-90" y="0" width="180" height="55" fill="url(#Gradient)" stroke-width="1" stroke="black"/>
  <rect x="-95" y="55" width="190" height="8" fill="url(#Gradient)" stroke-width="1" stroke="black"/>
  <rect x="-100" y="63" width="200" height="4" fill="url(#GreyGradient)" stroke-width="1" stroke="black"/>
  <rect x="-100" y="67" width="200" height="4" fill="url(#GreyGradient)" stroke-width="1" stroke="black"/>
  <rect x="-100" y="71" width="200" height="4" fill="url(#GreyGradient)" stroke-width="1" stroke="black"/>
  <rect x="-95" y="75" width="190" height="4" fill="url(#GreyGradient)" stroke-width="1" stroke="black"/>
  <rect x="-85" y="79" width="170" height="6" fill="url(#SilverGradient)" stroke-width="1" stroke="black"/>
  <rect x="-90" y="85" width="180" height="4" fill="url(#SilverGradient)" stroke-width="1" stroke="black"/>
  <rect x="-95" y="89" width="190" height="12" fill="url(#Gradient)" stroke-width="1" stroke="black"/>
  <rect x="-100" y="101" width="200" height="20" fill="url(#SilverGradient)" stroke-width="1" stroke="black"/>
  <rect x="-95" y="121" width="190" height="12" fill="url(#Gradient)" stroke-width="1" stroke="black"/>
  <rect x="-90" y="133" width="180" height="4" fill="url(#SilverGradient)" stroke-width="1" stroke="black"/>
  <rect x="-85" y="137" width="170" height="6" fill="url(#SilverGradient)" stroke-width="1" stroke="black"/>
  <rect x="-95" y="143" width="190" height="4" fill="url(#GreyGradient)" stroke-width="1" stroke="black"/>
  <rect x="-100" y="147" width="200" height="4" fill="url(#GreyGradient)" stroke-width="1" stroke="black"/>
  <rect x="-100" y="151" width="200" height="4" fill="url(#GreyGradient)" stroke-width="1" stroke="black"/>
  <rect x="-100" y="155" width="200" height="4" fill="url(#GreyGradient)" stroke-width="1" stroke="black"/>
  <rect x="-95" y="159" width="190" height="14" fill="url(#Gradient)" stroke-width="1" stroke="black"/>
  <rect x="-95" y="173" width="190" height="16" fill="url(#Gradient)" stroke-width="1" stroke="black"/>
  <rect x="-90" y="189" width="180" height="20" fill="url(#Gradient)" stroke-width="1" stroke="black"/>
  <rect x="-90" y="209" width="180" height="6" fill="url(#Gradient)" stroke-width="1" stroke="black"/>


  
</svg>