<?xml version="1.0" encoding="utf-8"?>
<!-- Generator: Adobe Illustrator 13.0.2, SVG Export Plug-In . SVG Version: 6.00 Build 14948)  -->
<!DOCTYPE svg PUBLIC "-//W3C//DTD SVG 1.1//EN" "http://www.w3.org/Graphics/SVG/1.1/DTD/svg11.dtd">
<svg version="1.1" xmlns="http://www.w3.org/2000/svg" xmlns:xlink="http://www.w3.org/1999/xlink"
	x="-50%" y ="0%" width="100%" height="100%" viewBox="0 0 95.835 421.06" enable-background="new 0 0 95.835 421.06" preserveAspectRatio="none">
<g id="Layer_2">
</g>
<g id="drawing">
	<g>
		<g>
			<polygon fill="none" stroke="#114D75" stroke-width="2" stroke-linecap="round" stroke-linejoin="round" points="1,1 1,107.533 
				2.078,109.111 2.078,288.978 1.023,289.328 1,332.301 6.925,338.57 6.925,379.227 37.565,420.06 58.507,420.06 88.913,379.227 
				88.913,338.57 94.835,332.301 94.812,289.453 93.757,288.978 93.757,109.111 94.835,107.533 94.835,1 			"/>
			<linearGradient id="SVGID_1_" gradientUnits="userSpaceOnUse" x1="6.9248" y1="399.6436" x2="88.9131" y2="399.6436">
				<stop  offset="0.05" style="stop-color:#34597F"/>
				<stop  offset="0.5" style="stop-color:#AAB2C6"/>
				<stop  offset="0.9451" style="stop-color:#34597F"/>
			</linearGradient>
			<polygon fill="url(#SVGID_1_)" points="88.913,379.227 6.925,379.227 37.565,420.06 58.507,420.06 			"/>
			<linearGradient id="SVGID_2_" gradientUnits="userSpaceOnUse" x1="6.9248" y1="358.8984" x2="88.9131" y2="358.8984">
				<stop  offset="0.05" style="stop-color:#5D7091"/>
				<stop  offset="0.5" style="stop-color:#FFFFFF"/>
				<stop  offset="0.9451" style="stop-color:#5D7091"/>
			</linearGradient>
			<rect x="6.925" y="338.57" fill="url(#SVGID_2_)" width="81.988" height="40.656"/>
			<linearGradient id="SVGID_3_" gradientUnits="userSpaceOnUse" x1="1" y1="335.4355" x2="94.835" y2="335.4355">
				<stop  offset="0.05" style="stop-color:#34597F"/>
				<stop  offset="0.5" style="stop-color:#AAB2C6"/>
				<stop  offset="0.9451" style="stop-color:#34597F"/>
			</linearGradient>
			<polygon fill="url(#SVGID_3_)" points="94.835,332.301 1,332.301 6.925,338.57 88.913,338.57 			"/>
			<linearGradient id="SVGID_4_" gradientUnits="userSpaceOnUse" x1="1" y1="166.6504" x2="94.835" y2="166.6504">
				<stop  offset="0.05" style="stop-color:#5D7091"/>
				<stop  offset="0.5" style="stop-color:#FFFFFF"/>
				<stop  offset="0.9451" style="stop-color:#5D7091"/>
			</linearGradient>
			<polygon fill="url(#SVGID_4_)" points="94.835,332.301 94.812,289.453 93.757,288.978 93.757,109.112 94.835,107.533 94.835,1 
				1,1 1,107.533 2.078,109.112 2.078,288.978 1.023,289.328 1,332.301 			"/>
			<g>
				<path fill="#003E5F" d="M2.078,288.978l10.289-3.78c4.298-1.881,6.181-4.299,6.181-8.777v-93.846l-0.767-12.179v-61.284
					c0-1.28-1.038-2.322-2.321-2.322h-1.675c-1.281,0-2.32,1.042-2.32,2.322v1.68c0,1.28-1.039,2.32-2.322,2.32H7.908
					c-1.281,0-2.32-1.04-2.32-2.32l-0.009-1.68c0-1.28-0.575-2.322-1.286-2.322H3.365c-0.709,0-1.287,1.042-1.287,2.322V288.978z"/>
			</g>
			<g>
				<path fill="#003E5F" d="M93.757,288.978l-5.539-3.78c-2.321-1.881-3.338-4.299-3.338-8.777v-93.846l0.412-12.179v-61.284
					c0-1.28,0.561-2.322,1.256-2.322h0.901c0.693,0,1.255,1.042,1.255,2.322v1.68c0,1.28,0.561,2.32,1.256,2.32h0.667
					c0.69,0,1.251-1.04,1.251-2.32l0.004-1.68c0-1.28,0.311-2.322,0.697-2.322h0.499c0.385,0,0.679,1.042,0.679,2.322V288.978z"/>
			</g>
		</g>
		<g>
			<defs>
				<path id="SVGID_5_" d="M2.078,288.978l10.289-3.78c4.298-1.881,6.181-4.299,6.181-8.777v-93.846l-0.767-12.179v-61.284
					c0-1.28-1.038-2.322-2.321-2.322h-1.675c-1.281,0-2.32,1.042-2.32,2.322v1.68c0,1.28-1.039,2.32-2.322,2.32H7.908
					c-1.281,0-2.32-1.04-2.32-2.32l-0.009-1.68c0-1.28-0.575-2.322-1.286-2.322H3.365c-0.709,0-1.287,1.042-1.287,2.322V288.978z"/>
			</defs>
			<clipPath id="SVGID_6_">
				<use xlink:href="#SVGID_5_"  overflow="visible"/>
			</clipPath>
			<g clip-path="url(#SVGID_6_)">
				<polygon fill="none" stroke="#1A1A1A" stroke-width="2" stroke-linecap="round" stroke-linejoin="round" points="
					19.036,116.375 8.812,153.934 8.765,266.029 4.208,276.319 35.146,280.914 40.689,280.388 45.245,270.1 45.286,171.262 
					20.565,130.365 				"/>
				<polygon fill="#171717" points="4.208,276.319 9.753,275.793 40.689,280.388 35.146,280.914 				"/>
				<polygon fill="#666666" points="14.356,153.408 14.31,265.503 9.753,275.793 40.689,280.388 45.245,270.1 45.286,171.262 
					20.565,130.365 				"/>
				<polygon fill="#363636" points="8.812,153.934 8.765,266.029 4.208,276.319 9.753,275.793 14.31,265.503 14.356,153.408 
					20.565,130.365 19.036,116.375 				"/>
			</g>
		</g>
		<g>
			<defs>
				<path id="SVGID_7_" d="M93.757,288.978l-5.539-3.78c-2.321-1.881-3.338-4.299-3.338-8.777v-93.846l0.412-12.179v-61.284
					c0-1.28,0.561-2.322,1.256-2.322h0.901c0.693,0,1.255,1.042,1.255,2.322v1.68c0,1.28,0.561,2.32,1.256,2.32h0.667
					c0.69,0,1.251-1.04,1.251-2.32l0.004-1.68c0-1.28,0.311-2.322,0.697-2.322h0.499c0.385,0,0.679,1.042,0.679,2.322V288.978z"/>
			</defs>
			<clipPath id="SVGID_8_">
				<use xlink:href="#SVGID_7_"  overflow="visible"/>
			</clipPath>
			<g clip-path="url(#SVGID_8_)">
				<polygon fill="none" stroke="#1A1A1A" stroke-width="2" stroke-linecap="round" stroke-linejoin="round" points="88.454,262.28 
					88.438,150.562 83.589,132.011 81.384,134.871 54.303,169.996 54.317,262.721 60.686,278.082 63.78,278.721 94.825,277.642 				
					"/>
				<g>
					<polygon fill="#171717" points="94.825,277.642 91.727,277.002 60.686,278.082 63.78,278.721 					"/>
					<g>
						<polygon fill="#666666" points="85.36,261.64 85.343,149.921 81.384,134.871 54.303,169.996 54.317,262.721 60.686,278.082 
							91.727,277.002 						"/>
					</g>
					<g>
						<polygon fill="#969696" points="88.454,262.28 88.438,150.562 83.589,132.011 81.384,134.871 85.343,149.921 85.36,261.64 
							91.727,277.002 94.825,277.642 						"/>
					</g>
				</g>
			</g>
		</g>
		<g>
			<path fill="none" stroke="#114D75" stroke-linecap="round" stroke-linejoin="round" d="M2.078,288.978l10.289-3.78
				c4.298-1.881,6.181-4.299,6.181-8.777v-93.846l-0.767-12.179v-61.284c0-1.28-1.038-2.322-2.321-2.322h-1.675
				c-1.281,0-2.32,1.042-2.32,2.322v1.68c0,1.28-1.039,2.32-2.322,2.32H7.908c-1.281,0-2.32-1.04-2.32-2.32l-0.009-1.68
				c0-1.28-0.575-2.322-1.286-2.322H3.365c-0.709,0-1.287,1.042-1.287,2.322V288.978z"/>
		</g>
		<g>
			<path fill="none" stroke="#114D75" stroke-linecap="round" stroke-linejoin="round" d="M93.757,288.978l-5.539-3.78
				c-2.321-1.881-3.338-4.299-3.338-8.777v-93.846l0.412-12.179v-61.284c0-1.28,0.561-2.322,1.256-2.322h0.901
				c0.693,0,1.255,1.042,1.255,2.322v1.68c0,1.28,0.561,2.32,1.256,2.32h0.667c0.69,0,1.251-1.04,1.251-2.32l0.004-1.68
				c0-1.28,0.311-2.322,0.697-2.322h0.499c0.385,0,0.679,1.042,0.679,2.322V288.978z"/>
		</g>
		<g>
			<polyline fill="none" stroke="#1A1A1A" stroke-width="2" stroke-linecap="round" stroke-linejoin="round" points="
				87.816,277.885 94.825,277.642 91.812,270.377 			"/>
			<polygon fill="#171717" points="91.727,277.002 86.192,277.194 86.192,277.941 94.825,277.642 			"/>
			<polygon fill="#666666" points="86.192,268.625 86.192,277.194 91.727,277.002 88.255,268.625 			"/>
			<polygon fill="#969696" points="91.727,277.002 94.825,277.642 91.086,268.625 88.255,268.625 			"/>
		</g>
	</g>
</g>
</svg>
