<?xml version="1.0"?>
<svg x="-50%" y="0%" width="100%" height="100%" viewBox="-100 0 200 200" xmlns="http://www.w3.org/2000/svg" version="1.1" preserveAspectRatio="none">
  <desc>External Packer</desc>
<!-- Copyright (c) 2006 Interactive Network Technologies, Inc. -->

    <defs>
      <linearGradient x1="0%" x2="50%" id="Gradient" spreadMethod="reflect" gradientUnits="objectBoundingBox">
        <stop offset="5%" stop-color="rgb(201, 4, 4)"/>
        <stop offset="95%" stop-color="rgb(247, 100, 100)"/>
      </linearGradient>
      <linearGradient x1="0%" x2="50%" id="DarkGradient" spreadMethod="reflect" gradientUnits="objectBoundingBox">
        <stop offset="25%" stop-color="rgb(0, 0, 0)"/>
        <stop offset="95%" stop-color="rgb(100, 100, 100)"/>
      </linearGradient>
    </defs>

  <rect x="-100" y="0" width="200" height="50" fill="url(#Gradient)" stroke-width="2" stroke="black"/>
  <rect x="-100" y="50" width="200" height="10" fill="black" stroke-width="2" stroke="black"/>
  <polygon fill="url(#DarkGradient)" stroke="black" stroke-width="2"
      points="-95, 60, 95, 60, 100, 65, 100, 75, 95, 80, -95, 80, -100, 75, -100, 65" />
  <polygon fill="url(#DarkGradient)" stroke="black" stroke-width="2"
      points="-95, 80, 95, 80, 100, 85, 100, 95, 95, 100, -95, 100, -100, 95, -100, 85" />
  <polygon fill="url(#DarkGradient)" stroke="black" stroke-width="2"
      points="-95, 100, 95, 100, 100, 105, 100, 115, 95, 120, -95, 120, -100, 115, -100, 105" />
  <polygon fill="url(#DarkGradient)" stroke="black" stroke-width="2"
      points="-95, 120, 95, 120, 100, 125, 100, 135, 95, 140, -95, 140, -100, 135, -100, 125" />

  <rect x="-100" y="140" width="200" height="8" fill="black" stroke-width="2" stroke="black"/>
  <rect x="-100" y="148" width="200" height="5" fill="url(#Gradient)" stroke-width="2" stroke="black"/>
  <rect x="-98" y="153" width="196" height="47" fill="url(#Gradient)" stroke-width="2" stroke="black"/>

</svg>