<?xml version="1.0" encoding="utf-8"?>
<!-- Generator: Adobe Illustrator 13.0.2, SVG Export Plug-In . SVG Version: 6.00 Build 14948)  -->
<!DOCTYPE svg PUBLIC "-//W3C//DTD SVG 1.1//EN" "http://www.w3.org/Graphics/SVG/1.1/DTD/svg11.dtd">
<svg version="1.1" id="drawing" xmlns="http://www.w3.org/2000/svg" xmlns:xlink="http://www.w3.org/1999/xlink" x="0px" y="0px"
	 width="117.681px" height="421.658px" viewBox="0 0 117.681 421.658" enable-background="new 0 0 117.681 421.658"
	 xml:space="preserve">
<g>
	<polygon fill="none" stroke="#0E4461" stroke-width="2" stroke-linecap="round" stroke-linejoin="round" points="116.681,254.136 
		99.638,230.909 99.638,108.939 113.475,66.681 113.456,66.66 113.475,66.669 113.475,5.188 113.473,5.188 109.136,1.001 8.53,1 
		4.192,5.188 4.192,66.669 18.11,108.939 18.11,230.909 18.123,230.909 18.11,230.92 1,254.145 1,415.409 14.918,420.658 
		102.844,420.658 116.681,415.421 116.657,415.409 116.681,415.409 116.681,254.145 116.665,254.145 	"/>
	<linearGradient id="SVGID_1_" gradientUnits="userSpaceOnUse" x1="-1.4424" y1="334.7744" x2="119.1142" y2="334.7744">
		<stop  offset="0.05" style="stop-color:#5D7091"/>
		<stop  offset="0.5" style="stop-color:#FFFFFF"/>
		<stop  offset="0.9451" style="stop-color:#5D7091"/>
	</linearGradient>
	<rect x="1" y="254.143" fill="url(#SVGID_1_)" width="115.681" height="161.265"/>
	
		<linearGradient id="SVGID_2_" gradientUnits="userSpaceOnUse" x1="-515.79" y1="452.2295" x2="-406.5083" y2="452.2295" gradientTransform="matrix(-1 -2.000000e-04 2.000000e-04 -1 -402.4059 455.2306)">
		<stop  offset="0.05" style="stop-color:#9299B1"/>
		<stop  offset="0.5" style="stop-color:#FFFFFF"/>
		<stop  offset="0.9451" style="stop-color:#9299B1"/>
	</linearGradient>
	<polygon fill="url(#SVGID_2_)" points="4.192,5.186 8.53,0.998 109.136,0.999 113.475,5.188 	"/>
	
		<linearGradient id="SVGID_3_" gradientUnits="userSpaceOnUse" x1="-519.0459" y1="212.7959" x2="-403.3657" y2="212.7959" gradientTransform="matrix(-1 -2.000000e-04 2.000000e-04 -1 -402.4059 455.2306)">
		<stop  offset="0.05" style="stop-color:#9299B1"/>
		<stop  offset="0.5" style="stop-color:#FFFFFF"/>
		<stop  offset="0.9451" style="stop-color:#9299B1"/>
	</linearGradient>
	<polygon fill="url(#SVGID_3_)" points="1,254.143 18.11,230.918 99.638,230.907 116.681,254.134 	"/>
	
		<linearGradient id="SVGID_4_" gradientUnits="userSpaceOnUse" x1="-518.1104" y1="367.5166" x2="-404.2219" y2="367.5166" gradientTransform="matrix(-1 -2.000000e-04 2.000000e-04 -1 -402.4059 455.2306)">
		<stop  offset="0.05" style="stop-color:#405F83"/>
		<stop  offset="0.5" style="stop-color:#C3CBE5"/>
		<stop  offset="0.9451" style="stop-color:#405F83"/>
	</linearGradient>
	<polygon fill="url(#SVGID_4_)" points="4.192,66.667 18.11,108.938 99.638,108.938 113.475,66.679 	"/>
	
		<linearGradient id="SVGID_5_" gradientUnits="userSpaceOnUse" x1="-521.5205" y1="37.2861" x2="-400.9644" y2="37.2861" gradientTransform="matrix(-1 -2.000000e-04 2.000000e-04 -1 -402.4059 455.2306)">
		<stop  offset="0.05" style="stop-color:#405F83"/>
		<stop  offset="0.5" style="stop-color:#C3CBE5"/>
		<stop  offset="0.9451" style="stop-color:#405F83"/>
	</linearGradient>
	<polygon fill="url(#SVGID_5_)" points="1,415.407 14.918,420.656 102.844,420.656 116.681,415.419 	"/>
	<path fill="#D9DAE2" stroke="#0E4461" stroke-width="0.8" d="M65.685,354.097c0,3.762-3.05,6.811-6.811,6.811
		c-3.762,0-6.811-3.049-6.811-6.811v-33.686c0-3.761,3.049-6.81,6.811-6.81c3.761,0,6.811,3.049,6.811,6.81V354.097z"/>
	<linearGradient id="SVGID_6_" gradientUnits="userSpaceOnUse" x1="16.3887" y1="169.9224" x2="101.3524" y2="169.9224">
		<stop  offset="0.05" style="stop-color:#5D7091"/>
		<stop  offset="0.5" style="stop-color:#FFFFFF"/>
		<stop  offset="0.9451" style="stop-color:#5D7091"/>
	</linearGradient>
	<rect x="18.11" y="108.938" fill="url(#SVGID_6_)" width="81.527" height="121.97"/>
	<linearGradient id="SVGID_7_" gradientUnits="userSpaceOnUse" x1="1.8848" y1="35.9263" x2="115.7732" y2="35.9263">
		<stop  offset="0.05" style="stop-color:#5D7091"/>
		<stop  offset="0.5" style="stop-color:#FFFFFF"/>
		<stop  offset="0.9451" style="stop-color:#5D7091"/>
	</linearGradient>
	<rect x="4.192" y="5.186" fill="url(#SVGID_7_)" width="109.282" height="61.481"/>
</g>
</svg>
