<?xml version="1.0" encoding="UTF-8" standalone="no"?>
<!-- Generator: Adobe Illustrator 13.0.2, SVG Export Plug-In  -->

<svg
   xmlns:dc="http://purl.org/dc/elements/1.1/"
   xmlns:cc="http://creativecommons.org/ns#"
   xmlns:rdf="http://www.w3.org/1999/02/22-rdf-syntax-ns#"
   xmlns:svg="http://www.w3.org/2000/svg"
   xmlns="http://www.w3.org/2000/svg"
   xmlns:sodipodi="http://sodipodi.sourceforge.net/DTD/sodipodi-0.dtd"
   xmlns:inkscape="http://www.inkscape.org/namespaces/inkscape"
   version="1.1"
   x="0px"
   y="0px"
   width="180.52397"
   height="342.112"
   viewBox="-0.865 -0.906 180.52397 342.112"
   enable-background="new -0.865 -0.906 182 406"
   xml:space="preserve"
   id="svg5503"
   sodipodi:docname="Hole-Opener.ver.2.svg"
   inkscape:version="0.92.2 (5c3e80d, 2017-08-06)"><metadata
     id="metadata5507"><rdf:RDF><cc:Work
         rdf:about=""><dc:format>image/svg+xml</dc:format><dc:type
           rdf:resource="http://purl.org/dc/dcmitype/StillImage" /></cc:Work></rdf:RDF></metadata><sodipodi:namedview
     pagecolor="#ffffff"
     bordercolor="#666666"
     borderopacity="1"
     objecttolerance="10"
     gridtolerance="10"
     guidetolerance="10"
     inkscape:pageopacity="0"
     inkscape:pageshadow="2"
     inkscape:window-width="1160"
     inkscape:window-height="930"
     id="namedview5505"
     showgrid="false"
     inkscape:zoom="1.6441103"
     inkscape:cx="90.134985"
     inkscape:cy="202.018"
     inkscape:window-x="625"
     inkscape:window-y="64"
     inkscape:window-maximized="0"
     inkscape:current-layer="svg5503" /><defs
     id="defs4969" /><polygon
     points="170.323,212.065 176.311,247.086 176.311,307.002 140.459,307.002 140.459,165.564 143.647,165.573 "
     id="polygon4971"
     style="fill:none;stroke:#005826;stroke-width:2;stroke-linecap:round;stroke-linejoin:round"
     transform="translate(-0.86501516,-62.906)" /><polygon
     points="170.323,212.065 176.311,247.086 176.311,307.002 140.459,307.002 140.459,165.564 143.647,165.573 "
     id="polygon4973"
     style="fill:#008e4f"
     transform="translate(-0.86501516,-62.906)" /><path
     d="m 148.94498,184.255 h -9.35 v 42.584 h 19.841 v -24.133 c 0,-0.928 -0.085,-1.969 -0.534,-2.896 l -6.582,-13.613 c -0.759,-1.294 -2.025,-1.942 -3.375,-1.942 z"
     id="path4975"
     inkscape:connector-curvature="0"
     style="fill:none;stroke:#005826;stroke-width:2;stroke-linecap:round;stroke-linejoin:round" /><rect
     x="139.59499"
     y="202.70599"
     width="19.841"
     height="24.132999"
     id="rect4977"
     style="fill:#008e4f" /><path
     d="m 152.31998,186.196 c -0.759,-1.293 -2.024,-1.941 -3.375,-1.941 h -9.35 v 1.941 z"
     id="path4979"
     inkscape:connector-curvature="0"
     style="fill:#089d60" /><path
     d="m 159.43598,202.706 c 0,-0.928 -0.085,-1.969 -0.534,-2.896 h -19.307 v 2.896 z"
     id="path4981"
     inkscape:connector-curvature="0"
     style="fill:#089d60" /><polygon
     points="140.46,249.102 140.46,262.715 159.767,262.715 153.185,249.102 "
     id="polygon4983"
     style="fill:#009553"
     transform="translate(-0.86501516,-62.906)" /><path
     d="m 175.78598,234.389 c 1.451,5.219 1.855,9.859 1.156,13.283 l -0.98,0.357 c 1.327,3.197 2.459,7.811 2.697,9.068 l -9.074,2.631 c 0.332,1.084 0.644,2.229 0.711,2.955 l -9.061,1.965 -0.074,0.195 -14.639,3.955 -1.529,-1.369 -1.697,-1.518 c -0.555,0.625 -2.27,1.727 -4.277,0.547 0.179,-0.127 0.36,-0.254 0.531,-0.379 0.499,-0.369 0.973,-0.734 1.396,-1.084 1.279,-1.061 3.58,-3.23 1.644,-7.691 -2.294,-5.283 -2.93,-9.291 -2.978,-12.771 -0.002,-0.145 -0.01,-0.295 -0.01,-0.438 v -34.1 l -0.008,-3.527 v -14.297 c 3.756,1.771 6.792,3.863 8.836,5.305 4.297,2.604 8.271,5.51 12.371,9.949 2.305,2.588 4.559,5.549 6.656,8.822 0.35,0.547 0.697,1.1 1.038,1.664 1.271,2.1 2.403,4.205 3.403,6.287 1.691,3.52 2.99,6.967 3.888,10.191 z"
     id="path4985"
     inkscape:connector-curvature="0"
     style="fill:none;stroke:#114d75;stroke-width:2;stroke-linecap:round;stroke-linejoin:round" /><path
     d="m 142.58998,257.305 c -2.294,-5.283 -2.93,-9.291 -2.978,-12.771 1.398,1.895 2.704,5.123 3.457,8.92 1.258,6.338 0.5,11.83 -1.694,12.266 l -1.825,0.361 c 0.499,-0.369 0.973,-0.734 1.396,-1.084 1.28,-1.061 3.581,-3.231 1.644,-7.692 z"
     id="path4987"
     inkscape:connector-curvature="0"
     style="fill:#008843" /><rect
     x="-278.33398"
     y="10.290481"
     transform="rotate(-121.73025)"
     width="1.1249557"
     height="17.535307"
     id="rect4989"
     style="fill:#5d7495;stroke-width:0.99996054" /><polygon
     points="144.041,278.1 143.298,277.256 155.974,266.098 156.862,266.823 "
     id="polygon4991"
     style="fill:#5d7495"
     transform="translate(-0.86501516,-62.906)" /><polygon
     points="162.263,302.28 157.563,304.657 146.804,310.096 146.462,309.008 161.784,301.26 "
     id="polygon4993"
     style="fill:#5d7495"
     transform="translate(-0.86501516,-62.906)" /><polygon
     points="162.423,326.711 162.101,327.555 162.026,327.75 147.388,331.706 147.574,330.694 160.995,327.094 "
     id="polygon4995"
     style="fill:#577091"
     transform="translate(-0.86501516,-62.906)" /><polygon
     points="159.331,296.717 161.784,301.26 146.462,309.008 142.604,306.202 155.478,298.901 "
     id="polygon4997"
     style="fill:#7383a0"
     transform="translate(-0.86501516,-62.906)" /><path
     d="m 176.45198,241.682 0.211,0.887 -14.453,6.02 c -0.184,-0.254 -0.371,-0.502 -0.56,-0.742 z"
     id="path4999"
     inkscape:connector-curvature="0"
     style="fill:#5d7495" /><path
     d="m 176.66298,242.569 0.279,5.104 -0.98,0.357 -11.622,4.229 c -0.116,-0.262 -0.259,-0.496 -0.385,-0.748 -0.524,-1.047 -1.104,-2.039 -1.745,-2.922 z"
     id="path5001"
     inkscape:connector-curvature="0"
     style="fill:#386085" /><path
     d="m 158.38198,248.643 c -0.298,-1.682 -0.694,-3.418 -1.184,-5.186 1.27,0.969 2.925,2.453 4.452,4.389 0.188,0.24 0.376,0.488 0.56,0.742 0.794,1.096 1.526,2.322 2.13,3.67 0.266,0.594 0.513,1.201 0.72,1.844 l -8.332,2.891 -8.824,3.062 -2.91,-5.711 z"
     id="path5003"
     inkscape:connector-curvature="0"
     style="fill:#6b809e" /><polygon
     points="160.062,320.227 157.958,320.958 149.083,324.04 148.769,322.961 165.925,317.008 165.99,318.176 "
     id="polygon5005"
     style="fill:#5d7495"
     transform="translate(-0.86501516,-62.906)" /><path
     d="m 170.29598,262.684 -9.061,1.965 0.322,-0.844 c -0.125,-0.545 -0.273,-1.09 -0.432,-1.627 l 8.459,-2.449 c 0.333,1.084 0.645,2.229 0.712,2.955 z"
     id="path5007"
     inkscape:connector-curvature="0"
     style="fill:#2a5a80" /><path
     d="m 165.12498,255.27 -0.065,-1.168 c -0.207,-0.643 -0.454,-1.25 -0.72,-1.844 l 11.622,-4.229 c 1.327,3.197 2.459,7.811 2.697,9.068 l -9.074,2.631 -8.459,2.449 c -0.092,-0.314 -0.523,-1.619 -0.626,-1.9 -0.444,-1.223 -0.913,-2.279 -1.303,-2.957 z"
     id="path5009"
     inkscape:connector-curvature="0"
     style="fill:#6a7d9c" /><path
     d="m 148.21798,261.134 8.875,-3.082 2.104,-0.73 c 0.391,0.678 0.858,1.734 1.303,2.957 0.219,0.602 0.433,1.242 0.626,1.9 0.158,0.537 0.307,1.082 0.432,1.627 l -1.428,0.383 -13.421,3.6 -1.571,-5.584 z"
     id="path5011"
     inkscape:connector-curvature="0"
     style="fill:#386085" /><polygon
     points="150.796,289.87 140.468,296.975 140.468,293.2 152.774,284.096 154.661,287.211 "
     id="polygon5013"
     style="fill:#035279"
     transform="translate(-0.86501516,-62.906)" /><polygon
     points="140.468,293.2 140.468,291.801 152.104,283.192 152.774,284.096 "
     id="polygon5015"
     style="fill:#5d7495"
     transform="translate(-0.86501516,-62.906)" /><polygon
     points="152.104,283.192 140.468,291.801 140.468,288.788 146.479,284.083 149.88,281.418 "
     id="polygon5017"
     style="fill:#808ea9"
     transform="translate(-0.86501516,-62.906)" /><path
     d="m 139.60298,224.325 v -7.877 l 0.299,-0.268 c 1.579,0.971 3.42,2.543 5.05,4.258 0.288,0.303 0.376,0.414 0.662,0.738 l -6.011,4.705 z"
     id="path5019"
     inkscape:connector-curvature="0"
     style="fill:#386085" /><polygon
     points="140.767,279.086 140.468,279.354 140.468,272.903 144.144,276.075 142.946,277.141 "
     id="polygon5021"
     style="fill:#035279"
     transform="translate(-0.86501516,-62.906)" /><path
     d="m 141.37498,265.719 c 2.194,-0.436 2.952,-5.928 1.694,-12.266 -0.753,-3.797 -2.059,-7.025 -3.457,-8.92 -0.002,-0.145 -0.01,-0.295 -0.01,-0.438 v -4.58 c 0.742,1.031 1.463,2.301 2.137,3.779 l 3.857,2.807 0.342,1.088 -2.33,1.17 c 0.42,1.412 0.795,2.906 1.105,4.469 0.102,0.508 0.195,1.014 0.279,1.516 l 2.91,5.711 0.314,1.078 -2.589,0.9 -0.491,0.17 0.423,1.504 1.148,4.08 -0.187,1.012 -1.529,-1.369 -1.697,-1.518 c -0.555,0.625 -2.27,1.727 -4.277,0.547 0.179,-0.127 0.36,-0.254 0.531,-0.379 z"
     id="path5023"
     inkscape:connector-curvature="0"
     style="fill:#024a6f" /><path
     d="m 143.60898,248.36 2.33,-1.17 10.76,-5.439 c 0.178,0.572 0.342,1.141 0.5,1.707 0.489,1.768 0.886,3.504 1.184,5.186 l -13.389,5.701 c -0.084,-0.502 -0.178,-1.008 -0.279,-1.516 -0.311,-1.563 -0.686,-3.057 -1.106,-4.469 z"
     id="path5025"
     inkscape:connector-curvature="0"
     style="fill:#426488" /><path
     d="m 154.53898,230.341 0.592,0.959 -1.11,3.355 c -0.943,-2.117 -2.15,-4.533 -3.233,-6.385 z"
     id="path5027"
     inkscape:connector-curvature="0"
     style="fill:#024a6f" /><path
     d="m 149.93098,226.964 c 0.354,0.557 0.513,0.721 0.856,1.307 1.083,1.852 2.29,4.268 3.233,6.385 0.197,0.445 0.4,0.885 0.592,1.34 l -12.873,7.301 c -0.674,-1.479 -1.395,-2.748 -2.137,-3.779 v -5.447 z"
     id="path5029"
     inkscape:connector-curvature="0"
     style="fill:#4b698c" /><path
     d="m 142.08098,214.235 0.352,0.115 0.743,0.844 1.775,5.244 c -1.63,-1.715 -3.471,-3.287 -5.05,-4.258 z"
     id="path5031"
     inkscape:connector-curvature="0"
     style="fill:#024a6f" /><path
     d="m 167.45798,216.249 c 0.35,0.547 0.697,1.1 1.038,1.664 1.271,2.1 2.403,4.205 3.403,6.287 l -1.845,-2.109 -0.592,-0.957 z"
     id="path5033"
     inkscape:connector-curvature="0"
     style="fill:#7484a2" /><path
     d="m 171.89998,224.2 c 1.689,3.518 2.988,6.965 3.887,10.189 l -18.59,9.061 c -0.157,-0.564 -0.322,-1.131 -0.498,-1.699 l 4.699,-2.377 -0.479,-1.02 -2.453,-4.543 -3.854,2.184 c -0.191,-0.455 -0.395,-0.895 -0.592,-1.34 z"
     id="path5035"
     inkscape:connector-curvature="0"
     style="fill:#426488" /><path
     d="m 153.79598,224.305 -1.887,-3.115 -0.67,-0.904 -2.225,-1.773 -3.401,2.664 c -0.286,-0.324 -0.374,-0.436 -0.662,-0.738 l 15.851,-13.012 c 2.305,2.588 4.559,5.549 6.656,8.822 l -16.671,12.021 c -0.344,-0.586 -0.503,-0.75 -0.856,-1.307 z"
     id="path5037"
     inkscape:connector-curvature="0"
     style="fill:#4b698c" /><path
     d="m 175.78598,234.389 c 1.451,5.219 1.855,9.859 1.156,13.283 l -0.279,-5.104 -0.211,-0.887 z"
     id="path5039"
     inkscape:connector-curvature="0"
     style="fill:#7484a2" /><path
     d="m 175.78598,234.389 -18.588,9.068 c 1.27,0.969 2.926,2.457 4.454,4.395 l 14.801,-6.166 z"
     id="path5041"
     inkscape:connector-curvature="0"
     style="fill:#70819f" /><polygon
     points="151.652,291.176 155.404,293.247 170.328,284.04 168.323,279.155 "
     id="polygon5043"
     style="fill:#808ea9"
     transform="translate(-0.86501516,-62.906)" /><polygon
     points="170.92,284.997 172.765,287.106 154.886,297.561 155.996,294.206 "
     id="polygon5045"
     style="fill:#035279"
     transform="translate(-0.86501516,-62.906)" /><path
     d="m 160.80198,207.427 -4.805,-3.51 -0.889,-0.725 -6.678,-5.715 c 4.298,2.604 8.272,5.51 12.372,9.95 z"
     id="path5047"
     inkscape:connector-curvature="0"
     style="fill:#7484a2" /><polygon
     points="145.816,283.344 144.041,278.1 156.862,266.823 161.667,270.333 "
     id="polygon5049"
     style="fill:#035279"
     transform="translate(-0.86501516,-62.906)" /><path
     d="m 148.43098,197.477 -8.836,8.992 v -14.297 c 3.756,1.772 6.792,3.864 8.836,5.305 z"
     id="path5051"
     inkscape:connector-curvature="0"
     style="fill:#386085" /><polygon
     points="143.298,277.256 142.946,277.141 144.144,276.075 140.468,272.903 140.46,269.375 149.296,260.383 155.974,266.098 "
     id="polygon5053"
     style="fill:#808ea9"
     transform="translate(-0.86501516,-62.906)" /><polygon
     points="10.193,212.065 4.205,247.086 4.205,307.002 40.057,307.002 40.057,165.564 36.869,165.573 "
     id="polygon5055"
     style="fill:none;stroke:#005826;stroke-width:2;stroke-linecap:round;stroke-linejoin:round"
     transform="translate(-0.86501516,-62.906)" /><polygon
     points="10.193,212.065 4.205,247.086 4.205,307.002 40.057,307.002 40.057,165.564 36.869,165.573 "
     id="polygon5057"
     style="fill:#008e4f"
     transform="translate(-0.86501516,-62.906)" /><path
     d="m 26.474985,186.196 -6.582,13.613 c -0.449,0.928 -0.534,1.969 -0.534,2.896 v 24.133 h 19.841 v -42.584 h -9.35 c -1.351,0.001 -2.616,0.649 -3.375,1.942 z"
     id="path5059"
     inkscape:connector-curvature="0"
     style="fill:none;stroke:#005826;stroke-width:2;stroke-linecap:round;stroke-linejoin:round" /><rect
     x="19.358986"
     y="202.70599"
     width="19.841"
     height="24.132999"
     id="rect5061"
     style="fill:#008e4f" /><path
     d="m 26.474985,186.196 c 0.759,-1.293 2.024,-1.941 3.375,-1.941 h 9.35 v 1.941 z"
     id="path5063"
     inkscape:connector-curvature="0"
     style="fill:#089d60" /><path
     d="m 19.358985,202.706 c 0,-0.928 0.085,-1.969 0.534,-2.896 h 19.307 v 2.896 z"
     id="path5065"
     inkscape:connector-curvature="0"
     style="fill:#089d60" /><polygon
     points="40.064,249.102 40.064,262.715 20.758,262.715 27.34,249.102 "
     id="polygon5067"
     style="fill:#009553"
     transform="translate(-0.86501516,-62.906)" /><path
     d="m 3.0079848,234.389 c -1.451,5.219 -1.855,9.859 -1.156,13.283 l 0.98,0.357 c -1.327,3.197 -2.45899996,7.811 -2.69699996,9.068 l 9.07399996,2.631 c -0.332,1.084 -0.644,2.229 -0.711,2.955 l 9.0610002,1.965 0.074,0.195 14.639,3.955 1.529,-1.369 1.697,-1.518 c 0.555,0.625 2.27,1.727 4.277,0.547 -0.179,-0.127 -0.36,-0.254 -0.531,-0.379 -0.499,-0.369 -0.973,-0.734 -1.396,-1.084 -1.279,-1.061 -3.58,-3.23 -1.644,-7.691 2.294,-5.283 2.93,-9.291 2.978,-12.771 0.002,-0.145 0.01,-0.295 0.01,-0.438 v -34.1 l 0.008,-3.527 v -14.297 c -3.756,1.771 -6.792,3.863 -8.836,5.305 -4.297,2.604 -8.271,5.51 -12.371,9.949 -2.305,2.588 -4.559,5.549 -6.656,8.822 -0.35,0.547 -0.697,1.1 -1.038,1.664 -1.2710002,2.1 -2.4030002,4.205 -3.4030002,6.287 -1.691,3.52 -2.99,6.967 -3.888,10.191 z"
     id="path5069"
     inkscape:connector-curvature="0"
     style="fill:none;stroke:#114d75;stroke-width:2;stroke-linecap:round;stroke-linejoin:round" /><path
     d="m 36.203985,257.305 c 2.294,-5.283 2.93,-9.291 2.978,-12.771 -1.398,1.895 -2.704,5.123 -3.457,8.92 -1.258,6.338 -0.5,11.83 1.694,12.266 l 1.825,0.361 c -0.499,-0.369 -0.973,-0.734 -1.396,-1.084 -1.279,-1.061 -3.58,-3.231 -1.644,-7.692 z"
     id="path5071"
     inkscape:connector-curvature="0"
     style="fill:#ffffff;stroke:#000000;stroke-width:0.5;stroke-linecap:round;stroke-linejoin:round" /><rect
     x="-184.28621"
     y="124.22359"
     transform="rotate(-58.269751)"
     width="1.1249557"
     height="17.535307"
     id="rect5073"
     style="fill:#5d7495;stroke-width:0.99996054" /><polygon
     points="36.483,278.1 37.227,277.256 24.551,266.098 23.662,266.823 "
     id="polygon5075"
     style="fill:#5d7495"
     transform="translate(-0.86501516,-62.906)" /><polygon
     points="18.262,302.28 22.961,304.657 33.721,310.096 34.062,309.008 18.74,301.26 "
     id="polygon5077"
     style="fill:#5d7495"
     transform="translate(-0.86501516,-62.906)" /><polygon
     points="18.102,326.711 18.424,327.555 18.498,327.75 33.137,331.706 32.95,330.694 19.529,327.094 "
     id="polygon5079"
     style="fill:#577091"
     transform="translate(-0.86501516,-62.906)" /><polygon
     points="21.193,296.717 18.74,301.26 34.062,309.008 37.92,306.202 25.047,298.901 "
     id="polygon5081"
     style="fill:#7383a0"
     transform="translate(-0.86501516,-62.906)" /><path
     d="m 2.3419848,241.682 -0.211,0.887 14.4530002,6.02 c 0.184,-0.254 0.371,-0.502 0.56,-0.742 z"
     id="path5083"
     inkscape:connector-curvature="0"
     style="fill:#5d7495" /><path
     d="m 2.1309848,242.569 -0.279,5.104 0.98,0.357 11.6220002,4.229 c 0.116,-0.262 0.259,-0.496 0.385,-0.748 0.524,-1.047 1.104,-2.039 1.745,-2.922 z"
     id="path5085"
     inkscape:connector-curvature="0"
     style="fill:#386085" /><path
     d="m 20.411985,248.643 c 0.298,-1.682 0.694,-3.418 1.184,-5.186 -1.27,0.969 -2.925,2.453 -4.452,4.389 -0.188,0.24 -0.376,0.488 -0.56,0.742 -0.794,1.096 -1.526,2.322 -2.13,3.67 -0.266,0.594 -0.513,1.201 -0.72,1.844 l 8.332,2.891 8.824,3.062 2.91,-5.711 z"
     id="path5087"
     inkscape:connector-curvature="0"
     style="fill:#6b809e" /><polygon
     points="20.462,320.227 22.566,320.958 31.441,324.04 31.756,322.961 14.6,317.008 14.534,318.176 "
     id="polygon5089"
     style="fill:#5d7495"
     transform="translate(-0.86501516,-62.906)" /><path
     d="m 8.4979848,262.684 9.0610002,1.965 -0.322,-0.844 c 0.125,-0.545 0.273,-1.09 0.432,-1.627 l -8.4590002,-2.449 c -0.333,1.084 -0.644,2.229 -0.712,2.955 z"
     id="path5091"
     inkscape:connector-curvature="0"
     style="fill:#2a5a80" /><path
     d="m 13.668985,255.27 0.065,-1.168 c 0.207,-0.643 0.454,-1.25 0.72,-1.844 L 2.8319848,248.029 c -1.327,3.197 -2.45899996,7.811 -2.69699996,9.068 l 9.07399996,2.631 8.4590002,2.449 c 0.092,-0.314 0.523,-1.619 0.626,-1.9 0.444,-1.223 0.913,-2.279 1.303,-2.957 z"
     id="path5093"
     inkscape:connector-curvature="0"
     style="fill:#6a7d9c" /><path
     d="m 30.575985,261.134 -8.875,-3.082 -2.104,-0.73 c -0.391,0.678 -0.858,1.734 -1.303,2.957 -0.219,0.602 -0.433,1.242 -0.626,1.9 -0.158,0.537 -0.307,1.082 -0.432,1.627 l 1.428,0.383 13.421,3.6 1.571,-5.584 z"
     id="path5095"
     inkscape:connector-curvature="0"
     style="fill:#386085" /><polygon
     points="29.729,289.87 40.057,296.975 40.057,293.2 27.75,284.096 25.863,287.211 "
     id="polygon5097"
     style="fill:#035279"
     transform="translate(-0.86501516,-62.906)" /><polygon
     points="40.057,293.2 40.057,291.801 28.42,283.192 27.75,284.096 "
     id="polygon5099"
     style="fill:#5d7495"
     transform="translate(-0.86501516,-62.906)" /><polygon
     points="28.42,283.192 40.057,291.801 40.057,288.788 34.046,284.083 30.645,281.418 "
     id="polygon5101"
     style="fill:#808ea9"
     transform="translate(-0.86501516,-62.906)" /><path
     d="m 39.191985,224.325 v -7.877 l -0.299,-0.268 c -1.579,0.971 -3.42,2.543 -5.05,4.258 -0.288,0.303 -0.376,0.414 -0.662,0.738 l 6.011,4.705 z"
     id="path5103"
     inkscape:connector-curvature="0"
     style="fill:#386085" /><polygon
     points="39.758,279.086 40.057,279.354 40.057,272.903 36.381,276.075 37.578,277.141 "
     id="polygon5105"
     style="fill:#035279"
     transform="translate(-0.86501516,-62.906)" /><path
     d="m 37.418985,265.719 c -2.194,-0.436 -2.952,-5.928 -1.694,-12.266 0.753,-3.797 2.059,-7.025 3.457,-8.92 0.002,-0.145 0.01,-0.295 0.01,-0.438 v -4.58 c -0.742,1.031 -1.463,2.301 -2.137,3.779 l -3.857,2.807 -0.342,1.088 2.33,1.17 c -0.42,1.412 -0.795,2.906 -1.105,4.469 -0.102,0.508 -0.195,1.014 -0.279,1.516 l -2.91,5.711 -0.314,1.078 2.589,0.9 0.491,0.17 -0.423,1.504 -1.148,4.08 0.187,1.012 1.529,-1.369 1.697,-1.518 c 0.555,0.625 2.27,1.727 4.277,0.547 -0.179,-0.127 -0.36,-0.254 -0.531,-0.379 z"
     id="path5107"
     inkscape:connector-curvature="0"
     style="fill:#024a6f" /><path
     d="m 35.185985,248.36 -2.33,-1.17 -10.76,-5.439 c -0.178,0.572 -0.342,1.141 -0.5,1.707 -0.489,1.768 -0.886,3.504 -1.184,5.186 l 13.389,5.701 c 0.084,-0.502 0.178,-1.008 0.279,-1.516 0.311,-1.563 0.686,-3.057 1.106,-4.469 z"
     id="path5109"
     inkscape:connector-curvature="0"
     style="fill:#426488" /><path
     d="m 24.254985,230.341 -0.592,0.959 1.11,3.355 c 0.943,-2.117 2.15,-4.533 3.233,-6.385 z"
     id="path5111"
     inkscape:connector-curvature="0"
     style="fill:#024a6f" /><path
     d="m 28.863985,226.964 c -0.354,0.557 -0.513,0.721 -0.856,1.307 -1.083,1.852 -2.29,4.268 -3.233,6.385 -0.197,0.445 -0.4,0.885 -0.592,1.34 l 12.873,7.301 c 0.674,-1.479 1.395,-2.748 2.137,-3.779 v -5.447 z"
     id="path5113"
     inkscape:connector-curvature="0"
     style="fill:#4b698c" /><path
     d="m 36.712985,214.235 -0.352,0.115 -0.743,0.844 -1.775,5.244 c 1.63,-1.715 3.471,-3.287 5.05,-4.258 z"
     id="path5115"
     inkscape:connector-curvature="0"
     style="fill:#024a6f" /><path
     d="m 11.335985,216.249 c -0.35,0.547 -0.697,1.1 -1.038,1.664 -1.2710002,2.1 -2.4030002,4.205 -3.4030002,6.287 l 1.845,-2.109 0.592,-0.957 z"
     id="path5117"
     inkscape:connector-curvature="0"
     style="fill:#7484a2" /><path
     d="m 6.8949848,224.2 c -1.689,3.518 -2.988,6.965 -3.887,10.189 l 18.5900002,9.061 c 0.157,-0.564 0.322,-1.131 0.498,-1.699 l -4.699,-2.377 0.479,-1.02 2.453,-4.543 3.854,2.184 c 0.191,-0.455 0.395,-0.895 0.592,-1.34 z"
     id="path5119"
     inkscape:connector-curvature="0"
     style="fill:#426488" /><path
     d="m 24.997985,224.305 1.887,-3.115 0.67,-0.904 2.225,-1.773 3.401,2.664 c 0.286,-0.324 0.374,-0.436 0.662,-0.738 l -15.851,-13.012 c -2.305,2.588 -4.559,5.549 -6.656,8.822 l 16.671,12.021 c 0.344,-0.586 0.503,-0.75 0.856,-1.307 z"
     id="path5121"
     inkscape:connector-curvature="0"
     style="fill:#4b698c" /><path
     d="m 3.0079848,234.389 c -1.451,5.219 -1.855,9.859 -1.156,13.283 l 0.279,-5.104 0.211,-0.887 z"
     id="path5123"
     inkscape:connector-curvature="0"
     style="fill:#7484a2" /><path
     d="m 3.0079848,234.389 18.5880002,9.068 c -1.27,0.969 -2.926,2.457 -4.454,4.395 L 2.3409848,241.686 Z"
     id="path5125"
     inkscape:connector-curvature="0"
     style="fill:#70819f" /><polygon
     points="28.872,291.176 25.12,293.247 10.196,284.04 12.201,279.155 "
     id="polygon5127"
     style="fill:#808ea9"
     transform="translate(-0.86501516,-62.906)" /><polygon
     points="9.604,284.997 7.76,287.106 25.639,297.561 24.528,294.206 "
     id="polygon5129"
     style="fill:#035279"
     transform="translate(-0.86501516,-62.906)" /><path
     d="m 17.991985,207.427 4.805,-3.51 0.889,-0.725 6.678,-5.715 c -4.297,2.604 -8.272,5.51 -12.372,9.95 z"
     id="path5131"
     inkscape:connector-curvature="0"
     style="fill:#7484a2" /><polygon
     points="34.708,283.344 36.483,278.1 23.662,266.823 18.857,270.333 "
     id="polygon5133"
     style="fill:#035279"
     transform="translate(-0.86501516,-62.906)" /><path
     d="m 30.363985,197.477 8.836,8.992 v -14.297 c -3.756,1.772 -6.793,3.864 -8.836,5.305 z"
     id="path5135"
     inkscape:connector-curvature="0"
     style="fill:#386085" /><polygon
     points="37.227,277.256 37.578,277.141 36.381,276.075 40.057,272.903 40.064,269.375 31.229,260.383 24.551,266.098 "
     id="polygon5137"
     style="fill:#808ea9"
     transform="translate(-0.86501516,-62.906)" /><path
     d="m 143.15132,268.60714 c -0.75425,-3.13772 -2.06343,-5.80523 -3.46375,-7.3712 -0.001,-0.11982 -0.01,-0.24378 -0.01,-0.36195 v -120.5183 c 0,-1.22302 -0.10017,-2.64603 -0.84941,-3.74427 l -14.26872,-20.18321 c -1.42837,-1.98328 -1.31418,-2.83279 -1.31418,-4.80285 V 10.463074 L 120.26431,8.0038038 H 58.52168 L 55.540726,10.463074 V 111.62454 c 0,1.97006 0.113188,2.82039 -1.314184,4.80285 l -14.267711,20.18403 c -0.750247,1.09824 -0.851415,2.52125 -0.851415,3.74427 v 120.5183 c 0,0.11817 -0.008,0.24213 -0.01002,0.36195 -1.400327,1.56597 -2.708501,4.23348 -3.462755,7.3712 -1.260094,5.23752 -0.500832,9.77593 1.69682,10.13623 l 1.828038,0.29832 c 1.20901,0.73794 2.613343,1.49655 4.166925,2.17913 l 7.960229,3.717 c 2.058421,0.97016 4.174939,2.71792 4.174939,5.82176 v 47.27402 l 2.743559,2.2626 h 62.372659 l 2.74255,-2.2626 v -47.27402 c 0,-3.10384 2.11752,-4.8516 4.17594,-5.82176 l 7.96023,-3.717 c 1.55459,-0.68258 2.95792,-1.44119 4.16593,-2.17913 l 1.82904,-0.29832 c 2.19965,-0.3603 2.95992,-4.89871 1.69982,-10.13623 z"
     id="path5139"
     inkscape:connector-curvature="0"
     style="fill:#369a3e;stroke:#005826;stroke-width:1.81960809;stroke-linecap:round;stroke-linejoin:round" /><linearGradient
     id="SVGID_1_"
     gradientUnits="userSpaceOnUse"
     x1="56.3848"
     y1="371.76999"
     x2="124.1309"
     y2="371.76999"
     gradientTransform="translate(-0.86501516,-62.906)"><stop
       offset="0.05"
       style="stop-color:#007941"
       id="stop5141" /><stop
       offset="0.059"
       style="stop-color:#007B43"
       id="stop5143" /><stop
       offset="0.1829"
       style="stop-color:#3F9A5D"
       id="stop5145" /><stop
       offset="0.2937"
       style="stop-color:#6CB473"
       id="stop5147" /><stop
       offset="0.3865"
       style="stop-color:#87C481"
       id="stop5149" /><stop
       offset="0.45"
       style="stop-color:#92CC88"
       id="stop5151" /><stop
       offset="0.55"
       style="stop-color:#92CC88"
       id="stop5153" /><stop
       offset="0.6128"
       style="stop-color:#86C380"
       id="stop5155" /><stop
       offset="0.7104"
       style="stop-color:#68B171"
       id="stop5157" /><stop
       offset="0.83"
       style="stop-color:#339559"
       id="stop5159" /><stop
       offset="0.9451"
       style="stop-color:#007941"
       id="stop5161" /></linearGradient><rect
     x="55.519981"
     y="280.26099"
     width="67.746002"
     height="57.207001"
     id="rect5164"
     style="fill:url(#SVGID_1_)" /><linearGradient
     id="SVGID_2_"
     gradientUnits="userSpaceOnUse"
     x1="44.269501"
     y1="333.87259"
     x2="136.2471"
     y2="333.87259"><stop
       offset="0.05"
       style="stop-color:#006C35"
       id="stop5166" /><stop
       offset="0.1767"
       style="stop-color:#0B8948"
       id="stop5168" /><stop
       offset="0.2901"
       style="stop-color:#4DA058"
       id="stop5170" /><stop
       offset="0.3851"
       style="stop-color:#68B064"
       id="stop5172" /><stop
       offset="0.45"
       style="stop-color:#72B568"
       id="stop5174" /><stop
       offset="0.55"
       style="stop-color:#72B568"
       id="stop5176" /><stop
       offset="0.6143"
       style="stop-color:#67AF63"
       id="stop5178" /><stop
       offset="0.7143"
       style="stop-color:#489E56"
       id="stop5180" /><stop
       offset="0.8367"
       style="stop-color:#008445"
       id="stop5182" /><stop
       offset="0.9451"
       style="stop-color:#006C35"
       id="stop5184" /></linearGradient><polygon
     points="136.247,331.624 128.3,336.122 52.217,336.122 44.27,331.624 "
     id="polygon5187"
     style="fill:url(#SVGID_2_)"
     transform="translate(-0.86501516,-62.906)" /><linearGradient
     id="SVGID_3_"
     gradientUnits="userSpaceOnUse"
     x1="37.069302"
     y1="313.6069"
     x2="143.4473"
     y2="313.6069"
     gradientTransform="translate(-0.86501516,-62.906)"><stop
       offset="0.05"
       style="stop-color:#007941"
       id="stop5189" /><stop
       offset="0.059"
       style="stop-color:#007B43"
       id="stop5191" /><stop
       offset="0.1829"
       style="stop-color:#3F9A5D"
       id="stop5193" /><stop
       offset="0.2937"
       style="stop-color:#6CB473"
       id="stop5195" /><stop
       offset="0.3865"
       style="stop-color:#87C481"
       id="stop5197" /><stop
       offset="0.45"
       style="stop-color:#92CC88"
       id="stop5199" /><stop
       offset="0.55"
       style="stop-color:#92CC88"
       id="stop5201" /><stop
       offset="0.6128"
       style="stop-color:#86C380"
       id="stop5203" /><stop
       offset="0.7104"
       style="stop-color:#68B171"
       id="stop5205" /><stop
       offset="0.83"
       style="stop-color:#339559"
       id="stop5207" /><stop
       offset="0.9451"
       style="stop-color:#007941"
       id="stop5209" /></linearGradient><path
     d="m 142.58198,257.305 c -2.389,-5.502 -2.988,-9.629 -2.988,-13.209 H 39.191985 c 0,3.58 -0.6,7.707 -2.987,13.209 z"
     id="path5212"
     inkscape:connector-curvature="0"
     style="fill:url(#SVGID_3_)" /><linearGradient
     id="SVGID_4_"
     gradientUnits="userSpaceOnUse"
     x1="40.056599"
     y1="158.89549"
     x2="140.459"
     y2="158.89549"
     gradientTransform="translate(-0.86501516,-62.906)"><stop
       offset="0.05"
       style="stop-color:#00814D"
       id="stop5214" /><stop
       offset="0.1486"
       style="stop-color:#3C975D"
       id="stop5216" /><stop
       offset="0.2733"
       style="stop-color:#68B170"
       id="stop5218" /><stop
       offset="0.3782"
       style="stop-color:#81C27C"
       id="stop5220" /><stop
       offset="0.45"
       style="stop-color:#8DCA82"
       id="stop5222" /><stop
       offset="0.55"
       style="stop-color:#8DCA82"
       id="stop5224" /><stop
       offset="0.6214"
       style="stop-color:#81C17C"
       id="stop5226" /><stop
       offset="0.7325"
       style="stop-color:#64AE6E"
       id="stop5228" /><stop
       offset="0.8684"
       style="stop-color:#319259"
       id="stop5230" /><stop
       offset="0.9451"
       style="stop-color:#00814D"
       id="stop5232" /></linearGradient><path
     d="m 39.191985,98.255 c 0,-1.48 0.101,-3.202 0.85,-4.531 h 98.704995 c 0.748,1.329 0.848,3.051 0.848,4.531 z"
     id="path5235"
     inkscape:connector-curvature="0"
     style="fill:url(#SVGID_4_)" /><linearGradient
     id="SVGID_5_"
     gradientUnits="userSpaceOnUse"
     x1="55.150398"
     y1="129.2993"
     x2="125.3662"
     y2="129.2993"
     gradientTransform="matrix(1,0,0,0.53508224,-0.86501516,-1.4410822)"><stop
       offset="0.05"
       style="stop-color:#00814D"
       id="stop5237" /><stop
       offset="0.1486"
       style="stop-color:#3C975D"
       id="stop5239" /><stop
       offset="0.2733"
       style="stop-color:#68B170"
       id="stop5241" /><stop
       offset="0.3782"
       style="stop-color:#81C27C"
       id="stop5243" /><stop
       offset="0.45"
       style="stop-color:#8DCA82"
       id="stop5245" /><stop
       offset="0.55"
       style="stop-color:#8DCA82"
       id="stop5247" /><stop
       offset="0.6214"
       style="stop-color:#81C17C"
       id="stop5249" /><stop
       offset="0.7325"
       style="stop-color:#64AE6E"
       id="stop5251" /><stop
       offset="0.8684"
       style="stop-color:#319259"
       id="stop5253" /><stop
       offset="0.9451"
       style="stop-color:#00814D"
       id="stop5255" /></linearGradient><path
     d="m 54.284985,69.3 c 1.426,-1.2842 1.312,-1.83426 1.312,-3.1099 h 67.591995 c 0,1.27564 -0.114,1.82624 1.312,3.1099 z"
     id="path5258"
     style="fill:url(#SVGID_5_);stroke-width:0.73149318"
     inkscape:connector-curvature="0" /><linearGradient
     id="SVGID_6_"
     gradientUnits="userSpaceOnUse"
     x1="56.462898"
     y1="2.4877999"
     x2="124.0547"
     y2="2.4877999"><stop
       offset="0.05"
       style="stop-color:#238958"
       id="stop5260" /><stop
       offset="0.1407"
       style="stop-color:#4E9D6A"
       id="stop5262" /><stop
       offset="0.2687"
       style="stop-color:#7AB881"
       id="stop5264" /><stop
       offset="0.3764"
       style="stop-color:#95C98F"
       id="stop5266" /><stop
       offset="0.45"
       style="stop-color:#A1D296"
       id="stop5268" /><stop
       offset="0.55"
       style="stop-color:#A1D296"
       id="stop5270" /><stop
       offset="0.6234"
       style="stop-color:#94C88F"
       id="stop5272" /><stop
       offset="0.7375"
       style="stop-color:#76B57E"
       id="stop5274" /><stop
       offset="0.8772"
       style="stop-color:#459866"
       id="stop5276" /><stop
       offset="0.9451"
       style="stop-color:#238958"
       id="stop5278" /></linearGradient><polygon
     points="56.463,3.976 124.055,3.976 121.078,1 59.438,1 "
     id="polygon5281"
     style="fill:url(#SVGID_6_)"
     transform="matrix(1,0,0,0.53508224,-0.86501516,-1.4410822)" /><linearGradient
     id="SVGID_7_"
     gradientUnits="userSpaceOnUse"
     x1="52.216801"
     y1="339.64401"
     x2="128.2998"
     y2="339.64401"
     gradientTransform="translate(-0.86501516,-62.906)"><stop
       offset="0.05"
       style="stop-color:#006830"
       id="stop5283" /><stop
       offset="0.177"
       style="stop-color:#008440"
       id="stop5285" /><stop
       offset="0.2903"
       style="stop-color:#3E9C4E"
       id="stop5287" /><stop
       offset="0.3851"
       style="stop-color:#5BAB58"
       id="stop5289" /><stop
       offset="0.45"
       style="stop-color:#65B15C"
       id="stop5291" /><stop
       offset="0.55"
       style="stop-color:#65B15C"
       id="stop5293" /><stop
       offset="0.6143"
       style="stop-color:#5AAA57"
       id="stop5295" /><stop
       offset="0.7141"
       style="stop-color:#38994D"
       id="stop5297" /><stop
       offset="0.8364"
       style="stop-color:#00803E"
       id="stop5299" /><stop
       offset="0.9451"
       style="stop-color:#006830"
       id="stop5301" /></linearGradient><path
     d="m 127.43498,273.216 c -2.055,1.174 -4.169,3.289 -4.169,7.045 H 55.519985 c 0,-3.756 -2.113,-5.871 -4.168,-7.045 z"
     id="path5304"
     inkscape:connector-curvature="0"
     style="fill:url(#SVGID_7_)" /><linearGradient
     id="SVGID_8_"
     gradientUnits="userSpaceOnUse"
     x1="36.3237"
     y1="325.91751"
     x2="144.19341"
     y2="325.91751"
     gradientTransform="translate(-0.86501516,-62.906)"><stop
       offset="0.05"
       style="stop-color:#007941"
       id="stop5306" /><stop
       offset="0.059"
       style="stop-color:#007B43"
       id="stop5308" /><stop
       offset="0.1829"
       style="stop-color:#3F9A5D"
       id="stop5310" /><stop
       offset="0.2937"
       style="stop-color:#6CB473"
       id="stop5312" /><stop
       offset="0.3865"
       style="stop-color:#87C481"
       id="stop5314" /><stop
       offset="0.45"
       style="stop-color:#92CC88"
       id="stop5316" /><stop
       offset="0.55"
       style="stop-color:#92CC88"
       id="stop5318" /><stop
       offset="0.6128"
       style="stop-color:#86C380"
       id="stop5320" /><stop
       offset="0.7104"
       style="stop-color:#68B171"
       id="stop5322" /><stop
       offset="0.83"
       style="stop-color:#339559"
       id="stop5324" /><stop
       offset="0.9451"
       style="stop-color:#007941"
       id="stop5326" /></linearGradient><path
     d="m 36.203985,257.305 c -1.937,4.461 0.364,6.631 1.644,7.691 1.449,1.199 3.365,2.555 5.557,3.721 h 91.977995 c 2.192,-1.166 4.108,-2.521 5.557,-3.721 1.278,-1.061 3.581,-3.23 1.644,-7.691 z"
     id="path5329"
     inkscape:connector-curvature="0"
     style="fill:url(#SVGID_8_)" /><linearGradient
     id="SVGID_9_"
     gradientUnits="userSpaceOnUse"
     x1="40.056599"
     y1="234.0815"
     x2="140.459"
     y2="234.0815"
     gradientTransform="translate(-0.86501516,-62.906)"><stop
       offset="0.05"
       style="stop-color:#007941"
       id="stop5331" /><stop
       offset="0.059"
       style="stop-color:#007B43"
       id="stop5333" /><stop
       offset="0.1829"
       style="stop-color:#3F9A5D"
       id="stop5335" /><stop
       offset="0.2937"
       style="stop-color:#6CB473"
       id="stop5337" /><stop
       offset="0.3865"
       style="stop-color:#87C481"
       id="stop5339" /><stop
       offset="0.45"
       style="stop-color:#92CC88"
       id="stop5341" /><stop
       offset="0.55"
       style="stop-color:#92CC88"
       id="stop5343" /><stop
       offset="0.6128"
       style="stop-color:#86C380"
       id="stop5345" /><stop
       offset="0.7104"
       style="stop-color:#68B171"
       id="stop5347" /><stop
       offset="0.83"
       style="stop-color:#339559"
       id="stop5349" /><stop
       offset="0.9451"
       style="stop-color:#007941"
       id="stop5351" /></linearGradient><rect
     x="39.191982"
     y="98.254997"
     width="100.402"
     height="145.841"
     id="rect5354"
     style="fill:url(#SVGID_9_)" /><linearGradient
     id="SVGID_10_"
     gradientUnits="userSpaceOnUse"
     x1="56.462898"
     y1="65.184097"
     x2="124.0547"
     y2="65.184097"
     gradientTransform="matrix(1,0,0,0.53508224,-0.86501516,-1.4410822)"><stop
       offset="0.05"
       style="stop-color:#007941"
       id="stop5356" /><stop
       offset="0.059"
       style="stop-color:#007B43"
       id="stop5358" /><stop
       offset="0.1829"
       style="stop-color:#3F9A5D"
       id="stop5360" /><stop
       offset="0.2937"
       style="stop-color:#6CB473"
       id="stop5362" /><stop
       offset="0.3865"
       style="stop-color:#87C481"
       id="stop5364" /><stop
       offset="0.45"
       style="stop-color:#92CC88"
       id="stop5366" /><stop
       offset="0.55"
       style="stop-color:#92CC88"
       id="stop5368" /><stop
       offset="0.6128"
       style="stop-color:#86C380"
       id="stop5370" /><stop
       offset="0.7104"
       style="stop-color:#68B171"
       id="stop5372" /><stop
       offset="0.83"
       style="stop-color:#339559"
       id="stop5374" /><stop
       offset="0.9451"
       style="stop-color:#007941"
       id="stop5376" /></linearGradient><rect
     x="55.597984"
     y="0.68640316"
     width="67.592003"
     height="65.503159"
     id="rect5379"
     style="fill:url(#SVGID_10_);stroke-width:0.73149318" /><linearGradient
     id="SVGID_11_"
     gradientUnits="userSpaceOnUse"
     x1="40.9062"
     y1="144.4175"
     x2="139.6113"
     y2="144.4175"><stop
       offset="0.05"
       style="stop-color:#238958"
       id="stop5381" /><stop
       offset="0.1407"
       style="stop-color:#4E9D6A"
       id="stop5383" /><stop
       offset="0.2687"
       style="stop-color:#7AB881"
       id="stop5385" /><stop
       offset="0.3764"
       style="stop-color:#95C98F"
       id="stop5387" /><stop
       offset="0.45"
       style="stop-color:#A1D296"
       id="stop5389" /><stop
       offset="0.55"
       style="stop-color:#A1D296"
       id="stop5391" /><stop
       offset="0.6234"
       style="stop-color:#94C88F"
       id="stop5393" /><stop
       offset="0.7375"
       style="stop-color:#76B57E"
       id="stop5395" /><stop
       offset="0.8772"
       style="stop-color:#459866"
       id="stop5397" /><stop
       offset="0.9451"
       style="stop-color:#238958"
       id="stop5399" /></linearGradient><polygon
     points="40.906,156.63 55.15,132.206 125.366,132.206 139.611,156.63 "
     id="polygon5402"
     style="fill:url(#SVGID_11_)"
     transform="translate(-0.86501516,-62.906)" /><linearGradient
     id="SVGID_12_"
     gradientUnits="userSpaceOnUse"
     x1="56.3848"
     y1="401.74271"
     x2="124.1309"
     y2="401.74271"><stop
       offset="0.05"
       style="stop-color:#006830"
       id="stop5404" /><stop
       offset="0.177"
       style="stop-color:#008440"
       id="stop5406" /><stop
       offset="0.2903"
       style="stop-color:#3E9C4E"
       id="stop5408" /><stop
       offset="0.3851"
       style="stop-color:#5BAB58"
       id="stop5410" /><stop
       offset="0.45"
       style="stop-color:#65B15C"
       id="stop5412" /><stop
       offset="0.55"
       style="stop-color:#65B15C"
       id="stop5414" /><stop
       offset="0.6143"
       style="stop-color:#5AAA57"
       id="stop5416" /><stop
       offset="0.7141"
       style="stop-color:#38994D"
       id="stop5418" /><stop
       offset="0.8364"
       style="stop-color:#00803E"
       id="stop5420" /><stop
       offset="0.9451"
       style="stop-color:#006830"
       id="stop5422" /></linearGradient><polygon
     points="59.124,403.112 56.385,400.374 124.131,400.374 121.393,403.112 "
     id="polygon5425"
     style="fill:url(#SVGID_12_)"
     transform="translate(-0.86501516,-62.906)" /><path
     d="m 43.403985,268.718 c 2.964,1.574 6.435,2.795 9.944,2.795 5.637,0 12.916,-2.992 12.916,-7.572 0,-3.289 -14.677,-18.787 -20.372,-18.787 -5.695,0 -8.044,8.512 -9.688,12.152 -1.937,4.461 0.364,6.631 1.644,7.691 1.449,1.199 3.363,2.556 5.556,3.721 z"
     id="path5427"
     inkscape:connector-curvature="0"
     style="fill:#4bb05c" /><path
     d="m 93.553985,14.634393 c 0,-1.229619 -1.863,-2.225942 -4.161,-2.225942 -2.297,0 -4.159,0.996323 -4.159,2.225942 V 52.83873 c 0,1.22962 1.862,2.22594 4.159,2.22594 2.298,0 4.161,-0.99632 4.161,-2.22594 z"
     id="path5429"
     inkscape:connector-curvature="0"
     style="fill:#6db863;stroke-width:0.73149318" /><ellipse
     transform="rotate(-23.121855)"
     cx="-54.855385"
     cy="251.03551"
     rx="3.0760944"
     ry="6.3741956"
     id="ellipse5431"
     style="fill:#dbdde5;stroke-width:1.00003064" /><ellipse
     transform="rotate(-23.111316)"
     cx="-54.811089"
     cy="251.02054"
     rx="2.3558872"
     ry="4.8807664"
     id="ellipse5433"
     style="fill:#305475;stroke-width:0.9999522" /><path
     d="m 135.38298,268.718 c -2.964,1.574 -6.435,2.795 -9.943,2.795 -5.637,0 -12.917,-2.992 -12.917,-7.572 0,-3.289 14.677,-18.787 20.372,-18.787 5.695,0 8.044,8.512 9.688,12.152 1.938,4.461 -0.365,6.631 -1.644,7.691 -1.449,1.199 -3.365,2.556 -5.556,3.721 z"
     id="path5435"
     inkscape:connector-curvature="0"
     style="fill:#4bb05c" /><ellipse
     transform="rotate(-156.87063)"
     cx="-219.32605"
     cy="-180.7885"
     rx="3.0759323"
     ry="6.3738599"
     id="ellipse5437"
     style="fill:#dbdde5;stroke-width:0.99997801" /><ellipse
     transform="rotate(-156.87814)"
     cx="-219.28314"
     cy="-180.80592"
     rx="2.3550723"
     ry="4.8811498"
     id="ellipse5439"
     style="fill:#305475;stroke-width:1.00003064" /><rect
     x="65.048988"
     y="101.423"
     width="48.688"
     height="142.66701"
     id="rect5441"
     style="fill:#00652e" /><path
     d="m 123.90498,230.757 4.875,-9.15 -7.693,-4.553 c -0.179,-0.682 -0.387,-1.352 -0.615,-2.012 -0.064,-0.189 -0.141,-0.373 -0.209,-0.559 -0.175,-0.477 -0.357,-0.947 -0.557,-1.412 -0.088,-0.205 -0.184,-0.406 -0.275,-0.607 -0.203,-0.443 -0.416,-0.883 -0.641,-1.314 -0.102,-0.197 -0.205,-0.391 -0.312,-0.584 -0.102,-0.184 -0.193,-0.373 -0.299,-0.557 l 1.432,-6.91 -6.82,0.105 c -5.938,-5.641 -14.241995,-9.152 -23.440995,-9.152 -9.199,0 -17.504,3.512 -23.441,9.152 l -6.821,-0.105 1.433,6.91 c -0.104,0.18 -0.192,0.365 -0.292,0.545 -0.11,0.201 -0.218,0.402 -0.324,0.605 -0.222,0.426 -0.43,0.855 -0.63,1.293 -0.096,0.209 -0.193,0.414 -0.283,0.625 -0.196,0.457 -0.375,0.92 -0.548,1.389 -0.071,0.193 -0.149,0.385 -0.217,0.58 -0.228,0.66 -0.435,1.328 -0.614,2.006 l -7.693,4.555 4.875,9.15 2.049,0.748 c 0.102,0.979 0.257,1.945 0.458,2.895 l -4.231,6.949 4.799,6.602 5.905,-0.643 c 0.329,0.381 0.668,0.754 1.016,1.119 -0.007,-0.006 -0.015,-0.014 -0.022,-0.02 l -1.965,6.404 4.949,5.4 2.049,-0.871 1.476,1.977 2.816,-1.82 c 1.532,0.873 3.152,1.625 4.856,2.227 l 0.202,2.988 2.101,3 3.996,-4.484 c 1.09,0.143 2.201,0.217 3.325,0.244 l 0.778,1.49 0.777,-1.49 c 1.125,-0.027 2.235,-0.102 3.325,-0.244 l 3.997,4.484 2.1,-3.002 0.204,-2.988 c 1.702995,-0.602 3.322995,-1.354 4.853995,-2.225 l 2.816,1.82 1.477,-1.977 2.048,0.871 4.95,-5.4 v 0 h 0.002 l -1.967,-6.406 c 0.34,-0.359 0.671,-0.725 0.992,-1.098 l 5.905,0.643 4.8,-6.602 h 0.002 l -4.233,-6.949 c 0.201,-0.949 0.356,-1.916 0.459,-2.895 z"
     id="path5443"
     inkscape:connector-curvature="0"
     style="fill:none;stroke:#114d75;stroke-width:2;stroke-linecap:round;stroke-linejoin:round" /><path
     d="m 84.568985,258.632 -5.421,6.08 2.101,3 3.996,-4.484 c 1.09,0.143 2.201,0.217 3.325,0.244 l -2.432,-4.658 c -0.526,-0.055 -1.054,-0.104 -1.569,-0.182 z"
     id="path5445"
     inkscape:connector-curvature="0"
     style="fill:#035279" /><path
     d="m 78.101985,256.903 -4.013,2.594 c 1.532,0.873 3.152,1.625 4.856,2.227 l -0.312,-4.613 c -0.18,-0.067 -0.354,-0.14 -0.531,-0.208 z"
     id="path5447"
     inkscape:connector-curvature="0"
     style="fill:#035279" /><path
     d="m 100.06498,257.108 -0.312995,4.613 c 1.702995,-0.602 3.322995,-1.354 4.853995,-2.225 l -4.012,-2.596 c -0.178,0.069 -0.352,0.144 -0.529,0.208 z"
     id="path5449"
     inkscape:connector-curvature="0"
     style="fill:#035279" /><path
     d="m 92.556985,258.811 -2.432,4.66 c 1.125,-0.027 2.235,-0.102 3.325,-0.244 l 3.997,4.484 2.1,-3.002 v 0 l -5.419,-6.08 c -0.516,0.081 -1.046,0.13 -1.571,0.182 z"
     id="path5451"
     inkscape:connector-curvature="0"
     style="fill:#035279" /><polygon
     points="111.812,323.118 116.762,317.717 116.762,317.717 111.61,315.528 111.812,319.499 109.764,322.247 "
     id="polygon5453"
     style="fill:#035279"
     transform="translate(-0.86501516,-62.906)" /><polygon
     points="68.613,323.118 70.662,322.247 68.613,319.499 68.814,315.528 63.664,317.717 "
     id="polygon5455"
     style="fill:#035279"
     transform="translate(-0.86501516,-62.906)" /><path
     d="m 78.134985,256.88 -0.033,0.023 c 0.177,0.068 0.352,0.141 0.531,0.207 l 0.515,7.602 5.421,-6.08 c 0.516,0.078 1.043,0.127 1.569,0.182 l -0.14,-0.268 c -2.734,-0.256 -5.37,-0.825 -7.863,-1.666 z"
     id="path5457"
     inkscape:connector-curvature="0"
     style="fill:#376084" /><path
     d="m 64.763985,248.407 -1.965,6.404 5.15,-2.189 0.063,-1.242 c -1.156,-0.92 -2.241,-1.914 -3.248,-2.973 z"
     id="path5459"
     inkscape:connector-curvature="0"
     style="fill:#376084" /><path
     d="m 92.695985,258.546 -0.139,0.266 c 0.525,-0.053 1.055,-0.102 1.571,-0.182 l 5.419,6.08 0.517995,-7.602 c 0.178,-0.064 0.353,-0.139 0.529,-0.207 l -0.033,-0.021 c -2.493995,0.841 -5.128995,1.41 -7.864995,1.666 z"
     id="path5461"
     inkscape:connector-curvature="0"
     style="fill:#376084" /><path
     d="m 110.68198,251.382 0.063,1.24 5.153,2.189 -1.967,-6.406 c -1.006,1.061 -2.091,2.055 -3.249,2.977 z"
     id="path5463"
     inkscape:connector-curvature="0"
     style="fill:#376084" /><path
     d="m 121.85698,231.505 2.048,-0.748 4.875,-9.15 -7.693,-4.553 c -0.652,-2.482 -1.635,-4.846 -2.908,-7.045 l 1.432,-6.91 -6.82,0.105 c -5.938,-5.641 -14.241995,-9.152 -23.440995,-9.152 -9.199,0 -17.504,3.512 -23.441,9.152 l -6.821,-0.105 1.433,6.91 c -1.273,2.199 -2.256,4.562 -2.908,7.043 l -7.693,4.555 4.875,9.15 2.049,0.748 c 0.102,0.979 0.257,1.945 0.458,2.895 l -4.231,6.949 4.799,6.602 5.905,-0.643 c 1.273,1.477 2.694,2.84 4.242,4.072 l -0.265,5.213 3.524,4.725 6.859,-4.438 c 2.493,0.842 5.129,1.41 7.863,1.666 l 3.35,6.416 3.348,-6.416 c 2.736,-0.256 5.371,-0.824 7.864995,-1.666 l 6.861,4.438 3.525,-4.725 -0.266,-5.211 c 1.549,-1.234 2.969,-2.598 4.242,-4.074 l 5.905,0.643 4.8,-6.602 -4.231,-6.947 c 0.202,-0.952 0.357,-1.919 0.46,-2.897 z"
     id="path5465"
     inkscape:connector-curvature="0"
     style="fill:#035279" /><polygon
     points="90.213,327.868 90.213,324.866 86.072,316.934 86.863,321.452 "
     id="polygon5467"
     style="fill:#024a6f"
     transform="translate(-0.86501516,-62.906)" /><polygon
     points="68.613,319.499 72.138,324.223 78.967,319.809 76.497,314.401 "
     id="polygon5469"
     style="fill:#024a6f"
     transform="translate(-0.86501516,-62.906)" /><polygon
     points="53.932,304.254 58.73,310.856 64.636,310.213 62.678,303.26 "
     id="polygon5471"
     style="fill:#024a6f"
     transform="translate(-0.86501516,-62.906)" /><polygon
     points="50.781,284.512 55.656,293.663 57.705,294.411 57.553,286.983 "
     id="polygon5473"
     style="fill:#024a6f"
     transform="translate(-0.86501516,-62.906)" /><polygon
     points="90.213,327.868 90.213,324.866 94.354,316.934 93.561,321.452 "
     id="polygon5475"
     style="fill:#024a6f"
     transform="translate(-0.86501516,-62.906)" /><polygon
     points="111.812,319.499 108.287,324.223 101.459,319.809 103.928,314.401 "
     id="polygon5477"
     style="fill:#024a6f"
     transform="translate(-0.86501516,-62.906)" /><polygon
     points="126.494,304.254 121.694,310.856 115.789,310.213 117.748,303.26 "
     id="polygon5479"
     style="fill:#024a6f"
     transform="translate(-0.86501516,-62.906)" /><polygon
     points="129.645,284.512 124.77,293.663 122.721,294.411 122.873,286.983 "
     id="polygon5481"
     style="fill:#024a6f"
     transform="translate(-0.86501516,-62.906)" /><path
     d="m 120.56898,233.036 c 0.937,-2.805 1.443,-5.783 1.443,-8.869 0,-0.031 -0.004,-0.061 -0.004,-0.09 l 6.771,-2.471 -7.693,-4.553 c -0.76,-2.891 -1.971,-5.617 -3.562,-8.115 l 2.085,-5.84 -6.82,0.105 c -5.938,-5.641 -14.241995,-9.152 -23.440995,-9.152 -9.199,0 -17.504,3.512 -23.441,9.152 l -6.821,-0.105 2.085,5.842 c -1.59,2.496 -2.801,5.223 -3.561,8.111 l -7.693,4.555 6.771,2.471 c 0,0.029 -0.003,0.059 -0.003,0.09 0,3.088 0.507,6.066 1.443,8.871 l -5.062,8.311 8.746,-0.994 c 1.764,2.545 3.928,4.828 6.416,6.775 l -0.48,9.463 7.884,-5.098 c 2.978,1.271 6.194,2.141 9.575,2.533 l 4.141,7.932 4.141,-7.932 c 3.38,-0.393 6.597995,-1.262 9.573995,-2.533 l 7.885,5.098 -0.481,-9.463 c 2.488,-1.947 4.653,-4.23 6.417,-6.775 l 8.748,0.994 z"
     id="path5483"
     inkscape:connector-curvature="0"
     style="fill:#376084" /><ellipse
     cx="89.346985"
     cy="223.651"
     rx="31.504999"
     ry="29.047001"
     id="ellipse5485"
     style="fill:#4b698c" /><ellipse
     cx="89.346985"
     cy="223.01199"
     rx="30.261999"
     ry="27.898001"
     id="ellipse5487"
     style="fill:#5d7495" /><ellipse
     cx="89.347984"
     cy="223.01199"
     rx="25.577999"
     ry="23.58"
     id="ellipse5489"
     style="fill:#7484a2" /><polygon
     points="74.049,304.063 106.467,304.063 111.19,299.93 111.19,165.558 69.325,165.558 69.325,299.93 "
     id="polygon5491"
     style="fill:none;stroke:#005826;stroke-width:2;stroke-linecap:round;stroke-linejoin:round"
     transform="translate(-0.86501516,-62.906)" /><rect
     x="77.120987"
     y="102.652"
     width="24.542999"
     height="138.505"
     id="rect5493"
     style="fill:#89c97f" /><polygon
     points="102.529,304.063 106.467,304.063 111.19,299.93 111.19,165.558 102.529,165.558 "
     id="polygon5495"
     style="fill:#008843"
     transform="translate(-0.86501516,-62.906)" /><polygon
     points="77.986,304.063 74.049,304.063 69.325,299.93 69.325,165.558 77.986,165.558 "
     id="polygon5497"
     style="fill:#008843"
     transform="translate(-0.86501516,-62.906)" /><ellipse
     cx="89.39299"
     cy="215.733"
     rx="9.3190002"
     ry="10.98"
     id="ellipse5499"
     style="fill:#dbdde5" /><ellipse
     cx="89.391991"
     cy="215.733"
     rx="4.1999998"
     ry="4.9489999"
     id="ellipse5501"
     style="fill:#305475" /></svg>