<?xml version="1.0"?>
<!-- Copyright (c) 2006 by Interactive Network Technologies, Inc. -->
<svg  x="-50%" y ="0%" width="100%" height="100%" viewBox="-100 0 200 200" preserveAspectRatio="none"
    xmlns="http://www.w3.org/2000/svg" version="1.1">
  <desc>Nipple</desc>
    <defs>
      <linearGradient id="GreyGradient" x1="0%" x2="50%" spreadMethod = "reflect" gradientUnits="objectBoundingBox">
        <stop offset="5%" stop-color="rgb(50, 50, 50)" />
        <stop offset="95%" stop-color="rgb(240, 240, 240)" />
      </linearGradient>
      <linearGradient id="BlueGradient" x1="0%" x2="50%" spreadMethod = "reflect" gradientUnits="objectBoundingBox">
        <stop offset="5%" stop-color="rgb(0, 121, 197)"/>
        <stop offset="95%" stop-color="rgb(227, 239, 250)"/>
      </linearGradient>

    </defs>

  <polygon fill="url(#GreyGradient)" stroke="black" stroke-width="1"
            points="-90  0 90 0 100 10 -100 10" />

  <rect x="-100" y="10" width="200" height="180" stroke-width="1"
        fill="url(#GreyGradient)"  stroke="black"  />

  <polygon fill="url(#GreyGradient)" stroke="black" stroke-width="1"
            points="-90  200 90 200 100 190 -100 190" />


  <polygon fill="url(#BlueGradient)"
            points="-100, 10, 100, 10, 40, 25, -40, 25" />

  <rect x="-40" y="25" width="80" height="20"
        fill="url(#BlueGradient)"/>

  <polygon fill="url(#BlueGradient)"
      points="-40,45 40,45, 50,47 -50,47" />

  <rect x="-50" y="47" width="100" height="20"
        fill="url(#BlueGradient)"/>

  <polygon fill="url(#BlueGradient)"
      points="-50,67 50,67, 40,70 -40,70" />
          
  <rect x="-40" y="70" width="80" height="105"
        fill="url(#BlueGradient)"/>
          
  <polygon fill="url(#BlueGradient)"
            points="-100, 190, 100, 190, 40, 175, -40, 175" />


</svg>

