<?xml version="1.0"?>
<!-- Copyright (c) 2005 by Interactive Network Technologies, Inc. -->
<svg  x="-50%" y ="0%" width="100%" height="100%" viewBox="-100 0 200 445" preserveAspectRatio="none"
    xmlns="http://www.w3.org/2000/svg" version="1.1">
  <desc>Mud Motor</desc>
    <defs>
      <linearGradient x1="0%" x2="50%" id="Gradient" spreadMethod = "reflect" gradientUnits="objectBoundingBox">
        <stop offset="5%" stop-color="rgb(46, 70, 112)" />
        <stop offset="95%" stop-color="white" />
      </linearGradient>
      <linearGradient x1="0%" y2="50%" id="GreyGradient" spreadMethod = "reflect" gradientUnits="objectBoundingBox">
        <stop offset="5%" stop-color="rgb(50, 50, 50)" />
        <stop offset="95%" stop-color="rgb(200, 200, 200)" />
      </linearGradient>
    </defs>
  <rect x="-100" y="0" width="200" height="50" stroke-width="0"
        fill="url(#Gradient)"  stroke="rgb(46, 70, 112)"  />
  <rect x="-95" y="50" width="190" height="5" stroke-wzidth="0"
        fill="rgb(46, 70, 112)"  />
  <rect x="-100" y="55" width="200" height="360" stroke-width="0"
        fill="url(#Gradient)"  stroke="rgb(46, 70, 112)"  />
  <rect x="-95" y="390" width="190" height="5" stroke-width="3"
        fill="rgb(46, 70, 112)"  />
  <rect x="-100" y="395" width="200" height="50" stroke-width="0"
        fill="url(#Gradient)"  stroke="rgb(46, 70, 112)"  />

  <path d="M-90 60 L 90 60 C100 60 100 110 90 110 L -90 110 C -100 110 -100 60 -90 60z"
        fill="url(#GreyGradient)"  stroke-width="0"  stroke="black" />
  <path d="M-90 115 L 90 115 C100 115 100 165 90 165 L -90 165 C -100 165 -100 115 -90 115z"
        fill="url(#GreyGradient)"  stroke-width="0"  stroke="black" />
  <path d="M-90 170 L 90 170 C100 170 100 220 90 220 L -90 220 C -100 220 -100 170 -90 170z"
        fill="url(#GreyGradient)"  stroke-width="0"  stroke="black" />
  <path d="M-90 225 L 90 225 C100 225 100 275 90 275 L -90 275 C -100 275 -100 225 -90 225z"
        fill="url(#GreyGradient)"  stroke-width="0"  stroke="black" />
  <path d="M-90 280 L 90 280 C100 280 100 330 90 330 L -90 330 C -100 330 -100 280 -90 280z"
        fill="url(#GreyGradient)"  stroke-width="0"  stroke="black" />
  <path d="M-90 335 L 90 335 C100 335 100 385 90 385 L -90 385 C -100 385 -100 335 -90 335z"
        fill="url(#GreyGradient)"  stroke-width="0"  stroke="black" />

  <circle fill="black" stroke-width="0" cx ="-80" cy="25" r="5" />
  <circle fill="black" stroke-width="0" cx ="-40" cy="25" r="5" />
  <circle fill="black" stroke-width="0" cx ="0" cy="25" r="5" />
  <circle fill="black" stroke-width="0" cx ="40" cy="25" r="5" />
  <circle fill="black" stroke-width="0" cx ="80" cy="25" r="5" />

  <circle fill="black" stroke-width="0" cx ="-80" cy="420" r="5" />
  <circle fill="black" stroke-width="0" cx ="-40" cy="420" r="5" />
  <circle fill="black" stroke-width="0" cx ="0" cy="420" r="5" />
  <circle fill="black" stroke-width="0" cx ="40" cy="420" r="5" />
  <circle fill="black" stroke-width="0" cx ="80" cy="420" r="5" />

</svg>
