<?xml version="1.0" standalone="no"?>
<svg  x="-50%" y ="0%" width="100%" height="100%" viewBox="-100 0 200 500" preserveAspectRatio="none"
    xmlns="http://www.w3.org/2000/svg" version="1.1">
  <desc>Packer - dual</desc>
<!-- Copyright (c) Interactive Network Technologies, Inc. -->

    <defs>/
      <linearGradient x1="0%" x2="50%" id="Gradient" spreadMethod = "reflect" gradientUnits="objectBoundingBox">
        <stop offset="5%" stop-color="rgb(63, 145, 133)" />
        <stop offset="95%" stop-color="rgb(220, 247, 243)" />
      </linearGradient>
      <linearGradient x1="0%" x2="50%" id="GreyGradient" spreadMethod = "reflect" gradientUnits="objectBoundingBox">
        <stop offset="5%" stop-color="rgb(0, 0, 0)" />
        <stop offset="95%" stop-color="rgb(100, 100, 100)" />
      </linearGradient>
    </defs>

  <rect x="-70" y="0" width="50" height="25"
        fill="url(#Gradient)"  stroke-width="1" stroke="black"  />
  <rect x="20" y="0" width="50" height="25"
        fill="url(#Gradient)"  stroke-width="1" stroke="black"  />
  <rect x="-70" y="25" width="140" height="25"
        fill="url(#Gradient)"  stroke-width="1" stroke="black"  />

  <polygon fill="url(#Gradient)" stroke="black" stroke-width="1" 
            points="-60, 50, 60, 50, 60, 100, 100, 150, 100, 200 -100, 200, -100, 150, -60, 100" />

  <polygon fill="url(#Gradient)" stroke="black" stroke-width="1" 
           points="-100, 300, 100, 300, 100, 350, 60, 400, 60, 450, -60, 450, -60, 400, -100, 350" />

  <rect x="-100" y="150" width="200" height="200"
        fill="url(#GreyGradient)"  stroke-width="1" stroke="black"  />

  <rect x="-70" y="475" width="50" height="25"
        fill="url(#Gradient)"  stroke-width="1" stroke="black"  />
  <rect x="20" y="475" width="50" height="25"
        fill="url(#Gradient)"  stroke-width="1" stroke="black"  />
  <rect x="-70" y="450" width="140" height="25"
        fill="url(#Gradient)"  stroke-width="1" stroke="black"  />

</svg>

