<?xml version="1.0" encoding="UTF-8" standalone="no"?>
<!-- Generator: Adobe Illustrator 13.0.2, SVG Export Plug-In  -->

<svg
   xmlns:dc="http://purl.org/dc/elements/1.1/"
   xmlns:cc="http://creativecommons.org/ns#"
   xmlns:rdf="http://www.w3.org/1999/02/22-rdf-syntax-ns#"
   xmlns:svg="http://www.w3.org/2000/svg"
   xmlns="http://www.w3.org/2000/svg"
   xmlns:sodipodi="http://sodipodi.sourceforge.net/DTD/sodipodi-0.dtd"
   xmlns:inkscape="http://www.inkscape.org/namespaces/inkscape"
   version="1.1"
   x="0px"
   y="0px"
   width="248.19545"
   height="237.87802"
   viewBox="-0.672 -0.19 248.19545 237.87802"
   enable-background="new -0.672 -0.19 249 323"
   xml:space="preserve"
   id="svg6353"
   sodipodi:docname="Drill-Bit.ver.2.svg"
   inkscape:version="0.92.2 (5c3e80d, 2017-08-06)"><metadata
     id="metadata6357"><rdf:RDF><cc:Work
         rdf:about=""><dc:format>image/svg+xml</dc:format><dc:type
           rdf:resource="http://purl.org/dc/dcmitype/StillImage" /></cc:Work></rdf:RDF></metadata><sodipodi:namedview
     pagecolor="#ffffff"
     bordercolor="#666666"
     borderopacity="1"
     objecttolerance="10"
     gridtolerance="10"
     guidetolerance="10"
     inkscape:pageopacity="0"
     inkscape:pageshadow="2"
     inkscape:window-width="640"
     inkscape:window-height="480"
     id="namedview6355"
     showgrid="false"
     inkscape:zoom="0.73065015"
     inkscape:cx="123.83065"
     inkscape:cy="161.43201"
     inkscape:window-x="152"
     inkscape:window-y="56"
     inkscape:window-maximized="0"
     inkscape:current-layer="svg6353" /><defs
     id="defs5678" /><linearGradient
     id="SVGID_1_"
     gradientUnits="userSpaceOnUse"
     x1="-431.6543"
     y1="345.79199"
     x2="-325.65479"
     y2="345.79199"
     gradientTransform="rotate(-179.98854,-127.41864,174.10014)"><stop
       offset="0.05"
       style="stop-color:#9299B1"
       id="stop5682" /><stop
       offset="0.5"
       style="stop-color:#FFFFFF"
       id="stop5684" /><stop
       offset="0.9451"
       style="stop-color:#9299B1"
       id="stop5686" /></linearGradient><linearGradient
     id="SVGID_2_"
     gradientUnits="userSpaceOnUse"
     x1="-433.9072"
     y1="303.35449"
     x2="-323.43311"
     y2="303.35449"
     gradientTransform="rotate(-179.98854,-127.41864,174.10014)"><stop
       offset="0.05"
       style="stop-color:#5D7091"
       id="stop5691" /><stop
       offset="0.5"
       style="stop-color:#FFFFFF"
       id="stop5693" /><stop
       offset="0.9451"
       style="stop-color:#5D7091"
       id="stop5695" /></linearGradient><polygon
     points="58.307,85.864 41.392,85.865 38.963,88.285 38.961,157.919 38.961,157.921 208.337,157.921 208.338,88.289 205.918,85.868 189.169,85.869 "
     id="polygon5700"
     style="fill:none;stroke:#005826;stroke-width:2;stroke-linecap:round;stroke-linejoin:round"
     transform="translate(-0.66935201,-85.054)" /><linearGradient
     id="SVGID_3_"
     gradientUnits="userSpaceOnUse"
     x1="-293.7832"
     y1="225.14549"
     x2="-463.582"
     y2="225.14549"
     gradientTransform="rotate(-179.98854,-127.41864,174.10014)"><stop
       offset="0.05"
       style="stop-color:#007941"
       id="stop5702" /><stop
       offset="0.1671"
       style="stop-color:#319557"
       id="stop5704" /><stop
       offset="0.2842"
       style="stop-color:#62AF6B"
       id="stop5706" /><stop
       offset="0.3827"
       style="stop-color:#7DC179"
       id="stop5708" /><stop
       offset="0.45"
       style="stop-color:#89C97F"
       id="stop5710" /><stop
       offset="0.55"
       style="stop-color:#89C97F"
       id="stop5712" /><stop
       offset="0.6168"
       style="stop-color:#7CC078"
       id="stop5714" /><stop
       offset="0.7206"
       style="stop-color:#5EAD69"
       id="stop5716" /><stop
       offset="0.8478"
       style="stop-color:#229053"
       id="stop5718" /><stop
       offset="0.9451"
       style="stop-color:#007941"
       id="stop5720" /></linearGradient><polygon
     points="38.961,157.919 38.961,157.921 208.337,157.921 208.338,88.289 38.963,88.285 "
     id="polygon5723"
     style="fill:url(#SVGID_3_)"
     transform="translate(-0.66935201,-85.054)" /><linearGradient
     id="SVGID_4_"
     gradientUnits="userSpaceOnUse"
     x1="-463.1572"
     y1="261.1738"
     x2="-293.7832"
     y2="261.1738"
     gradientTransform="rotate(-179.98854,-127.41864,174.10014)"><stop
       offset="0.05"
       style="stop-color:#238958"
       id="stop5725" /><stop
       offset="0.1407"
       style="stop-color:#4E9D6A"
       id="stop5727" /><stop
       offset="0.2687"
       style="stop-color:#7AB881"
       id="stop5729" /><stop
       offset="0.3764"
       style="stop-color:#95C98F"
       id="stop5731" /><stop
       offset="0.45"
       style="stop-color:#A1D296"
       id="stop5733" /><stop
       offset="0.55"
       style="stop-color:#A1D296"
       id="stop5735" /><stop
       offset="0.6234"
       style="stop-color:#94C88F"
       id="stop5737" /><stop
       offset="0.7375"
       style="stop-color:#76B57E"
       id="stop5739" /><stop
       offset="0.8772"
       style="stop-color:#459866"
       id="stop5741" /><stop
       offset="0.9451"
       style="stop-color:#238958"
       id="stop5743" /></linearGradient><linearGradient
     id="SVGID_5_"
     gradientUnits="userSpaceOnUse"
     x1="70.809601"
     y1="129.1084"
     x2="176.1431"
     y2="129.1084"
     gradientTransform="translate(-0.66935201,-85.054)"><stop
       offset="0"
       style="stop-color:#85C87B"
       id="stop5748" /><stop
       offset="0.1771"
       style="stop-color:#78C073"
       id="stop5750" /><stop
       offset="1"
       style="stop-color:#42AB59"
       id="stop5752" /></linearGradient><rect
     x="69.81765"
     y="17.055"
     width="106.199"
     height="53.999001"
     id="rect5755"
     style="fill:url(#SVGID_5_)" /><path
     d="M 0.41564799,112.015 5.207648,161.402 c 0.145,1.508 0.388,3.107 0.687,4.635 0.244,1.229 0.524,2.414 0.831,3.465 l 1.149,3.928 c 0.022,1.662 0.078,3.273 0.16,4.84 -2.375,0.752 -3.692,3.945 -2.956,7.348 0.603,2.801 2.408,4.896 4.407,5.393 0.256,1.395 0.544,2.734 0.853,4.035 l -1.241,0.336 c -3.162,1.131 -4.457,5.506 -2.892,9.773 1.561,4.27 5.389,6.812 8.552,5.68 l 1.285,-0.551 c 0.615,1.119 1.252,2.176 1.907,3.174 -2.668,1.971 -3.229,6.178 -1.19,9.74 2.167,3.787 6.717,5.477 9.833,3.693 l 2.396,-1.83 c 0.095,-0.061 0.176,-0.139 0.251,-0.225 0.303,0.193 0.606,0.381 0.907,0.561 0.747,0.605 1.574,1.043 2.424,1.299 0.034,0.016 0.067,0.031 0.101,0.047 -0.378,2.266 0.438,4.895 2.39,6.926 2.987,3.111 7.481,3.643 10.041,1.186 l 3.996,-4.371 c 0.236,-0.236 0.499,-0.656 0.658,-1.176 1.645,-0.029 3.361,-0.273 5.08,-0.709 2.512,0.393 4.788,0.605 6.716,0.684 1.22,2.057 4.074,3.787 5.907,4.346 l 7.333,2.666 c 1.938,0.703 4.57,-1.613 6.035,-5.227 l 7.051,2.564 c 2.102,0.764 4.827,-1.775 6.296,-5.818 0.007,-0.021 0.012,-0.043 0.021,-0.062 l 1.126,0.443 c 0.003,0.01 0.006,0.021 0.01,0.031 1.179,3.777 2.591,6.695 3.149,6.521 l 2.004002,-0.658 c 0.765,1.666 1.442,2.697 1.78,2.584 l 11.804,-4.154 c 1.659,-0.652 3.162,-1.854 4.198,-3.314 -0.147,0.012 -0.286,0.02 -0.431,0.029 1.025,-0.076 2.11,-0.209 3.24,-0.402 0.846,2.402 1.64,3.998 1.989,3.863 l 7.095,-3.186 c 1.432,-0.699 4.145,-1.982 5.713,-4.08 l -0.002,0.002 c 1.9,2.854 5.346,4.494 8.949,3.898 3.18,-0.523 5.684,-2.66 6.838,-5.432 1.156,0.312 2.338,0.621 3.541,0.922 0.586,3.199 2.832,5.783 5.902,6.35 2.569,0.477 5.107,-0.57 6.859,-2.553 -0.006,-0.002 -0.011,-0.006 -0.018,-0.008 0.205,0.078 0.422,0.148 0.646,0.217 0.101,0.463 0.225,0.928 0.387,1.393 1.541,4.434 5.314,7.152 8.427,6.072 l 11.271,-3.918 c 0.604,-0.221 1.256,-0.6 1.835,-1.01 v -0.002 c 0.727,0.148 1.471,0.154 2.205,-0.021 0.232,-0.057 0.456,-0.129 0.674,-0.217 l 3.098,-0.994 c 1.533,3.715 5.443,6.025 9.555,5.348 4.328,-0.715 7.378,-4.496 7.341,-8.773 l -3.014,2.201 6.022,-4.402 -0.437,0.32 c 2.081,1.941 5.062,2.824 8.016,2.074 4.634,-1.17 7.433,-5.898 6.255,-10.559 -0.33,-1.303 -0.943,-2.453 -1.745,-3.42 l -3.673,3.041 4.947,-4.098 c 0.331,-0.289 0.631,-0.611 0.901,-0.961 0,0 0,0 -0.001,0 3.326,0.451 6.746,-1.043 8.585,-4.084 2.472,-4.09 1.141,-9.42 -2.974,-11.906 -0.381,-0.23 -0.774,-0.418 -1.172,-0.586 l -1.934,7.25 2.51,-9.412 0.139,-0.133 c 0.1,-0.107 0.18,-0.227 0.267,-0.342 1.466,-0.701 2.751,-1.818 3.653,-3.309 1.868,-3.094 1.561,-6.895 -0.479,-9.639 l -2.323,8.713 2.727,-10.225 1.239,-1.129 c 1.231,-1.174 1.844,-3.326 1.135,-5.205 -0.092,-0.246 -0.254,-0.557 -0.45,-0.881 l 0.134,-0.502 c 0.277,-1.053 0.543,-2.258 0.75,-3.486 0.26,-1.529 0.44,-3.105 0.545,-4.611 l 3.432,-49.391 c 0.338,-3.602 0.114,-15.861 -9.223,-21.148 l -27.826,-16.203 c -0.973,-0.6 -1.724,-1.125 -1.724,-1.8 L 38.286648,72.866 c 0,0.676 -0.749,1.201 -1.724,1.8 l -26.924,16.197 C 0.30464799,96.15 0.07764799,108.414 0.41564799,112.015 Z"
     id="path5757"
     inkscape:connector-curvature="0"
     style="fill:none;stroke:#114d75;stroke-width:2;stroke-linecap:round;stroke-linejoin:round" /><path
     d="m 150.43065,189.726 c -2.054,10.463 -4.328,19.051 -5.615,22.791 -0.215,0.646 -0.566,1.492 -0.865,2.141 3.374,-0.227 11.631,-0.25 11.629,-2.781 0.001,-1.104 -0.939,-2.232 -1.816,-3.053 -0.249,-0.279 -0.663,-0.879 -0.663,-1.48 l 0.416,-17.625 z"
     id="path5759"
     inkscape:connector-curvature="0"
     style="fill:#6d7b99" /><path
     d="m 163.08865,187.527 c -1.203,-4.408 -5.558,-7.002 -10.887,-7 -0.26,1.143 -0.523,2.443 -0.789,3.941 -0.316,1.795 -0.646,3.547 -0.982,5.256 l 3.085,-0.006 c 2.08,0 5.973,-0.543 9.573,-2.191 z"
     id="path5761"
     inkscape:connector-curvature="0"
     style="fill:#a0a6bb" /><linearGradient
     id="SVGID_6_"
     gradientUnits="userSpaceOnUse"
     x1="-408.2598"
     y1="74.9067"
     x2="-408.2598"
     y2="35.531601"
     gradientTransform="rotate(-179.98854,-127.75757,131.57317)"><stop
       offset="0.05"
       style="stop-color:#6A7D9C"
       id="stop5763" /><stop
       offset="0.8242"
       style="stop-color:#B3B7C8"
       id="stop5765" /><stop
       offset="1"
       style="stop-color:#D0D1DC"
       id="stop5767" /></linearGradient><path
     d="m 165.58165,227.093 c -0.915,-0.973 -1.356,-2.182 -1.421,-3.475 l -0.746,-33.824 c -0.021,-0.801 -0.135,-1.561 -0.326,-2.268 -3.6,1.648 -7.493,2.191 -9.573,2.191 l -0.416,17.625 c 0,0.602 0.414,1.201 0.663,1.48 0.877,0.82 1.817,1.949 1.816,3.053 0.002,2.531 -8.255,2.555 -11.629,2.781 -0.966,2.1 -2.277,3.965 -4.078,5.641 6.854,2.341 15.965,4.978 25.71,6.796 z"
     id="path5770"
     inkscape:connector-curvature="0"
     style="fill:url(#SVGID_6_)" /><linearGradient
     id="SVGID_7_"
     gradientUnits="userSpaceOnUse"
     x1="-330.5112"
     y1="33.954601"
     x2="-330.5112"
     y2="47.906502"
     gradientTransform="rotate(-179.98854,-127.75757,131.57317)"><stop
       offset="0.05"
       style="stop-color:#DEE0E6"
       id="stop5772" /><stop
       offset="1"
       style="stop-color:#BDC0CF"
       id="stop5774" /></linearGradient><path
     d="m 93.761648,215.406 -4.655,-0.002 c -5.792,0 -14.429,2.305 -20.672,2.812 -0.285,2.238 -1.152,3.094 -2.166,4.049 l -1.743,1.576 c -2.858,2.271 -6.274,3.893 -9.688,4.756 3.261,0.51 6.13,0.719 8.347,0.721 l 11.663,-0.002 c 6.562,0.002 13.85,-1.195 20.269,-3.35 -0.283,-0.66 -0.481,-1.398 -0.555,-2.199 -0.085,-0.951 -0.486,-3.875 -0.8,-8.361 z"
     id="path5777"
     inkscape:connector-curvature="0"
     style="fill:url(#SVGID_7_)" /><path
     d="m 95.379648,180.531 -13.642,-0.002 c -2.297,0 -4.007,0.236 -5.288,0.617 5.175,3.002 12.215,5.188 17.907,6.078 0.271,-2.207 0.609,-4.447 1.023,-6.693 z"
     id="path5779"
     inkscape:connector-curvature="0"
     style="fill:#a0a6bb" /><linearGradient
     id="SVGID_8_"
     gradientUnits="userSpaceOnUse"
     x1="-336.92429"
     y1="82.040497"
     x2="-336.92429"
     y2="46.104301"
     gradientTransform="rotate(-179.98854,-127.75757,131.57317)"><stop
       offset="0.1264"
       style="stop-color:#6A7D9C"
       id="stop5781" /><stop
       offset="0.3636"
       style="stop-color:#7A89A5"
       id="stop5783" /><stop
       offset="0.8528"
       style="stop-color:#A6ACC0"
       id="stop5785" /><stop
       offset="1"
       style="stop-color:#B7BBCB"
       id="stop5787" /></linearGradient><path
     d="m 76.449648,181.146 c -1.159,0.348 -1.97,0.818 -2.539,1.338 -1.282,1.176 -1.333,2.625 -1.509,3.559 l -3.967,32.174 c 6.243,-0.508 14.88,-2.812 20.672,-2.812 l 4.655,0.002 c -0.481,-6.861 -0.763,-17.141 0.595,-28.182 -5.692,-0.891 -12.732,-3.077 -17.907,-6.079 z"
     id="path5790"
     inkscape:connector-curvature="0"
     style="fill:url(#SVGID_8_)" /><linearGradient
     id="SVGID_9_"
     gradientUnits="userSpaceOnUse"
     x1="-327.6416"
     y1="37.855499"
     x2="-325.04111"
     y2="28.9594"
     gradientTransform="rotate(-179.98854,-127.75757,131.57317)"><stop
       offset="0.05"
       style="stop-color:#486387"
       id="stop5792" /><stop
       offset="0.5"
       style="stop-color:#909FB7"
       id="stop5794" /><stop
       offset="0.6484"
       style="stop-color:#B5B9C9"
       id="stop5796" /><stop
       offset="1"
       style="stop-color:#687796"
       id="stop5798" /></linearGradient><path
     d="m 74.793648,236.293 -7.333,-2.666 c -2.268,-0.691 -6.099,-3.174 -6.465,-5.852 -0.355,-2.609 10.103,-2.375 20.51,1.156 -0.125,0.539 -0.281,1.09 -0.483,1.643 -1.417,3.894 -4.203,6.453 -6.229,5.719 z"
     id="path5801"
     inkscape:connector-curvature="0"
     style="fill:url(#SVGID_9_)" /><linearGradient
     id="SVGID_10_"
     gradientUnits="userSpaceOnUse"
     x1="-340.67969"
     y1="40.997101"
     x2="-337.68451"
     y2="31.7176"
     gradientTransform="rotate(-179.98854,-127.75757,131.57317)"><stop
       offset="0.05"
       style="stop-color:#486387"
       id="stop5803" /><stop
       offset="0.5"
       style="stop-color:#909FB7"
       id="stop5805" /><stop
       offset="0.6484"
       style="stop-color:#B5B9C9"
       id="stop5807" /><stop
       offset="1"
       style="stop-color:#687796"
       id="stop5809" /></linearGradient><path
     d="m 87.879648,233.631 -7.613,-2.768 c -2.355,-0.717 -6.335,-3.295 -6.713,-6.074 -0.372,-2.711 10.317,-2.352 21.126,1.316 -0.132,0.561 -0.294,1.131 -0.504,1.707 -1.469,4.043 -4.194,6.582 -6.296,5.819 z"
     id="path5812"
     inkscape:connector-curvature="0"
     style="fill:url(#SVGID_10_)" /><linearGradient
     id="SVGID_11_"
     gradientUnits="userSpaceOnUse"
     x1="-348.33591"
     y1="46.4883"
     x2="-344.6041"
     y2="37.502899"
     gradientTransform="rotate(-179.98854,-127.75757,131.57317)"><stop
       offset="0.05"
       style="stop-color:#486387"
       id="stop5814" /><stop
       offset="0.5"
       style="stop-color:#909FB7"
       id="stop5816" /><stop
       offset="0.6484"
       style="stop-color:#B5B9C9"
       id="stop5818" /><stop
       offset="1"
       style="stop-color:#687796"
       id="stop5820" /></linearGradient><path
     d="m 91.080648,226.521 4.243,1.672 c -1.175,-3.762 -1.616,-6.918 -1.057,-7.094 l 0.013,0.111 c -0.08,-0.742 -0.171,-1.607 -0.262,-2.611 -5.823,-0.898 -9.977,-0.422 -9.725,1.395 0.409,2.957 4.422,5.738 6.788,6.527 z"
     id="path5823"
     inkscape:connector-curvature="0"
     style="fill:url(#SVGID_11_)" /><path
     d="m 144.82265,229.328 c 4.904,-0.809 8.223,-5.441 7.413,-10.346 -0.629,-3.803 -3.558,-6.643 -7.128,-7.354 -0.102,0.318 -0.2,0.621 -0.293,0.889 -0.215,0.646 -0.566,1.492 -0.865,2.141 -0.966,2.1 -2.277,3.965 -4.078,5.641 -0.868,0.809 -1.824,1.553 -2.832,2.25 -0.111,1.098 -0.547,2.053 -1.166,2.881 1.9,2.853 5.346,4.494 8.949,3.898 z"
     id="path5825"
     inkscape:connector-curvature="0"
     style="fill:#647494" /><path
     d="m 165.58165,227.093 c -0.915,-0.973 -1.356,-2.182 -1.421,-3.475 l -0.205,-9.266 c -4.021,-0.588 -7.903,2.506 -8.744,7.043 -0.859,4.635 1.778,9.01 5.893,9.771 2.569,0.477 5.107,-0.57 6.859,-2.553 -1.006,-0.383 -1.797,-0.9 -2.382,-1.52 z"
     id="path5827"
     inkscape:connector-curvature="0"
     style="fill:#647494" /><path
     d="m 208.74265,229.89 c -2.357,0.959 -5.004,0.293 -6.916,-1.48 0.01,-0.004 0.02,-0.008 0.031,-0.01 -0.031,0.01 -0.064,0.025 -0.094,0.035 l -5.275,1.691 c 1.533,3.715 5.443,6.025 9.555,5.348 4.328,-0.715 7.378,-4.496 7.341,-8.773 l -3.014,2.201 c -0.48,0.414 -1.017,0.738 -1.628,0.988 z"
     id="path5829"
     inkscape:connector-curvature="0"
     style="fill:#647494" /><path
     d="m 224.08465,216.552 c -0.041,0.029 -0.089,0.051 -0.131,0.078 -1.712,1.559 -3.559,2.941 -5.499,4.154 -0.04,1.533 -1.122,3.033 -2.062,3.715 l -0.437,0.32 c 2.081,1.941 5.062,2.824 8.016,2.074 4.634,-1.17 7.433,-5.898 6.255,-10.559 -0.33,-1.303 -0.943,-2.453 -1.745,-3.42 l -3.673,3.041 z"
     id="path5831"
     inkscape:connector-curvature="0"
     style="fill:#647494" /><path
     d="m 231.75465,205.736 c 0.006,0.029 0.02,0.057 0.025,0.088 0.396,2.111 -0.132,3.797 -1.123,5.074 3.326,0.451 6.746,-1.043 8.585,-4.084 2.472,-4.09 1.141,-9.42 -2.974,-11.906 -0.381,-0.23 -0.774,-0.418 -1.172,-0.586 l -1.934,7.25 c -0.382,1.461 -0.854,2.848 -1.407,4.164 z"
     id="path5833"
     inkscape:connector-curvature="0"
     style="fill:#647494" /><path
     d="m 236.07665,191.685 c 1.467,-0.701 2.751,-1.816 3.654,-3.309 1.868,-3.094 1.561,-6.895 -0.479,-9.639 l -2.324,8.715 c 0.239,1.374 0.061,3.02 -0.851,4.233 z"
     id="path5835"
     inkscape:connector-curvature="0"
     style="fill:#647494" /><path
     d="m 49.757648,229.306 c 1.645,-0.029 3.361,-0.273 5.08,-0.709 3.415,-0.863 6.83,-2.484 9.688,-4.756 l 1.743,-1.576 c 1.014,-0.955 1.881,-1.811 2.166,-4.049 l 3.967,-32.174 c 0.176,-0.934 0.227,-2.383 1.509,-3.559 0.569,-0.52 1.38,-0.99 2.539,-1.338 1.281,-0.381 2.991,-0.617 5.288,-0.617 l 13.642,0.002 c -0.415,2.246 -0.752,4.486 -1.023,6.693 -0.04,0.32 -0.073,0.639 -0.11,0.959 l -0.896,0.197 c -0.253,0.076 -0.038,1.611 0.496,3.865 -0.489,5.912 -0.551,11.467 -0.42,16.229 l -0.104,0.027 c -0.464,0.139 -0.308,2.125 0.312,4.861 0.042,0.707 0.083,1.395 0.129,2.043 0.17,2.43 0.363,4.383 0.521,5.83 l -0.016,-0.137 c -0.561,0.176 -0.116,3.35 1.066,7.125 1.179,3.777 2.591,6.695 3.149,6.521 l 2.004002,-0.658 c 0.765,1.666 1.442,2.697 1.78,2.584 l 11.804,-4.154 c 1.659,-0.652 3.162,-1.854 4.198,-3.314 -0.147,0.012 -0.286,0.02 -0.431,0.029 1.025,-0.076 2.11,-0.209 3.24,-0.402 0.846,2.402 1.64,3.998 1.989,3.863 l 7.095,-3.186 c 1.993,-0.977 6.476,-3.078 6.877,-6.945 1.008,-0.701 1.962,-1.453 2.832,-2.264 1.801,-1.676 3.112,-3.541 4.078,-5.641 0.299,-0.648 0.65,-1.494 0.865,-2.141 1.287,-3.74 3.562,-12.33 5.614,-22.793 0.335,-1.707 0.667,-3.461 0.983,-5.256 0.266,-1.498 0.529,-2.799 0.789,-3.941 5.329,-0.002 9.684,2.592 10.887,7 0.191,0.707 0.305,1.467 0.326,2.268 l 0.746,33.824 c 0.064,1.293 0.506,2.502 1.421,3.475 0.701,0.744 1.696,1.34 3.011,1.73 0.101,0.463 0.225,0.928 0.387,1.393 1.541,4.434 5.314,7.152 8.427,6.072 l 11.271,-3.918 c 0.604,-0.221 1.256,-0.6 1.835,-1.01 v -0.002 c 0.727,0.148 1.471,0.154 2.205,-0.021 0.232,-0.057 0.456,-0.129 0.674,-0.217 l 8.373,-2.686 c 0.02,-0.006 0.042,-0.018 0.063,-0.025 1.911,1.773 4.558,2.439 6.915,1.48 0.611,-0.25 1.147,-0.574 1.628,-0.988 l 6.022,-4.402 c 0.939,-0.68 2.021,-2.182 2.062,-3.717 1.939,-1.211 3.787,-2.596 5.5,-4.154 0.041,-0.027 0.089,-0.047 0.129,-0.076 l 0.725,-0.596 4.947,-4.098 c 1.545,-1.34 2.53,-3.346 2.023,-6.035 -0.006,-0.031 -0.02,-0.059 -0.025,-0.088 0.553,-1.316 1.026,-2.703 1.408,-4.164 l 2.51,-9.412 0.139,-0.133 c 1.156,-1.229 1.38,-3.072 1.118,-4.576 l 2.727,-10.225"
     id="path5837"
     inkscape:connector-curvature="0"
     style="fill:none;stroke:#114d75;stroke-width:2;stroke-linecap:round;stroke-linejoin:round" /><linearGradient
     id="SVGID_12_"
     gradientUnits="userSpaceOnUse"
     x1="-390.6777"
     y1="190.3252"
     x2="-390.6777"
     y2="35.005699"
     gradientTransform="rotate(-179.98854,-127.75757,131.57317)"><stop
       offset="0.022"
       style="stop-color:#526C8E"
       id="stop5839" /><stop
       offset="0.1319"
       style="stop-color:#A6ACBF"
       id="stop5841" /><stop
       offset="0.2088"
       style="stop-color:#C5C7D4"
       id="stop5843" /><stop
       offset="0.4777"
       style="stop-color:#969DB4"
       id="stop5845" /><stop
       offset="0.7928"
       style="stop-color:#6A7998"
       id="stop5847" /><stop
       offset="0.9451"
       style="stop-color:#5A6E8F"
       id="stop5849" /></linearGradient><path
     d="m 165.33065,72.983 c -0.001,0.789 0.166,1.576 0.616,2.25 l 8.466,12.787 c 5.316,7.912 0.853,19.35 -0.498,23.85 l -13.742,45.514 -2.607,8.639 c -1.835,6.156 -3.555,6.594 -5.363,14.506 -0.26,1.143 -0.523,2.443 -0.789,3.941 -0.314,1.791 -0.648,3.547 -0.984,5.252 -2.051,10.465 -4.326,19.055 -5.613,22.797 -0.215,0.646 -0.566,1.492 -0.865,2.141 -0.966,2.1 -2.277,3.965 -4.078,5.641 -6.477,6.029 -17.299,9.02 -24.01,9.02 l -16.464002,-0.002 c -1.646,0 -3.4,-1.291 -4.281,-3.35 -0.283,-0.66 -0.481,-1.398 -0.555,-2.199 -0.085,-0.951 -0.487,-3.875 -0.8,-8.361 -0.481,-6.861 -0.763,-17.141 0.595,-28.182 0.271,-2.207 0.609,-4.447 1.023,-6.693 0.213,-1.166 0.451,-2.342 0.707,-3.518 0.781,-3.541 1.907,-7.564 3.12,-10.998 l 20.221002,-58.385 c 1.014,-2.588 7.412,-23.285 8.428,-34.759"
     id="path5852"
     inkscape:connector-curvature="0"
     style="fill:url(#SVGID_12_)" /><linearGradient
     id="SVGID_13_"
     gradientUnits="userSpaceOnUse"
     x1="-460.86469"
     y1="190.3438"
     x2="-460.86469"
     y2="33.8857"
     gradientTransform="rotate(-179.98854,-127.75757,131.57317)"><stop
       offset="0.022"
       style="stop-color:#526C8E"
       id="stop5854" /><stop
       offset="0.1319"
       style="stop-color:#A6ACBF"
       id="stop5856" /><stop
       offset="0.2088"
       style="stop-color:#C5C7D4"
       id="stop5858" /><stop
       offset="0.4777"
       style="stop-color:#969DB4"
       id="stop5860" /><stop
       offset="0.7928"
       style="stop-color:#6A7998"
       id="stop5862" /><stop
       offset="0.9451"
       style="stop-color:#5A6E8F"
       id="stop5864" /></linearGradient><path
     d="m 207.66765,72.869 c 0,0.676 0.751,1.201 1.724,1.8 l 27.826,16.203 c 9.337,5.287 9.561,17.547 9.223,21.148 l -3.432,49.391 c -0.104,1.506 -0.285,3.082 -0.545,4.611 -0.207,1.229 -0.473,2.434 -0.75,3.486 l -8.551,32.062 c -6.149,23.549 -35.852,27.748 -45.75,27.748 h -15 c -3.394,0.002 -5.568,-0.887 -6.831,-2.227 -0.915,-0.973 -1.356,-2.182 -1.421,-3.475 0.002,-1.463 -0.186,-6.072 6.002,-6.861 3.033,-0.387 23.849,-2.137 29.363,-28.236 0.561,-2.814 1.688,-7.988 11.363,-7.986 0.9,0 2.136,-1.465 2.475,-2.59 l 3.713,-11.924 11.252,-54.787 c 1.012,-5.287 2.812,-14.287 -3.489,-19.125 l -23.481,-16.65 -0.479,-0.338 c -1.012,-0.674 -1.35,-1.349 -1.35,-2.251"
     id="path5867"
     inkscape:connector-curvature="0"
     style="fill:url(#SVGID_13_)" /><linearGradient
     id="SVGID_14_"
     gradientUnits="userSpaceOnUse"
     x1="-380.9902"
     y1="97.403801"
     x2="-380.9902"
     y2="33.805302"
     gradientTransform="rotate(-179.98854,-127.75757,131.57317)"><stop
       offset="0.05"
       style="stop-color:#8D96AF"
       id="stop5869" /><stop
       offset="0.8242"
       style="stop-color:#A6ACBF"
       id="stop5871" /><stop
       offset="1"
       style="stop-color:#BDC0CF"
       id="stop5873" /></linearGradient><path
     d="m 157.56465,166.021 -58.358002,-0.006 c -1.212,3.434 -2.338,7.457 -3.12,10.998 -0.256,1.176 -0.494,2.352 -0.707,3.518 -0.415,2.246 -0.752,4.486 -1.023,6.693 -1.357,11.041 -1.076,21.32 -0.595,28.182 0.313,4.486 0.715,7.41 0.8,8.361 0.074,0.801 0.271,1.539 0.555,2.199 0.881,2.059 2.635,3.35 4.281,3.35 l 16.464002,0.002 c 6.71,0 17.533,-2.99 24.01,-9.02 1.801,-1.676 3.112,-3.541 4.078,-5.641 0.299,-0.648 0.65,-1.494 0.865,-2.141 1.287,-3.74 3.562,-12.338 5.613,-22.797 0.338,-1.709 0.668,-3.457 0.984,-5.252 0.266,-1.498 0.529,-2.799 0.789,-3.941 1.81,-7.911 3.529,-8.349 5.364,-14.505 z"
     id="path5876"
     inkscape:connector-curvature="0"
     style="fill:url(#SVGID_14_)" /><linearGradient
     id="SVGID_15_"
     gradientUnits="userSpaceOnUse"
     x1="-431.03171"
     y1="174.1611"
     x2="-431.03171"
     y2="99.593597"
     gradientTransform="rotate(-179.98854,-127.75757,131.57317)"><stop
       offset="0.7308"
       style="stop-color:#8E96AF"
       id="stop5878" /><stop
       offset="1"
       style="stop-color:#B5BCCC"
       id="stop5880" /></linearGradient><path
     d="m 174.41265,88.019 c 5.316,7.912 0.853,19.35 -0.498,23.85 l -13.742,45.514 c 2.24,0.889 5.28,3.318 6.756,7.82 8.516,-7.109 11.484,-14.783 13.437,-24.082 l 10.501,-53.102 z"
     id="path5883"
     inkscape:connector-curvature="0"
     style="fill:url(#SVGID_15_)" /><linearGradient
     id="SVGID_16_"
     gradientUnits="userSpaceOnUse"
     x1="-439.6694"
     y1="174.16209"
     x2="-439.6694"
     y2="99.5942"
     gradientTransform="rotate(-179.98854,-127.75757,131.57317)"><stop
       offset="0.7308"
       style="stop-color:#7F8DA9"
       id="stop5885" /><stop
       offset="1"
       style="stop-color:#ADB5C7"
       id="stop5887" /></linearGradient><path
     d="m 199.52965,72.869 c -2.062,6.152 -6.564,12.451 -8.664,15.15 l -10.501,53.102 c -1.952,9.299 -4.921,16.973 -13.437,24.082 0.379,1.141 0.423,2.484 0.426,3.742 l -0.002,9.336 c 3.373,-3.258 16.875,-15.186 21.488,-35.887 l 10.801,-53.436 c 0.562,-2.59 1.958,-9.523 1.717,-13.5 l -0.479,-0.338 c -1.011,-0.673 -1.349,-1.348 -1.349,-2.251 z"
     id="path5890"
     inkscape:connector-curvature="0"
     style="fill:url(#SVGID_16_)" /><linearGradient
     id="SVGID_17_"
     gradientUnits="userSpaceOnUse"
     x1="-437.93311"
     y1="190.5596"
     x2="-437.93311"
     y2="175.2574"
     gradientTransform="rotate(-179.98854,-127.75757,131.57317)"><stop
       offset="0"
       style="stop-color:#828CA7"
       id="stop5892" /><stop
       offset="1"
       style="stop-color:#A9B1C5"
       id="stop5894" /></linearGradient><path
     d="m 199.52965,72.869 c -2.062,6.152 -6.564,12.451 -8.664,15.15 h -16.453 l -8.466,-12.787 c -0.45,-0.674 -0.617,-1.574 -0.616,-2.363 z"
     id="path5897"
     inkscape:connector-curvature="0"
     style="fill:url(#SVGID_17_)" /><linearGradient
     id="SVGID_18_"
     gradientUnits="userSpaceOnUse"
     x1="-481.293"
     y1="113.6694"
     x2="-408.39529"
     y2="113.6694"
     gradientTransform="rotate(-179.98854,-127.75757,131.57317)"><stop
       offset="0"
       style="stop-color:#647495"
       id="stop5899" /><stop
       offset="0.7033"
       style="stop-color:#9098B1"
       id="stop5901" /><stop
       offset="0.7075"
       style="stop-color:#9299B1"
       id="stop5903" /><stop
       offset="0.7808"
       style="stop-color:#A7AEC2"
       id="stop5905" /><stop
       offset="0.8242"
       style="stop-color:#B0B6C8"
       id="stop5907" /></linearGradient><path
     d="m 163.08865,187.527 c 0.191,0.707 0.305,1.467 0.326,2.268 l 0.746,33.824 c 0.002,-1.463 -0.186,-6.072 6.002,-6.861 3.033,-0.387 23.849,-2.137 29.363,-28.236 0.561,-2.814 1.688,-7.988 11.363,-7.986 0.9,0 2.136,-1.465 2.475,-2.59 l 3.713,-11.924 11.252,-54.787 c 1.012,-5.287 2.812,-14.287 -3.489,-19.125 l -23.481,-16.65 c 0.241,3.977 -1.154,10.91 -1.717,13.5 l -10.801,53.436 c -4.613,20.701 -18.115,32.629 -21.488,35.887 l 0.002,-9.336 c -0.003,-1.258 -0.047,-2.602 -0.426,-3.742 -1.476,-4.502 -4.516,-6.932 -6.756,-7.82 l -2.607,8.639 c -1.835,6.156 -3.555,6.594 -5.363,14.506 5.328,-0.005 9.683,2.589 10.886,6.997 z"
     id="path5910"
     inkscape:connector-curvature="0"
     style="fill:url(#SVGID_18_)" /><linearGradient
     id="SVGID_19_"
     gradientUnits="userSpaceOnUse"
     x1="-458.83939"
     y1="96.807602"
     x2="-458.83939"
     y2="39.806702"
     gradientTransform="rotate(-179.98854,-127.75757,131.57317)"><stop
       offset="0.05"
       style="stop-color:#8D96AF"
       id="stop5912" /><stop
       offset="0.8242"
       style="stop-color:#A6ACBF"
       id="stop5914" /><stop
       offset="1"
       style="stop-color:#BDC0CF"
       id="stop5916" /></linearGradient><path
     d="m 242.46365,166.023 c -0.207,1.229 -0.473,2.434 -0.75,3.486 l -8.551,32.062 c -6.149,23.549 -35.852,27.748 -45.75,27.748 h -15 c -3.394,0.002 -5.568,-0.887 -6.831,-2.227 -0.915,-0.973 -1.356,-2.182 -1.421,-3.475 0.002,-1.463 -0.186,-6.072 6.002,-6.861 3.033,-0.387 23.849,-2.137 29.363,-28.236 0.561,-2.814 1.688,-7.988 11.363,-7.986 0.9,0 2.136,-1.465 2.475,-2.59 l 3.713,-11.924 z"
     id="path5919"
     inkscape:connector-curvature="0"
     style="fill:url(#SVGID_19_)" /><path
     d="m 38.291648,72.865 c -0.001,1.574 0.043,5.21 0.939,8.48 l -14.641,9.408 c -7.535,5.062 -8.547,9.336 -9.675,15.262 l -8.102,52.725 c -0.302,2.074 0.12,4.984 0.492,7.275 0.31,1.934 0.6,3.75 0.556,5.699 0.002,0.578 0.003,1.15 0.014,1.715 l -1.149,-3.928 c -0.307,-1.051 -0.587,-2.236 -0.831,-3.465 -0.299,-1.527 -0.542,-3.127 -0.687,-4.635 L 0.41564799,112.014 c -0.338,-3.602 -0.111,-15.865 9.22800001,-21.152 l 26.924,-16.197 c 0.975,-0.599 1.724,-1.124 1.724,-1.8 z"
     id="path5921"
     inkscape:connector-curvature="0"
     style="fill:#5d6f90" /><linearGradient
     id="SVGID_20_"
     gradientUnits="userSpaceOnUse"
     x1="-299.7681"
     y1="190.1035"
     x2="-299.7681"
     y2="175.02699"
     gradientTransform="rotate(-179.98854,-127.75757,131.57317)"><stop
       offset="0"
       style="stop-color:#828CA7"
       id="stop5923" /><stop
       offset="1"
       style="stop-color:#A9B1C5"
       id="stop5925" /></linearGradient><path
     d="m 50.239648,72.865 h -11.948 c -0.001,1.574 0.043,5.21 0.939,8.48 l 8.648,-5.553 c 1.615,-1.052 2.251,-1.839 2.361,-2.927 z"
     id="path5928"
     inkscape:connector-curvature="0"
     style="fill:url(#SVGID_20_)" /><linearGradient
     id="SVGID_21_"
     gradientUnits="userSpaceOnUse"
     x1="-299.0986"
     y1="190.70309"
     x2="-299.0986"
     y2="96.502899"
     gradientTransform="rotate(-179.98854,-127.75757,131.57317)"><stop
       offset="0.022"
       style="stop-color:#526C8E"
       id="stop5930" /><stop
       offset="0.2198"
       style="stop-color:#A6ACBF"
       id="stop5932" /><stop
       offset="0.3242"
       style="stop-color:#C7C9D5"
       id="stop5934" /><stop
       offset="0.5376"
       style="stop-color:#A1A6BB"
       id="stop5936" /><stop
       offset="0.8494"
       style="stop-color:#74809D"
       id="stop5938" /><stop
       offset="1"
       style="stop-color:#637494"
       id="stop5940" /></linearGradient><path
     d="m 50.239648,72.865 c -0.11,1.087 -0.746,1.875 -2.36,2.927 l -8.648,5.553 -14.641,9.408 c -7.535,5.062 -8.547,9.336 -9.675,15.262 l -8.102,52.725 c -0.302,2.074 0.12,4.984 0.492,7.275 0.31,1.934 0.6,3.75 0.556,5.699 0.002,0.578 0.003,1.15 0.014,1.715 0.606,46.805 26.041,55.885 34.709,55.885 l 6.865,0.004 c 1.738,0 3.562,-0.258 5.388,-0.721 3.415,-0.863 6.83,-2.484 9.688,-4.756 l 1.743,-1.576 c 0.509,-0.449 1.195,-2.488 -2.757,-2.924 l -13.499,-1.352 c -3.878,-0.334 -11.811,-5.904 -11.981,-17.043 l -0.541,-14.006 c -0.079,-2.176 -0.978,-15.451 -0.976,-17.1 -0.002,-0.922 0.003,-2.168 0.151,-3.824 0.122,-1.316 0.344,-2.941 0.67,-4.5 l 13.915,-53.775 c 1.688,-5.625 4.911,-12.494 10.128,-17.1 l 17.677,-16.016 c 0.642,-0.553 1.089,-1.029 1.407,-1.759"
     id="path5943"
     inkscape:connector-curvature="0"
     style="fill:url(#SVGID_21_)" /><linearGradient
     id="SVGID_22_"
     gradientUnits="userSpaceOnUse"
     x1="-292.51071"
     y1="97.160599"
     x2="-292.51071"
     y2="34.4618"
     gradientTransform="rotate(-179.98854,-127.75757,131.57317)"><stop
       offset="0"
       style="stop-color:#697F9E"
       id="stop5945" /><stop
       offset="0.8242"
       style="stop-color:#A7ADC1"
       id="stop5947" /><stop
       offset="1"
       style="stop-color:#BDC0CF"
       id="stop5949" /></linearGradient><path
     d="m 7.304648,166.015 c 0.31,1.934 0.6,3.75 0.556,5.699 0.002,0.578 0.003,1.15 0.014,1.715 0.606,46.805 26.041,55.885 34.709,55.885 l 6.865,0.004 c 1.738,0 3.562,-0.258 5.388,-0.721 3.415,-0.863 6.83,-2.484 9.688,-4.756 l 1.743,-1.576 c 0.509,-0.449 1.195,-2.488 -2.757,-2.924 l -13.499,-1.352 c -3.878,-0.334 -11.811,-5.904 -11.981,-17.043 l -0.541,-14.006 c -0.079,-2.176 -0.978,-15.451 -0.976,-17.1 -0.002,-0.922 0.003,-2.168 0.151,-3.824 z"
     id="path5952"
     inkscape:connector-curvature="0"
     style="fill:url(#SVGID_22_)" /><linearGradient
     id="SVGID_23_"
     gradientUnits="userSpaceOnUse"
     x1="-327.3931"
     y1="115.6206"
     x2="-292.29501"
     y2="115.6206"
     gradientTransform="rotate(-179.98854,-127.75757,131.57317)"><stop
       offset="0"
       style="stop-color:#7686A3"
       id="stop5954" /><stop
       offset="1"
       style="stop-color:#5F7191"
       id="stop5956" /></linearGradient><path
     d="m 80.464648,72.867 -12.599,67.498 c -2.254,12.303 -2.65,30.117 6.045,42.119 -1.282,1.176 -1.333,2.625 -1.509,3.559 l -3.967,32.174 c -0.285,2.238 -1.152,3.094 -2.166,4.049 0.509,-0.449 1.195,-2.488 -2.757,-2.924 l -13.499,-1.352 c -3.878,-0.334 -11.811,-5.904 -11.981,-17.043 l -0.541,-14.006 c -0.079,-2.176 -0.978,-15.451 -0.976,-17.1 -0.002,-0.922 0.003,-2.168 0.151,-3.824 0.122,-1.316 0.344,-2.941 0.67,-4.5 l 13.915,-53.775 c 1.688,-5.625 4.911,-12.494 10.128,-17.1 l 17.677,-16.016 c 0.643,-0.552 1.09,-1.028 1.409,-1.759 z"
     id="path5959"
     inkscape:connector-curvature="0"
     style="fill:url(#SVGID_23_)" /><path
     d="m 127.85465,72.871 c -0.915,2.416 -5.051,11.191 -8.198,15.148 -3.34,14.398 -11.144,42.896 -22.543002,74.25 -1.273,3.674 -1.773,11.217 -1.026,14.744 0.781,-3.541 1.907,-7.564 3.12,-10.998 L 119.42865,107.63 c 1.012,-2.587 7.411,-23.285 8.426,-34.759 z"
     id="path5961"
     inkscape:connector-curvature="0"
     style="fill:#5d6f90" /><linearGradient
     id="SVGID_24_"
     gradientUnits="userSpaceOnUse"
     x1="-352.13229"
     y1="174.1582"
     x2="-352.13229"
     y2="99.592201"
     gradientTransform="rotate(-179.98854,-127.75757,131.57317)"><stop
       offset="0.7308"
       style="stop-color:#8E96AF"
       id="stop5963" /><stop
       offset="1"
       style="stop-color:#B5BCCC"
       id="stop5965" /></linearGradient><path
     d="m 84.590648,88.017 -10.127,54.15 c -2.398,12.676 0.188,23.287 6.714,32.4 0.785,1.051 1.911,4.275 0.56,5.961 l 13.642,0.002 c 0.213,-1.166 0.451,-2.342 0.707,-3.518 -0.747,-3.527 -0.247,-11.07 1.026,-14.744 11.400002,-31.354 19.204002,-59.852 22.543002,-74.25 z"
     id="path5968"
     inkscape:connector-curvature="0"
     style="fill:url(#SVGID_24_)" /><linearGradient
     id="SVGID_25_"
     gradientUnits="userSpaceOnUse"
     x1="-359.6626"
     y1="190.10451"
     x2="-359.6626"
     y2="175.02969"
     gradientTransform="rotate(-179.98854,-127.75757,131.57317)"><stop
       offset="0"
       style="stop-color:#828CA7"
       id="stop5970" /><stop
       offset="1"
       style="stop-color:#A9B1C5"
       id="stop5972" /></linearGradient><path
     d="m 80.464648,72.867 c 0.339,5.064 2.124,10.97 4.126,15.15 l 35.066002,0.002 c 3.147,-3.957 7.284,-12.732 8.198,-15.148 z"
     id="path5975"
     inkscape:connector-curvature="0"
     style="fill:url(#SVGID_25_)" /><linearGradient
     id="SVGID_26_"
     gradientUnits="userSpaceOnUse"
     x1="-331.0542"
     y1="174.1562"
     x2="-331.0542"
     y2="99.590401"
     gradientTransform="rotate(-179.98854,-127.75757,131.57317)"><stop
       offset="0.7308"
       style="stop-color:#7F8DA9"
       id="stop5977" /><stop
       offset="1"
       style="stop-color:#B3BACB"
       id="stop5979" /></linearGradient><path
     d="m 80.464648,72.867 c 0.339,5.064 2.124,10.97 4.126,15.15 l -10.127,54.15 c -2.398,12.676 0.188,23.287 6.714,32.4 0.785,1.051 1.911,4.275 0.56,5.961 -2.297,0 -4.007,0.236 -5.288,0.617 -1.159,0.348 -1.97,0.818 -2.539,1.338 -8.695,-12.002 -8.299,-29.816 -6.045,-42.119 z"
     id="path5982"
     inkscape:connector-curvature="0"
     style="fill:url(#SVGID_26_)" /><linearGradient
     id="SVGID_27_"
     gradientUnits="userSpaceOnUse"
     x1="-352.772"
     y1="81.803703"
     x2="-352.772"
     y2="34.405499"
     gradientTransform="rotate(-179.98854,-127.75757,131.57317)"><stop
       offset="0"
       style="stop-color:#707E9C"
       id="stop5984" /><stop
       offset="0.5846"
       style="stop-color:#7886A3"
       id="stop5986" /><stop
       offset="1"
       style="stop-color:#808FAA"
       id="stop5988" /></linearGradient><path
     d="m 95.379648,180.531 c 4.898002,0.91 5.708002,5.062 5.371002,7.535 -2.052002,17.82 0.083,33.338 0.297,35.701 0.224,1.988 -0.036,5.547 -1.650002,5.549 -1.646,0 -3.4,-1.291 -4.281,-3.35 -0.283,-0.66 -0.481,-1.398 -0.555,-2.199 -0.085,-0.951 -0.487,-3.875 -0.8,-8.361 -0.481,-6.861 -0.763,-17.141 0.595,-28.182 0.271,-2.207 0.609,-4.447 1.023,-6.693 z"
     id="path5991"
     inkscape:connector-curvature="0"
     style="fill:url(#SVGID_27_)" /><linearGradient
     id="SVGID_28_"
     gradientUnits="userSpaceOnUse"
     x1="-470.36719"
     y1="58.2827"
     x2="-419.6929"
     y2="58.2827"
     gradientTransform="rotate(-179.98854,-127.75757,131.57317)"><stop
       offset="0"
       style="stop-color:#7A86A2"
       id="stop5993" /><stop
       offset="0.6677"
       style="stop-color:#828FAA"
       id="stop5995" /><stop
       offset="1"
       style="stop-color:#8795AF"
       id="stop5997" /></linearGradient><path
     d="m 172.41265,229.32 c 4.06,-0.473 33.836,-0.629 42.107,-39.672 0.53,-2.363 0.98,-7.65 -3.631,-9.113 -9.675,-0.002 -10.803,5.172 -11.363,7.986 -5.515,26.1 -26.33,27.85 -29.363,28.236 -6.188,0.789 -6,5.398 -6.002,6.861 0.064,1.293 0.506,2.502 1.421,3.475 1.263,1.34 3.437,2.229 6.831,2.227"
     id="path6000"
     inkscape:connector-curvature="0"
     style="fill:url(#SVGID_28_)" /><linearGradient
     id="SVGID_29_"
     gradientUnits="userSpaceOnUse"
     x1="-358.11429"
     y1="77.564499"
     x2="-362.91519"
     y2="61.4683"
     gradientTransform="rotate(-179.98854,-127.75757,131.57317)"><stop
       offset="0.05"
       style="stop-color:#486387"
       id="stop6002" /><stop
       offset="0.5"
       style="stop-color:#909FB7"
       id="stop6004" /><stop
       offset="0.6484"
       style="stop-color:#B5B9C9"
       id="stop6006" /><stop
       offset="1"
       style="stop-color:#687796"
       id="stop6008" /></linearGradient><path
     d="m 93.350648,188.381 11.974002,-2.629 c 4.521,-1.113 8.618,1.344 9.617,4.961 1.144,3.57 -1.271,7.811 -5.334,9.412 l -11.458002,4.354 c -0.396,0.121 -1.791,-3.389 -3.116,-7.834 -1.327,-4.446 -2.081,-8.145 -1.683,-8.264 z"
     id="path6011"
     inkscape:connector-curvature="0"
     style="fill:url(#SVGID_29_)" /><path
     d="m 95.032648,196.644 c -1.326,-4.445 -2.08,-8.145 -1.683,-8.264 0.397,-0.117 1.794,3.391 3.118,7.834 1.327,4.447 2.078,8.148 1.681,8.264 -0.396,0.121 -1.791,-3.388 -3.116,-7.834 z"
     id="path6013"
     inkscape:connector-curvature="0"
     style="fill:#4b6588" /><linearGradient
     id="SVGID_30_"
     gradientUnits="userSpaceOnUse"
     x1="-358.8389"
     y1="44.8862"
     x2="-363.0567"
     y2="31.24"
     gradientTransform="rotate(-179.98854,-127.75757,131.57317)"><stop
       offset="0.05"
       style="stop-color:#486387"
       id="stop6015" /><stop
       offset="0.5"
       style="stop-color:#909FB7"
       id="stop6017" /><stop
       offset="0.6484"
       style="stop-color:#B5B9C9"
       id="stop6019" /><stop
       offset="1"
       style="stop-color:#687796"
       id="stop6021" /></linearGradient><path
     d="m 96.955648,222.967 c -0.785,0.105 -1.592,0.219 -2.437,0.348 l -0.251,-2.215 c -0.561,0.176 -0.116,3.35 1.066,7.125 1.179,3.777 2.591,6.695 3.149,6.521 l 11.891002,-3.906 c 2.933,-1.08 5.465,-3.826 5.731,-6.824 -0.107,-0.775 -3.135,-2.365 -12.724,-1.715 l -5.431002,1.725 c -0.231,0.067 -0.581,-0.327 -0.994,-1.059 z"
     id="path6024"
     inkscape:connector-curvature="0"
     style="fill:url(#SVGID_30_)" /><linearGradient
     id="SVGID_31_"
     gradientUnits="userSpaceOnUse"
     x1="-358.48291"
     y1="57.563499"
     x2="-363.11371"
     y2="42.041302"
     gradientTransform="rotate(-179.98854,-127.75757,131.57317)"><stop
       offset="0.05"
       style="stop-color:#486387"
       id="stop6026" /><stop
       offset="0.5"
       style="stop-color:#909FB7"
       id="stop6028" /><stop
       offset="0.6484"
       style="stop-color:#B5B9C9"
       id="stop6030" /><stop
       offset="1"
       style="stop-color:#687796"
       id="stop6032" /></linearGradient><path
     d="m 94.486648,216.607 c 0.816,2.734 1.74,5.07 2.469,6.359 0.413,0.732 0.763,1.127 0.994,1.059 l 5.431002,-1.725 6.51,-2.068 c 4.247,-1.5 7.615,-5.164 6.158,-10.053 -1.457,-4.887 -6.282,-6.109 -10.657,-5.039 l -12.070002,3.361 c -0.634,0.19 -0.113,3.819 1.165,8.106 z"
     id="path6035"
     inkscape:connector-curvature="0"
     style="fill:url(#SVGID_31_)" /><linearGradient
     id="SVGID_32_"
     gradientUnits="userSpaceOnUse"
     x1="-363.4985"
     y1="36.506802"
     x2="-365.7037"
     y2="28.775101"
     gradientTransform="rotate(-179.98854,-127.75757,131.57317)"><stop
       offset="0.05"
       style="stop-color:#486387"
       id="stop6037" /><stop
       offset="0.5"
       style="stop-color:#909FB7"
       id="stop6039" /><stop
       offset="0.6484"
       style="stop-color:#B5B9C9"
       id="stop6041" /><stop
       offset="1"
       style="stop-color:#687796"
       id="stop6043" /></linearGradient><path
     d="m 113.00765,229.314 c -0.801,0.645 -1.692,1.178 -2.634,1.525 l -9.887,3.246 c 0.765,1.668 1.443,2.699 1.781,2.586 l 11.804,-4.154 c 1.659,-0.652 3.162,-1.854 4.198,-3.314 -0.845,0.074 -1.655,0.117 -2.408,0.115 z"
     id="path6046"
     inkscape:connector-curvature="0"
     style="fill:url(#SVGID_32_)" /><linearGradient
     id="SVGID_33_"
     gradientUnits="userSpaceOnUse"
     x1="-388.60599"
     y1="75.335899"
     x2="-391.10211"
     y2="60.240101"
     gradientTransform="rotate(-179.98854,-127.75757,131.57317)"><stop
       offset="0.05"
       style="stop-color:#486387"
       id="stop6048" /><stop
       offset="0.5"
       style="stop-color:#909FB7"
       id="stop6050" /><stop
       offset="0.6484"
       style="stop-color:#B5B9C9"
       id="stop6052" /><stop
       offset="1"
       style="stop-color:#687796"
       id="stop6054" /></linearGradient><path
     d="m 124.52465,189.277 13.716,-0.955 c 3.336,-0.152 6.383,1.945 6.937,5.297 0.554,3.348 -1.655,6.314 -4.865,7.246 l -13.294,3.508 c -1.268,0.209 -2.853,-3.002 -3.542,-7.17 -0.688,-4.168 -0.219,-7.719 1.048,-7.926 z"
     id="path6057"
     inkscape:connector-curvature="0"
     style="fill:url(#SVGID_33_)" /><ellipse
     transform="rotate(170.62434)"
     cx="-92.031044"
     cy="-214.69623"
     rx="2.3259022"
     ry="7.6486788"
     id="ellipse6059"
     style="fill:#4b6588;stroke-width:0.99995798" /><linearGradient
     id="SVGID_34_"
     gradientUnits="userSpaceOnUse"
     x1="-359.87991"
     y1="93.085899"
     x2="-362.89359"
     y2="79.430199"
     gradientTransform="rotate(-179.98854,-127.75757,131.57317)"><stop
       offset="0.05"
       style="stop-color:#486387"
       id="stop6061" /><stop
       offset="0.5"
       style="stop-color:#909FB7"
       id="stop6063" /><stop
       offset="0.6484"
       style="stop-color:#B5B9C9"
       id="stop6065" /><stop
       offset="1"
       style="stop-color:#687796"
       id="stop6067" /></linearGradient><path
     d="m 97.809648,171.552 10.083002,-1.043 c 3.04,-0.301 5.923,1.467 6.591,4.498 0.667,3.029 -1.203,5.844 -4.088,6.848 l -9.575,3.354 c -1.145002,0.254 -2.750002,-2.6 -3.583002,-6.369 -0.829,-3.772 -0.574,-7.034 0.572,-7.288 z"
     id="path6070"
     inkscape:connector-curvature="0"
     style="fill:url(#SVGID_34_)" /><path
     d="m 97.237648,178.84 c -0.83,-3.771 -0.575,-7.033 0.571,-7.287 1.145,-0.252 2.749002,2.6 3.581002,6.371 0.834,3.771 0.577,7.035 -0.569,7.285 -1.145002,0.254 -2.750002,-2.6 -3.583002,-6.369 z"
     id="path6072"
     inkscape:connector-curvature="0"
     style="fill:#4b6588" /><linearGradient
     id="SVGID_35_"
     gradientUnits="userSpaceOnUse"
     x1="-382.88669"
     y1="56.1646"
     x2="-386.2113"
     y2="41.915401"
     gradientTransform="rotate(-179.98854,-127.75757,131.57317)"><stop
       offset="0.05"
       style="stop-color:#486387"
       id="stop6074" /><stop
       offset="0.5"
       style="stop-color:#909FB7"
       id="stop6076" /><stop
       offset="0.6484"
       style="stop-color:#B5B9C9"
       id="stop6078" /><stop
       offset="1"
       style="stop-color:#687796"
       id="stop6080" /></linearGradient><path
     d="m 120.15865,208.711 10.713,-1.229 c 3.121,-0.463 6.26,1.438 6.996,4.6 0.738,3.162 -1.254,6.213 -4.236,7.242 l -10.15,3.637 c -0.915,0.213 -2.399,-2.805 -3.314,-6.738 -0.92,-3.938 -0.922,-7.299 -0.009,-7.512 z"
     id="path6083"
     inkscape:connector-curvature="0"
     style="fill:url(#SVGID_35_)" /><ellipse
     transform="rotate(166.82673)"
     cx="-69.429214"
     cy="-237.91072"
     rx="1.6970255"
     ry="7.3161101"
     id="ellipse6085"
     style="fill:#4b6588;stroke-width:1.00001502" /><linearGradient
     id="SVGID_36_"
     gradientUnits="userSpaceOnUse"
     x1="-382.12109"
     y1="45.233898"
     x2="-386.22781"
     y2="33.079399"
     gradientTransform="rotate(-179.98854,-127.75757,131.57317)"><stop
       offset="0.05"
       style="stop-color:#486387"
       id="stop6087" /><stop
       offset="0.5"
       style="stop-color:#909FB7"
       id="stop6089" /><stop
       offset="0.6484"
       style="stop-color:#B5B9C9"
       id="stop6091" /><stop
       offset="1"
       style="stop-color:#687796"
       id="stop6093" /></linearGradient><path
     d="m 119.74765,224.435 c 0.131,0.508 0.274,1.033 0.43,1.572 1.125,3.873 2.417,6.867 2.891,6.686 l 7.095,-3.186 c 2.109,-1.031 7.016,-3.324 6.91,-7.641 -10e-4,-1.126 -5.071,-1.282 -17.326,2.569 z"
     id="path6096"
     inkscape:connector-curvature="0"
     style="fill:url(#SVGID_36_)" /><linearGradient
     id="SVGID_37_"
     gradientUnits="userSpaceOnUse"
     x1="-386.6416"
     y1="94.774902"
     x2="-390.17731"
     y2="79.273598"
     gradientTransform="rotate(-179.98854,-127.75757,131.57317)"><stop
       offset="0.05"
       style="stop-color:#486387"
       id="stop6098" /><stop
       offset="0.5"
       style="stop-color:#909FB7"
       id="stop6100" /><stop
       offset="0.6484"
       style="stop-color:#B5B9C9"
       id="stop6102" /><stop
       offset="1"
       style="stop-color:#687796"
       id="stop6104" /></linearGradient><path
     d="m 123.36365,170.189 12.407,-1.951 c 4.938,-0.76 7.744,2.545 8.371,5.336 0.611,2.4 -0.455,6.986 -5.229,8.459 l -12.015,3.658 c -1.937,0.443 -4.301,-2.67 -5.276,-6.951 -0.978,-4.281 -0.196,-8.109 1.742,-8.551 z"
     id="path6107"
     inkscape:connector-curvature="0"
     style="fill:url(#SVGID_37_)" /><linearGradient
     id="SVGID_38_"
     gradientUnits="userSpaceOnUse"
     x1="-466.07321"
     y1="81.797401"
     x2="-469.58771"
     y2="65.916603"
     gradientTransform="rotate(-179.98854,-127.75757,131.57317)"><stop
       offset="0.05"
       style="stop-color:#486387"
       id="stop6109" /><stop
       offset="0.5"
       style="stop-color:#909FB7"
       id="stop6111" /><stop
       offset="0.6484"
       style="stop-color:#B5B9C9"
       id="stop6113" /><stop
       offset="1"
       style="stop-color:#687796"
       id="stop6115" /></linearGradient><path
     d="m 208.16665,181.943 9.231,0.027 c 2.822,0.076 5.582,1.809 6.36,4.748 0.606,3.141 -1.248,5.727 -3.776,6.982 l -8.304,4.125 c -0.564,0.305 -1.183,0.523 -1.834,0.658 -4.048,0.844 -8.095,-2.148 -9.039,-6.682 -0.942,-4.533 1.574,-8.889 5.621,-9.732 0.578,-0.118 1.173,-0.153 1.741,-0.126 z"
     id="path6118"
     inkscape:connector-curvature="0"
     style="fill:url(#SVGID_38_)" /><linearGradient
     id="SVGID_39_"
     gradientUnits="userSpaceOnUse"
     x1="-462.05911"
     y1="62.891602"
     x2="-465.6636"
     y2="46.608799"
     gradientTransform="rotate(-179.98854,-127.75757,131.57317)"><stop
       offset="0.05"
       style="stop-color:#486387"
       id="stop6120" /><stop
       offset="0.5"
       style="stop-color:#909FB7"
       id="stop6122" /><stop
       offset="0.6484"
       style="stop-color:#B5B9C9"
       id="stop6124" /><stop
       offset="1"
       style="stop-color:#687796"
       id="stop6126" /></linearGradient><path
     d="m 203.81065,200.924 9.751,-0.578 c 3.201,0.084 5.947,2.176 6.803,5.406 0.665,3.449 -1.006,6.471 -3.872,7.891 l -9.08,3.564 c -0.579,0.312 -1.213,0.537 -1.882,0.676 -4.148,0.863 -8.298,-2.203 -9.265,-6.852 -0.967,-4.645 1.613,-9.113 5.763,-9.977 0.591,-0.121 1.2,-0.158 1.782,-0.13 z"
     id="path6129"
     inkscape:connector-curvature="0"
     style="fill:url(#SVGID_39_)" /><linearGradient
     id="SVGID_40_"
     gradientUnits="userSpaceOnUse"
     x1="-449.83981"
     y1="49.315899"
     x2="-453.09579"
     y2="32.831501"
     gradientTransform="rotate(-179.98854,-127.75757,131.57317)"><stop
       offset="0.05"
       style="stop-color:#486387"
       id="stop6131" /><stop
       offset="0.5"
       style="stop-color:#909FB7"
       id="stop6133" /><stop
       offset="0.6484"
       style="stop-color:#B5B9C9"
       id="stop6135" /><stop
       offset="1"
       style="stop-color:#687796"
       id="stop6137" /></linearGradient><path
     d="m 192.71765,231.338 9.047,-2.902 c 2.442,-0.857 6.121,-3.898 5.647,-8.609 -6.374,0.064 -11.914,-6.318 -18.603,-4.795 -3.452,0.828 -5.375,5.15 -4.295,9.652 1.079,4.501 4.753,7.48 8.204,6.654 z"
     id="path6140"
     inkscape:connector-curvature="0"
     style="fill:url(#SVGID_40_)" /><linearGradient
     id="SVGID_41_"
     gradientUnits="userSpaceOnUse"
     x1="-431.91891"
     y1="44.542"
     x2="-436.51309"
     y2="27.905001"
     gradientTransform="rotate(-179.98854,-127.75757,131.57317)"><stop
       offset="0.05"
       style="stop-color:#486387"
       id="stop6142" /><stop
       offset="0.5"
       style="stop-color:#909FB7"
       id="stop6144" /><stop
       offset="0.6484"
       style="stop-color:#B5B9C9"
       id="stop6146" /><stop
       offset="1"
       style="stop-color:#687796"
       id="stop6148" /></linearGradient><path
     d="m 168.97865,230.217 c 1.541,4.434 5.314,7.152 8.427,6.072 l 11.271,-3.918 c 0.604,-0.221 1.256,-0.6 1.835,-1.01 -1.332,-0.27 -2.605,-1.039 -3.656,-2.182 -2.953,-0.68 -6.068,-1.865 -7.17,-4.166 -2.016,-3.924 -5.264,-5.686 -7.859,-4.781 -3.113,1.08 -4.389,5.551 -2.848,9.985 z"
     id="path6151"
     inkscape:connector-curvature="0"
     style="fill:url(#SVGID_41_)" /><linearGradient
     id="SVGID_42_"
     gradientUnits="userSpaceOnUse"
     x1="-464.03421"
     y1="45.944801"
     x2="-466.81479"
     y2="33.911201"
     gradientTransform="rotate(-179.98854,-127.75757,131.57317)"><stop
       offset="0.05"
       style="stop-color:#486387"
       id="stop6153" /><stop
       offset="0.5"
       style="stop-color:#909FB7"
       id="stop6155" /><stop
       offset="0.6484"
       style="stop-color:#B5B9C9"
       id="stop6157" /><stop
       offset="1"
       style="stop-color:#687796"
       id="stop6159" /></linearGradient><path
     d="m 211.49065,219.379 c -0.018,-0.023 -0.042,-0.041 -0.059,-0.064 -0.545,0.197 -1.951,0.516 -3.994,1.617 -0.147,4.041 -3.369,6.664 -5.611,7.479 1.912,1.773 4.559,2.439 6.916,1.48 0.611,-0.25 1.147,-0.574 1.628,-0.988 l 6.022,-4.402 c 1.086,-0.787 2.372,-2.674 2.004,-4.436 -1.371,-0.149 -5.802,0.72 -6.906,-0.686 z"
     id="path6162"
     inkscape:connector-curvature="0"
     style="fill:url(#SVGID_42_)" /><path
     d="m 201.82665,228.41 c 1.912,1.773 4.559,2.439 6.916,1.48 0.611,-0.25 1.147,-0.574 1.628,-0.988 2.183,-1.873 2.97,-5.26 1.706,-8.365 -0.166,-0.41 -0.366,-0.793 -0.586,-1.158 -0.018,-0.023 -0.042,-0.041 -0.059,-0.064 -0.545,0.197 -1.951,0.516 -3.994,1.617 -0.147,4.04 -3.369,6.663 -5.611,7.478 z"
     id="path6164"
     inkscape:connector-curvature="0"
     style="fill:#5b6e8f" /><linearGradient
     id="SVGID_43_"
     gradientUnits="userSpaceOnUse"
     x1="-477.14499"
     y1="61.9272"
     x2="-480.02679"
     y2="46.2439"
     gradientTransform="rotate(-179.98854,-127.75757,131.57317)"><stop
       offset="0.05"
       style="stop-color:#486387"
       id="stop6166" /><stop
       offset="0.5"
       style="stop-color:#909FB7"
       id="stop6168" /><stop
       offset="0.6484"
       style="stop-color:#B5B9C9"
       id="stop6170" /><stop
       offset="1"
       style="stop-color:#687796"
       id="stop6172" /></linearGradient><path
     d="m 216.49265,213.642 -1.811,0.713 c 1.801,2.637 4.936,3.939 7.814,2.984 0.574,-0.189 1.109,-0.451 1.588,-0.787 l 0.725,-0.596 4.947,-4.098 c 1.545,-1.34 2.53,-3.346 2.023,-6.035 -0.468,-2.488 -2.768,-3.99 -5.32,-3.568 l -4.205,0.869 c -0.634,0.523 -1.371,1.16 -2.158,1.863 0.096,0.25 0.198,0.496 0.269,0.764 0.665,3.45 -1.006,6.471 -3.872,7.891 z"
     id="path6175"
     inkscape:connector-curvature="0"
     style="fill:url(#SVGID_43_)" /><path
     d="m 222.25465,203.125 c -0.634,0.523 -1.371,1.16 -2.158,1.863 0.096,0.25 0.198,0.496 0.269,0.764 0.665,3.449 -1.006,6.471 -3.872,7.891 l -1.811,0.713 c 1.801,2.637 4.936,3.939 7.814,2.984 0.574,-0.189 1.109,-0.451 1.588,-0.787 l 0.725,-0.596 c 1.963,-1.869 2.743,-4.986 1.747,-7.99 -0.761,-2.292 -2.383,-4.012 -4.302,-4.842 z"
     id="path6177"
     inkscape:connector-curvature="0"
     style="fill:#5b6e8f" /><linearGradient
     id="SVGID_44_"
     gradientUnits="userSpaceOnUse"
     x1="-485.17819"
     y1="80.383301"
     x2="-486.48331"
     y2="65.993103"
     gradientTransform="rotate(-179.98854,-127.75757,131.57317)"><stop
       offset="0.05"
       style="stop-color:#486387"
       id="stop6179" /><stop
       offset="0.5"
       style="stop-color:#909FB7"
       id="stop6181" /><stop
       offset="0.6484"
       style="stop-color:#B5B9C9"
       id="stop6183" /><stop
       offset="1"
       style="stop-color:#687796"
       id="stop6185" /></linearGradient><path
     d="m 228.81565,182.91 c -4.238,0.482 -6.244,10.828 -4.253,14.605 1.197,0.512 2.521,0.674 3.844,0.398 0.609,-0.127 1.185,-0.33 1.712,-0.613 0.354,-0.191 0.687,-0.414 0.997,-0.666 l 4.695,-4.607 c 1.357,-1.441 1.436,-3.734 0.944,-5.326 -0.228,-0.734 -0.948,-2.207 -2.142,-2.838 -1.251,-0.662 -2.798,-0.832 -5.797,-0.953 z"
     id="path6188"
     inkscape:connector-curvature="0"
     style="fill:url(#SVGID_44_)" /><linearGradient
     id="SVGID_45_"
     gradientUnits="userSpaceOnUse"
     x1="-490.78659"
     y1="96.2603"
     x2="-492.00571"
     y2="82.745102"
     gradientTransform="rotate(-179.98854,-127.75757,131.57317)"><stop
       offset="0.05"
       style="stop-color:#486387"
       id="stop6190" /><stop
       offset="0.5"
       style="stop-color:#909FB7"
       id="stop6192" /><stop
       offset="0.6484"
       style="stop-color:#B5B9C9"
       id="stop6194" /><stop
       offset="1"
       style="stop-color:#687796"
       id="stop6196" /></linearGradient><path
     d="m 234.43265,167.039 c -4.057,0.143 -5.996,9.643 -4.098,13.309 1.145,0.562 2.411,0.812 3.678,0.652 0.581,-0.072 1.133,-0.221 1.636,-0.445 0.339,-0.152 0.657,-0.336 0.956,-0.549 l 4.291,-3.908 c 1.231,-1.174 1.844,-3.326 1.135,-5.205 -0.26,-0.688 -0.914,-1.863 -2.055,-2.539 -1.198,-0.71 -2.676,-0.981 -5.543,-1.315 z"
     id="path6199"
     inkscape:connector-curvature="0"
     style="fill:url(#SVGID_45_)" /><linearGradient
     id="SVGID_46_"
     gradientUnits="userSpaceOnUse"
     x1="-467.64499"
     y1="99.515099"
     x2="-469.88101"
     y2="84.650597"
     gradientTransform="rotate(-179.98854,-127.75757,131.57317)"><stop
       offset="0.05"
       style="stop-color:#486387"
       id="stop6201" /><stop
       offset="0.5"
       style="stop-color:#909FB7"
       id="stop6203" /><stop
       offset="0.6484"
       style="stop-color:#B5B9C9"
       id="stop6205" /><stop
       offset="1"
       style="stop-color:#687796"
       id="stop6207" /></linearGradient><path
     d="m 212.71565,163.609 c 2.413,0.457 7.287,1.287 8.243,5.689 0.955,4.402 -3.021,7.941 -6.011,9.178 -0.347,0.145 -0.715,0.234 -1.094,0.316 -3.718,0.805 -7.463,-1.918 -8.364,-6.08 -0.9,-4.162 1.382,-8.191 5.101,-8.994 0.713,-0.156 1.43,-0.199 2.125,-0.109 z"
     id="path6210"
     inkscape:connector-curvature="0"
     style="fill:url(#SVGID_46_)" /><linearGradient
     id="SVGID_47_"
     gradientUnits="userSpaceOnUse"
     x1="-287.76559"
     y1="50.891602"
     x2="-294.25189"
     y2="37.845699"
     gradientTransform="rotate(-179.98854,-127.75757,131.57317)"><stop
       offset="0.05"
       style="stop-color:#486387"
       id="stop6212" /><stop
       offset="0.5"
       style="stop-color:#909FB7"
       id="stop6214" /><stop
       offset="0.6484"
       style="stop-color:#B5B9C9"
       id="stop6216" /><stop
       offset="1"
       style="stop-color:#687796"
       id="stop6218" /></linearGradient><path
     d="m 30.031648,213.383 5.069,-2.189 c 1.715,-0.812 6.274,0.256 7.927,3.83 2.046,4.555 -0.059,7.744 -1.737,8.629 l -4.776,2.777 c -2.963,1.471 -6.816,-0.256 -8.606,-3.857 -1.791,-3.603 -0.839,-7.716 2.123,-9.19 z"
     id="path6221"
     inkscape:connector-curvature="0"
     style="fill:url(#SVGID_47_)" /><linearGradient
     id="SVGID_48_"
     gradientUnits="userSpaceOnUse"
     x1="-273.8237"
     y1="49.540001"
     x2="-282.1059"
     y2="36.2724"
     gradientTransform="rotate(-179.98854,-127.75757,131.57317)"><stop
       offset="0.05"
       style="stop-color:#486387"
       id="stop6223" /><stop
       offset="0.5"
       style="stop-color:#909FB7"
       id="stop6225" /><stop
       offset="0.6484"
       style="stop-color:#B5B9C9"
       id="stop6227" /><stop
       offset="1"
       style="stop-color:#687796"
       id="stop6229" /></linearGradient><path
     d="m 16.760648,223.197 c 2.167,3.787 6.717,5.477 9.833,3.693 l 2.396,-1.83 c 0.152,-0.098 0.277,-0.232 0.384,-0.389 -0.567,-0.602 -1.069,-1.301 -1.465,-2.1 -1.058,-2.129 -1.153,-4.434 -0.445,-6.268 -2.313,-3.465 -6.468,-4.508 -7.299,-4.043 l -1.688,0.85 c -3.115,1.786 -3.884,6.3 -1.716,10.087 z"
     id="path6232"
     inkscape:connector-curvature="0"
     style="fill:url(#SVGID_48_)" /><linearGradient
     id="SVGID_49_"
     gradientUnits="userSpaceOnUse"
     x1="-280.24609"
     y1="67.658203"
     x2="-283.95441"
     y2="53.570702"
     gradientTransform="rotate(-179.98854,-127.75757,131.57317)"><stop
       offset="0.05"
       style="stop-color:#486387"
       id="stop6234" /><stop
       offset="0.5"
       style="stop-color:#909FB7"
       id="stop6236" /><stop
       offset="0.6484"
       style="stop-color:#B5B9C9"
       id="stop6238" /><stop
       offset="1"
       style="stop-color:#687796"
       id="stop6240" /></linearGradient><path
     d="m 21.984648,196.236 5.593,-1.133 c 1.622,-0.391 5.734,0.693 6.81,5.338 1.079,4.686 -1.67,7.648 -3.272,8.119 l -5.425,1.764 c -2.818,0.74 -5.933,-1.811 -6.956,-5.703 -1.025,-3.889 0.43,-7.643 3.25,-8.385 z"
     id="path6243"
     inkscape:connector-curvature="0"
     style="fill:url(#SVGID_49_)" /><linearGradient
     id="SVGID_50_"
     gradientUnits="userSpaceOnUse"
     x1="-265.69531"
     y1="68.184601"
     x2="-271.35809"
     y2="52.732498"
     gradientTransform="rotate(-179.98854,-127.75757,131.57317)"><stop
       offset="0.05"
       style="stop-color:#486387"
       id="stop6245" /><stop
       offset="0.5"
       style="stop-color:#909FB7"
       id="stop6247" /><stop
       offset="0.6484"
       style="stop-color:#B5B9C9"
       id="stop6249" /><stop
       offset="1"
       style="stop-color:#687796"
       id="stop6251" /></linearGradient><path
     d="m 6.205648,205.154 c 1.561,4.27 5.389,6.812 8.552,5.68 l 5.17,-2.215 c 0.213,-0.111 0.383,-0.295 0.521,-0.529 -0.754,-0.945 -1.359,-2.123 -1.714,-3.469 -0.584,-2.215 -0.36,-4.385 0.457,-5.979 -1.144,-2.914 -2.616,-5.229 -4.367,-4.812 l -5.727,1.551 c -3.162,1.13 -4.457,5.505 -2.892,9.773 z"
     id="path6254"
     inkscape:connector-curvature="0"
     style="fill:url(#SVGID_50_)" /><linearGradient
     id="SVGID_51_"
     gradientUnits="userSpaceOnUse"
     x1="-279.80081"
     y1="85.981903"
     x2="-283.50891"
     y2="71.895401"
     gradientTransform="rotate(-179.98854,-127.75757,131.57317)"><stop
       offset="0.05"
       style="stop-color:#486387"
       id="stop6256" /><stop
       offset="0.5"
       style="stop-color:#909FB7"
       id="stop6258" /><stop
       offset="0.6484"
       style="stop-color:#B5B9C9"
       id="stop6260" /><stop
       offset="1"
       style="stop-color:#687796"
       id="stop6262" /></linearGradient><path
     d="m 21.541648,177.912 5.593,-1.131 c 1.622,-0.391 5.734,0.691 6.811,5.336 1.078,4.688 -1.669,7.65 -3.272,8.121 l -5.426,1.762 c -2.819,0.74 -5.931,-1.811 -6.955,-5.701 -1.026,-3.891 0.428,-7.643 3.249,-8.387 z"
     id="path6265"
     inkscape:connector-curvature="0"
     style="fill:url(#SVGID_51_)" /><linearGradient
     id="SVGID_52_"
     gradientUnits="userSpaceOnUse"
     x1="-277.90671"
     y1="102.8081"
     x2="-280.97641"
     y2="88.570801"
     gradientTransform="rotate(-179.98854,-127.75757,131.57317)"><stop
       offset="0.05"
       style="stop-color:#486387"
       id="stop6267" /><stop
       offset="0.5"
       style="stop-color:#909FB7"
       id="stop6269" /><stop
       offset="0.6484"
       style="stop-color:#B5B9C9"
       id="stop6271" /><stop
       offset="1"
       style="stop-color:#687796"
       id="stop6273" /></linearGradient><path
     d="m 19.624648,160.963 5.639,-0.879 c 1.637,-0.318 5.697,0.949 6.563,5.639 0.866,4.729 -2.013,7.566 -3.635,7.963 l -5.5,1.516 c -2.851,0.615 -5.846,-2.072 -6.693,-6.006 -0.848,-3.935 0.774,-7.618 3.626,-8.233 z"
     id="path6276"
     inkscape:connector-curvature="0"
     style="fill:url(#SVGID_52_)" /><linearGradient
     id="SVGID_53_"
     gradientUnits="userSpaceOnUse"
     x1="-264.21829"
     y1="85.066399"
     x2="-266.9935"
     y2="72.198196"
     gradientTransform="rotate(-179.98854,-127.75757,131.57317)"><stop
       offset="0.05"
       style="stop-color:#486387"
       id="stop6278" /><stop
       offset="0.5"
       style="stop-color:#909FB7"
       id="stop6280" /><stop
       offset="0.6484"
       style="stop-color:#B5B9C9"
       id="stop6282" /><stop
       offset="1"
       style="stop-color:#687796"
       id="stop6284" /></linearGradient><path
     d="m 8.352648,178.179 c -2.577,0.555 -4.043,3.885 -3.274,7.438 0.765,3.557 3.471,5.988 6.047,5.432 1.797,-0.441 4.763,-4.125 3.99,-7.418 -0.77,-3.291 -4.927,-5.788 -6.763,-5.452 z"
     id="path6287"
     inkscape:connector-curvature="0"
     style="fill:url(#SVGID_53_)" /><linearGradient
     id="SVGID_54_"
     gradientUnits="userSpaceOnUse"
     x1="-277.56451"
     y1="170.69431"
     x2="-272.76141"
     y2="160.01849"
     gradientTransform="rotate(-179.98854,-127.75757,131.57317)"><stop
       offset="0.05"
       style="stop-color:#486387"
       id="stop6289" /><stop
       offset="0.5"
       style="stop-color:#909FB7"
       id="stop6291" /><stop
       offset="0.6484"
       style="stop-color:#B5B9C9"
       id="stop6293" /><stop
       offset="1"
       style="stop-color:#687796"
       id="stop6295" /></linearGradient><path
     d="m 17.178648,96.707 c 1.325,-2.943 3.748,-4.875 5.274,-4.041 0.821,0.451 1.042,3.236 -0.285,6.184 -1.324,2.945 -3.755,4.877 -4.518,4.486 -1.548,-0.791 -1.796,-3.68 -0.471,-6.629 z"
     id="path6298"
     inkscape:connector-curvature="0"
     style="fill:url(#SVGID_54_)" /><linearGradient
     id="SVGID_55_"
     gradientUnits="userSpaceOnUse"
     x1="-384.3652"
     y1="170.8936"
     x2="-380.82111"
     y2="159.74609"
     gradientTransform="rotate(-179.98854,-127.75757,131.57317)"><stop
       offset="0.05"
       style="stop-color:#486387"
       id="stop6300" /><stop
       offset="0.5"
       style="stop-color:#909FB7"
       id="stop6302" /><stop
       offset="0.6484"
       style="stop-color:#B5B9C9"
       id="stop6304" /><stop
       offset="1"
       style="stop-color:#687796"
       id="stop6306" /></linearGradient><path
     d="m 126.62465,91.593 c 2.119,0.865 7.369,4.062 5.81,7.512 -1.446,3.203 -6.343,4.395 -9.356,3.635 -1.657,-0.525 -2.208,-3.449 -1.229,-6.527 0.979,-3.078 3.119,-5.147 4.775,-4.62 z"
     id="path6309"
     inkscape:connector-curvature="0"
     style="fill:url(#SVGID_55_)" /><linearGradient
     id="SVGID_56_"
     gradientUnits="userSpaceOnUse"
     x1="-479.89651"
     y1="170.9395"
     x2="-482.02621"
     y2="158.06329"
     gradientTransform="rotate(-179.98854,-127.75757,131.57317)"><stop
       offset="0.05"
       style="stop-color:#486387"
       id="stop6311" /><stop
       offset="0.5"
       style="stop-color:#909FB7"
       id="stop6313" /><stop
       offset="0.6484"
       style="stop-color:#B5B9C9"
       id="stop6315" /><stop
       offset="1"
       style="stop-color:#687796"
       id="stop6317" /></linearGradient><path
     d="m 222.32265,92.619 c 5.618,-1.154 8.699,0.01 9.928,2.389 1.23,2.383 0.819,5.414 -1.094,6.721 l -4.672,2.912 c -0.598,0.434 -1.283,0.732 -2.034,0.855 -3.008,0.496 -5.922,-1.982 -6.51,-5.539 -0.587,-3.555 1.376,-6.84 4.382,-7.338 z"
     id="path6320"
     inkscape:connector-curvature="0"
     style="fill:url(#SVGID_56_)" /><path
     d="m 200.80565,191.802 c -0.942,-4.533 1.574,-8.889 5.621,-9.732 0.577,-0.119 1.172,-0.154 1.74,-0.127 3.416,0.174 6.488,2.922 7.299,6.809 0.791,3.803 -0.848,7.49 -3.787,9.074 -0.564,0.305 -1.183,0.523 -1.834,0.658 -4.048,0.844 -8.095,-2.148 -9.039,-6.682 z"
     id="path6322"
     inkscape:connector-curvature="0"
     style="fill:#5b6e8f" /><path
     d="m 205.48965,172.713 c -0.9,-4.162 1.382,-8.191 5.101,-8.994 0.713,-0.156 1.431,-0.199 2.125,-0.109 2.928,0.385 5.51,2.826 6.238,6.189 0.809,3.738 -0.945,7.393 -4.006,8.678 -0.347,0.145 -0.715,0.234 -1.094,0.316 -3.717,0.804 -7.462,-1.918 -8.364,-6.08 z"
     id="path6324"
     inkscape:connector-curvature="0"
     style="fill:#5b6e8f" /><ellipse
     transform="rotate(166.51407)"
     cx="-133.46849"
     cy="-261.5224"
     rx="6.4268203"
     ry="8.3837652"
     id="ellipse6326"
     style="fill:#5b6e8f;stroke-width:0.99997199" /><path
     d="m 168.97865,230.217 c -1.541,-4.434 -0.266,-8.904 2.848,-9.984 2.596,-0.904 5.844,0.857 7.859,4.781 0.334,0.65 0.311,0.551 0.564,1.287 1.542,4.434 0.268,8.906 -2.845,9.988 -3.111,1.08 -6.885,-1.639 -8.426,-6.072 z"
     id="path6328"
     inkscape:connector-curvature="0"
     style="fill:#5b6e8f" /><path
     d="m 196.26665,211.031 c -0.967,-4.645 1.613,-9.113 5.763,-9.977 0.591,-0.121 1.2,-0.158 1.782,-0.131 3.504,0.18 6.652,2.994 7.482,6.979 0.812,3.898 -0.867,7.68 -3.881,9.305 -0.579,0.312 -1.213,0.537 -1.882,0.676 -4.148,0.863 -8.298,-2.204 -9.264,-6.852 z"
     id="path6330"
     inkscape:connector-curvature="0"
     style="fill:#5b6e8f" /><path
     d="m 228.81565,182.91 c -4.238,0.482 -6.244,10.828 -4.253,14.605 1.197,0.512 2.521,0.674 3.844,0.398 0.609,-0.127 1.185,-0.33 1.712,-0.613 0.354,-0.191 0.687,-0.414 0.997,-0.666 2.1,-1.701 3.176,-4.709 2.533,-7.797 -0.595,-2.859 -2.488,-5.048 -4.833,-5.927 z"
     id="path6332"
     inkscape:connector-curvature="0"
     style="fill:#5b6e8f" /><path
     d="m 234.43265,167.039 c -4.057,0.143 -5.996,9.643 -4.098,13.309 1.145,0.562 2.411,0.812 3.678,0.652 0.581,-0.072 1.133,-0.221 1.636,-0.445 0.339,-0.152 0.657,-0.336 0.956,-0.549 2.012,-1.432 3.047,-4.158 2.438,-7.086 -0.565,-2.707 -2.371,-4.889 -4.61,-5.881 z"
     id="path6334"
     inkscape:connector-curvature="0"
     style="fill:#5b6e8f" /><ellipse
     transform="rotate(167.1617)"
     cx="-82.459534"
     cy="-201.2984"
     rx="3.5999961"
     ry="7.9499912"
     id="ellipse6336"
     style="fill:#4b6588;stroke-width:0.99999893" /><path
     d="m 121.84965,96.213 c 0.979,-3.078 3.119,-5.146 4.775,-4.619 1.658,0.527 2.207,3.451 1.229,6.529 -0.98,3.08 -3.118,5.148 -4.776,4.617 -1.657,-0.525 -2.207,-3.449 -1.228,-6.527 z"
     id="path6338"
     inkscape:connector-curvature="0"
     style="fill:#4b6588" /><path
     d="m 217.94065,99.957 c -0.587,-3.555 1.376,-6.84 4.382,-7.338 3.008,-0.494 5.92,1.984 6.509,5.539 0.44,2.666 -0.554,5.182 -2.347,6.482 -0.598,0.434 -1.283,0.732 -2.034,0.855 -3.008,0.497 -5.922,-1.982 -6.51,-5.538 z"
     id="path6340"
     inkscape:connector-curvature="0"
     style="fill:#4b6588" /><linearGradient
     id="SVGID_57_"
     gradientUnits="userSpaceOnUse"
     x1="-290.10941"
     y1="38.681599"
     x2="-301.90341"
     y2="30.0546"
     gradientTransform="rotate(-179.98854,-127.75757,131.57317)"><stop
       offset="0.05"
       style="stop-color:#486387"
       id="stop6342" /><stop
       offset="0.5"
       style="stop-color:#909FB7"
       id="stop6344" /><stop
       offset="0.6484"
       style="stop-color:#B5B9C9"
       id="stop6346" /><stop
       offset="1"
       style="stop-color:#687796"
       id="stop6348" /></linearGradient><path
     d="m 36.514648,226.429 c -1.2,0.596 -2.545,0.658 -3.84,0.293 -0.385,2.27 0.432,4.908 2.388,6.945 2.987,3.111 7.481,3.643 10.041,1.186 l 3.996,-4.371 c 1.087,-1.09 2.732,-6.023 -7.72,-6.883 -0.029,0.016 -0.06,0.039 -0.089,0.053 z"
     id="path6351"
     inkscape:connector-curvature="0"
     style="fill:url(#SVGID_57_)" /></svg>