<?xml version="1.0"?>
<svg x="-50%" y="0%" width="100%" height="100%" viewBox="-100 0 200 400" xmlns="http://www.w3.org/2000/svg" version="1.1" preserveAspectRatio="none">
  <desc>Perforated Joint</desc>
<!-- Copyright (c) 2006 Interactive Network Technologies, Inc. -->

    <defs>
      <linearGradient x1="0%" x2="50%" id="RedGradient" spreadMethod="reflect" gradientUnits="objectBoundingBox">
        <stop offset="25%" stop-color="rgb(201, 4, 4)"/>
        <stop offset="95%" stop-color="rgb(247, 100, 100)"/>
      </linearGradient>
      <linearGradient x1="0%" x2="50%" id="DarkRedGradient" spreadMethod="reflect" gradientUnits="objectBoundingBox">
        <stop offset="25%" stop-color="rgb(201, 4, 4)"/>
        <stop offset="95%" stop-color="rgb(217, 108, 108)"/>
      </linearGradient>
      <linearGradient id="BlackRedGradient" gradientUnits="objectBoundingBox">
        <stop offset="5%" stop-color="black"/>
        <stop offset="95%" stop-color="rgb(201, 4, 4)"/>
      </linearGradient>
      <linearGradient id="RedBlackGradient" gradientUnits="objectBoundingBox">
        <stop offset="5%" stop-color="rgb(201, 4, 4)"/>
        <stop offset="95%" stop-color="black"/>
      </linearGradient>
     <clipPath id="ClipPath1">
       <ellipse cx="-50" cy="200" rx="28" ry="35" />
     </clipPath>
     <clipPath id="ClipPath2">
       <ellipse cx="50" cy="200" rx="28" ry="35" />
     </clipPath>
     <clipPath id="ClipPath3">
       <ellipse cx="-83" cy="60" rx="15" ry="35" />
     </clipPath>
     <clipPath id="ClipPath4">
       <ellipse cx="83" cy="60" rx="15" ry="35" />
     </clipPath>
     <clipPath id="ClipPath5">
       <ellipse cx="-83" cy="340" rx="15" ry="35" />
     </clipPath>
     <clipPath id="ClipPath6">
       <ellipse cx="83" cy="340" rx="15" ry="35" />
     </clipPath>
    </defs>

  <polygon fill="url(#DarkRedGradient)" stroke="black" stroke-width="1"
      points="-95 0 95 0 100 5 -100 5" />
  <rect x="-100" y="5" width="200" height="390" fill="url(#RedGradient)" stroke-width="1" stroke="black"/>
  <polygon fill="url(#DarkRedGradient)" stroke="black" stroke-width="1"
      points="-100, 395 100 395 95 400 -95 400"/>

  <circle cx="0" cy="60" r="35" fill="rgb(201, 4, 4)" stroke="black" stroke-width="1"/>
  <ellipse cx="0" cy="60" rx="30"  ry="35" fill="white" stroke="black" stroke-width="1"/>

  <ellipse cx="-83" cy="60" rx="15" ry="35" fill="url(#RedBlackGradient)" stroke="black" stroke-width="1"/>
  <ellipse cx="-73" cy="60" rx="15"  ry="35" fill="white" stroke="black" stroke-width="1" clip-path="url(#ClipPath3)"/>

  <ellipse cx="83" cy="60" rx="15" ry="35" fill="url(#BlackRedGradient)" stroke="black" stroke-width="1"/>
  <ellipse cx="73" cy="60" rx="15"  ry="35" fill="white" stroke="black" stroke-width="1" clip-path="url(#ClipPath4)"/>

  <circle cx="0" cy="340" r="35" fill="rgb(201, 4, 4)" stroke="black" stroke-width="1"/>
  <ellipse cx="0" cy="340" rx="30"  ry="35" fill="white" stroke="black" stroke-width="1"/>

  <ellipse cx="-50" cy="200" rx="28" ry="35" fill="url(#RedBlackGradient)" stroke="black" stroke-width="1"/>
  <ellipse cx="-45" cy="200" rx="25"  ry="35" fill="white" stroke="black" stroke-width="1" clip-path="url(#ClipPath1)"/>

  <ellipse cx="50" cy="200" rx="28" ry="35" fill="url(#BlackRedGradient)" stroke="black" stroke-width="1"/>
  <ellipse cx="45" cy="200" rx="25"  ry="35" fill="white" stroke="black" stroke-width="1" clip-path="url(#ClipPath2)"/>

  <ellipse cx="-102" cy="200" rx="5"  ry="35" fill="white" stroke="black" stroke-width="1"/>

  <ellipse cx="102" cy="200" rx="5"  ry="35" fill="white" stroke="black" stroke-width="1"/>

  <ellipse cx="-83" cy="340" rx="15" ry="35" fill="url(#RedBlackGradient)" stroke="black" stroke-width="1"/>
  <ellipse cx="-73" cy="340" rx="15"  ry="35" fill="white" stroke="black" stroke-width="1" clip-path="url(#ClipPath5)"/>

  <ellipse cx="83" cy="340" rx="15" ry="35" fill="url(#BlackRedGradient)" stroke="black" stroke-width="1"/>
  <ellipse cx="73" cy="340" rx="15"  ry="35" fill="white" stroke="black" stroke-width="1" clip-path="url(#ClipPath6)"/>


</svg>