<?xml version="1.0"?>
<svg x="-50%" y="0%" width="100%" height="100%" viewBox="-100 0 200 500" xmlns="http://www.w3.org/2000/svg" version="1.1" preserveAspectRatio="none">
  <desc>Packer</desc>
<!-- Copyright (c) 2006 Interactive Network Technologies, Inc. -->

    <defs>
      <linearGradient x1="0%" x2="50%" id="Gradient" spreadMethod="reflect" gradientUnits="objectBoundingBox">
        <stop offset="25%" stop-color="rgb(201, 4, 4)"/>
        <stop offset="95%" stop-color="rgb(247, 100, 100)"/>
      </linearGradient>
      <linearGradient x1="0%" x2="50%" id="GradientDark" spreadMethod="reflect" gradientUnits="objectBoundingBox">
        <stop offset="25%" stop-color="rgb(0, 0, 0)"/>
        <stop offset="95%" stop-color="rgb(100, 100, 100)"/>
      </linearGradient>
    </defs>

  <rect x="-100" y="0" width="200" height="50" fill="url(#Gradient)" stroke-width="1" stroke="black"/>

  <polygon fill="url(#Gradient)" stroke="black" stroke-width="1"
      points="-90, 50, -100, 60, -90, 70, -100, 80, -90, 90, -100, 100, -90, 110, 
               90, 110, 100, 100, 90, 90, 100, 80, 90, 70, 100, 60, 90, 50"/>

  <polygon fill="url(#Gradient)" stroke="black" stroke-width="1"
      points="-85, 50, -88, 63, 88, 63, 85, 50" />
  <rect x="-80" y="63" width="160" height="7" fill="url(#Gradient)" stroke-width="1" stroke="black"/>
  <polygon fill="url(#Gradient)" stroke="black" stroke-width="1"
      points="-85, 70, -88, 83, 88, 83, 85, 70" />
  <rect x="-80" y="83" width="160" height="7" fill="url(#Gradient)" stroke-width="1" stroke="black"/>
  <polygon fill="url(#Gradient)" stroke="black" stroke-width="1"
      points="-85, 90, -88, 103, 88, 103, 85, 90" />
  <rect x="-80" y="103" width="160" height="7" fill="url(#Gradient)" stroke-width="1" stroke="black"/>

  <polygon fill="rgb(240, 35, 35)" stroke="black" stroke-width="1"
      points="-45, 50, -25, 50, -25, 95, -38, 95" />
  <polygon fill="rgb(240, 35, 35)" stroke="black" stroke-width="1"
      points="-25, 95, -25, 110, -45, 110, -38, 95" />
  <polygon fill="rgb(160, 0, 0)" stroke="black" stroke-width="1"
      points="-45, 50, -45, 110, -38, 95" />

  <polygon fill="rgb(240, 35, 35)" stroke="black" stroke-width="1"
      points="25, 50, 45, 50, 38, 95, 25, 95" />
  <polygon fill="rgb(240, 35, 35)" stroke="black" stroke-width="1"
      points="25, 95, 25, 110, 45, 110, 38, 95" />
  <polygon fill="rgb(160, 0, 0)" stroke="black" stroke-width="1"
      points="45, 50, 45, 110, 38, 95" />


  <rect x="-92" y="110" width="184" height="5" fill="url(#Gradient)" stroke-width="1" stroke="black"/>

  <rect x="-94" y="115" width="188" height="5" fill="url(#GradientDark)" stroke-width="1" stroke="black"/>
  <rect x="-97" y="120" width="194" height="5" fill="url(#GradientDark)" stroke-width="1" stroke="black"/>
  <rect x="-100" y="125" width="200" height="55" fill="url(#GradientDark)" stroke-width="1" stroke="black"/>
  <rect x="-97" y="180" width="194" height="5" fill="url(#GradientDark)" stroke-width="1" stroke="black"/>
  <rect x="-94" y="185" width="188" height="5" fill="url(#GradientDark)" stroke-width="1" stroke="black"/>
   
  <rect x="-92" y="190" width="184" height="5" fill="url(#Gradient)" stroke-width="1" stroke="black"/>

  <polygon fill="url(#Gradient)" stroke="black" stroke-width="1"
      points="-90, 195, -100, 205, -90, 215, -100, 225, -90, 235, -100, 245, -90, 255, 
               90, 255, 100, 245, 90, 235, 100, 225, 90, 215, 100, 205, 90, 195"/>

  <polygon fill="url(#Gradient)" stroke="black" stroke-width="1"
      points="-85, 195, -88, 208, 88, 208, 85, 195" />
  <rect x="-80" y="208" width="160" height="7" fill="url(#Gradient)" stroke-width="1" stroke="black"/>
  <polygon fill="url(#Gradient)" stroke="black" stroke-width="1"
      points="-85, 215, -88, 228, 88, 228, 85, 215" />
  <rect x="-80" y="228" width="160" height="7" fill="url(#Gradient)" stroke-width="1" stroke="black"/>
  <polygon fill="url(#Gradient)" stroke="black" stroke-width="1"
      points="-85, 235, -88, 248, 88, 248, 85, 235" />
  <rect x="-80" y="248" width="160" height="7" fill="url(#Gradient)" stroke-width="1" stroke="black"/>

  <polygon fill="rgb(240, 35, 35)" stroke="black" stroke-width="1"
      points="-45, 195, -38, 210, -25, 210, -25, 195" />
  <polygon fill="rgb(240, 35, 35)" stroke="black" stroke-width="1"
      points="-25, 210, -25, 255, -45, 255, -38, 210" />
  <polygon fill="rgb(160, 0, 0)" stroke="black" stroke-width="1"
      points="-45, 195, -45, 255, -38, 210" />

  <polygon fill="rgb(240, 35, 35)" stroke="black" stroke-width="1"
      points="25, 195, 25, 210, 38, 210, 45, 195" />
  <polygon fill="rgb(240, 35, 35)" stroke="black" stroke-width="1"
      points="25, 210, 25, 255, 45, 255, 38, 210" />
  <polygon fill="rgb(160, 0, 0)" stroke="black" stroke-width="1"
      points="45, 195, 45, 255, 38, 210" />

  <rect x="-95" y="255" width="190" height="20" fill="url(#Gradient)" stroke-width="1" stroke="black"/>
  <polygon fill="url(#Gradient)" stroke="black" stroke-width="1"
      points="-90, 275, -70, 295, 70, 295, 90, 275" />
  <rect x="-70" y="295" width="140" height="65" fill="url(#Gradient)" stroke-width="1" stroke="black"/>
  <polygon fill="url(#Gradient)" stroke="black" stroke-width="1"
      points="-70, 360, -50, 390, 50, 390, 70, 360" />
  <rect x="-50" y="390" width="100" height="10" fill="url(#Gradient)" stroke-width="1" stroke="black"/>
  <rect x="-60" y="400" width="120" height="20" fill="url(#Gradient)" stroke-width="1" stroke="black"/>
  <rect x="-45" y="420" width="90" height="80" fill="url(#Gradient)" stroke-width="1" stroke="black"/>



</svg>