<?xml version="1.0"?>
<svg x="-50%" y="0%" width="100%" height="100%" viewBox="-100 0 200 200" xmlns="http://www.w3.org/2000/svg" version="1.1" preserveAspectRatio="none">
  <desc>Sliding Sleeve</desc>
<!-- Copyright (c) 2006 Interactive Network Technologies, Inc. -->

    <defs>
      <linearGradient x1="0%" x2="50%" id="RedGradient" spreadMethod="reflect" gradientUnits="objectBoundingBox">
        <stop offset="25%" stop-color="rgb(201, 4, 4)"/>
        <stop offset="95%" stop-color="rgb(247, 100, 100)"/>
      </linearGradient>
      <linearGradient x1="0%" x2="50%" id="DarkRedGradient" spreadMethod="reflect" gradientUnits="objectBoundingBox">
        <stop offset="25%" stop-color="rgb(201, 4, 4)"/>
        <stop offset="95%" stop-color="rgb(220, 80, 80)"/>
      </linearGradient>
     <clipPath id="ClipPath1">
       <ellipse cx="-50" cy="160" rx="16" ry="25" />
     </clipPath>
     <clipPath id="ClipPath2">
       <ellipse cx="50" cy="160" rx="16" ry="25" />
     </clipPath>
    </defs>

  <polygon fill="url(#DarkRedGradient)" stroke="black" stroke-width="1"
      points="-90 0 90 0 100 5 -100 5" />
  <rect x="-100" y="5" width="200" height="60" fill="url(#RedGradient)" stroke-width="1" stroke="black"/>
  <polygon fill="url(#DarkRedGradient)" stroke="black" stroke-width="1"
      points="-100, 65, 100, 65, 90, 73, -90, 73" />
  <rect x="-90" y="73" width="180" height="54" fill="url(#RedGradient)" stroke-width="1" stroke="black"/>
  <polygon fill="url(#DarkRedGradient)" stroke="black" stroke-width="1"
      points="-90, 127, 90, 127, 98, 135, -98, 135" />
  <rect x="-100" y="135" width="200" height="60" fill="url(#RedGradient)" stroke-width="1" stroke="black"/>
  <polygon fill="url(#DarkRedGradient)" stroke="black" stroke-width="1"
      points="-100, 195, 100, 195, 90, 200, -90, 200" />


</svg>