<?xml version="1.0"?>
<svg x="-50%" y="0%" width="100%" height="100%" viewBox="-100 0 200 200" xmlns="http://www.w3.org/2000/svg" version="1.1" preserveAspectRatio="none">
  <desc>Rod Pump</desc>
<!-- Copyright (c) 2006 Interactive Network Technologies, Inc. -->

    <defs>
      <linearGradient x1="0%" x2="50%" id="BlueGradient" spreadMethod="reflect" gradientUnits="objectBoundingBox">
        <stop offset="5%" stop-color="rgb(3, 43, 74)"/>
        <stop offset="95%" stop-color="rgb(17, 179, 245)"/>
      </linearGradient>
      <linearGradient x1="0%" x2="50%" id="DarkBlueGradient" spreadMethod="reflect" gradientUnits="objectBoundingBox">
        <stop offset="5%" stop-color="rgb(2, 36, 61)"/>
        <stop offset="95%" stop-color="rgb(4, 77, 130)"/>
      </linearGradient>
      <linearGradient x1="0%" x2="50%" id="DarkSilverGradient" spreadMethod="reflect" gradientUnits="objectBoundingBox">
        <stop offset="5%" stop-color="rgb(0, 0, 0)"/>
        <stop offset="95%" stop-color="rgb(80, 80, 80)"/>
      </linearGradient>
      <linearGradient x1="0%" x2="50%" id="RedGradient" spreadMethod="reflect" gradientUnits="objectBoundingBox">
        <stop offset="5%" stop-color="rgb(184, 4, 4)"/>
        <stop offset="95%" stop-color="rgb(255, 0, 0)"/>
      </linearGradient>
      <linearGradient x1="0%" x2="50%" id="DarkRedGradient" spreadMethod="reflect" gradientUnits="objectBoundingBox">
        <stop offset="5%" stop-color="rgb(90, 2, 2)"/>
        <stop offset="95%" stop-color="rgb(180, 4, 4)"/>
      </linearGradient>
      <linearGradient x1="0%" x2="50%" id="CopperGradient" spreadMethod="reflect" gradientUnits="objectBoundingBox">
        <stop offset="25%" stop-color="rgb(117, 55, 4)"/>
        <stop offset="95%" stop-color="rgb(246, 222, 152)"/>
      </linearGradient>
     <clipPath id="ClipPath1">
       <ellipse cx="70" cy="86" rx="8" ry="10" />
     </clipPath>
     <clipPath id="ClipPath2">
       <ellipse cx="70" cy="129" rx="8" ry="10" />
     </clipPath>
     <clipPath id="ClipPath3">
       <ellipse cx="-70" cy="86" rx="8" ry="10" />
     </clipPath>
     <clipPath id="ClipPath4">
       <ellipse cx="-70" cy="129" rx="8" ry="10" />
     </clipPath>
    </defs>

  <rect x="-85" y="0" width="170" height="35" fill="url(#BlueGradient)" stroke-width="1" stroke="black"/>
  <polygon fill="url(#DarkBlueGradient)" stroke="black" stroke-width="1"
      points="-80, 35, 80, 35, 100, 40, -100, 40"/>
  <rect x="-100" y="40" width="200" height="5" fill="url(#BlueGradient)" stroke-width="1" stroke="black"/>
  <rect x="-85" y="45" width="170" height="5" fill="url(#RedGradient)" stroke-width="1" stroke="black"/>
  <rect x="-100" y="50" width="200" height="115" fill="url(#CopperGradient)" stroke-width="1" stroke="black"/>
  <rect x="-95" y="165" width="190" height="5" fill="url(#DarkRedGradient)" stroke-width="1" stroke="black"/>
  <rect x="-100" y="170" width="200" height="20" fill="url(#DarkSilverGradient)" stroke-width="1" stroke="black"/>
  <polygon fill="url(#DarkRedGradient)" stroke="black" stroke-width="1"
      points="-100 190 100 190 75 200 -75 200"/>


  <ellipse cx="0" cy="65" rx="9" ry="10" fill="rgb(92, 27, 0)" stroke="black" stroke-width="1"/>
  <ellipse cx="0" cy="65" rx="6"  ry="10" fill="white" stroke="black" stroke-width="1"/>

  <ellipse cx="0" cy="108" rx="9" ry="10" fill="rgb(92, 27, 0)" stroke="black" stroke-width="1"/>
  <ellipse cx="0" cy="108" rx="6"  ry="10" fill="white" stroke="black" stroke-width="1"/>

  <ellipse cx="0" cy="151" rx="9" ry="10" fill="rgb(92, 27, 0)" stroke="black" stroke-width="1"/>
  <ellipse cx="0" cy="151" rx="6"  ry="10" fill="white" stroke="black" stroke-width="1"/>

  <ellipse cx="70" cy="86" rx="8" ry="10" fill="rgb(178, 76, 0)" stroke="black" stroke-width="1"/>
  <ellipse cx="66" cy="86" rx="6"  ry="10" fill="white" stroke="black" stroke-width="1" clip-path="url(#ClipPath1)"/>

  <ellipse cx="70" cy="129" rx="8" ry="10" fill="rgb(178, 76, 0)" stroke="black" stroke-width="1"/>
  <ellipse cx="66" cy="129" rx="6"  ry="10" fill="white" stroke="black" stroke-width="1" clip-path="url(#ClipPath2)"/>

  <ellipse cx="-70" cy="86" rx="8" ry="10" fill="rgb(178, 76, 0)" stroke="black" stroke-width="1"/>
  <ellipse cx="-66" cy="86" rx="6"  ry="10" fill="white" stroke="black" stroke-width="1" clip-path="url(#ClipPath3)"/>

  <ellipse cx="-70" cy="129" rx="8" ry="10" fill="rgb(178, 76, 0)" stroke="black" stroke-width="1"/>
  <ellipse cx="-66" cy="129" rx="6"  ry="10" fill="white" stroke="black" stroke-width="1" clip-path="url(#ClipPath4)"/>


</svg>