<?xml version="1.0" standalone="no"?>
<svg  x="-50%" y ="0%" width="100%" height="100%" viewBox="-100 0 200 200"
    xmlns="http://www.w3.org/2000/svg" version="1.1"  preserveAspectRatio="none">
  <desc>Rod Pump</desc>
<!-- Copyright (c) 2006 Interactive Network Technologies, Inc. -->

    <defs>
      <linearGradient x1="0%" x2="50%" id="Gradient" spreadMethod = "reflect" gradientUnits="objectBoundingBox">
        <stop offset="5%" stop-color="rgb(201, 4, 4)" />
        <stop offset="95%" stop-color="rgb(247, 100, 100)" />
      </linearGradient>
    </defs>

  <rect x="-100" y="0" width="200" height="200"
   fill="url(#Gradient)"  stroke-width="1" stroke="black" />

  <polyline fill="rgb(221, 221, 221)" stroke-width="1" stroke="black"
    points="-30, 0, -30, 25, -50, 37, -50, 125, -25, 125, -25, 150, 
            25, 150, 25, 125, 50, 125, 50, 37, 30, 25, 30, 0" />

  <circle fill="rgb(95, 95, 95)" stroke-width="1" stroke="black" cx="0" cy = "70" r="12" />
  <circle fill="rgb(95, 95, 95)" stroke-width="1" stroke="black" cx="0" cy = "120" r="12" />

  <polyline fill="rgb(0, 0, 0)" stroke-width="0" stroke="black"
    points="-50, 58, -10, 58, -10, 60, -50, 60" />
  <polyline fill="rgb(0, 0, 0)" stroke-width="0" stroke="black"
    points="10, 58, 50, 58, 50, 60, 10, 60" />

  <polyline fill="rgb(0, 0, 0)" stroke-width="0" stroke="black"
    points="-50, 79, -10, 79, -10, 81, -50, 81" />
  <polyline fill="rgb(0, 0, 0)" stroke-width="0" stroke="black"
    points="10, 79, 50, 79, 50, 81, 10, 81" />

  <polyline fill="rgb(0, 0, 0)" stroke-width="0" stroke="black"
    points="-50, 105, -10, 105, -10, 107, -50, 107" />
  <polyline fill="rgb(0, 0, 0)" stroke-width="0" stroke="black"
    points="10, 105, 50, 105, 50, 107, 10, 107" />

</svg>

