<?xml version="1.0"?>
<svg x="-50%" y="0%" width="100%" height="100%" viewBox="-100 0 200 400" xmlns="http://www.w3.org/2000/svg" version="1.1" preserveAspectRatio="none">
  <desc>Subsurface Safety Valve</desc>
<!-- Copyright (c) 2006 Interactive Network Technologies, Inc. -->

    <defs>
      <linearGradient x1="0%" x2="50%" id="RedGradient" spreadMethod="reflect" gradientUnits="objectBoundingBox">
        <stop offset="25%" stop-color="rgb(201, 4, 4)"/>
        <stop offset="95%" stop-color="rgb(247, 100, 100)"/>
      </linearGradient>
      <linearGradient x1="0%" x2="50%" id="DarkRedGradient" spreadMethod="reflect" gradientUnits="objectBoundingBox">
        <stop offset="25%" stop-color="rgb(201, 4, 4)"/>
        <stop offset="95%" stop-color="rgb(220, 80, 80)"/>
      </linearGradient>      <linearGradient x1="0%" x2="50%" id="BronzeGradient" spreadMethod="reflect" gradientUnits="objectBoundingBox">
        <stop offset="5%" stop-color="rgb(99, 99, 13)"/>
        <stop offset="95%" stop-color="rgb(255, 255, 153)"/>
      </linearGradient>

    </defs>

  <rect x="-87" y="0" width="148" height="45" fill="url(#RedGradient)" stroke-width="1" stroke="black"/>
  <polygon fill="url(#DarkRedGradient)" stroke="black" stroke-width="1"
      points="-87, 45, 61, 45, 74, 75, -100, 75" />
  <rect x="-100" y="75" width="174" height="265" fill="url(#RedGradient)" stroke-width="1" stroke="black"/>
  <polygon fill="url(#DarkRedGradient)" stroke="black" stroke-width="1"
      points="-100 340 74 340 61 370 -87 370" />
  <rect x="-87" y="370" width="148" height="30" fill="url(#RedGradient)" stroke-width="1" stroke="black"/>

  <rect x="80" y="22" width="8" height="35" fill="url(#BronzeGradient)" stroke-width="1" stroke="black"/>
  <polygon fill="black" stroke-width="1" stroke="black"
    points="55 45 56 45 100 62 100 160 72 185 70 185 70 75" />
  <polygon fill="rgb(183, 183, 88)" stroke-width="1" stroke="black"
    points="55 45 97 62 97 160 70 185 70 75" />

  <polygon fill="red" stroke-width="1" stroke="black"
    points="70 185 86 170 70 140" />

</svg>