<?xml version="1.0" encoding="utf-8"?>
<!-- Generator: Adobe Illustrator 13.0.2, SVG Export Plug-In . SVG Version: 6.00 Build 14948)  -->
<!DOCTYPE svg PUBLIC "-//W3C//DTD SVG 1.1//EN" "http://www.w3.org/Graphics/SVG/1.1/DTD/svg11.dtd">
<svg version="1.1" xmlns="http://www.w3.org/2000/svg" xmlns:xlink="http://www.w3.org/1999/xlink" x="0px" y="0px"
	 width="209.925px" height="260.171px" viewBox="0 0 209.925 260.171" enable-background="new 0 0 209.925 260.171"
	 xml:space="preserve">
<g id="reference">
</g>
<g id="drawing">
	<g>
		<g>
			<polygon fill="none" stroke="#114D75" stroke-width="2" stroke-linecap="round" stroke-linejoin="round" points="157.237,1 
				52.685,1 50.32,3.36 50.32,40.208 159.601,40.198 159.602,3.362 			"/>
			
				<linearGradient id="SVGID_1_" gradientUnits="userSpaceOnUse" x1="-466.1489" y1="298.1396" x2="-356.8672" y2="298.1396" gradientTransform="matrix(-1 -2.000000e-04 2.000000e-04 -1 -306.6063 300.2383)">
				<stop  offset="0.05" style="stop-color:#9299B1"/>
				<stop  offset="0.5" style="stop-color:#FFFFFF"/>
				<stop  offset="0.9451" style="stop-color:#9299B1"/>
			</linearGradient>
			<polygon fill="url(#SVGID_1_)" points="50.32,3.36 52.685,1 157.237,1 159.602,3.362 			"/>
			<g>
				
					<linearGradient id="SVGID_2_" gradientUnits="userSpaceOnUse" x1="-468.4624" y1="278.5352" x2="-354.5683" y2="278.5352" gradientTransform="matrix(-1 -2.000000e-04 2.000000e-04 -1 -306.6063 300.2383)">
					<stop  offset="0.05" style="stop-color:#5D7091"/>
					<stop  offset="0.5" style="stop-color:#FFFFFF"/>
					<stop  offset="0.9451" style="stop-color:#5D7091"/>
				</linearGradient>
				<polygon fill="url(#SVGID_2_)" points="50.32,3.36 50.32,40.208 159.601,40.198 159.602,3.362 				"/>
			</g>
		</g>
		<rect x="71.607" y="108.429" fill="#171717" width="66.289" height="84.938"/>
		<g>
			<path fill="#333333" d="M71.397,213.713c-1.269,1.575-1.426,3.358-0.879,4.844l2.07,5.238c5.138-1.752,12.423,0.975,16.123,1.723
				c2.38,0.48,4.864,0.008,6.067-1.422c1.137-1.477,0.908-3.807-0.28-5.768c-1.303-2.154-4.144-5.596-5.589-9.205
				c-0.405,0.269-0.899,0.525-1.492,0.768C84.191,211.203,74.051,210.416,71.397,213.713z"/>
			<path fill="#333333" d="M84.314,193.054c2.372,2.03,4.203,3.835,4.722,4.948l0.098,0.228c0.261,0.546,0.473,1.233,0.667,2.333
				c3.695-3.839,12.195-3.717,15.729-4.979c2.366-0.849,3.241-2.147,2.848-3.241c-0.269-0.746-1.12-1.389-2.507-1.736l-9.951-2.729
				l-9.408,3.896C85.615,192.186,84.943,192.529,84.314,193.054z"/>
			<path fill="#333333" d="M62.849,228.83c-1.611,1.049-2.593,5.857-3.19,8.555c-0.059,0.268-0.125,0.578-0.198,0.921l3.773,5.275
				c0.758,1.118,1.673,1.681,2.521,1.705c1.25,0.04,2.35-1.106,2.544-3.447c0.209-2.522-1.089-7.137-0.717-11.151
				c-0.171-0.038-0.341-0.069-0.516-0.125L62.849,228.83z"/>
			<path fill="#1C1C1C" d="M90.444,206.413c0.08,1.005-0.346,1.917-1.536,2.71c1.445,3.609,4.287,7.051,5.589,9.205
				c1.188,1.961,1.417,4.291,0.28,5.768c-1.203,1.43-3.687,1.902-6.067,1.422c-3.7-0.748-10.984-3.475-16.123-1.723l0.444,1.123
				c0.608,1.439,0.26,3.08-0.725,4.27c-1.015,1.225-2.71,1.951-4.726,1.5c-0.373,4.015,0.926,8.629,0.717,11.151
				c-0.194,2.341-1.293,3.487-2.544,3.447l4.772-0.005c1.699,0.045,3.666-1.105,4.638-3.764c1.889-5.244-0.888-12.021,2.509-14.706
				c2.974-2.349,8.028-1.282,12.325-0.411c2.379,0.481,4.864,0.008,6.069-1.422c1.133-1.479,0.906-3.807-0.282-5.77
				c-2.147-3.542-4.718-7.695-3.141-11c1.804-3.776,9.642-3.285,14.538-6.472c2.477-1.628,3.102-3.698,2.562-5.183l-1.367-4.213
				c0.394,1.094-0.481,2.393-2.848,3.241c-3.533,1.263-12.034,1.141-15.729,4.979C90.024,201.824,90.224,203.626,90.444,206.413z"/>
		</g>
		<g>
			<path fill="#333333" d="M138.529,213.713c1.269,1.575,1.426,3.358,0.878,4.844l-2.069,5.238
				c-5.137-1.752-12.422,0.975-16.122,1.723c-2.381,0.48-4.864,0.008-6.067-1.422c-1.137-1.477-0.908-3.807,0.281-5.768
				c1.303-2.154,4.143-5.596,5.588-9.205c0.406,0.269,0.898,0.525,1.492,0.768C125.734,211.203,135.875,210.416,138.529,213.713z"/>
			<path fill="#333333" d="M125.611,193.054c-2.373,2.03-4.203,3.835-4.721,4.948l-0.1,0.228c-0.26,0.546-0.473,1.233-0.666,2.333
				c-3.695-3.839-12.195-3.717-15.729-4.979c-2.367-0.849-3.241-2.147-2.848-3.241c0.268-0.746,1.121-1.389,2.507-1.736l9.95-2.729
				l9.409,3.896C124.31,192.186,124.982,192.529,125.611,193.054z"/>
			<path fill="#333333" d="M147.078,228.83c1.609,1.049,2.591,5.857,3.188,8.555c0.061,0.268,0.127,0.578,0.199,0.921l-3.771,5.275
				c-0.758,1.118-1.674,1.681-2.521,1.705c-1.251,0.04-2.352-1.106-2.544-3.447c-0.21-2.522,1.089-7.137,0.716-11.151
				c0.172-0.038,0.342-0.069,0.518-0.125L147.078,228.83z"/>
			<path fill="#1C1C1C" d="M119.483,206.413c-0.08,1.005,0.345,1.917,1.534,2.71c-1.445,3.609-4.285,7.051-5.588,9.205
				c-1.189,1.961-1.418,4.291-0.281,5.768c1.203,1.43,3.687,1.902,6.067,1.422c3.7-0.748,10.985-3.475,16.122-1.723l-0.443,1.123
				c-0.609,1.439-0.26,3.08,0.723,4.27c1.018,1.225,2.713,1.951,4.727,1.5c0.373,4.015-0.926,8.629-0.716,11.151
				c0.192,2.341,1.293,3.487,2.544,3.447l-4.771-0.005c-1.7,0.045-3.666-1.105-4.64-3.764c-1.89-5.244,0.888-12.021-2.509-14.706
				c-2.974-2.349-8.027-1.282-12.324-0.411c-2.379,0.481-4.865,0.008-6.068-1.422c-1.135-1.479-0.908-3.807,0.28-5.77
				c2.147-3.542,4.719-7.695,3.14-11c-1.803-3.776-9.641-3.285-14.536-6.472c-2.477-1.628-3.102-3.698-2.562-5.183l1.367-4.213
				c-0.393,1.094,0.481,2.393,2.848,3.241c3.533,1.263,12.033,1.141,15.729,4.979C119.902,201.824,119.702,203.626,119.483,206.413z
				"/>
		</g>
		<g>
			<g>
				<path fill="none" stroke="#1A1A1A" stroke-width="2" stroke-linecap="round" stroke-linejoin="round" d="M10.915,254.166
					l-6.492-27.09c-2.16-8.369,6.244-26.988,21.301-45.696c15.059-18.711,31.949-31.525,41.262-32.042l29.928-2.02
					c2.275-0.304,5.628,0.436,7.031,4.176c1.402,3.737-1.102,8.582-7.105,13.584c-0.949,0.793-1.91,1.528-2.818,2.217
					c0.866,0.301,1.627,0.555,2.233,0.748c1.033,0.331,1.744,0.957,2.119,1.691l5.938,8.746c1.899,3.05,0.609,4.416-0.127,5.332
					c-0.656,0.779-1.921,1.434-3.361,2.029l-14.312,5.93c-0.896,0.414-1.568,0.758-2.197,1.282c2.372,2.03,4.203,3.835,4.722,4.948
					l0.098,0.228c0.561,1.178,0.899,2.976,1.31,8.184c0.105,1.347-0.692,2.526-3.028,3.478c-3.225,1.312-13.365,0.525-16.019,3.822
					c-1.269,1.575-1.426,3.358-0.879,4.844l2.514,6.361c0.608,1.439,0.26,3.08-0.725,4.27c-1.102,1.326-2.999,2.089-5.241,1.375
					l-4.217-1.732c-1.611,1.049-2.593,5.857-3.19,8.555c-0.705,3.186-2.36,12.166-5.616,12.605
					c-4.716,0.635-6.393,0.689-7.575,0.444c-3.401-0.387-7.292-5.676-12.218-10.341c-1.627,0.809-2.844,4.812-4.922,8.866
					c-3.458,6.749-7.757,10.36-12.044,10.206C12.995,259.01,11.258,256.263,10.915,254.166z"/>
				<linearGradient id="SVGID_3_" gradientUnits="userSpaceOnUse" x1="103.2749" y1="203.2139" x2="7.9647" y2="203.2139">
					<stop  offset="0" style="stop-color:#545454"/>
					<stop  offset="1" style="stop-color:#454545"/>
				</linearGradient>
				<path fill="url(#SVGID_3_)" d="M10.915,254.166l-6.492-27.09c-2.16-8.369,6.244-26.988,21.301-45.696
					c15.059-18.711,31.949-31.525,41.262-32.042l29.928-2.02c2.275-0.304,5.628,0.436,7.031,4.176
					c1.402,3.737-1.102,8.582-7.105,13.584c-0.949,0.793-1.91,1.528-2.818,2.217c0.866,0.301,1.627,0.555,2.233,0.748
					c1.033,0.331,1.744,0.957,2.119,1.691l5.938,8.746c1.899,3.05,0.609,4.416-0.127,5.332c-0.656,0.779-1.921,1.434-3.361,2.029
					l-14.312,5.93c-0.896,0.414-1.568,0.758-2.197,1.282c2.372,2.03,4.203,3.835,4.722,4.948l0.098,0.228
					c0.561,1.178,0.899,2.976,1.31,8.184c0.105,1.347-0.692,2.526-3.028,3.478c-3.225,1.312-13.365,0.525-16.019,3.822
					c-1.269,1.575-1.426,3.358-0.879,4.844l2.514,6.361c0.608,1.439,0.26,3.08-0.725,4.27c-1.102,1.326-2.999,2.089-5.241,1.375
					l-4.217-1.732c-1.611,1.049-2.593,5.857-3.19,8.555c-0.705,3.186-2.36,12.166-5.616,12.605
					c-4.716,0.635-6.393,0.689-7.575,0.444c-3.401-0.387-7.292-5.676-12.218-10.341c-1.627,0.809-2.844,4.812-4.922,8.866
					c-3.458,6.749-7.757,10.36-12.044,10.206C12.995,259.01,11.258,256.263,10.915,254.166z"/>
				<path fill="#212121" d="M34.249,240.094c-3.62-3.428-7.53-6.927-11.094-9.141c-2.613-1.621-4.384-1.585-6.067-0.902
					c-1.681,0.682-1.971,2.278-2.156,5.275c-0.219,3.519-0.923,18.457-0.923,18.457c-0.093,2.605-2.634,2.949-3.094,0.383
					c0.343,2.097,2.08,4.844,6.368,5c4.287,0.154,8.586-3.457,12.044-10.206C31.405,244.905,32.622,240.902,34.249,240.094z"/>
				<path fill="#212121" d="M94.022,167.295c0.909-0.688,1.869-1.424,2.818-2.217c6.003-5.002,8.507-9.847,7.105-13.584
					c-1.403-3.74-4.756-4.479-7.031-4.176c2.796-0.336,3.174,2.008,0.499,2.844c0,0-16.934,4.854-20.533,6.035
					c-1.893,0.619-2.806,1.264-2.95,2.531c-0.046,0.807,0.804,1.512,2.372,2.095C76.302,160.823,87.866,165.168,94.022,167.295z"/>
				<path fill="#212121" d="M98.374,169.734l5.938,8.746c1.899,3.05,0.609,4.416-0.127,5.332c-0.656,0.779-1.921,1.434-3.361,2.029
					l-14.312,5.93c-0.896,0.414-1.568,0.758-2.197,1.282c-5.614-4.812-14.273-10.91-15.816-12.212
					c-1.271-1.071-2.065-2.038-1.22-3.627c0.974-1.752,2.305-1.925,4.724-2.047l22.597-0.812
					C98.135,174.15,99.327,171.596,98.374,169.734z"/>
				<path fill="#212121" d="M62.849,228.83c-1.611,1.049-2.593,5.857-3.19,8.555c-0.705,3.186-2.36,12.166-5.616,12.605
					c-4.716,0.635-6.393,0.689-7.575,0.444c0.159,0.009,0.3-0.008,0.419-0.067c4.427-2.469-10.646-24.404-12.446-26.943
					c-1.266-1.782-1.701-3.443,0.012-4.992c1.353-1.227,2.897-1.436,4.109-0.939l20.532,7.612c2.125,0.677,4.088-0.174,5.203-1.524
					c1.115-1.347,1.381-3.193,0.115-4.506l-11.104-15.342c-1.309-1.495-1.557-3.439-0.379-5.002
					c1.181-1.467,3.087-1.412,4.672-1.326c3.488,0.24,29.829,6.755,31.56,1.289c0.037-0.145,0.022-0.299-0.026-0.464
					c0.561,1.178,0.899,2.976,1.31,8.184c0.105,1.347-0.692,2.526-3.028,3.478c-3.225,1.312-13.365,0.525-16.019,3.822
					c-1.269,1.575-1.426,3.358-0.879,4.844l2.514,6.361c0.608,1.439,0.26,3.08-0.725,4.27c-1.102,1.326-2.999,2.089-5.241,1.375
					L62.849,228.83z"/>
				<path fill="#636363" d="M52.297,199.571c17.835-22.161,26.347-44.199,19.01-49.222c-1.144-0.783-2.604-1.105-4.321-1.012
					c-9.312,0.517-26.203,13.331-41.262,32.042c-15.058,18.708-23.469,37.328-21.31,45.7c0.399,1.543,1.156,2.738,2.301,3.521
					C14.05,235.623,34.459,221.731,52.297,199.571z"/>
			</g>
			<path fill="#404040" d="M69.734,149.272c7.338,5.024-1.172,27.061-19.01,49.224c-17.836,22.161-38.246,36.051-45.582,31.029
				c-8.156-5.584,0.043-27.836,17.88-49.996C40.86,157.369,61.58,143.688,69.734,149.272z"/>
			<linearGradient id="SVGID_4_" gradientUnits="userSpaceOnUse" x1="66.4229" y1="149.374" x2="4.9265" y2="227.4664">
				<stop  offset="0" style="stop-color:#333333"/>
				<stop  offset="1" style="stop-color:#808080"/>
			</linearGradient>
			<path fill="url(#SVGID_4_)" d="M66.831,149.709c7.051,4.828-1.129,26.006-18.271,47.305
				c-17.141,21.298-36.754,34.65-43.806,29.82c-7.052-4.826,1.127-26.008,18.269-47.305
				C40.165,158.231,59.778,144.881,66.831,149.709z"/>
		</g>
		<g>
			<g>
				<path fill="none" stroke="#1A1A1A" stroke-width="2" stroke-linecap="round" stroke-linejoin="round" d="M199.011,254.166
					l6.49-27.09c2.162-8.369-6.244-26.988-21.301-45.696c-15.059-18.711-31.949-31.525-41.26-32.042l-29.929-2.02
					c-2.276-0.304-5.629,0.436-7.032,4.176c-1.402,3.737,1.103,8.582,7.104,13.584c0.951,0.793,1.912,1.528,2.82,2.217
					c-0.866,0.301-1.628,0.555-2.232,0.748c-1.035,0.331-1.744,0.957-2.121,1.691l-5.938,8.746c-1.899,3.05-0.608,4.416,0.127,5.332
					c0.656,0.779,1.922,1.434,3.362,2.029l14.312,5.93c0.896,0.414,1.567,0.758,2.196,1.282c-2.373,2.03-4.203,3.835-4.721,4.948
					l-0.1,0.228c-0.561,1.178-0.897,2.976-1.308,8.184c-0.106,1.347,0.69,2.526,3.026,3.478c3.225,1.312,13.365,0.525,16.02,3.822
					c1.269,1.575,1.426,3.358,0.878,4.844l-2.513,6.361c-0.609,1.439-0.26,3.08,0.723,4.27c1.104,1.326,3,2.089,5.244,1.375
					l4.217-1.732c1.609,1.049,2.591,5.857,3.188,8.555c0.707,3.186,2.361,12.166,5.617,12.605c4.717,0.635,6.394,0.689,7.576,0.444
					c3.402-0.387,7.292-5.676,12.219-10.341c1.626,0.809,2.844,4.812,4.922,8.866c3.457,6.749,7.758,10.36,12.045,10.206
					C196.93,259.01,198.667,256.263,199.011,254.166z"/>
				<linearGradient id="SVGID_5_" gradientUnits="userSpaceOnUse" x1="104.6235" y1="203.2139" x2="205.8374" y2="203.2139">
					<stop  offset="0" style="stop-color:#545454"/>
					<stop  offset="1" style="stop-color:#454545"/>
				</linearGradient>
				<path fill="url(#SVGID_5_)" d="M199.011,254.166l6.49-27.09c2.162-8.369-6.244-26.988-21.301-45.696
					c-15.059-18.711-31.949-31.525-41.26-32.042l-29.929-2.02c-2.276-0.304-5.629,0.436-7.032,4.176
					c-1.402,3.737,1.103,8.582,7.104,13.584c0.951,0.793,1.912,1.528,2.82,2.217c-0.866,0.301-1.628,0.555-2.232,0.748
					c-1.035,0.331-1.744,0.957-2.121,1.691l-5.938,8.746c-1.899,3.05-0.608,4.416,0.127,5.332c0.656,0.779,1.922,1.434,3.362,2.029
					l14.312,5.93c0.896,0.414,1.567,0.758,2.196,1.282c-2.373,2.03-4.203,3.835-4.721,4.948l-0.1,0.228
					c-0.561,1.178-0.897,2.976-1.308,8.184c-0.106,1.347,0.69,2.526,3.026,3.478c3.225,1.312,13.365,0.525,16.02,3.822
					c1.269,1.575,1.426,3.358,0.878,4.844l-2.513,6.361c-0.609,1.439-0.26,3.08,0.723,4.27c1.104,1.326,3,2.089,5.244,1.375
					l4.217-1.732c1.609,1.049,2.591,5.857,3.188,8.555c0.707,3.186,2.361,12.166,5.617,12.605c4.717,0.635,6.394,0.689,7.576,0.444
					c3.402-0.387,7.292-5.676,12.219-10.341c1.626,0.809,2.844,4.812,4.922,8.866c3.457,6.749,7.758,10.36,12.045,10.206
					C196.93,259.01,198.667,256.263,199.011,254.166z"/>
				<path fill="#212121" d="M175.677,240.094c3.619-3.428,7.529-6.927,11.094-9.141c2.613-1.621,4.384-1.585,6.065-0.902
					c1.683,0.682,1.972,2.278,2.157,5.275c0.221,3.519,0.924,18.457,0.924,18.457c0.092,2.605,2.635,2.949,3.094,0.383
					c-0.344,2.097-2.081,4.844-6.367,5c-4.287,0.154-8.588-3.457-12.045-10.206C178.521,244.905,177.303,240.902,175.677,240.094z"
					/>
				<path fill="#212121" d="M115.904,167.295c-0.908-0.688-1.869-1.424-2.82-2.217c-6.001-5.002-8.506-9.847-7.104-13.584
					c1.403-3.74,4.756-4.479,7.032-4.176c-2.796-0.336-3.175,2.008-0.499,2.844c0,0,16.934,4.854,20.531,6.035
					c1.895,0.619,2.807,1.264,2.951,2.531c0.046,0.807-0.803,1.512-2.371,2.095C133.625,160.823,122.06,165.168,115.904,167.295z"/>
				<path fill="#212121" d="M111.55,169.734l-5.938,8.746c-1.899,3.05-0.608,4.416,0.127,5.332c0.656,0.779,1.922,1.434,3.362,2.029
					l14.312,5.93c0.896,0.414,1.567,0.758,2.196,1.282c5.614-4.812,14.273-10.91,15.816-12.212c1.271-1.071,2.064-2.038,1.221-3.627
					c-0.973-1.752-2.305-1.925-4.724-2.047l-22.597-0.812C111.791,174.15,110.599,171.596,111.55,169.734z"/>
				<path fill="#212121" d="M147.078,228.83c1.609,1.049,2.591,5.857,3.188,8.555c0.707,3.186,2.361,12.166,5.617,12.605
					c4.717,0.635,6.394,0.689,7.576,0.444c-0.159,0.009-0.301-0.008-0.42-0.067c-4.427-2.469,10.647-24.404,12.448-26.943
					c1.266-1.782,1.7-3.443-0.013-4.992c-1.352-1.227-2.896-1.436-4.109-0.939l-20.533,7.612c-2.125,0.677-4.088-0.174-5.203-1.524
					c-1.113-1.347-1.38-3.193-0.114-4.506l11.103-15.342c1.312-1.495,1.559-3.439,0.38-5.002c-1.181-1.467-3.087-1.412-4.671-1.326
					c-3.488,0.24-29.829,6.755-31.561,1.289c-0.037-0.145-0.023-0.299,0.025-0.464c-0.561,1.178-0.897,2.976-1.308,8.184
					c-0.106,1.347,0.69,2.526,3.026,3.478c3.225,1.312,13.365,0.525,16.02,3.822c1.269,1.575,1.426,3.358,0.878,4.844l-2.513,6.361
					c-0.609,1.439-0.26,3.08,0.723,4.27c1.104,1.326,3,2.089,5.244,1.375L147.078,228.83z"/>
				<path fill="#636363" d="M157.63,199.571c-17.838-22.161-26.348-44.199-19.012-49.222c1.143-0.783,2.604-1.105,4.322-1.012
					c9.311,0.517,26.201,13.331,41.26,32.042c15.057,18.708,23.47,37.328,21.311,45.7c-0.398,1.543-1.157,2.738-2.301,3.521
					C195.875,235.623,175.466,221.731,157.63,199.571z"/>
			</g>
			<path fill="#404040" d="M140.192,149.272c-7.339,5.024,1.173,27.061,19.01,49.224c17.837,22.161,38.245,36.051,45.581,31.029
				c8.156-5.584-0.043-27.836-17.881-49.996C169.066,157.369,148.346,143.688,140.192,149.272z"/>
			<linearGradient id="SVGID_6_" gradientUnits="userSpaceOnUse" x1="140.562" y1="188.2715" x2="207.7036" y2="188.2715">
				<stop  offset="0" style="stop-color:#333333"/>
				<stop  offset="1" style="stop-color:#808080"/>
			</linearGradient>
			<path fill="url(#SVGID_6_)" d="M143.095,149.709c-7.053,4.828,1.128,26.006,18.27,47.305
				c17.142,21.298,36.756,34.65,43.807,29.82c7.051-4.826-1.127-26.008-18.27-47.305
				C169.761,158.231,150.147,144.881,143.095,149.709z"/>
		</g>
		<g>
			<path fill="none" stroke="#114D75" stroke-width="2" stroke-linecap="round" stroke-linejoin="round" d="M50.32,40.208
				l-9.787,6.826L34.78,61.694L7.608,88.265C5.49,90.386,5.465,92.353,5.465,93.7L1.204,209.66l-0.16,4.214
				c-0.239,3.22,0.478,5.608,2.27,6.836c6.446,4.412,24.373-7.792,40.042-27.259c1.429-1.773,2.788-3.548,4.075-5.309l57.531-77.655
				l57.529,77.655c1.29,1.761,2.647,3.535,4.078,5.309c15.666,19.467,33.596,31.671,40.041,27.259
				c1.792-1.228,2.509-3.616,2.27-6.836l-0.161-4.214L204.46,93.7c0-1.348-0.025-3.314-2.144-5.436l-27.171-26.57l-5.754-14.661
				l-9.791-6.826H50.32z"/>
			<linearGradient id="SVGID_7_" gradientUnits="userSpaceOnUse" x1="40.5337" y1="43.6206" x2="169.3921" y2="43.6206">
				<stop  offset="0.05" style="stop-color:#9299B1"/>
				<stop  offset="0.5" style="stop-color:#FFFFFF"/>
				<stop  offset="0.9451" style="stop-color:#9299B1"/>
			</linearGradient>
			<polygon fill="url(#SVGID_7_)" points="159.601,40.208 169.392,47.034 40.534,47.034 50.32,40.208 			"/>
			<linearGradient id="SVGID_8_" gradientUnits="userSpaceOnUse" x1="33.7588" y1="54.3643" x2="176.0554" y2="54.3643">
				<stop  offset="0.05" style="stop-color:#5D7091"/>
				<stop  offset="0.5" style="stop-color:#FFFFFF"/>
				<stop  offset="0.9451" style="stop-color:#5D7091"/>
			</linearGradient>
			<polygon fill="url(#SVGID_8_)" points="34.78,61.694 40.534,47.034 80.807,47.034 81.593,61.694 			"/>
			<linearGradient id="SVGID_9_" gradientUnits="userSpaceOnUse" x1="33.7588" y1="54.3643" x2="176.0554" y2="54.3643">
				<stop  offset="0.05" style="stop-color:#5D7091"/>
				<stop  offset="0.5" style="stop-color:#FFFFFF"/>
				<stop  offset="0.9451" style="stop-color:#5D7091"/>
			</linearGradient>
			<polygon fill="url(#SVGID_9_)" points="175.146,61.694 128.333,61.694 129.118,47.034 169.392,47.034 			"/>
			<linearGradient id="SVGID_10_" gradientUnits="userSpaceOnUse" x1="104.561" y1="162.5205" x2="0.017" y2="162.5205">
				<stop  offset="0" style="stop-color:#8291AC"/>
				<stop  offset="1" style="stop-color:#5F7191"/>
			</linearGradient>
			<path fill="url(#SVGID_10_)" d="M104.962,104.036c-1.847,0-3.641-0.21-5.356-0.607c-0.252,0.34-0.491,0.671-0.718,0.973
				l-57.525,77.085c-1.288,1.76-2.647,3.532-4.075,5.307C21.62,206.261,9.875,218.996,3.43,214.584
				c-1.794-1.229-2.282-3.409-2.225-4.924l-0.161,4.214c-0.239,3.22,0.478,5.608,2.271,6.836
				c6.445,4.412,24.372-7.792,40.041-27.259c1.428-1.773,2.787-3.548,4.075-5.309l57.531-77.655V104.036z"/>
			<linearGradient id="SVGID_11_" gradientUnits="userSpaceOnUse" x1="209.6587" y1="162.5205" x2="105.9438" y2="162.5205">
				<stop  offset="0" style="stop-color:#8291AC"/>
				<stop  offset="0.0252" style="stop-color:#808FAB"/>
				<stop  offset="0.258" style="stop-color:#6D7E9D"/>
				<stop  offset="0.4959" style="stop-color:#5E7293"/>
				<stop  offset="0.7401" style="stop-color:#556D8F"/>
				<stop  offset="1" style="stop-color:#526A8C"/>
			</linearGradient>
			<path fill="url(#SVGID_11_)" d="M104.962,104.036c1.848,0,3.641-0.21,5.357-0.607c0.252,0.34,0.49,0.671,0.717,0.973
				l57.525,77.085c1.287,1.76,2.647,3.532,4.076,5.307c15.668,19.468,27.412,32.203,33.856,27.791
				c1.794-1.229,2.283-3.409,2.225-4.924l0.161,4.214c0.239,3.22-0.477,5.608-2.27,6.836c-6.444,4.412-24.374-7.792-40.041-27.259
				c-1.43-1.773-2.787-3.548-4.076-5.309l-57.531-77.655V104.036z"/>
			<linearGradient id="SVGID_12_" gradientUnits="userSpaceOnUse" x1="121.4253" y1="75.5347" x2="88.5192" y2="75.5347">
				<stop  offset="0" style="stop-color:#8291AC"/>
				<stop  offset="0.1771" style="stop-color:#7685A2"/>
				<stop  offset="0.4171" style="stop-color:#697A98"/>
				<stop  offset="0.6788" style="stop-color:#617393"/>
				<stop  offset="1" style="stop-color:#5F7191"/>
			</linearGradient>
			<path fill="url(#SVGID_12_)" d="M129.118,47.034l-0.785,14.661l-1.218,22.708c-0.499,9.234-7.486,16.872-16.795,19.025
				c-1.717,0.397-3.51,0.607-5.357,0.607c-1.847,0-3.641-0.21-5.356-0.607c-9.308-2.153-16.297-9.792-16.795-19.025l-1.218-22.708
				l-0.786-14.661l5.91,14.661l1.782,22.795c0.626,7.977,7.756,14.262,16.463,14.262c8.709,0,15.838-6.286,16.463-14.262
				l1.783-22.795L129.118,47.034z"/>
			<linearGradient id="SVGID_13_" gradientUnits="userSpaceOnUse" x1="104.9624" y1="98.2905" x2="104.9624" y2="60.6255">
				<stop  offset="0" style="stop-color:#828CA7"/>
				<stop  offset="0.9451" style="stop-color:#A3A9BD"/>
				<stop  offset="0.9777" style="stop-color:#B7BBCB"/>
				<stop  offset="1" style="stop-color:#C0C4D2"/>
			</linearGradient>
			<path fill="url(#SVGID_13_)" d="M129.118,47.034l-5.909,14.661l-1.783,22.795c-0.625,7.977-7.754,14.262-16.463,14.262
				c-8.708,0-15.837-6.286-16.463-14.262l-1.782-22.795l-5.91-14.661H129.118z"/>
			<linearGradient id="SVGID_14_" gradientUnits="userSpaceOnUse" x1="140.3071" y1="152.5039" x2="206.6994" y2="151.674">
				<stop  offset="0" style="stop-color:#647495"/>
				<stop  offset="0.4945" style="stop-color:#9098B1"/>
				<stop  offset="0.5061" style="stop-color:#9299B1"/>
				<stop  offset="0.706" style="stop-color:#A7AEC2"/>
				<stop  offset="0.8242" style="stop-color:#B0B6C8"/>
			</linearGradient>
			<path fill="url(#SVGID_14_)" d="M206.495,214.584c1.794-1.229,2.283-3.409,2.225-4.924L204.46,93.7
				c0-1.348-0.024-3.314-2.144-5.436h-22.385c-1.565,0-4.104,0.167-5.772,1.998c-0.91,0.997-1.561,2.485-1.651,4.716
				c0,0-1.741,70.445-2.196,88.842c0.754,0.989,1.527,1.982,2.326,2.973C188.306,206.261,200.05,218.996,206.495,214.584z"/>
			<g>
				<linearGradient id="SVGID_15_" gradientUnits="userSpaceOnUse" x1="110.3198" y1="122.7573" x2="174.1597" y2="122.7573">
					<stop  offset="0" style="stop-color:#7686A3"/>
					<stop  offset="1" style="stop-color:#5F7191"/>
				</linearGradient>
				<path fill="url(#SVGID_15_)" d="M127.115,84.403c-0.499,9.234-7.486,16.872-16.795,19.025c0.252,0.34,0.49,0.671,0.717,0.973
					l57.525,77.085c0.566,0.775,1.154,1.555,1.75,2.334c0.455-18.396,2.196-88.842,2.196-88.842c0.091-2.23,0.741-3.719,1.651-4.716
					l-45.827-28.568L127.115,84.403z"/>
				<linearGradient id="SVGID_16_" gradientUnits="userSpaceOnUse" x1="165.3247" y1="88.9751" x2="165.3247" y2="63.8644">
					<stop  offset="0" style="stop-color:#828CA7"/>
					<stop  offset="1" style="stop-color:#A9B1C5"/>
				</linearGradient>
				<path fill="url(#SVGID_16_)" d="M179.932,88.265h22.385l-27.171-26.57h-46.813l45.827,28.568
					C175.828,88.432,178.367,88.265,179.932,88.265z"/>
			</g>
			<linearGradient id="SVGID_17_" gradientUnits="userSpaceOnUse" x1="4.6919" y1="151.918" x2="38.6759" y2="151.0891">
				<stop  offset="0" style="stop-color:#647495"/>
				<stop  offset="0.8077" style="stop-color:#9098B1"/>
				<stop  offset="0.8129" style="stop-color:#9299B1"/>
				<stop  offset="0.9028" style="stop-color:#A7AEC2"/>
				<stop  offset="0.956" style="stop-color:#B0B6C8"/>
			</linearGradient>
			<path fill="url(#SVGID_17_)" d="M3.43,214.584c-1.794-1.229-2.282-3.409-2.225-4.924L5.465,93.7c0-1.348,0.025-3.314,2.144-5.436
				h22.386c1.564,0,4.104,0.167,5.773,1.998c0.908,0.997,1.559,2.485,1.651,4.716c0,0,1.742,70.445,2.196,88.842
				c-0.755,0.989-1.526,1.982-2.326,2.973C21.62,206.261,9.875,218.996,3.43,214.584z"/>
			<g>
				<linearGradient id="SVGID_18_" gradientUnits="userSpaceOnUse" x1="97.647" y1="122.7573" x2="36.663" y2="122.7573">
					<stop  offset="0" style="stop-color:#647495"/>
					<stop  offset="0.4945" style="stop-color:#9098B1"/>
					<stop  offset="0.5061" style="stop-color:#9299B1"/>
					<stop  offset="0.706" style="stop-color:#A7AEC2"/>
					<stop  offset="0.8242" style="stop-color:#B0B6C8"/>
				</linearGradient>
				<path fill="url(#SVGID_18_)" d="M82.811,84.403c0.499,9.234,7.487,16.872,16.795,19.025c-0.252,0.34-0.491,0.671-0.718,0.973
					l-57.525,77.085c-0.567,0.775-1.154,1.555-1.75,2.334c-0.454-18.396-2.196-88.842-2.196-88.842
					c-0.092-2.23-0.743-3.719-1.651-4.716l45.826-28.568L82.811,84.403z"/>
				<linearGradient id="SVGID_19_" gradientUnits="userSpaceOnUse" x1="44.6006" y1="88.9751" x2="44.6006" y2="63.8644">
					<stop  offset="0" style="stop-color:#828CA7"/>
					<stop  offset="1" style="stop-color:#A9B1C5"/>
				</linearGradient>
				<path fill="url(#SVGID_19_)" d="M29.994,88.265H7.608l27.171-26.57h46.813L35.767,90.263
					C34.098,88.432,31.559,88.265,29.994,88.265z"/>
			</g>
			<ellipse fill="#5D6F90" cx="104.924" cy="84.445" rx="5.05" ry="4.93"/>
			<linearGradient id="SVGID_20_" gradientUnits="userSpaceOnUse" x1="10.999" y1="142.0303" x2="10.999" y2="175.2401">
				<stop  offset="0" style="stop-color:#8291AC"/>
				<stop  offset="0.1777" style="stop-color:#6C7E9D"/>
				<stop  offset="0.374" style="stop-color:#576F90"/>
				<stop  offset="0.5748" style="stop-color:#476588"/>
				<stop  offset="0.7808" style="stop-color:#3E6084"/>
				<stop  offset="1" style="stop-color:#3A5E83"/>
			</linearGradient>
			<ellipse fill="url(#SVGID_20_)" cx="10.999" cy="157.164" rx="5.475" ry="18.875"/>
			<linearGradient id="SVGID_21_" gradientUnits="userSpaceOnUse" x1="198.9272" y1="156.6104" x2="198.9272" y2="174.7003">
				<stop  offset="0" style="stop-color:#8291AC"/>
				<stop  offset="0.194" style="stop-color:#7484A2"/>
				<stop  offset="0.4519" style="stop-color:#667898"/>
				<stop  offset="0.7174" style="stop-color:#5E7292"/>
				<stop  offset="1" style="stop-color:#5B7091"/>
			</linearGradient>
			<ellipse fill="url(#SVGID_21_)" cx="198.927" cy="157.164" rx="5.476" ry="18.875"/>
		</g>
	</g>
</g>
</svg>
