<?xml version="1.0" encoding="utf-8"?>
<svg version="1.1" xmlns:xlink="http://www.w3.org/1999/xlink" width="32px" height="32px" xmlns="http://www.w3.org/2000/svg">
  <g transform="matrix(1 0 0 1 -24 -245 )">
    <path d="M 30.367346938775512 6.395833333333332  C 30.853941576630657 6.604166666666668  31.23169267707083 6.902777777777775  31.500600240096038 7.291666666666668  C 32.01280512204882 8.083333333333332  32.128051220488196 8.979166666666668  31.846338535414166 9.979166666666668  L 26.56422569027611 28.854166666666668  C 26.320928371348543 29.743055555555557  25.831132452981194 30.489583333333332  25.09483793517407 31.09375  C 24.35854341736695 31.697916666666668  23.574229691876752 32  22.741896758703483 32  L 5.013205282112845 32  C 4.0272108843537415 32  3.076430572228892 31.628472222222225  2.1608643457382954 30.885416666666668  C 1.2452981192476993 30.14236111111111  0.6082432973189277 29.229166666666668  0.24969987995198079 28.145833333333332  C -0.057623049219687875 27.215277777777775  -0.07042817126850741 26.333333333333332  0.2112845138055222 25.5  C 0.2112845138055222 25.444444444444443  0.2304921968787515 25.256944444444443  0.2689075630252101 24.9375  C 0.30732292917166865 24.618055555555554  0.33293317326930777 24.36111111111111  0.3457382953181273 24.166666666666668  C 0.3585434173669468 24.055555555555557  0.3393357342937175 23.90625  0.28811524609843936 23.71875  C 0.23689475790316128 23.53125  0.217687074829932 23.395833333333336  0.2304921968787515 23.3125  C 0.25610244097639057 23.15972222222222  0.30732292917166865 23.013888888888886  0.38415366146458585 22.875  C 0.460984393757503 22.736111111111107  0.5666266506602641 22.572916666666664  0.7010804321728692 22.385416666666664  C 0.8355342136854742 22.197916666666664  0.9411764705882353 22.03472222222222  1.0180072028811524 21.895833333333336  C 1.3125250100040018 21.36805555555555  1.600640256102441 20.732638888888886  1.8823529411764706 19.989583333333336  C 2.1640656262505003 19.24652777777778  2.356142456982793 18.611111111111107  2.458583433373349 18.083333333333336  C 2.4969987995198077 17.944444444444443  2.500200080032013 17.736111111111107  2.468187274909964 17.458333333333336  C 2.4361744697879155 17.180555555555557  2.4329731892757103 16.986111111111107  2.458583433373349 16.875  C 2.4969987995198077 16.72222222222222  2.6058423369347743 16.52777777777778  2.7851140456182475 16.291666666666664  C 2.9643857543017207 16.055555555555557  3.073229291716687 15.895833333333332  3.1116446578631454 15.8125  C 3.3805522208883554 15.3125  3.6494597839135654 14.67361111111111  3.9183673469387754 13.895833333333332  C 4.187274909963985 13.118055555555554  4.34733893557423 12.493055555555554  4.398559423769508 12.020833333333332  C 4.411364545818327 11.895833333333332  4.395358143257303 11.67361111111111  4.350540216086435 11.354166666666668  C 4.305722288915566 11.034722222222221  4.308923569427772 10.840277777777775  4.3601440576230495 10.770833333333332  C 4.411364545818327 10.590277777777775  4.552220888355342 10.378472222222218  4.782713085234094 10.135416666666668  C 5.013205282112845 9.89236111111111  5.15406162464986 9.73611111111111  5.205282112845138 9.666666666666668  C 5.44857943177271 9.305555555555554  5.720688275310125 8.71875  6.021608643457383 7.90625  C 6.322529011604642 7.09375  6.498599439775911 6.423611111111111  6.549819927971188 5.895833333333332  C 6.562625050020008 5.784722222222218  6.5434173669467794 5.607638888888886  6.492196878751501 5.364583333333332  C 6.440976390556223 5.121527777777775  6.428171268507404 4.9375  6.453781512605042 4.8125  C 6.4793917567026815 4.701388888888886  6.53701480592237 4.576388888888886  6.626650660264105 4.4375  C 6.716286514605843 4.298611111111111  6.831532613045218 4.138888888888886  6.9723889555822325 3.958333333333332  C 7.113245298119248 3.777777777777775  7.222088835534214 3.631944444444443  7.298919567827131 3.520833333333332  C 7.401360544217688 3.354166666666668  7.507002801120449 3.1423611111111107  7.615846338535414 2.885416666666668  C 7.72468987595038 2.628472222222218  7.820728291316527 2.385416666666668  7.903961584633853 2.15625  C 7.987194877951181 1.9270833333333321  8.089635854341738 1.6770833333333321  8.211284513805522 1.40625  C 8.332933173269309 1.1354166666666679  8.457783113245299 0.9131944444444429  8.585834333733493 0.7395833333333321  C 8.71388555422169 0.5659722222222179  8.883553421368548 0.402777777777775  9.09483793517407 0.25  C 9.306122448979593 0.09722222222221788  9.536614645858345 0.017361111111110716  9.786314525810324 0.010416666666667851  C 10.036014405762305 0.00347222222221788  10.34013605442177 0.04166666666666785  10.698679471788715 0.125  L 10.679471788715487 0.1875  C 11.166066426570628 0.0625  11.492597038815527 0  11.65906362545018 0  L 26.27611044417767 0  C 27.22368947579032 0  27.95358143257303 0.38888888888888573  28.46578631452581 1.1666666666666679  C 28.977991196478595 1.9444444444444429  29.09323729491797 2.847222222222218  28.81152460984394 3.875  L 23.54861944777911 22.75  C 23.087635054021607 24.402777777777775  22.629851940776312 25.46875  22.175270108043218 25.947916666666668  C 21.720688275310128 26.427083333333332  20.897959183673468 26.666666666666668  19.707082833133253 26.666666666666668  L 3.015606242496999 26.666666666666668  C 2.6698679471788718 26.666666666666668  2.4265706282513007 26.770833333333332  2.2857142857142856 26.979166666666668  C 2.144857943177271 27.20138888888889  2.1384553821528614 27.5  2.2665066026410563 27.875  C 2.573829531812725 28.847222222222225  3.495798319327731 29.333333333333332  5.032412965186074 29  L 22.76110444177671 29  C 23.13245298119248 29.333333333333332  23.490996398559425 29.225694444444443  23.836734693877553 29.010416666666668  C 24.182472989195677 28.79513888888889  24.40656262505002 28.506944444444443  24.509003601440575 28.145833333333332  L 30.271308523409363 7.583333333333332  C 30.360944377751103 7.277777777777775  30.39295718287315 6.881944444444443  30.367346938775512 6.395833333333332  Z M 11.466986794717887 6  L 11.063625450180073 7.333333333333332  C 11.012404961984794 7.513888888888886  11.025210084033613 7.670138888888886  11.10204081632653 7.802083333333332  C 11.178871548619448 7.934027777777775  11.306922769107645 8  11.486194477791116 8  L 23.164465786314526 8  C 23.33093237294918 8  23.49419767907163 7.934027777777775  23.654261704681872 7.802083333333332  C 23.81432573029212 7.670138888888886  23.91996798719488 7.513888888888886  23.971188475390157 7.333333333333332  L 24.37454981992797 6  C 24.42577030812325 5.819444444444443  24.41296518607443 5.663194444444443  24.33613445378151 5.53125  C 24.259303721488596 5.399305555555554  24.131252501000404 5.333333333333332  23.951980792316927 5.333333333333332  L 12.273709483793517 5.333333333333332  C 12.107242897158864 5.333333333333332  11.943977591036415 5.399305555555554  11.78391356542617 5.53125  C 11.623849539815927 5.663194444444443  11.518207282913167 5.819444444444443  11.466986794717887 6  Z M 9.872749099639856 11.333333333333332  L 9.46938775510204 12.666666666666668  C 9.418167266906764 12.847222222222221  9.430972388955583 13.003472222222221  9.5078031212485 13.135416666666668  C 9.584633853541417 13.26736111111111  9.712685074029611 13.333333333333332  9.891956782713086 13.333333333333332  L 21.570228091236494 13.333333333333332  C 21.73669467787115 13.333333333333332  21.8999599839936 13.26736111111111  22.06002400960384 13.135416666666668  C 22.22008803521409 13.003472222222221  22.325730292116848 12.847222222222221  22.376950780312125 12.666666666666668  L 22.78031212484994 11.333333333333332  C 22.83153261304522 11.152777777777775  22.818727490996398 10.996527777777775  22.741896758703483 10.864583333333332  C 22.665066026410564 10.73263888888889  22.53701480592237 10.666666666666668  22.357743097238895 11  L 10.679471788715487 11  C 10.513005202080834 10.666666666666668  10.349739895958384 10.73263888888889  10.18967587034814 10.864583333333332  C 10.029611844737897 10.996527777777775  9.923969587835135 11.152777777777775  9.872749099639856 11.333333333333332  Z " fill-rule="nonzero" fill="#ffffff" stroke="none" transform="matrix(1 0 0 1 24 245 )" />
  </g>
</svg>