<svg t="1725960971312" class="icon" viewBox="0 0 1024 1024" version="1.1" xmlns="http://www.w3.org/2000/svg" p-id="10911" width="16" height="16"><path d="M783.70558 287.073204 657.810223 161.183006l62.973774-62.946634c20.866068-20.837584 54.651907-20.837584 75.516952 0l50.351798 50.350758c20.866068 20.865213 20.866068 54.702879 0 75.56707L783.70558 287.073204zM417.966076 652.797723 292.069696 526.907525l342.253664-339.564719 125.894333 125.891222L417.966076 652.797723zM190.931177 756.041132l76.597607-204.593701 124.841308 124.864846L190.931177 756.041132zM756.299293 799.066041c17.622055 0 31.891621 14.270005 31.891621 31.892361 0 17.594727-14.269566 31.864732-31.891621 31.864732L192.418102 862.823134c-17.595448 0-31.866037-14.268982-31.866037-31.864732 0-17.622356 14.27059-31.892361 31.866037-31.892361L756.299293 799.066041z" fill="#2c2c2c" p-id="10912"></path></svg>