<?xml version="1.0" encoding="utf-8"?>
<svg version="1.1" xmlns:xlink="http://www.w3.org/1999/xlink" width="32px" height="32px" xmlns="http://www.w3.org/2000/svg">
  <g transform="matrix(1 0 0 1 -1856 -16 )">
    <path d="M 22.357142857142858 28.151785714285715  C 24.321428571428573 27.11011904761905  25.934523809523814 25.69642857142857  27.196428571428573 23.910714285714285  C 26.934523809523814 22.06547619047619  26.413690476190478 20.532738095238095  25.633928571428573 19.3125  C 24.854166666666668 18.092261904761905  23.755952380952383 17.38690476190476  22.339285714285715 17.19642857142857  C 21.541666666666668 18.07738095238095  20.592261904761905 18.76488095238095  19.491071428571427 19.25892857142857  C 18.389880952380956 19.75297619047619  17.226190476190478 20  16 20  C 14.773809523809524 20  13.61011904761905 19.75297619047619  12.508928571428571 19.25892857142857  C 11.407738095238097 18.76488095238095  10.458333333333334 18.07738095238095  9.660714285714286 17.19642857142857  C 8.244047619047619 17.38690476190476  7.145833333333334 18.092261904761905  6.366071428571429 19.3125  C 5.586309523809525 20.532738095238095  5.065476190476191 22.06547619047619  4.803571428571429 23.910714285714285  C 6.065476190476191 25.69642857142857  7.678571428571429 27.11011904761905  9.642857142857142 28.151785714285715  C 11.607142857142858 29.19345238095238  13.726190476190478 29.714285714285715  16 29.714285714285715  C 18.273809523809526 29.714285714285715  20.392857142857142 29.19345238095238  22.357142857142858 28.151785714285715  Z M 20.848214285714285 16.276785714285715  C 22.1875 14.9375  22.857142857142858 13.321428571428573  22.857142857142858 11.428571428571427  C 22.857142857142858 9.535714285714285  22.1875 7.919642857142858  20.848214285714285 6.580357142857142  C 19.508928571428573 5.241071428571427  17.892857142857142 4.571428571428573  16 4.571428571428573  C 14.107142857142858 4.571428571428573  12.491071428571429 5.241071428571427  11.151785714285714 6.580357142857142  C 9.8125 7.919642857142858  9.142857142857142 9.535714285714285  9.142857142857142 11.428571428571427  C 9.142857142857142 13.321428571428573  9.8125 14.9375  11.151785714285714 16.276785714285715  C 12.491071428571429 17.61607142857143  14.107142857142858 18.285714285714285  16 18.285714285714285  C 17.892857142857142 18.285714285714285  19.508928571428573 17.61607142857143  20.848214285714285 16.276785714285715  Z M 30.732142857142858 9.785714285714285  C 31.577380952380956 11.76190476190476  32 13.833333333333332  32 16  C 32 18.166666666666664  31.577380952380956 20.235119047619044  30.732142857142858 22.205357142857142  C 29.886904761904766 24.175595238095237  28.752976190476197 25.87797619047619  27.330357142857142 27.3125  C 25.9077380952381 28.747023809523807  24.208333333333336 29.886904761904763  22.232142857142858 30.732142857142858  C 20.255952380952383 31.577380952380953  18.178571428571427 32  16 32  C 13.833333333333334 32  11.761904761904763 31.577380952380953  9.785714285714286 30.732142857142858  C 7.80952380952381 29.886904761904763  6.107142857142857 28.75  4.678571428571429 27.32142857142857  C 3.25 25.892857142857142  2.113095238095238 24.19047619047619  1.2678571428571428 22.214285714285715  C 0.42261904761904756 20.238095238095237  0 18.166666666666664  0 16  C 0 13.833333333333332  0.42261904761904756 11.76190476190476  1.2678571428571428 9.785714285714285  C 2.113095238095238 7.809523809523807  3.25 6.107142857142858  4.678571428571429 4.678571428571427  C 6.107142857142857 3.25  7.80952380952381 2.1130952380952372  9.785714285714286 1.2678571428571423  C 11.761904761904763 0.42261904761904745  13.833333333333334 0  16 0  C 18.166666666666668 0  20.23809523809524 0.42261904761904745  22.214285714285715 1.2678571428571423  C 24.190476190476193 2.1130952380952372  25.892857142857142 3.25  27.321428571428573 4.678571428571427  C 28.750000000000004 6.107142857142858  29.886904761904766 7.809523809523807  30.732142857142858 9.785714285714285  Z " fill-rule="nonzero" fill="#555555" stroke="none" transform="matrix(1 0 0 1 1856 16 )" />
  </g>
</svg>