<svg t="1724042093014" class="icon" viewBox="0 0 1024 1024" version="1.1" xmlns="http://www.w3.org/2000/svg" p-id="22207" width="128" height="128"><path d="M155.794286 143.579429a352.621714 352.621714 0 0 1 352.109714 352.109714 256.146286 256.146286 0 0 0 255.853714 256.512h36.278857l-37.010285-37.010286a48.64 48.64 0 0 1 68.754285-68.754286l118.198858 116.589715a48.274286 48.274286 0 0 1 0 68.754285L832.512 949.394286a47.542857 47.542857 0 0 1-34.377143 14.116571 48.201143 48.201143 0 0 1-34.377143-82.212571l34.377143-33.353143h-34.377143a352.621714 352.621714 0 0 1-352.182857-352.182857A256.146286 256.146286 0 0 0 155.794286 239.908571H48.274286a48.128 48.128 0 0 1 0-96.329142zM366.592 682.496a48.128 48.128 0 0 1 36.132571 7.460571 48.128 48.128 0 0 1 13.458286 67.291429 351.597714 351.597714 0 0 1-292.425143 154.770286H48.347429a48.201143 48.201143 0 0 1 0-96.329143h75.337142c85.065143 0 164.571429-42.276571 212.114286-112.859429a48.128 48.128 0 0 1 30.72-20.333714z m-55.003429-232.886857a48.128 48.128 0 0 1 0 96.329143H48.274286a48.128 48.128 0 1 1 0-96.329143zM784.822857 1.682286a48.64 48.64 0 0 1 47.030857 12.580571l118.125715 116.809143a48.274286 48.274286 0 0 1 0 68.754286L832.512 317.147429a47.542857 47.542857 0 0 1-34.377143 14.116571 48.128 48.128 0 0 1-34.377143-82.212571l41.252572-41.252572h-5.851429A256.146286 256.146286 0 0 0 588.288 318.902857a48.713143 48.713143 0 0 1-67.072 12.434286 48.274286 48.274286 0 0 1-13.165714-66.267429 352.621714 352.621714 0 0 1 284.379428-152.795428l-29.403428-29.257143a48.64 48.64 0 0 1 21.796571-81.334857z" fill="#515151" p-id="22208"></path></svg>