<?xml version="1.0" encoding="utf-8"?>
<svg version="1.1" xmlns:xlink="http://www.w3.org/1999/xlink" width="32px" height="26px" xmlns="http://www.w3.org/2000/svg">
  <g transform="matrix(1 0 0 1 -24 -31 )">
    <path d="M 6.1875 18.21661931818182  C 6.633928571428571 17.75497159090909  6.857142857142857 17.197916666666664  6.857142857142857 16.545454545454547  C 6.857142857142857 15.89299242424242  6.633928571428571 15.3359375  6.1875 14.874289772727272  C 5.741071428571429 14.412642045454545  5.202380952380953 14.18181818181818  4.571428571428571 14.18181818181818  C 3.9404761904761907 14.18181818181818  3.4017857142857144 14.412642045454545  2.955357142857143 14.874289772727272  C 2.5089285714285716 15.3359375  2.2857142857142856 15.89299242424242  2.2857142857142856 16.545454545454547  C 2.2857142857142856 17.197916666666664  2.5089285714285716 17.75497159090909  2.955357142857143 18.21661931818182  C 3.4017857142857144 18.678267045454547  3.9404761904761907 18.90909090909091  4.571428571428571 18.90909090909091  C 5.202380952380953 18.90909090909091  5.741071428571429 18.678267045454547  6.1875 18.21661931818182  Z M 9.616071428571429 9.943892045454545  C 10.0625 9.48224431818182  10.285714285714286 8.925189393939394  10.285714285714286 8.272727272727273  C 10.285714285714286 7.620265151515149  10.0625 7.063210227272726  9.616071428571429 6.6015625  C 9.169642857142858 6.139914772727274  8.630952380952381 5.90909090909091  8 5.90909090909091  C 7.3690476190476195 5.90909090909091  6.830357142857143 6.139914772727274  6.383928571428571 6.6015625  C 5.9375 7.063210227272726  5.714285714285714 7.620265151515149  5.714285714285714 8.272727272727273  C 5.714285714285714 8.925189393939394  5.9375 9.48224431818182  6.383928571428571 9.943892045454545  C 6.830357142857143 10.405539772727273  7.3690476190476195 10.636363636363635  8 10.636363636363635  C 8.630952380952381 10.636363636363635  9.169642857142858 10.405539772727273  9.616071428571429 9.943892045454545  Z M 19.214285714285715 18.83522727272727  C 18.952380952380956 18.13352272727273  18.523809523809526 17.57339015151515  17.928571428571427 17.154829545454547  L 19.732142857142858 10.100852272727273  C 19.803571428571427 9.780776515151514  19.758928571428573 9.48224431818182  19.598214285714285 9.20525568181818  C 19.4375 8.928267045454543  19.208333333333336 8.746685606060604  18.910714285714285 8.660511363636365  C 18.61309523809524 8.57433712121212  18.327380952380956 8.61434659090909  18.053571428571427 8.780539772727273  C 17.779761904761905 8.946732954545455  17.601190476190478 9.189867424242422  17.517857142857142 9.50994318181818  L 15.714285714285714 16.563920454545453  C 15 16.625473484848484  14.363095238095239 16.893229166666664  13.803571428571429 17.3671875  C 13.24404761904762 17.84114583333333  12.86904761904762 18.44744318181818  12.678571428571429 19.186079545454547  C 12.440476190476192 20.13399621212121  12.55952380952381 21.032670454545453  13.035714285714286 21.88210227272727  C 13.511904761904763 22.73153409090909  14.208333333333334 23.279356060606062  15.125 23.52556818181818  C 16.041666666666668 23.771780303030305  16.91071428571429 23.648674242424246  17.732142857142858 23.15625  C 18.553571428571427 22.663825757575754  19.083333333333336 21.943655303030305  19.321428571428573 20.995738636363637  C 19.511904761904763 20.25710227272727  19.476190476190478 19.53693181818182  19.214285714285715 18.83522727272727  Z M 29.044642857142858 18.21661931818182  C 29.491071428571427 17.75497159090909  29.714285714285715 17.197916666666664  29.714285714285715 16.545454545454547  C 29.714285714285715 15.89299242424242  29.491071428571427 15.3359375  29.044642857142858 14.874289772727272  C 28.598214285714285 14.412642045454545  28.059523809523814 14.18181818181818  27.428571428571427 14.18181818181818  C 26.797619047619047 14.18181818181818  26.258928571428573 14.412642045454545  25.8125 14.874289772727272  C 25.366071428571427 15.3359375  25.142857142857142 15.89299242424242  25.142857142857142 16.545454545454547  C 25.142857142857142 17.197916666666664  25.366071428571427 17.75497159090909  25.8125 18.21661931818182  C 26.258928571428573 18.678267045454547  26.797619047619047 18.90909090909091  27.428571428571427 18.90909090909091  C 28.059523809523814 18.90909090909091  28.598214285714285 18.678267045454547  29.044642857142858 18.21661931818182  Z M 17.616071428571427 6.3984375  C 18.0625 5.936789772727274  18.285714285714285 5.379734848484849  18.285714285714285 4.727272727272726  C 18.285714285714285 4.074810606060604  18.0625 3.5177556818181808  17.616071428571427 3.056107954545455  C 17.169642857142858 2.5944602272727257  16.630952380952383 2.363636363636364  16 2.363636363636364  C 15.36904761904762 2.363636363636364  14.830357142857144 2.5944602272727257  14.383928571428571 3.056107954545455  C 13.9375 3.5177556818181808  13.714285714285714 4.074810606060604  13.714285714285714 4.727272727272726  C 13.714285714285714 5.379734848484849  13.9375 5.936789772727274  14.383928571428571 6.3984375  C 14.830357142857144 6.860085227272726  15.36904761904762 7.09090909090909  16 7.09090909090909  C 16.630952380952383 7.09090909090909  17.169642857142858 6.860085227272726  17.616071428571427 6.3984375  Z M 25.616071428571427 9.943892045454545  C 26.0625 9.48224431818182  26.285714285714285 8.925189393939394  26.285714285714285 8.272727272727273  C 26.285714285714285 7.620265151515149  26.0625 7.063210227272726  25.616071428571427 6.6015625  C 25.169642857142858 6.139914772727274  24.630952380952383 5.90909090909091  24 5.90909090909091  C 23.36904761904762 5.90909090909091  22.830357142857142 6.139914772727274  22.383928571428573 6.6015625  C 21.9375 7.063210227272726  21.714285714285715 7.620265151515149  21.714285714285715 8.272727272727273  C 21.714285714285715 8.925189393939394  21.9375 9.48224431818182  22.383928571428573 9.943892045454545  C 22.830357142857142 10.405539772727273  23.36904761904762 10.636363636363635  24 10.636363636363635  C 24.630952380952383 10.636363636363635  25.169642857142858 10.405539772727273  25.616071428571427 9.943892045454545  Z M 30.732142857142858 10.11931818181818  C 31.577380952380956 12.162878787878787  32 14.304924242424242  32 16.545454545454547  C 32 19.75852272727273  31.160714285714285 22.73153409090909  29.482142857142858 25.464488636363637  C 29.255952380952383 25.82149621212121  28.934523809523814 26  28.517857142857142 26  L 3.482142857142857 26  C 3.0654761904761907 26  2.7440476190476195 25.82149621212121  2.517857142857143 25.464488636363637  C 0.8392857142857143 22.743844696969695  0 19.770833333333336  0 16.545454545454547  C 0 14.304924242424242  0.42261904761904756 12.162878787878787  1.2678571428571428 10.11931818181818  C 2.113095238095238 8.075757575757574  3.25 6.31534090909091  4.678571428571429 4.838068181818181  C 6.107142857142857 3.360795454545455  7.80952380952381 2.1851325757575744  9.785714285714286 1.3110795454545452  C 11.761904761904763 0.43702651515151314  13.833333333333334 0  16 0  C 18.166666666666668 0  20.23809523809524 0.43702651515151314  22.214285714285715 1.3110795454545452  C 24.190476190476193 2.1851325757575744  25.892857142857142 3.360795454545455  27.321428571428573 4.838068181818181  C 28.750000000000004 6.31534090909091  29.886904761904766 8.075757575757574  30.732142857142858 10.11931818181818  Z " fill-rule="nonzero" fill="#ffffff" stroke="none" transform="matrix(1 0 0 1 24 31 )" />
  </g>
</svg>