<svg t="1726153200537" class="icon" viewBox="0 0 1024 1024" version="1.1" xmlns="http://www.w3.org/2000/svg" p-id="16382" width="32" height="32"><path d="M120.470588 286.117647v451.764706L512 963.764706l391.529412-225.882353v-451.764706L512 60.235294 120.470588 286.117647z m813.176471-52.163765A60.235294 60.235294 0 0 1 963.764706 286.117647v451.764706a60.235294 60.235294 0 0 1-30.117647 52.163765l-391.529412 225.882353a60.235294 60.235294 0 0 1-60.235294 0l-391.529412-225.882353A60.235294 60.235294 0 0 1 60.235294 737.882353v-451.764706a60.235294 60.235294 0 0 1 30.117647-52.163765l391.529412-225.882353a60.235294 60.235294 0 0 1 60.235294 0l391.529412 225.882353zM512 722.823529a210.823529 210.823529 0 1 1 0-421.647058 210.823529 210.823529 0 0 1 0 421.647058z m0-60.235294a150.588235 150.588235 0 1 0 0-301.17647 150.588235 150.588235 0 0 0 0 301.17647z" fill="#2c2c2c" p-id="16383"></path></svg>