<svg t="1733221481212" class="icon" viewBox="0 0 1024 1024" version="1.1" xmlns="http://www.w3.org/2000/svg" p-id="38236" width="24" height="24"><path d="M512 64C264.6 64 64 264.6 64 512s200.6 448 448 448 448-200.6 448-448S759.4 64 512 64z m271.5 719.5c-35.3 35.3-76.4 63-122.1 82.3-47.3 20-97.6 30.2-149.5 30.2s-102.2-10.1-149.5-30.2c-45.7-19.3-86.8-47-122.1-82.3s-63-76.4-82.3-122.1c-20-47.3-30.2-97.6-30.2-149.5s10.1-102.2 30.2-149.5c19.3-45.7 47-86.8 82.3-122.1s76.4-63 122.1-82.3c47.3-20 97.6-30.2 149.5-30.2s102.2 10.1 149.5 30.2c45.7 19.3 86.8 47 122.1 82.3s63 76.4 82.3 122.1c20 47.3 30.2 97.6 30.2 149.5s-10.1 102.2-30.2 149.5c-19.3 45.8-47 86.8-82.3 122.1z" fill="#d81e06" p-id="38237"></path><path d="M512 191.8c-176.9 0-320.2 143.4-320.2 320.2S335.1 832.2 512 832.2 832.2 688.9 832.2 512 688.9 191.8 512 191.8zM768.2 512c0 34.6-6.8 68.2-20.1 99.7-12.9 30.5-31.4 57.9-54.9 81.5-23.6 23.6-51 42-81.5 54.9-31.5 13.3-65.1 20.1-99.7 20.1s-68.2-6.8-99.7-20.1c-30.5-12.9-57.9-31.4-81.5-54.9-23.6-23.6-42-51-54.9-81.5-13.3-31.5-20.1-65.1-20.1-99.7s6.8-68.2 20.1-99.7c12.9-30.5 31.4-57.9 54.9-81.5 23.6-23.6 51-42 81.5-54.9 31.5-13.3 65.1-20.1 99.7-20.1s68.2 6.8 99.7 20.1c30.5 12.9 57.9 31.4 81.5 54.9 23.6 23.6 42 51 54.9 81.5 13.4 31.5 20.1 65.1 20.1 99.7z" fill="#d81e06" p-id="38238"></path><path d="M512 513.7m-192 0a192 192 0 1 0 384 0 192 192 0 1 0-384 0Z" fill="#d81e06" p-id="38239"></path></svg>