<?xml version="1.0" encoding="utf-8"?>
<svg version="1.1" xmlns:xlink="http://www.w3.org/1999/xlink" width="32px" height="32px" xmlns="http://www.w3.org/2000/svg">
  <g transform="matrix(1 0 0 1 -24 -189 )">
    <path d="M 31.7875 23.135416666666664  C 31.929166666666667 24.184027777777775  32 25.29861111111111  32 26.479166666666668  C 32 27.993055555555557  31.479166666666668 29.291666666666668  30.4375 30.375  C 29.395833333333336 31.458333333333332  28.14166666666667 32  26.675 32  L 5.325 32  C 3.8583333333333334 32  2.604166666666667 31.458333333333332  1.5625000000000002 30.375  C 0.5208333333333335 29.291666666666668  0 27.993055555555557  0 26.479166666666668  C 0 25.29861111111111  0.0708333333333335 24.184027777777775  0.2125000000000002 23.135416666666664  C 0.35416666666666685 22.08680555555555  0.6166666666666668 21.03125  1.0000000000000002 19.96875  C 1.3833333333333337 18.90625  1.8708333333333336 17.99652777777778  2.4625 17.239583333333336  C 3.054166666666667 16.482638888888886  3.8375 15.864583333333332  4.8125 15.385416666666668  C 5.7875 14.90625  6.908333333333334 14.666666666666668  8.175 14.666666666666668  C 10.358333333333334 16.444444444444443  12.966666666666669 17.333333333333336  16 17.333333333333336  C 19.03333333333334 17.333333333333336  21.64166666666667 16.444444444444443  23.825 14.666666666666668  C 25.09166666666667 14.666666666666668  26.2125 14.90625  27.1875 15.385416666666668  C 28.1625 15.864583333333332  28.945833333333336 16.482638888888886  29.5375 17.239583333333336  C 30.12916666666667 17.99652777777778  30.616666666666667 18.90625  31 19.96875  C 31.383333333333336 21.03125  31.645833333333336 22.08680555555555  31.7875 23.135416666666664  Z M 22.7875 2.34375  C 24.6625 3.90625  25.6 5.791666666666668  25.6 8  C 25.6 10.208333333333332  24.6625 12.09375  22.7875 13.65625  C 20.9125 15.21875  18.65 16  16 16  C 13.35 16  11.0875 15.21875  9.2125 13.65625  C 7.3375 12.09375  6.4 10.208333333333332  6.4 8  C 6.4 5.791666666666668  7.3375 3.90625  9.2125 2.34375  C 11.0875 0.78125  13.35 0  16 0  C 18.65 0  20.9125 0.78125  22.7875 2.34375  Z " fill-rule="nonzero" fill="#d7d7d7" stroke="none" transform="matrix(1 0 0 1 24 189 )" />
  </g>
</svg>