<?xml version="1.0" encoding="utf-8"?>
<svg version="1.1" xmlns:xlink="http://www.w3.org/1999/xlink" width="32px" height="28px" xmlns="http://www.w3.org/2000/svg">
  <g transform="matrix(1 0 0 1 -24 -81 )">
    <path d="M 4.401785714285714 23.098011363636363  C 4.5148809523809526 23.223958333333332  4.571428571428571 23.37310606060606  4.571428571428571 23.545454545454547  L 4.571428571428571 27.363636363636363  C 4.571428571428571 27.53598484848485  4.5148809523809526 27.685132575757578  4.401785714285714 27.811079545454547  C 4.288690476190476 27.937026515151512  4.154761904761905 28  4 28  L 0.5714285714285714 28  C 0.4166666666666667 28  0.28273809523809523 27.937026515151512  0.16964285714285715 27.811079545454547  C 0.05654761904761905 27.685132575757578  0 27.53598484848485  0 27.363636363636363  L 0 23.545454545454547  C 0 23.37310606060606  0.05654761904761905 23.223958333333332  0.16964285714285715 23.098011363636363  C 0.28273809523809523 22.972064393939398  0.4166666666666667 22.909090909090907  0.5714285714285714 22.909090909090907  L 4 22.909090909090907  C 4.154761904761905 22.909090909090907  4.288690476190476 22.972064393939398  4.401785714285714 23.098011363636363  Z M 4.401785714285714 15.461647727272728  C 4.5148809523809526 15.587594696969695  4.571428571428571 15.736742424242424  4.571428571428571 15.909090909090907  L 4.571428571428571 19.727272727272727  C 4.571428571428571 19.899621212121207  4.5148809523809526 20.048768939393934  4.401785714285714 20.174715909090907  C 4.288690476190476 20.300662878787882  4.154761904761905 20.363636363636363  4 20.363636363636363  L 0.5714285714285714 20.363636363636363  C 0.4166666666666667 20.363636363636363  0.28273809523809523 20.300662878787882  0.16964285714285715 20.174715909090907  C 0.05654761904761905 20.048768939393934  0 19.899621212121207  0 19.727272727272727  L 0 15.909090909090907  C 0 15.736742424242424  0.05654761904761905 15.587594696969695  0.16964285714285715 15.461647727272728  C 0.28273809523809523 15.335700757575754  0.4166666666666667 15.272727272727272  0.5714285714285714 15.272727272727272  L 4 15.272727272727272  C 4.154761904761905 15.272727272727272  4.288690476190476 15.335700757575754  4.401785714285714 15.461647727272728  Z M 4.401785714285714 7.82528409090909  C 4.5148809523809526 7.95123106060606  4.571428571428571 8.100378787878785  4.571428571428571 8.272727272727272  L 4.571428571428571 12.09090909090909  C 4.571428571428571 12.263257575757576  4.5148809523809526 12.412405303030301  4.401785714285714 12.538352272727272  C 4.288690476190476 12.664299242424242  4.154761904761905 12.727272727272728  4 12.727272727272728  L 0.5714285714285714 12.727272727272728  C 0.4166666666666667 12.727272727272728  0.28273809523809523 12.664299242424242  0.16964285714285715 12.538352272727272  C 0.05654761904761905 12.412405303030301  0 12.263257575757576  0 12.09090909090909  L 0 8.272727272727272  C 0 8.100378787878785  0.05654761904761905 7.95123106060606  0.16964285714285715 7.82528409090909  C 0.28273809523809523 7.699337121212119  0.4166666666666667 7.636363636363636  0.5714285714285714 7.636363636363636  L 4 7.636363636363636  C 4.154761904761905 7.636363636363636  4.288690476190476 7.699337121212119  4.401785714285714 7.82528409090909  Z M 31.830357142857142 23.098011363636363  C 31.943452380952383 23.223958333333332  32 23.37310606060606  32 23.545454545454547  L 32 27.363636363636363  C 32 27.53598484848485  31.943452380952383 27.685132575757578  31.830357142857142 27.811079545454547  C 31.71726190476191 27.937026515151512  31.58333333333334 28  31.428571428571427 28  L 7.428571428571429 28  C 7.273809523809525 28  7.139880952380953 27.937026515151512  7.026785714285714 27.811079545454547  C 6.913690476190475 27.685132575757578  6.857142857142857 27.53598484848485  6.857142857142857 27.363636363636363  L 6.857142857142857 23.545454545454547  C 6.857142857142857 23.37310606060606  6.913690476190475 23.223958333333332  7.026785714285714 23.098011363636363  C 7.139880952380953 22.972064393939398  7.273809523809525 22.909090909090907  7.428571428571429 23  L 31.428571428571427 23  C 31.58333333333334 22.909090909090907  31.71726190476191 22.972064393939398  31.830357142857142 23.098011363636363  Z M 4.401785714285714 0.1889204545454537  C 4.5148809523809526 0.31486742424242387  4.571428571428571 0.46401515151514916  4.571428571428571 0.6363636363636358  L 4.571428571428571 4.454545454545453  C 4.571428571428571 4.626893939393938  4.5148809523809526 4.7760416666666625  4.401785714285714 4.901988636363636  C 4.288690476190476 5.0279356060606055  4.154761904761905 5.09090909090909  4 5.09090909090909  L 0.5714285714285714 5.09090909090909  C 0.4166666666666667 5.09090909090909  0.28273809523809523 5.0279356060606055  0.16964285714285715 4.901988636363636  C 0.05654761904761905 4.7760416666666625  0 4.626893939393938  0 4.454545454545453  L 0 0.6363636363636358  C 0 0.46401515151514916  0.05654761904761905 0.31486742424242387  0.16964285714285715 0.1889204545454537  C 0.28273809523809523 0.06297348484848042  0.4166666666666667 0  0.5714285714285714 0  L 4 0  C 4.154761904761905 0  4.288690476190476 0.06297348484848042  4.401785714285714 0.1889204545454537  Z M 31.830357142857142 15.461647727272728  C 31.943452380952383 15.587594696969695  32 15.736742424242424  32 15.909090909090907  L 32 19.727272727272727  C 32 19.899621212121207  31.943452380952383 20.048768939393934  31.830357142857142 20.174715909090907  C 31.71726190476191 20.300662878787882  31.58333333333334 20.363636363636363  31.428571428571427 20  L 7.428571428571429 20  C 7.273809523809525 20.363636363636363  7.139880952380953 20.300662878787882  7.026785714285714 20.174715909090907  C 6.913690476190475 20.048768939393934  6.857142857142857 19.899621212121207  6.857142857142857 19.727272727272727  L 6.857142857142857 15.909090909090907  C 6.857142857142857 15.736742424242424  6.913690476190475 15.587594696969695  7.026785714285714 15.461647727272728  C 7.139880952380953 15.335700757575754  7.273809523809525 15.272727272727272  7.428571428571429 15  L 31.428571428571427 15  C 31.58333333333334 15.272727272727272  31.71726190476191 15.335700757575754  31.830357142857142 15.461647727272728  Z M 31.830357142857142 7.82528409090909  C 31.943452380952383 7.95123106060606  32 8.100378787878785  32 8.272727272727272  L 32 12.09090909090909  C 32 12.263257575757576  31.943452380952383 12.412405303030301  31.830357142857142 12.538352272727272  C 31.71726190476191 12.664299242424242  31.58333333333334 12.727272727272728  31.428571428571427 13  L 7.428571428571429 13  C 7.273809523809525 12.727272727272728  7.139880952380953 12.664299242424242  7.026785714285714 12.538352272727272  C 6.913690476190475 12.412405303030301  6.857142857142857 12.263257575757576  6.857142857142857 12.09090909090909  L 6.857142857142857 8.272727272727272  C 6.857142857142857 8.100378787878785  6.913690476190475 7.95123106060606  7.026785714285714 7.82528409090909  C 7.139880952380953 7.699337121212119  7.273809523809525 7.636363636363636  7.428571428571429 8  L 31.428571428571427 8  C 31.58333333333334 7.636363636363636  31.71726190476191 7.699337121212119  31.830357142857142 7.82528409090909  Z M 31.830357142857142 0.1889204545454537  C 31.943452380952383 0.31486742424242387  32 0.46401515151514916  32 0.6363636363636358  L 32 4.454545454545453  C 32 4.626893939393938  31.943452380952383 4.7760416666666625  31.830357142857142 4.901988636363636  C 31.71726190476191 5.0279356060606055  31.58333333333334 5.09090909090909  31.428571428571427 5  L 7.428571428571429 5  C 7.273809523809525 5.09090909090909  7.139880952380953 5.0279356060606055  7.026785714285714 4.901988636363636  C 6.913690476190475 4.7760416666666625  6.857142857142857 4.626893939393938  6.857142857142857 4.454545454545453  L 6.857142857142857 0.6363636363636358  C 6.857142857142857 0.46401515151514916  6.913690476190475 0.31486742424242387  7.026785714285714 0.1889204545454537  C 7.139880952380953 0.06297348484848042  7.273809523809525 0  7.428571428571429 0  L 31.428571428571427 0  C 31.58333333333334 0  31.71726190476191 0.06297348484848042  31.830357142857142 0.1889204545454537  Z " fill-rule="nonzero" fill="#d7d7d7" stroke="none" transform="matrix(1 0 0 1 24 81 )" />
  </g>
</svg>