<?xml version="1.0" encoding="utf-8"?>
<svg version="1.1" xmlns:xlink="http://www.w3.org/1999/xlink" width="32px" height="32px" xmlns="http://www.w3.org/2000/svg">
  <g transform="matrix(1 0 0 1 -24 -133 )">
    <path d="M 8.875 0.07142857142857295  C 8.958333333333334 0.0238095238095255  9.04761904761905 0  9.142857142857142 0  C 9.29761904761905 0  9.43154761904762 0.0565476190476204  9.544642857142858 0.16964285714285765  C 9.657738095238097 0.2827380952380949  9.714285714285714 0.4166666666666643  10 0.571428571428573  L 10 26.857142857142858  C 9.714285714285714 27.095238095238095  9.613095238095239 27.261904761904763  9.410714285714286 27.357142857142858  L 0.8392857142857143 31.928571428571427  C 0.755952380952381 31.976190476190478  0.6666666666666667 32  0.5714285714285714 32  C 0.4166666666666667 32  0.28273809523809523 31.94345238095238  0.16964285714285715 31.830357142857142  C 0.05654761904761905 31.717261904761905  0 31.583333333333336  0 31.428571428571427  L 0 5.142857142857142  C 0 4.9047619047619015  0.10119047619047618 4.738095238095237  0.30357142857142855 4.642857142857142  L 8.875 0.07142857142857295  Z M 31.160714285714285 0.07142857142857295  C 31.244047619047624 0.0238095238095255  31.33333333333334 0  31.428571428571427 0  C 31.58333333333334 0  31.71726190476191 0.0565476190476204  31.830357142857142 0.16964285714285765  C 31.943452380952383 0.2827380952380949  32 0.4166666666666643  32 0.571428571428573  L 32 26.857142857142858  C 32 27.095238095238095  31.898809523809526 27.261904761904763  31.696428571428573 27.357142857142858  L 23.125 31.928571428571427  C 23.041666666666668 31.976190476190478  22.952380952380956 32  22.857142857142858 32  C 22.702380952380956 32  22.568452380952383 31.94345238095238  22.455357142857142 31.830357142857142  C 22.342261904761905 31.717261904761905  22.285714285714285 31.583333333333336  22 31.428571428571427  L 22 5.142857142857142  C 22.285714285714285 4.9047619047619015  22.386904761904763 4.738095238095237  22.589285714285715 4.642857142857142  L 31.160714285714285 0.07142857142857295  Z M 11.026785714285714 0.16964285714285765  C 11.139880952380953 0.0565476190476204  11.273809523809524 0  11.428571428571429 0  C 11.523809523809524 0  11.607142857142858 0.01785714285714235  11.678571428571429 0.05357142857142705  L 20.821428571428573 4.625  C 21.035714285714285 4.744047619047617  21.142857142857142 4.916666666666664  21 5.142857142857142  L 21 31.428571428571427  C 21.142857142857142 31.583333333333336  21.086309523809526 31.717261904761905  20.973214285714285 31.830357142857142  C 20.860119047619047 31.94345238095238  20.726190476190478 32  20.571428571428573 32  C 20.476190476190478 32  20.392857142857142 31.982142857142858  20.321428571428573 31.946428571428573  L 11.178571428571429 27.375  C 10.964285714285714 27.25595238095238  10.857142857142858 27.083333333333336  11 26.857142857142858  L 11 0.571428571428573  C 10.857142857142858 0.4166666666666643  10.913690476190478 0.2827380952380949  11.026785714285714 0.16964285714285765  Z " fill-rule="nonzero" fill="#ffffff" stroke="none" transform="matrix(1 0 0 1 24 133 )" />
  </g>
</svg>